<svg version="1.1" viewBox="0.0 0.0 600.0 371.0" fill="none" stroke="none" stroke-linecap="square" stroke-miterlimit="10" width="600" height="371" xmlns:xlink="http://www.w3.org/1999/xlink" xmlns="http://www.w3.org/2000/svg"><path fill="#ffffff" d="M0 0L600.0 0L600.0 371.0L0 371.0L0 0Z" fill-rule="nonzero"/><path stroke="#333333" stroke-width="1.0" stroke-linecap="butt" d="M77.5 54.5L77.5 300.5" fill-rule="nonzero"/><path stroke="#cccccc" stroke-width="1.0" stroke-linecap="butt" d="M203.5 54.5L203.5 300.5" fill-rule="nonzero"/><path stroke="#cccccc" stroke-width="1.0" stroke-linecap="butt" d="M329.5 54.5L329.5 300.5" fill-rule="nonzero"/><path stroke="#cccccc" stroke-width="1.0" stroke-linecap="butt" d="M455.5 54.5L455.5 300.5" fill-rule="nonzero"/><path stroke="#cccccc" stroke-width="1.0" stroke-linecap="butt" d="M581.5 54.5L581.5 300.5" fill-rule="nonzero"/><clipPath id="id_0"><path d="M77.55 54.916668L581.45 54.916668L581.45 300.45L77.55 300.45L77.55 54.916668Z" clip-rule="nonzero"/></clipPath><path stroke="#000000" stroke-width="2.0" stroke-linecap="butt" stroke-opacity="0.0" clip-path="url(#id_0)" d="M78.0 112.0L78.0 75.0L506.0 75.0C507.10458 75.0 508.0 75.89543 508.0 77.0L508.0 110.0C508.0 111.10457 507.10458 112.0 506.0 112.0Z" fill-rule="nonzero"/><path fill="#4285f4" clip-path="url(#id_0)" d="M78.0 112.0L78.0 75.0L506.0 75.0C507.10458 75.0 508.0 75.89543 508.0 77.0L508.0 110.0C508.0 111.10457 507.10458 112.0 506.0 112.0Z" fill-rule="nonzero"/><path stroke="#000000" stroke-width="2.0" stroke-linecap="butt" stroke-opacity="0.0" clip-path="url(#id_0)" d="M78.0 168.0L78.0 131.0L523.0 131.0C524.10455 131.0 525.0 131.89543 525.0 133.0L525.0 166.0C525.0 167.10457 524.10455 168.0 523.0 168.0Z" fill-rule="nonzero"/><path fill="#4285f4" clip-path="url(#id_0)" d="M78.0 168.0L78.0 131.0L523.0 131.0C524.10455 131.0 525.0 131.89543 525.0 133.0L525.0 166.0C525.0 167.10457 524.10455 168.0 523.0 168.0Z" fill-rule="nonzero"/><path stroke="#000000" stroke-width="2.0" stroke-linecap="butt" stroke-opacity="0.0" clip-path="url(#id_0)" d="M78.0 225.0L78.0 188.0L505.0 188.0C506.10458 188.0 507.0 188.89543 507.0 190.0L507.0 223.0C507.0 224.10457 506.10458 225.0 505.0 225.0Z" fill-rule="nonzero"/><path fill="#4285f4" clip-path="url(#id_0)" d="M78.0 225.0L78.0 188.0L505.0 188.0C506.10458 188.0 507.0 188.89543 507.0 190.0L507.0 223.0C507.0 224.10457 506.10458 225.0 505.0 225.0Z" fill-rule="nonzero"/><path stroke="#000000" stroke-width="2.0" stroke-linecap="butt" stroke-opacity="0.0" clip-path="url(#id_0)" d="M78.0 281.0L78.0 244.0L527.0 244.0C528.10455 244.0 529.0 244.89543 529.0 246.0L529.0 279.0C529.0 280.10458 528.10455 281.0 527.0 281.0Z" fill-rule="nonzero"/><path fill="#4285f4" clip-path="url(#id_0)" d="M78.0 281.0L78.0 244.0L527.0 244.0C528.10455 244.0 529.0 244.89543 529.0 246.0L529.0 279.0C529.0 280.10458 528.10455 281.0 527.0 281.0Z" fill-rule="nonzero"/><path stroke="#4285f4" stroke-width="3.0" stroke-linejoin="round" stroke-linecap="round" d="M458.59018 92.703125L459.40268 92.703125Q460.18393 92.6875 460.62143 92.296875Q461.05893 91.90625 461.05893 91.234375Q461.05893 89.734375 459.55893 89.734375Q458.8558 89.734375 458.43393 90.140625Q458.02768 90.546875 458.02768 91.203125L456.93393 91.203125Q456.93393 90.1875 457.6683 89.515625Q458.4183 88.84375 459.55893 88.84375Q460.76205 88.84375 461.44955 89.484375Q462.13705 90.125 462.13705 91.265625Q462.13705 91.828125 461.77768 92.34375Q461.4183 92.859375 460.7933 93.125Q461.49643 93.34375 461.87143 93.859375Q462.26205 94.375 462.26205 95.125Q462.26205 96.265625 461.51205 96.953125Q460.76205 97.625 459.55893 97.625Q458.37143 97.625 457.6058 96.96875Q456.8558 96.3125 456.8558 95.25L457.94955 95.25Q457.94955 95.921875 458.38705 96.328125Q458.82455 96.734375 459.57455 96.734375Q460.3558 96.734375 460.76205 96.328125Q461.18393 95.90625 461.18393 95.140625Q461.18393 94.40625 460.7308 94.015625Q460.27768 93.609375 459.40268 93.59375L458.59018 93.59375L458.59018 92.703125ZM471.59018 94.640625L472.77768 94.640625L472.77768 95.515625L471.59018 95.515625L471.59018 97.5L470.51205 97.5L470.51205 95.515625L466.62143 95.515625L466.62143 94.875L470.43393 88.96875L471.59018 88.96875L471.59018 94.640625ZM467.8558 94.640625L470.51205 94.640625L470.51205 90.453125L470.37143 90.6875L467.8558 94.640625ZM477.57455 97.5L476.49643 97.5L476.49643 90.28125L474.30893 91.078125L474.30893 90.09375L477.4183 88.921875L477.57455 88.921875L477.57455 97.5ZM486.52768 89.578125L482.99643 97.5L481.8558 97.5L485.37143 89.859375L480.76205 89.859375L480.76205 88.96875L486.52768 88.96875L486.52768 89.578125ZM488.09018 99.203125L487.4808 98.78125Q488.02768 98.015625 488.05893 97.1875L488.05893 96.21875L489.12143 96.21875L489.12143 97.0625Q489.12143 97.65625 488.82455 98.25Q488.52768 98.84375 488.09018 99.203125ZM495.19955 91.1875Q495.19955 91.828125 494.8558 92.328125Q494.51205 92.828125 493.94955 93.109375Q494.6058 93.390625 494.99643 93.953125Q495.38705 94.5 495.38705 95.203125Q495.38705 96.296875 494.63705 96.96875Q493.90268 97.625 492.68393 97.625Q491.44955 97.625 490.69955 96.96875Q489.96518 96.296875 489.96518 95.203125Q489.96518 94.5 490.34018 93.953125Q490.71518 93.390625 491.38705 93.109375Q490.82455 92.828125 490.49643 92.328125Q490.1683 91.828125 490.1683 91.1875Q490.1683 90.109375 490.8558 89.484375Q491.5433 88.84375 492.68393 88.84375Q493.80893 88.84375 494.49643 89.484375Q495.19955 90.109375 495.19955 91.1875ZM494.30893 95.171875Q494.30893 94.453125 493.8558 94.015625Q493.40268 93.5625 492.6683 93.5625Q491.93393 93.5625 491.4808 94.015625Q491.0433 94.453125 491.0433 95.1875Q491.0433 95.90625 491.4808 96.328125Q491.9183 96.734375 492.68393 96.734375Q493.43393 96.734375 493.87143 96.3125Q494.30893 95.890625 494.30893 95.171875ZM492.68393 89.734375Q492.0433 89.734375 491.63705 90.140625Q491.24643 90.53125 491.24643 91.21875Q491.24643 91.859375 491.63705 92.265625Q492.02768 92.671875 492.6683 92.671875Q493.32455 92.671875 493.71518 92.265625Q494.1058 91.859375 494.1058 91.21875Q494.1058 90.5625 493.69955 90.15625Q493.2933 89.734375 492.68393 89.734375ZM500.57455 97.5L499.49643 97.5L499.49643 90.28125L497.30893 91.078125L497.30893 90.09375L500.4183 88.921875L500.57455 88.921875L500.57455 97.5Z" fill-rule="nonzero"/><path fill="#ffffff" d="M458.59018 92.703125L459.40268 92.703125Q460.18393 92.6875 460.62143 92.296875Q461.05893 91.90625 461.05893 91.234375Q461.05893 89.734375 459.55893 89.734375Q458.8558 89.734375 458.43393 90.140625Q458.02768 90.546875 458.02768 91.203125L456.93393 91.203125Q456.93393 90.1875 457.6683 89.515625Q458.4183 88.84375 459.55893 88.84375Q460.76205 88.84375 461.44955 89.484375Q462.13705 90.125 462.13705 91.265625Q462.13705 91.828125 461.77768 92.34375Q461.4183 92.859375 460.7933 93.125Q461.49643 93.34375 461.87143 93.859375Q462.26205 94.375 462.26205 95.125Q462.26205 96.265625 461.51205 96.953125Q460.76205 97.625 459.55893 97.625Q458.37143 97.625 457.6058 96.96875Q456.8558 96.3125 456.8558 95.25L457.94955 95.25Q457.94955 95.921875 458.38705 96.328125Q458.82455 96.734375 459.57455 96.734375Q460.3558 96.734375 460.76205 96.328125Q461.18393 95.90625 461.18393 95.140625Q461.18393 94.40625 460.7308 94.015625Q460.27768 93.609375 459.40268 93.59375L458.59018 93.59375L458.59018 92.703125ZM471.59018 94.640625L472.77768 94.640625L472.77768 95.515625L471.59018 95.515625L471.59018 97.5L470.51205 97.5L470.51205 95.515625L466.62143 95.515625L466.62143 94.875L470.43393 88.96875L471.59018 88.96875L471.59018 94.640625ZM467.8558 94.640625L470.51205 94.640625L470.51205 90.453125L470.37143 90.6875L467.8558 94.640625ZM477.57455 97.5L476.49643 97.5L476.49643 90.28125L474.30893 91.078125L474.30893 90.09375L477.4183 88.921875L477.57455 88.921875L477.57455 97.5ZM486.52768 89.578125L482.99643 97.5L481.8558 97.5L485.37143 89.859375L480.76205 89.859375L480.76205 88.96875L486.52768 88.96875L486.52768 89.578125ZM488.09018 99.203125L487.4808 98.78125Q488.02768 98.015625 488.05893 97.1875L488.05893 96.21875L489.12143 96.21875L489.12143 97.0625Q489.12143 97.65625 488.82455 98.25Q488.52768 98.84375 488.09018 99.203125ZM495.19955 91.1875Q495.19955 91.828125 494.8558 92.328125Q494.51205 92.828125 493.94955 93.109375Q494.6058 93.390625 494.99643 93.953125Q495.38705 94.5 495.38705 95.203125Q495.38705 96.296875 494.63705 96.96875Q493.90268 97.625 492.68393 97.625Q491.44955 97.625 490.69955 96.96875Q489.96518 96.296875 489.96518 95.203125Q489.96518 94.5 490.34018 93.953125Q490.71518 93.390625 491.38705 93.109375Q490.82455 92.828125 490.49643 92.328125Q490.1683 91.828125 490.1683 91.1875Q490.1683 90.109375 490.8558 89.484375Q491.5433 88.84375 492.68393 88.84375Q493.80893 88.84375 494.49643 89.484375Q495.19955 90.109375 495.19955 91.1875ZM494.30893 95.171875Q494.30893 94.453125 493.8558 94.015625Q493.40268 93.5625 492.6683 93.5625Q491.93393 93.5625 491.4808 94.015625Q491.0433 94.453125 491.0433 95.1875Q491.0433 95.90625 491.4808 96.328125Q491.9183 96.734375 492.68393 96.734375Q493.43393 96.734375 493.87143 96.3125Q494.30893 95.890625 494.30893 95.171875ZM492.68393 89.734375Q492.0433 89.734375 491.63705 90.140625Q491.24643 90.53125 491.24643 91.21875Q491.24643 91.859375 491.63705 92.265625Q492.02768 92.671875 492.6683 92.671875Q493.32455 92.671875 493.71518 92.265625Q494.1058 91.859375 494.1058 91.21875Q494.1058 90.5625 493.69955 90.15625Q493.2933 89.734375 492.68393 89.734375ZM500.57455 97.5L499.49643 97.5L499.49643 90.28125L497.30893 91.078125L497.30893 90.09375L500.4183 88.921875L500.57455 88.921875L500.57455 97.5Z" fill-rule="nonzero"/><path stroke="#4285f4" stroke-width="3.0" stroke-linejoin="round" stroke-linecap="round" d="M475.06927 148.70312L475.88177 148.70312Q476.66302 148.6875 477.10052 148.29688Q477.53802 147.90625 477.53802 147.23438Q477.53802 145.73438 476.03802 145.73438Q475.3349 145.73438 474.91302 146.14062Q474.50677 146.54688 474.50677 147.20312L473.41302 147.20312Q473.41302 146.1875 474.1474 145.51562Q474.8974 144.84375 476.03802 144.84375Q477.24115 144.84375 477.92865 145.48438Q478.61615 146.125 478.61615 147.26562Q478.61615 147.82812 478.25677 148.34375Q477.8974 148.85938 477.2724 149.125Q477.97552 149.34375 478.35052 149.85938Q478.74115 150.375 478.74115 151.125Q478.74115 152.26562 477.99115 152.95312Q477.24115 153.625 476.03802 153.625Q474.85052 153.625 474.0849 152.96875Q473.3349 152.3125 473.3349 151.25L474.42865 151.25Q474.42865 151.92188 474.86615 152.32812Q475.30365 152.73438 476.05365 152.73438Q476.8349 152.73438 477.24115 152.32812Q477.66302 151.90625 477.66302 151.14062Q477.66302 150.40625 477.2099 150.01562Q476.75677 149.60938 475.88177 149.59375L475.06927 149.59375L475.06927 148.70312ZM483.99115 149.21875L484.42865 144.96875L488.80365 144.96875L488.80365 145.96875L485.35052 145.96875L485.0849 148.29688Q485.72552 147.92188 486.5224 147.92188Q487.67865 147.92188 488.36615 148.70312Q489.05365 149.46875 489.05365 150.78125Q489.05365 152.09375 488.3349 152.85938Q487.63177 153.625 486.35052 153.625Q485.22552 153.625 484.50677 153.0Q483.78802 152.35938 483.69427 151.25L484.7099 151.25Q484.81927 151.98438 485.24115 152.35938Q485.66302 152.73438 486.35052 152.73438Q487.10052 152.73438 487.53802 152.21875Q487.97552 151.70312 487.97552 150.79688Q487.97552 149.9375 487.50677 149.42188Q487.03802 148.90625 486.25677 148.90625Q485.55365 148.90625 485.1474 149.20312L484.86615 149.4375L483.99115 149.21875ZM495.06927 150.64062L496.25677 150.64062L496.25677 151.51562L495.06927 151.51562L495.06927 153.5L493.99115 153.5L493.99115 151.51562L490.10052 151.51562L490.10052 150.875L493.91302 144.96875L495.06927 144.96875L495.06927 150.64062ZM491.3349 150.64062L493.99115 150.64062L493.99115 146.45312L493.85052 146.6875L491.3349 150.64062ZM502.67865 147.1875Q502.67865 147.82812 502.3349 148.32812Q501.99115 148.82812 501.42865 149.10938Q502.0849 149.39062 502.47552 149.95312Q502.86615 150.5 502.86615 151.20312Q502.86615 152.29688 502.11615 152.96875Q501.38177 153.625 500.16302 153.625Q498.92865 153.625 498.17865 152.96875Q497.44427 152.29688 497.44427 151.20312Q497.44427 150.5 497.81927 149.95312Q498.19427 149.39062 498.86615 149.10938Q498.30365 148.82812 497.97552 148.32812Q497.6474 147.82812 497.6474 147.1875Q497.6474 146.10938 498.3349 145.48438Q499.0224 144.84375 500.16302 144.84375Q501.28802 144.84375 501.97552 145.48438Q502.67865 146.10938 502.67865 147.1875ZM501.78802 151.17188Q501.78802 150.45312 501.3349 150.01562Q500.88177 149.5625 500.1474 149.5625Q499.41302 149.5625 498.9599 150.01562Q498.5224 150.45312 498.5224 151.1875Q498.5224 151.90625 498.9599 152.32812Q499.3974 152.73438 500.16302 152.73438Q500.91302 152.73438 501.35052 152.3125Q501.78802 151.89062 501.78802 151.17188ZM500.16302 145.73438Q499.5224 145.73438 499.11615 146.14062Q498.72552 146.53125 498.72552 147.21875Q498.72552 147.85938 499.11615 148.26562Q499.50677 148.67188 500.1474 148.67188Q500.80365 148.67188 501.19427 148.26562Q501.5849 147.85938 501.5849 147.21875Q501.5849 146.5625 501.17865 146.15625Q500.7724 145.73438 500.16302 145.73438ZM504.56927 155.20312L503.9599 154.78125Q504.50677 154.01562 504.53802 153.1875L504.53802 152.21875L505.60052 152.21875L505.60052 153.0625Q505.60052 153.65625 505.30365 154.25Q505.00677 154.84375 504.56927 155.20312ZM510.75677 144.96875L510.75677 145.875L510.55365 145.875Q509.28802 145.90625 508.53802 146.64062Q507.78802 147.35938 507.66302 148.67188Q508.35052 147.90625 509.50677 147.90625Q510.61615 147.90625 511.28802 148.6875Q511.9599 149.46875 511.9599 150.71875Q511.9599 152.03125 511.24115 152.82812Q510.5224 153.625 509.30365 153.625Q508.0849 153.625 507.31927 152.6875Q506.56927 151.73438 506.56927 150.25L506.56927 149.84375Q506.56927 147.48438 507.56927 146.23438Q508.56927 144.98438 510.55365 144.96875L510.75677 144.96875ZM509.3349 148.8125Q508.7724 148.8125 508.30365 149.14062Q507.8349 149.46875 507.6474 149.98438L507.6474 150.375Q507.6474 151.4375 508.11615 152.07812Q508.60052 152.71875 509.30365 152.71875Q510.03802 152.71875 510.4599 152.1875Q510.88177 151.64062 510.88177 150.76562Q510.88177 149.89062 510.4599 149.35938Q510.03802 148.8125 509.3349 148.8125ZM515.0693 148.70312L515.8818 148.70312Q516.663 148.6875 517.1005 148.29688Q517.538 147.90625 517.538 147.23438Q517.538 145.73438 516.038 145.73438Q515.3349 145.73438 514.913 146.14062Q514.5068 146.54688 514.5068 147.20312L513.413 147.20312Q513.413 146.1875 514.1474 145.51562Q514.8974 144.84375 516.038 144.84375Q517.24115 144.84375 517.92865 145.48438Q518.61615 146.125 518.61615 147.26562Q518.61615 147.82812 518.2568 148.34375Q517.8974 148.85938 517.2724 149.125Q517.9755 149.34375 518.3505 149.85938Q518.74115 150.375 518.74115 151.125Q518.74115 152.26562 517.99115 152.95312Q517.24115 153.625 516.038 153.625Q514.8505 153.625 514.0849 152.96875Q513.3349 152.3125 513.3349 151.25L514.42865 151.25Q514.42865 151.92188 514.86615 152.32812Q515.30365 152.73438 516.05365 152.73438Q516.8349 152.73438 517.24115 152.32812Q517.663 151.90625 517.663 151.14062Q517.663 150.40625 517.2099 150.01562Q516.7568 149.60938 515.8818 149.59375L515.0693 149.59375L515.0693 148.70312Z" fill-rule="nonzero"/><path fill="#ffffff" d="M475.06927 148.70312L475.88177 148.70312Q476.66302 148.6875 477.10052 148.29688Q477.53802 147.90625 477.53802 147.23438Q477.53802 145.73438 476.03802 145.73438Q475.3349 145.73438 474.91302 146.14062Q474.50677 146.54688 474.50677 147.20312L473.41302 147.20312Q473.41302 146.1875 474.1474 145.51562Q474.8974 144.84375 476.03802 144.84375Q477.24115 144.84375 477.92865 145.48438Q478.61615 146.125 478.61615 147.26562Q478.61615 147.82812 478.25677 148.34375Q477.8974 148.85938 477.2724 149.125Q477.97552 149.34375 478.35052 149.85938Q478.74115 150.375 478.74115 151.125Q478.74115 152.26562 477.99115 152.95312Q477.24115 153.625 476.03802 153.625Q474.85052 153.625 474.0849 152.96875Q473.3349 152.3125 473.3349 151.25L474.42865 151.25Q474.42865 151.92188 474.86615 152.32812Q475.30365 152.73438 476.05365 152.73438Q476.8349 152.73438 477.24115 152.32812Q477.66302 151.90625 477.66302 151.14062Q477.66302 150.40625 477.2099 150.01562Q476.75677 149.60938 475.88177 149.59375L475.06927 149.59375L475.06927 148.70312ZM483.99115 149.21875L484.42865 144.96875L488.80365 144.96875L488.80365 145.96875L485.35052 145.96875L485.0849 148.29688Q485.72552 147.92188 486.5224 147.92188Q487.67865 147.92188 488.36615 148.70312Q489.05365 149.46875 489.05365 150.78125Q489.05365 152.09375 488.3349 152.85938Q487.63177 153.625 486.35052 153.625Q485.22552 153.625 484.50677 153.0Q483.78802 152.35938 483.69427 151.25L484.7099 151.25Q484.81927 151.98438 485.24115 152.35938Q485.66302 152.73438 486.35052 152.73438Q487.10052 152.73438 487.53802 152.21875Q487.97552 151.70312 487.97552 150.79688Q487.97552 149.9375 487.50677 149.42188Q487.03802 148.90625 486.25677 148.90625Q485.55365 148.90625 485.1474 149.20312L484.86615 149.4375L483.99115 149.21875ZM495.06927 150.64062L496.25677 150.64062L496.25677 151.51562L495.06927 151.51562L495.06927 153.5L493.99115 153.5L493.99115 151.51562L490.10052 151.51562L490.10052 150.875L493.91302 144.96875L495.06927 144.96875L495.06927 150.64062ZM491.3349 150.64062L493.99115 150.64062L493.99115 146.45312L493.85052 146.6875L491.3349 150.64062ZM502.67865 147.1875Q502.67865 147.82812 502.3349 148.32812Q501.99115 148.82812 501.42865 149.10938Q502.0849 149.39062 502.47552 149.95312Q502.86615 150.5 502.86615 151.20312Q502.86615 152.29688 502.11615 152.96875Q501.38177 153.625 500.16302 153.625Q498.92865 153.625 498.17865 152.96875Q497.44427 152.29688 497.44427 151.20312Q497.44427 150.5 497.81927 149.95312Q498.19427 149.39062 498.86615 149.10938Q498.30365 148.82812 497.97552 148.32812Q497.6474 147.82812 497.6474 147.1875Q497.6474 146.10938 498.3349 145.48438Q499.0224 144.84375 500.16302 144.84375Q501.28802 144.84375 501.97552 145.48438Q502.67865 146.10938 502.67865 147.1875ZM501.78802 151.17188Q501.78802 150.45312 501.3349 150.01562Q500.88177 149.5625 500.1474 149.5625Q499.41302 149.5625 498.9599 150.01562Q498.5224 150.45312 498.5224 151.1875Q498.5224 151.90625 498.9599 152.32812Q499.3974 152.73438 500.16302 152.73438Q500.91302 152.73438 501.35052 152.3125Q501.78802 151.89062 501.78802 151.17188ZM500.16302 145.73438Q499.5224 145.73438 499.11615 146.14062Q498.72552 146.53125 498.72552 147.21875Q498.72552 147.85938 499.11615 148.26562Q499.50677 148.67188 500.1474 148.67188Q500.80365 148.67188 501.19427 148.26562Q501.5849 147.85938 501.5849 147.21875Q501.5849 146.5625 501.17865 146.15625Q500.7724 145.73438 500.16302 145.73438ZM504.56927 155.20312L503.9599 154.78125Q504.50677 154.01562 504.53802 153.1875L504.53802 152.21875L505.60052 152.21875L505.60052 153.0625Q505.60052 153.65625 505.30365 154.25Q505.00677 154.84375 504.56927 155.20312ZM510.75677 144.96875L510.75677 145.875L510.55365 145.875Q509.28802 145.90625 508.53802 146.64062Q507.78802 147.35938 507.66302 148.67188Q508.35052 147.90625 509.50677 147.90625Q510.61615 147.90625 511.28802 148.6875Q511.9599 149.46875 511.9599 150.71875Q511.9599 152.03125 511.24115 152.82812Q510.5224 153.625 509.30365 153.625Q508.0849 153.625 507.31927 152.6875Q506.56927 151.73438 506.56927 150.25L506.56927 149.84375Q506.56927 147.48438 507.56927 146.23438Q508.56927 144.98438 510.55365 144.96875L510.75677 144.96875ZM509.3349 148.8125Q508.7724 148.8125 508.30365 149.14062Q507.8349 149.46875 507.6474 149.98438L507.6474 150.375Q507.6474 151.4375 508.11615 152.07812Q508.60052 152.71875 509.30365 152.71875Q510.03802 152.71875 510.4599 152.1875Q510.88177 151.64062 510.88177 150.76562Q510.88177 149.89062 510.4599 149.35938Q510.03802 148.8125 509.3349 148.8125ZM515.0693 148.70312L515.8818 148.70312Q516.663 148.6875 517.1005 148.29688Q517.538 147.90625 517.538 147.23438Q517.538 145.73438 516.038 145.73438Q515.3349 145.73438 514.913 146.14062Q514.5068 146.54688 514.5068 147.20312L513.413 147.20312Q513.413 146.1875 514.1474 145.51562Q514.8974 144.84375 516.038 144.84375Q517.24115 144.84375 517.92865 145.48438Q518.61615 146.125 518.61615 147.26562Q518.61615 147.82812 518.2568 148.34375Q517.8974 148.85938 517.2724 149.125Q517.9755 149.34375 518.3505 149.85938Q518.74115 150.375 518.74115 151.125Q518.74115 152.26562 517.99115 152.95312Q517.24115 153.625 516.038 153.625Q514.8505 153.625 514.0849 152.96875Q513.3349 152.3125 513.3349 151.25L514.42865 151.25Q514.42865 151.92188 514.86615 152.32812Q515.30365 152.73438 516.05365 152.73438Q516.8349 152.73438 517.24115 152.32812Q517.663 151.90625 517.663 151.14062Q517.663 150.40625 517.2099 150.01562Q516.7568 149.60938 515.8818 149.59375L515.0693 149.59375L515.0693 148.70312Z" fill-rule="nonzero"/><path stroke="#4285f4" stroke-width="3.0" stroke-linejoin="round" stroke-linecap="round" d="M457.69016 205.70312L458.50266 205.70312Q459.2839 205.6875 459.7214 205.29688Q460.1589 204.90625 460.1589 204.23438Q460.1589 202.73438 458.6589 202.73438Q457.95578 202.73438 457.5339 203.14062Q457.12766 203.54688 457.12766 204.20312L456.0339 204.20312Q456.0339 203.1875 456.76828 202.51562Q457.51828 201.84375 458.6589 201.84375Q459.86203 201.84375 460.54953 202.48438Q461.23703 203.125 461.23703 204.26562Q461.23703 204.82812 460.87766 205.34375Q460.51828 205.85938 459.89328 206.125Q460.5964 206.34375 460.9714 206.85938Q461.36203 207.375 461.36203 208.125Q461.36203 209.26562 460.61203 209.95312Q459.86203 210.625 458.6589 210.625Q457.4714 210.625 456.70578 209.96875Q455.95578 209.3125 455.95578 208.25L457.04953 208.25Q457.04953 208.92188 457.48703 209.32812Q457.92453 209.73438 458.67453 209.73438Q459.45578 209.73438 459.86203 209.32812Q460.2839 208.90625 460.2839 208.14062Q460.2839 207.40625 459.83078 207.01562Q459.37766 206.60938 458.50266 206.59375L457.69016 206.59375L457.69016 205.70312ZM470.69016 207.64062L471.87766 207.64062L471.87766 208.51562L470.69016 208.51562L470.69016 210.5L469.61203 210.5L469.61203 208.51562L465.7214 208.51562L465.7214 207.875L469.5339 201.96875L470.69016 201.96875L470.69016 207.64062ZM466.95578 207.64062L469.61203 207.64062L469.61203 203.45312L469.4714 203.6875L466.95578 207.64062ZM476.67453 210.5L475.5964 210.5L475.5964 203.28125L473.4089 204.07812L473.4089 203.09375L476.51828 201.92188L476.67453 201.92188L476.67453 210.5ZM485.4714 206.85938Q485.4714 208.76562 484.81516 209.70312Q484.17453 210.625 482.7839 210.625Q481.42453 210.625 480.76828 209.71875Q480.11203 208.8125 480.08078 207.0L480.08078 205.5625Q480.08078 203.67188 480.7214 202.76562Q481.37766 201.84375 482.76828 201.84375Q484.14328 201.84375 484.79953 202.73438Q485.45578 203.60938 485.4714 205.45312L485.4714 206.85938ZM484.37766 205.375Q484.37766 204.0 483.98703 203.375Q483.61203 202.73438 482.76828 202.73438Q481.94016 202.73438 481.54953 203.375Q481.17453 204.0 481.17453 205.29688L481.17453 207.03125Q481.17453 208.40625 481.56516 209.07812Q481.9714 209.73438 482.7839 209.73438Q483.58078 209.73438 483.9714 209.10938Q484.36203 208.48438 484.37766 207.15625L484.37766 205.375ZM487.19016 212.20312L486.58078 211.78125Q487.12766 211.01562 487.1589 210.1875L487.1589 209.21875L488.2214 209.21875L488.2214 210.0625Q488.2214 210.65625 487.92453 211.25Q487.62766 211.84375 487.19016 212.20312ZM493.37766 201.96875L493.37766 202.875L493.17453 202.875Q491.9089 202.90625 491.1589 203.64062Q490.4089 204.35938 490.2839 205.67188Q490.9714 204.90625 492.12766 204.90625Q493.23703 204.90625 493.9089 205.6875Q494.58078 206.46875 494.58078 207.71875Q494.58078 209.03125 493.86203 209.82812Q493.14328 210.625 491.92453 210.625Q490.70578 210.625 489.94016 209.6875Q489.19016 208.73438 489.19016 207.25L489.19016 206.84375Q489.19016 204.48438 490.19016 203.23438Q491.19016 201.98438 493.17453 201.96875L493.37766 201.96875ZM491.95578 205.8125Q491.39328 205.8125 490.92453 206.14062Q490.45578 206.46875 490.26828 206.98438L490.26828 207.375Q490.26828 208.4375 490.73703 209.07812Q491.2214 209.71875 491.92453 209.71875Q492.6589 209.71875 493.08078 209.1875Q493.50266 208.64062 493.50266 207.76562Q493.50266 206.89062 493.08078 206.35938Q492.6589 205.8125 491.95578 205.8125ZM501.62766 202.57812L498.0964 210.5L496.95578 210.5L500.4714 202.85938L495.86203 202.85938L495.86203 201.96875L501.62766 201.96875L501.62766 202.57812Z" fill-rule="nonzero"/><path fill="#ffffff" d="M457.69016 205.70312L458.50266 205.70312Q459.2839 205.6875 459.7214 205.29688Q460.1589 204.90625 460.1589 204.23438Q460.1589 202.73438 458.6589 202.73438Q457.95578 202.73438 457.5339 203.14062Q457.12766 203.54688 457.12766 204.20312L456.0339 204.20312Q456.0339 203.1875 456.76828 202.51562Q457.51828 201.84375 458.6589 201.84375Q459.86203 201.84375 460.54953 202.48438Q461.23703 203.125 461.23703 204.26562Q461.23703 204.82812 460.87766 205.34375Q460.51828 205.85938 459.89328 206.125Q460.5964 206.34375 460.9714 206.85938Q461.36203 207.375 461.36203 208.125Q461.36203 209.26562 460.61203 209.95312Q459.86203 210.625 458.6589 210.625Q457.4714 210.625 456.70578 209.96875Q455.95578 209.3125 455.95578 208.25L457.04953 208.25Q457.04953 208.92188 457.48703 209.32812Q457.92453 209.73438 458.67453 209.73438Q459.45578 209.73438 459.86203 209.32812Q460.2839 208.90625 460.2839 208.14062Q460.2839 207.40625 459.83078 207.01562Q459.37766 206.60938 458.50266 206.59375L457.69016 206.59375L457.69016 205.70312ZM470.69016 207.64062L471.87766 207.64062L471.87766 208.51562L470.69016 208.51562L470.69016 210.5L469.61203 210.5L469.61203 208.51562L465.7214 208.51562L465.7214 207.875L469.5339 201.96875L470.69016 201.96875L470.69016 207.64062ZM466.95578 207.64062L469.61203 207.64062L469.61203 203.45312L469.4714 203.6875L466.95578 207.64062ZM476.67453 210.5L475.5964 210.5L475.5964 203.28125L473.4089 204.07812L473.4089 203.09375L476.51828 201.92188L476.67453 201.92188L476.67453 210.5ZM485.4714 206.85938Q485.4714 208.76562 484.81516 209.70312Q484.17453 210.625 482.7839 210.625Q481.42453 210.625 480.76828 209.71875Q480.11203 208.8125 480.08078 207.0L480.08078 205.5625Q480.08078 203.67188 480.7214 202.76562Q481.37766 201.84375 482.76828 201.84375Q484.14328 201.84375 484.79953 202.73438Q485.45578 203.60938 485.4714 205.45312L485.4714 206.85938ZM484.37766 205.375Q484.37766 204.0 483.98703 203.375Q483.61203 202.73438 482.76828 202.73438Q481.94016 202.73438 481.54953 203.375Q481.17453 204.0 481.17453 205.29688L481.17453 207.03125Q481.17453 208.40625 481.56516 209.07812Q481.9714 209.73438 482.7839 209.73438Q483.58078 209.73438 483.9714 209.10938Q484.36203 208.48438 484.37766 207.15625L484.37766 205.375ZM487.19016 212.20312L486.58078 211.78125Q487.12766 211.01562 487.1589 210.1875L487.1589 209.21875L488.2214 209.21875L488.2214 210.0625Q488.2214 210.65625 487.92453 211.25Q487.62766 211.84375 487.19016 212.20312ZM493.37766 201.96875L493.37766 202.875L493.17453 202.875Q491.9089 202.90625 491.1589 203.64062Q490.4089 204.35938 490.2839 205.67188Q490.9714 204.90625 492.12766 204.90625Q493.23703 204.90625 493.9089 205.6875Q494.58078 206.46875 494.58078 207.71875Q494.58078 209.03125 493.86203 209.82812Q493.14328 210.625 491.92453 210.625Q490.70578 210.625 489.94016 209.6875Q489.19016 208.73438 489.19016 207.25L489.19016 206.84375Q489.19016 204.48438 490.19016 203.23438Q491.19016 201.98438 493.17453 201.96875L493.37766 201.96875ZM491.95578 205.8125Q491.39328 205.8125 490.92453 206.14062Q490.45578 206.46875 490.26828 206.98438L490.26828 207.375Q490.26828 208.4375 490.73703 209.07812Q491.2214 209.71875 491.92453 209.71875Q492.6589 209.71875 493.08078 209.1875Q493.50266 208.64062 493.50266 207.76562Q493.50266 206.89062 493.08078 206.35938Q492.6589 205.8125 491.95578 205.8125ZM501.62766 202.57812L498.0964 210.5L496.95578 210.5L500.4714 202.85938L495.86203 202.85938L495.86203 201.96875L501.62766 201.96875L501.62766 202.57812Z" fill-rule="nonzero"/><path stroke="#4285f4" stroke-width="3.0" stroke-linejoin="round" stroke-linecap="round" d="M479.39523 261.70312L480.20773 261.70312Q480.98898 261.6875 481.42648 261.29688Q481.86398 260.90625 481.86398 260.23438Q481.86398 258.73438 480.36398 258.73438Q479.66086 258.73438 479.23898 259.14062Q478.83273 259.54688 478.83273 260.20312L477.73898 260.20312Q477.73898 259.1875 478.47336 258.51562Q479.22336 257.84375 480.36398 257.84375Q481.5671 257.84375 482.2546 258.48438Q482.9421 259.125 482.9421 260.26562Q482.9421 260.82812 482.58273 261.34375Q482.22336 261.85938 481.59836 262.125Q482.30148 262.34375 482.67648 262.85938Q483.0671 263.375 483.0671 264.125Q483.0671 265.26562 482.3171 265.95312Q481.5671 266.625 480.36398 266.625Q479.17648 266.625 478.41086 265.96875Q477.66086 265.3125 477.66086 264.25L478.7546 264.25Q478.7546 264.92188 479.1921 265.32812Q479.6296 265.73438 480.3796 265.73438Q481.16086 265.73438 481.5671 265.32812Q481.98898 264.90625 481.98898 264.14062Q481.98898 263.40625 481.53586 263.01562Q481.08273 262.60938 480.20773 262.59375L479.39523 262.59375L479.39523 261.70312ZM488.3171 262.21875L488.7546 257.96875L493.1296 257.96875L493.1296 258.96875L489.67648 258.96875L489.41086 261.29688Q490.05148 260.92188 490.84836 260.92188Q492.0046 260.92188 492.6921 261.70312Q493.3796 262.46875 493.3796 263.78125Q493.3796 265.09375 492.66086 265.85938Q491.95773 266.625 490.67648 266.625Q489.55148 266.625 488.83273 266.0Q488.11398 265.35938 488.02023 264.25L489.03586 264.25Q489.14523 264.98438 489.5671 265.35938Q489.98898 265.73438 490.67648 265.73438Q491.42648 265.73438 491.86398 265.21875Q492.30148 264.70312 492.30148 263.79688Q492.30148 262.9375 491.83273 262.42188Q491.36398 261.90625 490.58273 261.90625Q489.8796 261.90625 489.47336 262.20312L489.1921 262.4375L488.3171 262.21875ZM500.0046 260.1875Q500.0046 260.82812 499.66086 261.32812Q499.3171 261.82812 498.7546 262.10938Q499.41086 262.39062 499.80148 262.95312Q500.1921 263.5 500.1921 264.20312Q500.1921 265.29688 499.4421 265.96875Q498.70773 266.625 497.48898 266.625Q496.2546 266.625 495.5046 265.96875Q494.77023 265.29688 494.77023 264.20312Q494.77023 263.5 495.14523 262.95312Q495.52023 262.39062 496.1921 262.10938Q495.6296 261.82812 495.30148 261.32812Q494.97336 260.82812 494.97336 260.1875Q494.97336 259.10938 495.66086 258.48438Q496.34836 257.84375 497.48898 257.84375Q498.61398 257.84375 499.30148 258.48438Q500.0046 259.10938 500.0046 260.1875ZM499.11398 264.17188Q499.11398 263.45312 498.66086 263.01562Q498.20773 262.5625 497.47336 262.5625Q496.73898 262.5625 496.28586 263.01562Q495.84836 263.45312 495.84836 264.1875Q495.84836 264.90625 496.28586 265.32812Q496.72336 265.73438 497.48898 265.73438Q498.23898 265.73438 498.67648 265.3125Q499.11398 264.89062 499.11398 264.17188ZM497.48898 258.73438Q496.84836 258.73438 496.4421 259.14062Q496.05148 259.53125 496.05148 260.21875Q496.05148 260.85938 496.4421 261.26562Q496.83273 261.67188 497.47336 261.67188Q498.1296 261.67188 498.52023 261.26562Q498.91086 260.85938 498.91086 260.21875Q498.91086 259.5625 498.5046 259.15625Q498.09836 258.73438 497.48898 258.73438ZM507.41086 266.5L501.8171 266.5L501.8171 265.71875L504.77023 262.4375Q505.42648 261.6875 505.67648 261.23438Q505.92648 260.76562 505.92648 260.26562Q505.92648 259.59375 505.52023 259.17188Q505.1296 258.73438 504.4421 258.73438Q503.64523 258.73438 503.1921 259.20312Q502.73898 259.65625 502.73898 260.48438L501.66086 260.48438Q501.66086 259.29688 502.41086 258.57812Q503.17648 257.84375 504.4421 257.84375Q505.64523 257.84375 506.33273 258.46875Q507.02023 259.09375 507.02023 260.14062Q507.02023 261.39062 505.41086 263.14062L503.1296 265.60938L507.41086 265.60938L507.41086 266.5ZM508.89523 268.20312L508.28586 267.78125Q508.83273 267.01562 508.86398 266.1875L508.86398 265.21875L509.92648 265.21875L509.92648 266.0625Q509.92648 266.65625 509.6296 267.25Q509.33273 267.84375 508.89523 268.20312ZM514.9734 262.75Q514.64526 263.15625 514.1609 263.40625Q513.69214 263.64062 513.12964 263.64062Q512.39526 263.64062 511.84836 263.28125Q511.30148 262.92188 511.0046 262.26562Q510.70773 261.59375 510.70773 260.79688Q510.70773 259.95312 511.02023 259.26562Q511.34836 258.57812 511.9421 258.21875Q512.5515 257.84375 513.3484 257.84375Q514.614 257.84375 515.33276 258.79688Q516.06714 259.75 516.06714 261.375L516.06714 261.6875Q516.06714 264.1875 515.08276 265.32812Q514.0984 266.46875 512.114 266.5L511.89523 266.5L511.89523 265.59375L512.12964 265.59375Q513.4734 265.5625 514.19214 264.89062Q514.9109 264.21875 514.9734 262.75ZM513.3015 262.75Q513.8484 262.75 514.3015 262.42188Q514.77026 262.07812 514.989 261.59375L514.989 261.15625Q514.989 260.09375 514.52026 259.42188Q514.0515 258.75 513.3484 258.75Q512.62964 258.75 512.19214 259.29688Q511.77023 259.84375 511.77023 260.75Q511.77023 261.625 512.1765 262.1875Q512.5984 262.75 513.3015 262.75ZM522.08276 257.96875L522.08276 258.875L521.87964 258.875Q520.614 258.90625 519.864 259.64062Q519.114 260.35938 518.989 261.67188Q519.6765 260.90625 520.83276 260.90625Q521.94214 260.90625 522.614 261.6875Q523.2859 262.46875 523.2859 263.71875Q523.2859 265.03125 522.56714 265.82812Q521.8484 266.625 520.62964 266.625Q519.4109 266.625 518.64526 265.6875Q517.89526 264.73438 517.89526 263.25L517.89526 262.84375Q517.89526 260.48438 518.89526 259.23438Q519.89526 257.98438 521.87964 257.96875L522.08276 257.96875ZM520.6609 261.8125Q520.0984 261.8125 519.62964 262.14062Q519.1609 262.46875 518.9734 262.98438L518.9734 263.375Q518.9734 264.4375 519.44214 265.07812Q519.9265 265.71875 520.62964 265.71875Q521.364 265.71875 521.7859 265.1875Q522.20776 264.64062 522.20776 263.76562Q522.20776 262.89062 521.7859 262.35938Q521.364 261.8125 520.6609 261.8125Z" fill-rule="nonzero"/><path fill="#ffffff" d="M479.39523 261.70312L480.20773 261.70312Q480.98898 261.6875 481.42648 261.29688Q481.86398 260.90625 481.86398 260.23438Q481.86398 258.73438 480.36398 258.73438Q479.66086 258.73438 479.23898 259.14062Q478.83273 259.54688 478.83273 260.20312L477.73898 260.20312Q477.73898 259.1875 478.47336 258.51562Q479.22336 257.84375 480.36398 257.84375Q481.5671 257.84375 482.2546 258.48438Q482.9421 259.125 482.9421 260.26562Q482.9421 260.82812 482.58273 261.34375Q482.22336 261.85938 481.59836 262.125Q482.30148 262.34375 482.67648 262.85938Q483.0671 263.375 483.0671 264.125Q483.0671 265.26562 482.3171 265.95312Q481.5671 266.625 480.36398 266.625Q479.17648 266.625 478.41086 265.96875Q477.66086 265.3125 477.66086 264.25L478.7546 264.25Q478.7546 264.92188 479.1921 265.32812Q479.6296 265.73438 480.3796 265.73438Q481.16086 265.73438 481.5671 265.32812Q481.98898 264.90625 481.98898 264.14062Q481.98898 263.40625 481.53586 263.01562Q481.08273 262.60938 480.20773 262.59375L479.39523 262.59375L479.39523 261.70312ZM488.3171 262.21875L488.7546 257.96875L493.1296 257.96875L493.1296 258.96875L489.67648 258.96875L489.41086 261.29688Q490.05148 260.92188 490.84836 260.92188Q492.0046 260.92188 492.6921 261.70312Q493.3796 262.46875 493.3796 263.78125Q493.3796 265.09375 492.66086 265.85938Q491.95773 266.625 490.67648 266.625Q489.55148 266.625 488.83273 266.0Q488.11398 265.35938 488.02023 264.25L489.03586 264.25Q489.14523 264.98438 489.5671 265.35938Q489.98898 265.73438 490.67648 265.73438Q491.42648 265.73438 491.86398 265.21875Q492.30148 264.70312 492.30148 263.79688Q492.30148 262.9375 491.83273 262.42188Q491.36398 261.90625 490.58273 261.90625Q489.8796 261.90625 489.47336 262.20312L489.1921 262.4375L488.3171 262.21875ZM500.0046 260.1875Q500.0046 260.82812 499.66086 261.32812Q499.3171 261.82812 498.7546 262.10938Q499.41086 262.39062 499.80148 262.95312Q500.1921 263.5 500.1921 264.20312Q500.1921 265.29688 499.4421 265.96875Q498.70773 266.625 497.48898 266.625Q496.2546 266.625 495.5046 265.96875Q494.77023 265.29688 494.77023 264.20312Q494.77023 263.5 495.14523 262.95312Q495.52023 262.39062 496.1921 262.10938Q495.6296 261.82812 495.30148 261.32812Q494.97336 260.82812 494.97336 260.1875Q494.97336 259.10938 495.66086 258.48438Q496.34836 257.84375 497.48898 257.84375Q498.61398 257.84375 499.30148 258.48438Q500.0046 259.10938 500.0046 260.1875ZM499.11398 264.17188Q499.11398 263.45312 498.66086 263.01562Q498.20773 262.5625 497.47336 262.5625Q496.73898 262.5625 496.28586 263.01562Q495.84836 263.45312 495.84836 264.1875Q495.84836 264.90625 496.28586 265.32812Q496.72336 265.73438 497.48898 265.73438Q498.23898 265.73438 498.67648 265.3125Q499.11398 264.89062 499.11398 264.17188ZM497.48898 258.73438Q496.84836 258.73438 496.4421 259.14062Q496.05148 259.53125 496.05148 260.21875Q496.05148 260.85938 496.4421 261.26562Q496.83273 261.67188 497.47336 261.67188Q498.1296 261.67188 498.52023 261.26562Q498.91086 260.85938 498.91086 260.21875Q498.91086 259.5625 498.5046 259.15625Q498.09836 258.73438 497.48898 258.73438ZM507.41086 266.5L501.8171 266.5L501.8171 265.71875L504.77023 262.4375Q505.42648 261.6875 505.67648 261.23438Q505.92648 260.76562 505.92648 260.26562Q505.92648 259.59375 505.52023 259.17188Q505.1296 258.73438 504.4421 258.73438Q503.64523 258.73438 503.1921 259.20312Q502.73898 259.65625 502.73898 260.48438L501.66086 260.48438Q501.66086 259.29688 502.41086 258.57812Q503.17648 257.84375 504.4421 257.84375Q505.64523 257.84375 506.33273 258.46875Q507.02023 259.09375 507.02023 260.14062Q507.02023 261.39062 505.41086 263.14062L503.1296 265.60938L507.41086 265.60938L507.41086 266.5ZM508.89523 268.20312L508.28586 267.78125Q508.83273 267.01562 508.86398 266.1875L508.86398 265.21875L509.92648 265.21875L509.92648 266.0625Q509.92648 266.65625 509.6296 267.25Q509.33273 267.84375 508.89523 268.20312ZM514.9734 262.75Q514.64526 263.15625 514.1609 263.40625Q513.69214 263.64062 513.12964 263.64062Q512.39526 263.64062 511.84836 263.28125Q511.30148 262.92188 511.0046 262.26562Q510.70773 261.59375 510.70773 260.79688Q510.70773 259.95312 511.02023 259.26562Q511.34836 258.57812 511.9421 258.21875Q512.5515 257.84375 513.3484 257.84375Q514.614 257.84375 515.33276 258.79688Q516.06714 259.75 516.06714 261.375L516.06714 261.6875Q516.06714 264.1875 515.08276 265.32812Q514.0984 266.46875 512.114 266.5L511.89523 266.5L511.89523 265.59375L512.12964 265.59375Q513.4734 265.5625 514.19214 264.89062Q514.9109 264.21875 514.9734 262.75ZM513.3015 262.75Q513.8484 262.75 514.3015 262.42188Q514.77026 262.07812 514.989 261.59375L514.989 261.15625Q514.989 260.09375 514.52026 259.42188Q514.0515 258.75 513.3484 258.75Q512.62964 258.75 512.19214 259.29688Q511.77023 259.84375 511.77023 260.75Q511.77023 261.625 512.1765 262.1875Q512.5984 262.75 513.3015 262.75ZM522.08276 257.96875L522.08276 258.875L521.87964 258.875Q520.614 258.90625 519.864 259.64062Q519.114 260.35938 518.989 261.67188Q519.6765 260.90625 520.83276 260.90625Q521.94214 260.90625 522.614 261.6875Q523.2859 262.46875 523.2859 263.71875Q523.2859 265.03125 522.56714 265.82812Q521.8484 266.625 520.62964 266.625Q519.4109 266.625 518.64526 265.6875Q517.89526 264.73438 517.89526 263.25L517.89526 262.84375Q517.89526 260.48438 518.89526 259.23438Q519.89526 257.98438 521.87964 257.96875L522.08276 257.96875ZM520.6609 261.8125Q520.0984 261.8125 519.62964 262.14062Q519.1609 262.46875 518.9734 262.98438L518.9734 263.375Q518.9734 264.4375 519.44214 265.07812Q519.9265 265.71875 520.62964 265.71875Q521.364 265.71875 521.7859 265.1875Q522.20776 264.64062 522.20776 263.76562Q522.20776 262.89062 521.7859 262.35938Q521.364 261.8125 520.6609 261.8125Z" fill-rule="nonzero"/><path fill="#000000" d="M303.79688 342.075L303.79688 340.85626L304.85938 340.85626L304.85938 342.075L303.79688 342.075ZM303.79688 349.45L303.79688 343.23126L304.85938 343.23126L304.85938 349.45L303.79688 349.45ZM306.40625 346.34064Q306.40625 344.60626 307.35938 343.77814Q308.15625 343.09064 309.3125 343.09064Q310.59375 343.09064 311.40625 343.9344Q312.23438 344.7625 312.23438 346.2469Q312.23438 347.45 311.875 348.1375Q311.51562 348.825 310.8125 349.21564Q310.125 349.59064 309.3125 349.59064Q308.01562 349.59064 307.20312 348.7625Q306.40625 347.91876 306.40625 346.34064ZM307.48438 346.34064Q307.48438 347.52814 308.0 348.1219Q308.53125 348.71564 309.3125 348.71564Q310.10938 348.71564 310.625 348.1219Q311.14062 347.52814 311.14062 346.3094Q311.14062 345.15314 310.60938 344.5594Q310.09375 343.96564 309.3125 343.96564Q308.53125 343.96564 308.0 344.5594Q307.48438 345.1375 307.48438 346.34064ZM312.8125 351.84064L312.8125 351.075L319.8125 351.075L319.8125 351.84064L312.8125 351.84064ZM321.9375 349.45L320.03125 343.23126L321.125 343.23126L322.10938 346.825L322.48438 348.15314Q322.51562 348.0594 322.8125 346.8719L323.79688 343.23126L324.875 343.23126L325.8125 346.84064L326.125 348.02814L326.48438 346.825L327.54688 343.23126L328.57812 343.23126L326.625 349.45L325.53125 349.45L324.54688 345.71564L324.29688 344.66876L323.04688 349.45L321.9375 349.45ZM329.78125 349.45L329.78125 343.23126L330.73438 343.23126L330.73438 344.16876Q331.09375 343.5125 331.39062 343.3094Q331.70312 343.09064 332.07812 343.09064Q332.60938 343.09064 333.15625 343.41876L332.79688 344.40314Q332.40625 344.16876 332.03125 344.16876Q331.67188 344.16876 331.39062 344.3875Q331.125 344.59064 331.01562 344.96564Q330.82812 345.52814 330.82812 346.1844L330.82812 349.45L329.78125 349.45ZM333.79688 342.075L333.79688 340.85626L334.85938 340.85626L334.85938 342.075L333.79688 342.075ZM333.79688 349.45L333.79688 343.23126L334.85938 343.23126L334.85938 349.45L333.79688 349.45ZM339.09375 348.5125L339.25 349.4344Q338.79688 349.52814 338.45312 349.52814Q337.875 349.52814 337.5625 349.35626Q337.25 349.16876 337.10938 348.8719Q336.98438 348.575 336.98438 347.6219L336.98438 344.04376L336.21875 344.04376L336.21875 343.23126L336.98438 343.23126L336.98438 341.6844L338.03125 341.0594L338.03125 343.23126L339.09375 343.23126L339.09375 344.04376L338.03125 344.04376L338.03125 347.6844Q338.03125 348.1375 338.07812 348.2625Q338.14062 348.3875 338.26562 348.46564Q338.39062 348.54376 338.625 348.54376Q338.8125 348.54376 339.09375 348.5125ZM342.09375 348.5125L342.25 349.4344Q341.79688 349.52814 341.45312 349.52814Q340.875 349.52814 340.5625 349.35626Q340.25 349.16876 340.10938 348.8719Q339.98438 348.575 339.98438 347.6219L339.98438 344.04376L339.21875 344.04376L339.21875 343.23126L339.98438 343.23126L339.98438 341.6844L341.03125 341.0594L341.03125 343.23126L342.09375 343.23126L342.09375 344.04376L341.03125 344.04376L341.03125 347.6844Q341.03125 348.1375 341.07812 348.2625Q341.14062 348.3875 341.26562 348.46564Q341.39062 348.54376 341.625 348.54376Q341.8125 348.54376 342.09375 348.5125ZM347.04688 347.45L348.14062 347.575Q347.89062 348.52814 347.1875 349.0594Q346.48438 349.59064 345.40625 349.59064Q344.04688 349.59064 343.23438 348.7469Q342.4375 347.90314 342.4375 346.3875Q342.4375 344.825 343.25 343.96564Q344.0625 343.09064 345.34375 343.09064Q346.59375 343.09064 347.375 343.9344Q348.17188 344.77814 348.17188 346.325Q348.17188 346.41876 348.17188 346.60626L343.53125 346.60626Q343.59375 347.6375 344.10938 348.1844Q344.625 348.71564 345.40625 348.71564Q345.98438 348.71564 346.39062 348.41876Q346.8125 348.10626 347.04688 347.45ZM343.59375 345.7469L347.0625 345.7469Q347.0 344.95 346.67188 344.5594Q346.15625 343.95 345.35938 343.95Q344.625 343.95 344.125 344.4344Q343.64062 344.91876 343.59375 345.7469ZM349.79688 349.45L349.79688 343.23126L350.73438 343.23126L350.73438 344.10626Q351.42188 343.09064 352.71875 343.09064Q353.28125 343.09064 353.75 343.29376Q354.23438 343.4969 354.46875 343.825Q354.70312 344.15314 354.79688 344.59064Q354.84375 344.8875 354.84375 345.6219L354.84375 349.45L353.79688 349.45L353.79688 345.66876Q353.79688 345.0125 353.67188 344.7Q353.54688 344.3875 353.23438 344.2Q352.92188 343.9969 352.5 343.9969Q351.82812 343.9969 351.32812 344.4344Q350.84375 344.85626 350.84375 346.04376L350.84375 349.45L349.79688 349.45Z" fill-rule="nonzero"/><path fill="#000000" d="M29.550013 200.88646L23.331263 200.88646L23.331263 199.94896L24.206263 199.94896Q23.190638 199.26146 23.190638 197.96458Q23.190638 197.40208 23.393763 196.93333Q23.596888 196.44896 23.925013 196.21458Q24.253138 195.98021 24.690638 195.88646Q24.987513 195.83958 25.721888 195.83958L29.550013 195.83958L29.550013 196.88646L25.768763 196.88646Q25.112513 196.88646 24.800013 197.01146Q24.487513 197.13646 24.300013 197.44896Q24.096888 197.76146 24.096888 198.18333Q24.096888 198.85521 24.534388 199.35521Q24.956263 199.83958 26.143763 199.83958L29.550013 199.83958L29.550013 200.88646ZM26.440638 194.27708Q24.706263 194.27708 23.878138 193.32396Q23.190638 192.52708 23.190638 191.37083Q23.190638 190.08958 24.034388 189.27708Q24.862513 188.44896 26.346888 188.44896Q27.550013 188.44896 28.237513 188.80833Q28.925013 189.16771 29.315638 189.87083Q29.690638 190.55833 29.690638 191.37083Q29.690638 192.66771 28.862513 193.48021Q28.018763 194.27708 26.440638 194.27708ZM26.440638 193.19896Q27.628138 193.19896 28.221888 192.68333Q28.815638 192.15208 28.815638 191.37083Q28.815638 190.57396 28.221888 190.05833Q27.628138 189.54271 26.409388 189.54271Q25.253138 189.54271 24.659388 190.07396Q24.065638 190.58958 24.065638 191.37083Q24.065638 192.15208 24.659388 192.68333Q25.237513 193.19896 26.440638 193.19896ZM29.550013 182.85521L28.768763 182.85521Q29.690638 183.44896 29.690638 184.58958Q29.690638 185.33958 29.284388 185.96458Q28.862513 186.58958 28.128138 186.93333Q27.393763 187.27708 26.440638 187.27708Q25.518763 187.27708 24.753138 186.96458Q23.987513 186.65208 23.596888 186.02708Q23.190638 185.40208 23.190638 184.63646Q23.190638 184.07396 23.425013 183.63646Q23.659388 183.19896 24.034388 182.91771L20.956263 182.91771L20.956263 181.87083L29.550013 181.87083L29.550013 182.85521ZM26.440638 186.18333Q27.643763 186.18333 28.237513 185.68333Q28.815638 185.18333 28.815638 184.49583Q28.815638 183.80833 28.253138 183.32396Q27.690638 182.83958 26.534388 182.83958Q25.253138 182.83958 24.659388 183.33958Q24.065638 183.82396 24.065638 184.54271Q24.065638 185.24583 24.643763 185.71458Q25.206263 186.18333 26.440638 186.18333ZM27.550013 175.63646L27.675013 174.54271Q28.628138 174.79271 29.159388 175.49583Q29.690638 176.19896 29.690638 177.27708Q29.690638 178.63646 28.846888 179.44896Q28.003138 180.24583 26.487513 180.24583Q24.925013 180.24583 24.065638 179.43333Q23.190638 178.62083 23.190638 177.33958Q23.190638 176.08958 24.034388 175.30833Q24.878138 174.51146 26.425013 174.51146Q26.518763 174.51146 26.706263 174.51146L26.706263 179.15208Q27.737513 179.08958 28.284388 178.57396Q28.815638 178.05833 28.815638 177.27708Q28.815638 176.69896 28.518763 176.29271Q28.206263 175.87083 27.550013 175.63646ZM25.846888 179.08958L25.846888 175.62083Q25.050013 175.68333 24.659388 176.01146Q24.050013 176.52708 24.050013 177.32396Q24.050013 178.05833 24.534388 178.55833Q25.018763 179.04271 25.846888 179.08958Z" fill-rule="nonzero"/><path fill="#000000" d="M53.346874 99.407295L53.346874 90.79792L54.3 90.79792L54.3 91.594795Q54.64375 91.126045 55.065624 90.89167Q55.503124 90.657295 56.1125 90.657295Q56.909374 90.657295 57.51875 91.063545Q58.128124 91.469795 58.425 92.219795Q58.7375 92.969795 58.7375 93.86042Q58.7375 94.813545 58.39375 95.57917Q58.065624 96.344795 57.409374 96.751045Q56.753124 97.157295 56.034374 97.157295Q55.503124 97.157295 55.08125 96.938545Q54.659374 96.70417 54.39375 96.376045L54.39375 99.407295L53.346874 99.407295ZM54.3 93.938545Q54.3 95.14167 54.784374 95.719795Q55.26875 96.282295 55.95625 96.282295Q56.659374 96.282295 57.159374 95.688545Q57.659374 95.094795 57.659374 93.844795Q57.659374 92.657295 57.175 92.07917Q56.690624 91.48542 56.003124 91.48542Q55.33125 91.48542 54.815624 92.11042Q54.3 92.73542 54.3 93.938545ZM62.065624 97.01667L59.70625 90.79792L60.815624 90.79792L62.159374 94.51667Q62.3625 95.126045 62.55 95.76667Q62.690624 95.282295 62.940624 94.594795L64.33125 90.79792L65.40938 90.79792L63.05 97.01667L62.065624 97.01667ZM69.59688 95.01667L70.69063 95.14167Q70.44063 96.094795 69.7375 96.626045Q69.03438 97.157295 67.95625 97.157295Q66.59688 97.157295 65.78438 96.313545Q64.9875 95.469795 64.9875 93.95417Q64.9875 92.39167 65.8 91.532295Q66.6125 90.657295 67.89375 90.657295Q69.14375 90.657295 69.925 91.501045Q70.72188 92.344795 70.72188 93.89167Q70.72188 93.98542 70.72188 94.17292L66.08125 94.17292Q66.14375 95.20417 66.65938 95.751045Q67.175 96.282295 67.95625 96.282295Q68.53438 96.282295 68.94063 95.98542Q69.3625 95.67292 69.59688 95.01667ZM66.14375 93.313545L69.6125 93.313545Q69.55 92.51667 69.22188 92.126045Q68.70625 91.51667 67.90938 91.51667Q67.175 91.51667 66.675 92.001045Q66.19063 92.48542 66.14375 93.313545Z" fill-rule="nonzero"/><path fill="#000000" d="M56.596874 152.44548L56.596874 153.4611L50.909374 153.4611Q50.909374 153.0861 51.034374 152.72673Q51.253124 152.1486 51.721874 151.5861Q52.20625 151.0236 53.1125 150.28923Q54.51875 149.13298 55.003124 148.4611Q55.503124 147.78923 55.503124 147.19548Q55.503124 146.57048 55.05 146.1486Q54.596874 145.7111 53.878124 145.7111Q53.1125 145.7111 52.659374 146.16423Q52.20625 146.61736 52.190624 147.42986L51.1125 147.32048Q51.221874 146.10173 51.940624 145.47673Q52.675 144.8361 53.909374 144.8361Q55.14375 144.8361 55.8625 145.5236Q56.58125 146.2111 56.58125 147.22673Q56.58125 147.74236 56.3625 148.24236Q56.159374 148.72673 55.659374 149.28923Q55.175 149.8361 54.05 150.78923Q53.096874 151.5861 52.815624 151.88298Q52.55 152.16423 52.378124 152.44548L56.596874 152.44548ZM58.14375 153.97673L59.175 154.13298Q59.2375 154.60173 59.534374 154.82048Q59.925 155.11736 60.596874 155.11736Q61.33125 155.11736 61.721874 154.82048Q62.128124 154.5236 62.26875 154.00798Q62.3625 153.67986 62.346874 152.6486Q61.659374 153.4611 60.628124 153.4611Q59.346874 153.4611 58.64375 152.53923Q57.940624 151.60173 57.940624 150.32048Q57.940624 149.42986 58.253124 148.67986Q58.58125 147.91423 59.190624 147.50798Q59.8 147.10173 60.628124 147.10173Q61.7375 147.10173 62.45625 147.99236L62.45625 147.24236L63.425 147.24236L63.425 152.61736Q63.425 154.07048 63.128124 154.67986Q62.83125 155.28923 62.190624 155.63298Q61.55 155.99236 60.6125 155.99236Q59.503124 155.99236 58.815624 155.49236Q58.128124 154.99236 58.14375 153.97673ZM59.01875 150.24236Q59.01875 151.4611 59.503124 152.0236Q59.9875 152.5861 60.721874 152.5861Q61.45625 152.5861 61.940624 152.0236Q62.440624 151.4611 62.440624 150.2736Q62.440624 149.13298 61.925 148.55486Q61.425 147.97673 60.70625 147.97673Q60.003124 147.97673 59.503124 148.55486Q59.01875 149.11736 59.01875 150.24236ZM66.31563 153.4611L65.33125 153.4611L65.33125 144.86736L66.39375 144.86736L66.39375 147.92986Q67.06563 147.10173 68.09688 147.10173Q68.675 147.10173 69.175 147.3361Q69.69063 147.55486 70.01875 147.97673Q70.3625 148.3986 70.55 148.99236Q70.7375 149.5861 70.7375 150.25798Q70.7375 151.85173 69.94063 152.72673Q69.14375 153.60173 68.05 153.60173Q66.94063 153.60173 66.31563 152.67986L66.31563 153.4611ZM66.3 150.30486Q66.3 151.41423 66.6125 151.91423Q67.1125 152.72673 67.95625 152.72673Q68.64375 152.72673 69.14375 152.13298Q69.65938 151.53923 69.65938 150.3361Q69.65938 149.11736 69.175 148.53923Q68.69063 147.9611 68.00313 147.9611Q67.31563 147.9611 66.8 148.57048Q66.3 149.16423 66.3 150.30486Z" fill-rule="nonzero"/><path fill="#000000" d="M54.425 209.90555L54.425 207.84305L50.70625 207.84305L50.70625 206.8743L54.628124 201.3118L55.4875 201.3118L55.4875 206.8743L56.64375 206.8743L56.64375 207.84305L55.4875 207.84305L55.4875 209.90555L54.425 209.90555ZM54.425 206.8743L54.425 203.01492L51.7375 206.8743L54.425 206.8743ZM58.14375 210.42117L59.175 210.57742Q59.2375 211.04617 59.534374 211.26492Q59.925 211.5618 60.596874 211.5618Q61.33125 211.5618 61.721874 211.26492Q62.128124 210.96805 62.26875 210.45242Q62.3625 210.1243 62.346874 209.09305Q61.659374 209.90555 60.628124 209.90555Q59.346874 209.90555 58.64375 208.98367Q57.940624 208.04617 57.940624 206.76492Q57.940624 205.8743 58.253124 205.1243Q58.58125 204.35867 59.190624 203.95242Q59.8 203.54617 60.628124 203.54617Q61.7375 203.54617 62.45625 204.4368L62.45625 203.6868L63.425 203.6868L63.425 209.0618Q63.425 210.51492 63.128124 211.1243Q62.83125 211.73367 62.190624 212.07742Q61.55 212.4368 60.6125 212.4368Q59.503124 212.4368 58.815624 211.9368Q58.128124 211.4368 58.14375 210.42117ZM59.01875 206.6868Q59.01875 207.90555 59.503124 208.46805Q59.9875 209.03055 60.721874 209.03055Q61.45625 209.03055 61.940624 208.46805Q62.440624 207.90555 62.440624 206.71805Q62.440624 205.57742 61.925 204.9993Q61.425 204.42117 60.70625 204.42117Q60.003124 204.42117 59.503124 204.9993Q59.01875 205.5618 59.01875 206.6868ZM66.31563 209.90555L65.33125 209.90555L65.33125 201.3118L66.39375 201.3118L66.39375 204.3743Q67.06563 203.54617 68.09688 203.54617Q68.675 203.54617 69.175 203.78055Q69.69063 203.9993 70.01875 204.42117Q70.3625 204.84305 70.55 205.4368Q70.7375 206.03055 70.7375 206.70242Q70.7375 208.29617 69.94063 209.17117Q69.14375 210.04617 68.05 210.04617Q66.94063 210.04617 66.31563 209.1243L66.31563 209.90555ZM66.3 206.7493Q66.3 207.85867 66.6125 208.35867Q67.1125 209.17117 67.95625 209.17117Q68.64375 209.17117 69.14375 208.57742Q69.65938 207.98367 69.65938 206.78055Q69.65938 205.5618 69.175 204.98367Q68.69063 204.40555 68.00313 204.40555Q67.31563 204.40555 66.8 205.01492Q66.3 205.60867 66.3 206.7493Z" fill-rule="nonzero"/><path fill="#000000" d="M52.675 261.69376Q52.01875 261.44376 51.690624 261.00626Q51.378124 260.55313 51.378124 259.94376Q51.378124 259.00626 52.05 258.36563Q52.7375 257.725 53.846874 257.725Q54.971874 257.725 55.659374 258.38126Q56.346874 259.0375 56.346874 259.975Q56.346874 260.56876 56.034374 261.00626Q55.721874 261.44376 55.08125 261.69376Q55.878124 261.94376 56.284374 262.52188Q56.690624 263.1 56.690624 263.89688Q56.690624 264.99063 55.909374 265.74063Q55.14375 266.49063 53.8625 266.49063Q52.596874 266.49063 51.815624 265.74063Q51.034374 264.99063 51.034374 263.86563Q51.034374 263.02188 51.45625 262.45938Q51.89375 261.89688 52.675 261.69376ZM52.45625 259.89688Q52.45625 260.50626 52.846874 260.89688Q53.253124 261.2875 53.878124 261.2875Q54.4875 261.2875 54.878124 260.9125Q55.26875 260.52188 55.26875 259.95938Q55.26875 259.38126 54.8625 258.99063Q54.45625 258.58438 53.8625 258.58438Q53.253124 258.58438 52.846874 258.975Q52.45625 259.36563 52.45625 259.89688ZM52.128124 263.86563Q52.128124 264.31876 52.33125 264.74063Q52.55 265.1625 52.971874 265.39688Q53.39375 265.63126 53.878124 265.63126Q54.628124 265.63126 55.1125 265.14688Q55.6125 264.6625 55.6125 263.9125Q55.6125 263.14688 55.1125 262.64688Q54.6125 262.14688 53.846874 262.14688Q53.096874 262.14688 52.6125 262.64688Q52.128124 263.13126 52.128124 263.86563ZM58.14375 266.86563L59.175 267.02188Q59.2375 267.49063 59.534374 267.70938Q59.925 268.00626 60.596874 268.00626Q61.33125 268.00626 61.721874 267.70938Q62.128124 267.4125 62.26875 266.89688Q62.3625 266.56876 62.346874 265.5375Q61.659374 266.35 60.628124 266.35Q59.346874 266.35 58.64375 265.42813Q57.940624 264.49063 57.940624 263.20938Q57.940624 262.31876 58.253124 261.56876Q58.58125 260.80313 59.190624 260.39688Q59.8 259.99063 60.628124 259.99063Q61.7375 259.99063 62.45625 260.88126L62.45625 260.13126L63.425 260.13126L63.425 265.50626Q63.425 266.95938 63.128124 267.56876Q62.83125 268.17813 62.190624 268.52188Q61.55 268.88126 60.6125 268.88126Q59.503124 268.88126 58.815624 268.38126Q58.128124 267.88126 58.14375 266.86563ZM59.01875 263.13126Q59.01875 264.35 59.503124 264.9125Q59.9875 265.475 60.721874 265.475Q61.45625 265.475 61.940624 264.9125Q62.440624 264.35 62.440624 263.1625Q62.440624 262.02188 61.925 261.44376Q61.425 260.86563 60.70625 260.86563Q60.003124 260.86563 59.503124 261.44376Q59.01875 262.00626 59.01875 263.13126ZM66.31563 266.35L65.33125 266.35L65.33125 257.75626L66.39375 257.75626L66.39375 260.81876Q67.06563 259.99063 68.09688 259.99063Q68.675 259.99063 69.175 260.225Q69.69063 260.44376 70.01875 260.86563Q70.3625 261.2875 70.55 261.88126Q70.7375 262.475 70.7375 263.14688Q70.7375 264.74063 69.94063 265.61563Q69.14375 266.49063 68.05 266.49063Q66.94063 266.49063 66.31563 265.56876L66.31563 266.35ZM66.3 263.19376Q66.3 264.30313 66.6125 264.80313Q67.1125 265.61563 67.95625 265.61563Q68.64375 265.61563 69.14375 265.02188Q69.65938 264.42813 69.65938 263.225Q69.65938 262.00626 69.175 261.42813Q68.69063 260.85 68.00313 260.85Q67.31563 260.85 66.8 261.45938Q66.3 262.05313 66.3 263.19376Z" fill-rule="nonzero"/><path fill="#000000" d="M66.05 313.21564Q66.05 311.6844 66.3625 310.7625Q66.675 309.825 67.28438 309.325Q67.90938 308.825 68.84688 308.825Q69.53438 308.825 70.05 309.10626Q70.58125 309.3875 70.925 309.91876Q71.26875 310.4344 71.45625 311.1844Q71.64375 311.9344 71.64375 313.21564Q71.64375 314.73126 71.33125 315.65314Q71.03438 316.575 70.40938 317.09064Q69.8 317.59064 68.84688 317.59064Q67.6125 317.59064 66.89375 316.7Q66.05 315.6375 66.05 313.21564ZM67.12813 313.21564Q67.12813 315.325 67.62813 316.02814Q68.12813 316.73126 68.84688 316.73126Q69.58125 316.73126 70.06563 316.02814Q70.56563 315.325 70.56563 313.21564Q70.56563 311.09064 70.06563 310.40314Q69.58125 309.7 68.83125 309.7Q68.1125 309.7 67.675 310.3094Q67.12813 311.09064 67.12813 313.21564ZM73.6125 317.45L73.6125 316.2469L74.81563 316.2469L74.81563 317.45Q74.81563 318.10626 74.58125 318.5125Q74.34688 318.9344 73.84688 319.15314L73.55 318.7Q73.87813 318.5594 74.03438 318.2625Q74.19063 317.98126 74.22188 317.45L73.6125 317.45ZM76.05 313.21564Q76.05 311.6844 76.3625 310.7625Q76.675 309.825 77.28438 309.325Q77.90938 308.825 78.84688 308.825Q79.53438 308.825 80.05 309.10626Q80.58125 309.3875 80.925 309.91876Q81.26875 310.4344 81.45625 311.1844Q81.64375 311.9344 81.64375 313.21564Q81.64375 314.73126 81.33125 315.65314Q81.03438 316.575 80.40938 317.09064Q79.8 317.59064 78.84688 317.59064Q77.6125 317.59064 76.89375 316.7Q76.05 315.6375 76.05 313.21564ZM77.12813 313.21564Q77.12813 315.325 77.62813 316.02814Q78.12813 316.73126 78.84688 316.73126Q79.58125 316.73126 80.06563 316.02814Q80.56563 315.325 80.56563 313.21564Q80.56563 311.09064 80.06563 310.40314Q79.58125 309.7 78.83125 309.7Q78.1125 309.7 77.675 310.3094Q77.12813 311.09064 77.12813 313.21564ZM83.05 313.21564Q83.05 311.6844 83.3625 310.7625Q83.675 309.825 84.28438 309.325Q84.90938 308.825 85.84688 308.825Q86.53438 308.825 87.05 309.10626Q87.58125 309.3875 87.925 309.91876Q88.26875 310.4344 88.45625 311.1844Q88.64375 311.9344 88.64375 313.21564Q88.64375 314.73126 88.33125 315.65314Q88.03438 316.575 87.40938 317.09064Q86.8 317.59064 85.84688 317.59064Q84.6125 317.59064 83.89375 316.7Q83.05 315.6375 83.05 313.21564ZM84.12813 313.21564Q84.12813 315.325 84.62813 316.02814Q85.12813 316.73126 85.84688 316.73126Q86.58125 316.73126 87.06563 316.02814Q87.56563 315.325 87.56563 313.21564Q87.56563 311.09064 87.06563 310.40314Q86.58125 309.7 85.83125 309.7Q85.1125 309.7 84.675 310.3094Q84.12813 311.09064 84.12813 313.21564Z" fill-rule="nonzero"/><path fill="#000000" d="M183.99374 317.45L182.94687 317.45L182.94687 310.73126Q182.55624 311.09064 181.93124 311.46564Q181.32187 311.825 180.8375 311.9969L180.8375 310.98126Q181.7125 310.5594 182.36874 309.98126Q183.04062 309.3875 183.32187 308.825L183.99374 308.825L183.99374 317.45ZM190.025 313.21564Q190.025 311.6844 190.3375 310.7625Q190.65 309.825 191.25937 309.325Q191.88437 308.825 192.82187 308.825Q193.50937 308.825 194.025 309.10626Q194.55624 309.3875 194.9 309.91876Q195.24374 310.4344 195.43124 311.1844Q195.61874 311.9344 195.61874 313.21564Q195.61874 314.73126 195.30624 315.65314Q195.00937 316.575 194.38437 317.09064Q193.775 317.59064 192.82187 317.59064Q191.5875 317.59064 190.86874 316.7Q190.025 315.6375 190.025 313.21564ZM191.10312 313.21564Q191.10312 315.325 191.60312 316.02814Q192.10312 316.73126 192.82187 316.73126Q193.55624 316.73126 194.04062 316.02814Q194.54062 315.325 194.54062 313.21564Q194.54062 311.09064 194.04062 310.40314Q193.55624 309.7 192.80624 309.7Q192.0875 309.7 191.65 310.3094Q191.10312 311.09064 191.10312 313.21564ZM197.025 313.21564Q197.025 311.6844 197.3375 310.7625Q197.65 309.825 198.25937 309.325Q198.88437 308.825 199.82187 308.825Q200.50937 308.825 201.025 309.10626Q201.55624 309.3875 201.9 309.91876Q202.24374 310.4344 202.43124 311.1844Q202.61874 311.9344 202.61874 313.21564Q202.61874 314.73126 202.30624 315.65314Q202.00937 316.575 201.38437 317.09064Q200.775 317.59064 199.82187 317.59064Q198.5875 317.59064 197.86874 316.7Q197.025 315.6375 197.025 313.21564ZM198.10312 313.21564Q198.10312 315.325 198.60312 316.02814Q199.10312 316.73126 199.82187 316.73126Q200.55624 316.73126 201.04062 316.02814Q201.54062 315.325 201.54062 313.21564Q201.54062 311.09064 201.04062 310.40314Q200.55624 309.7 199.80624 309.7Q199.0875 309.7 198.65 310.3094Q198.10312 311.09064 198.10312 313.21564ZM204.025 313.21564Q204.025 311.6844 204.3375 310.7625Q204.65 309.825 205.25937 309.325Q205.88437 308.825 206.82187 308.825Q207.50937 308.825 208.025 309.10626Q208.55624 309.3875 208.9 309.91876Q209.24374 310.4344 209.43124 311.1844Q209.61874 311.9344 209.61874 313.21564Q209.61874 314.73126 209.30624 315.65314Q209.00937 316.575 208.38437 317.09064Q207.775 317.59064 206.82187 317.59064Q205.5875 317.59064 204.86874 316.7Q204.025 315.6375 204.025 313.21564ZM205.10312 313.21564Q205.10312 315.325 205.60312 316.02814Q206.10312 316.73126 206.82187 316.73126Q207.55624 316.73126 208.04062 316.02814Q208.54062 315.325 208.54062 313.21564Q208.54062 311.09064 208.04062 310.40314Q207.55624 309.7 206.80624 309.7Q206.0875 309.7 205.65 310.3094Q205.10312 311.09064 205.10312 313.21564ZM211.5875 317.45L211.5875 316.2469L212.79062 316.2469L212.79062 317.45Q212.79062 318.10626 212.55624 318.5125Q212.32187 318.9344 211.82187 319.15314L211.525 318.7Q211.85312 318.5594 212.00937 318.2625Q212.16562 317.98126 212.19687 317.45L211.5875 317.45ZM214.025 313.21564Q214.025 311.6844 214.3375 310.7625Q214.65 309.825 215.25937 309.325Q215.88437 308.825 216.82187 308.825Q217.50937 308.825 218.025 309.10626Q218.55624 309.3875 218.9 309.91876Q219.24374 310.4344 219.43124 311.1844Q219.61874 311.9344 219.61874 313.21564Q219.61874 314.73126 219.30624 315.65314Q219.00937 316.575 218.38437 317.09064Q217.775 317.59064 216.82187 317.59064Q215.5875 317.59064 214.86874 316.7Q214.025 315.6375 214.025 313.21564ZM215.10312 313.21564Q215.10312 315.325 215.60312 316.02814Q216.10312 316.73126 216.82187 316.73126Q217.55624 316.73126 218.04062 316.02814Q218.54062 315.325 218.54062 313.21564Q218.54062 311.09064 218.04062 310.40314Q217.55624 309.7 216.80624 309.7Q216.0875 309.7 215.65 310.3094Q215.10312 311.09064 215.10312 313.21564ZM221.025 313.21564Q221.025 311.6844 221.3375 310.7625Q221.65 309.825 222.25937 309.325Q222.88437 308.825 223.82187 308.825Q224.50937 308.825 225.025 309.10626Q225.55624 309.3875 225.9 309.91876Q226.24374 310.4344 226.43124 311.1844Q226.61874 311.9344 226.61874 313.21564Q226.61874 314.73126 226.30624 315.65314Q226.00937 316.575 225.38437 317.09064Q224.775 317.59064 223.82187 317.59064Q222.5875 317.59064 221.86874 316.7Q221.025 315.6375 221.025 313.21564ZM222.10312 313.21564Q222.10312 315.325 222.60312 316.02814Q223.10312 316.73126 223.82187 316.73126Q224.55624 316.73126 225.04062 316.02814Q225.54062 315.325 225.54062 313.21564Q225.54062 311.09064 225.04062 310.40314Q224.55624 309.7 223.80624 309.7Q223.0875 309.7 222.65 310.3094Q222.10312 311.09064 222.10312 313.21564Z" fill-rule="nonzero"/><path fill="#000000" d="M311.54688 316.4344L311.54688 317.45L305.85938 317.45Q305.85938 317.075 305.98438 316.71564Q306.20312 316.1375 306.67188 315.575Q307.15625 315.0125 308.0625 314.27814Q309.46875 313.1219 309.95312 312.45Q310.45312 311.77814 310.45312 311.1844Q310.45312 310.5594 310.0 310.1375Q309.54688 309.7 308.82812 309.7Q308.0625 309.7 307.60938 310.15314Q307.15625 310.60626 307.14062 311.41876L306.0625 311.3094Q306.17188 310.09064 306.89062 309.46564Q307.625 308.825 308.85938 308.825Q310.09375 308.825 310.8125 309.5125Q311.53125 310.2 311.53125 311.21564Q311.53125 311.73126 311.3125 312.23126Q311.10938 312.71564 310.60938 313.27814Q310.125 313.825 309.0 314.77814Q308.04688 315.575 307.76562 315.8719Q307.5 316.15314 307.32812 316.4344L311.54688 316.4344ZM316.0 313.21564Q316.0 311.6844 316.3125 310.7625Q316.625 309.825 317.23438 309.325Q317.85938 308.825 318.79688 308.825Q319.48438 308.825 320.0 309.10626Q320.53125 309.3875 320.875 309.91876Q321.21875 310.4344 321.40625 311.1844Q321.59375 311.9344 321.59375 313.21564Q321.59375 314.73126 321.28125 315.65314Q320.98438 316.575 320.35938 317.09064Q319.75 317.59064 318.79688 317.59064Q317.5625 317.59064 316.84375 316.7Q316.0 315.6375 316.0 313.21564ZM317.07812 313.21564Q317.07812 315.325 317.57812 316.02814Q318.07812 316.73126 318.79688 316.73126Q319.53125 316.73126 320.01562 316.02814Q320.51562 315.325 320.51562 313.21564Q320.51562 311.09064 320.01562 310.40314Q319.53125 309.7 318.78125 309.7Q318.0625 309.7 317.625 310.3094Q317.07812 311.09064 317.07812 313.21564ZM323.0 313.21564Q323.0 311.6844 323.3125 310.7625Q323.625 309.825 324.23438 309.325Q324.85938 308.825 325.79688 308.825Q326.48438 308.825 327.0 309.10626Q327.53125 309.3875 327.875 309.91876Q328.21875 310.4344 328.40625 311.1844Q328.59375 311.9344 328.59375 313.21564Q328.59375 314.73126 328.28125 315.65314Q327.98438 316.575 327.35938 317.09064Q326.75 317.59064 325.79688 317.59064Q324.5625 317.59064 323.84375 316.7Q323.0 315.6375 323.0 313.21564ZM324.07812 313.21564Q324.07812 315.325 324.57812 316.02814Q325.07812 316.73126 325.79688 316.73126Q326.53125 316.73126 327.01562 316.02814Q327.51562 315.325 327.51562 313.21564Q327.51562 311.09064 327.01562 310.40314Q326.53125 309.7 325.78125 309.7Q325.0625 309.7 324.625 310.3094Q324.07812 311.09064 324.07812 313.21564ZM330.0 313.21564Q330.0 311.6844 330.3125 310.7625Q330.625 309.825 331.23438 309.325Q331.85938 308.825 332.79688 308.825Q333.48438 308.825 334.0 309.10626Q334.53125 309.3875 334.875 309.91876Q335.21875 310.4344 335.40625 311.1844Q335.59375 311.9344 335.59375 313.21564Q335.59375 314.73126 335.28125 315.65314Q334.98438 316.575 334.35938 317.09064Q333.75 317.59064 332.79688 317.59064Q331.5625 317.59064 330.84375 316.7Q330.0 315.6375 330.0 313.21564ZM331.07812 313.21564Q331.07812 315.325 331.57812 316.02814Q332.07812 316.73126 332.79688 316.73126Q333.53125 316.73126 334.01562 316.02814Q334.51562 315.325 334.51562 313.21564Q334.51562 311.09064 334.01562 310.40314Q333.53125 309.7 332.78125 309.7Q332.0625 309.7 331.625 310.3094Q331.07812 311.09064 331.07812 313.21564ZM337.5625 317.45L337.5625 316.2469L338.76562 316.2469L338.76562 317.45Q338.76562 318.10626 338.53125 318.5125Q338.29688 318.9344 337.79688 319.15314L337.5 318.7Q337.82812 318.5594 337.98438 318.2625Q338.14062 317.98126 338.17188 317.45L337.5625 317.45ZM340.0 313.21564Q340.0 311.6844 340.3125 310.7625Q340.625 309.825 341.23438 309.325Q341.85938 308.825 342.79688 308.825Q343.48438 308.825 344.0 309.10626Q344.53125 309.3875 344.875 309.91876Q345.21875 310.4344 345.40625 311.1844Q345.59375 311.9344 345.59375 313.21564Q345.59375 314.73126 345.28125 315.65314Q344.98438 316.575 344.35938 317.09064Q343.75 317.59064 342.79688 317.59064Q341.5625 317.59064 340.84375 316.7Q340.0 315.6375 340.0 313.21564ZM341.07812 313.21564Q341.07812 315.325 341.57812 316.02814Q342.07812 316.73126 342.79688 316.73126Q343.53125 316.73126 344.01562 316.02814Q344.51562 315.325 344.51562 313.21564Q344.51562 311.09064 344.01562 310.40314Q343.53125 309.7 342.78125 309.7Q342.0625 309.7 341.625 310.3094Q341.07812 311.09064 341.07812 313.21564ZM347.0 313.21564Q347.0 311.6844 347.3125 310.7625Q347.625 309.825 348.23438 309.325Q348.85938 308.825 349.79688 308.825Q350.48438 308.825 351.0 309.10626Q351.53125 309.3875 351.875 309.91876Q352.21875 310.4344 352.40625 311.1844Q352.59375 311.9344 352.59375 313.21564Q352.59375 314.73126 352.28125 315.65314Q351.98438 316.575 351.35938 317.09064Q350.75 317.59064 349.79688 317.59064Q348.5625 317.59064 347.84375 316.7Q347.0 315.6375 347.0 313.21564ZM348.07812 313.21564Q348.07812 315.325 348.57812 316.02814Q349.07812 316.73126 349.79688 316.73126Q350.53125 316.73126 351.01562 316.02814Q351.51562 315.325 351.51562 313.21564Q351.51562 311.09064 351.01562 310.40314Q350.53125 309.7 349.78125 309.7Q349.0625 309.7 348.625 310.3094Q348.07812 311.09064 348.07812 313.21564Z" fill-rule="nonzero"/><path fill="#000000" d="M431.975 315.1844L433.0375 315.04376Q433.20938 315.9344 433.64688 316.34064Q434.08438 316.73126 434.70938 316.73126Q435.45938 316.73126 435.975 316.21564Q436.49063 315.7 436.49063 314.9344Q436.49063 314.21564 436.00626 313.7469Q435.5375 313.2625 434.80313 313.2625Q434.50626 313.2625 434.05313 313.3875L434.17813 312.45Q434.2875 312.46564 434.35 312.46564Q435.02188 312.46564 435.55313 312.1219Q436.1 311.7625 436.1 311.02814Q436.1 310.45 435.70938 310.075Q435.31876 309.6844 434.69376 309.6844Q434.08438 309.6844 433.6625 310.075Q433.25626 310.46564 433.14688 311.23126L432.08438 311.04376Q432.27188 309.9969 432.95938 309.41876Q433.64688 308.825 434.6625 308.825Q435.36563 308.825 435.95938 309.1375Q436.55313 309.4344 436.86563 309.95Q437.17813 310.46564 437.17813 311.0594Q437.17813 311.60626 436.88126 312.075Q436.58438 312.52814 436.00626 312.79376Q436.75626 312.96564 437.17813 313.52814Q437.6 314.075 437.6 314.91876Q437.6 316.04376 436.77188 316.825Q435.95938 317.60626 434.70938 317.60626Q433.58438 317.60626 432.83438 316.9344Q432.08438 316.2469 431.975 315.1844ZM441.975 313.21564Q441.975 311.6844 442.2875 310.7625Q442.6 309.825 443.20938 309.325Q443.83438 308.825 444.77188 308.825Q445.45938 308.825 445.975 309.10626Q446.50626 309.3875 446.85 309.91876Q447.19376 310.4344 447.38126 311.1844Q447.56876 311.9344 447.56876 313.21564Q447.56876 314.73126 447.25626 315.65314Q446.95938 316.575 446.33438 317.09064Q445.725 317.59064 444.77188 317.59064Q443.5375 317.59064 442.81876 316.7Q441.975 315.6375 441.975 313.21564ZM443.05313 313.21564Q443.05313 315.325 443.55313 316.02814Q444.05313 316.73126 444.77188 316.73126Q445.50626 316.73126 445.99063 316.02814Q446.49063 315.325 446.49063 313.21564Q446.49063 311.09064 445.99063 310.40314Q445.50626 309.7 444.75626 309.7Q444.0375 309.7 443.6 310.3094Q443.05313 311.09064 443.05313 313.21564ZM448.975 313.21564Q448.975 311.6844 449.2875 310.7625Q449.6 309.825 450.20938 309.325Q450.83438 308.825 451.77188 308.825Q452.45938 308.825 452.975 309.10626Q453.50626 309.3875 453.85 309.91876Q454.19376 310.4344 454.38126 311.1844Q454.56876 311.9344 454.56876 313.21564Q454.56876 314.73126 454.25626 315.65314Q453.95938 316.575 453.33438 317.09064Q452.725 317.59064 451.77188 317.59064Q450.5375 317.59064 449.81876 316.7Q448.975 315.6375 448.975 313.21564ZM450.05313 313.21564Q450.05313 315.325 450.55313 316.02814Q451.05313 316.73126 451.77188 316.73126Q452.50626 316.73126 452.99063 316.02814Q453.49063 315.325 453.49063 313.21564Q453.49063 311.09064 452.99063 310.40314Q452.50626 309.7 451.75626 309.7Q451.0375 309.7 450.6 310.3094Q450.05313 311.09064 450.05313 313.21564ZM455.975 313.21564Q455.975 311.6844 456.2875 310.7625Q456.6 309.825 457.20938 309.325Q457.83438 308.825 458.77188 308.825Q459.45938 308.825 459.975 309.10626Q460.50626 309.3875 460.85 309.91876Q461.19376 310.4344 461.38126 311.1844Q461.56876 311.9344 461.56876 313.21564Q461.56876 314.73126 461.25626 315.65314Q460.95938 316.575 460.33438 317.09064Q459.725 317.59064 458.77188 317.59064Q457.5375 317.59064 456.81876 316.7Q455.975 315.6375 455.975 313.21564ZM457.05313 313.21564Q457.05313 315.325 457.55313 316.02814Q458.05313 316.73126 458.77188 316.73126Q459.50626 316.73126 459.99063 316.02814Q460.49063 315.325 460.49063 313.21564Q460.49063 311.09064 459.99063 310.40314Q459.50626 309.7 458.75626 309.7Q458.0375 309.7 457.6 310.3094Q457.05313 311.09064 457.05313 313.21564ZM463.5375 317.45L463.5375 316.2469L464.74063 316.2469L464.74063 317.45Q464.74063 318.10626 464.50626 318.5125Q464.27188 318.9344 463.77188 319.15314L463.475 318.7Q463.80313 318.5594 463.95938 318.2625Q464.11563 317.98126 464.14688 317.45L463.5375 317.45ZM465.975 313.21564Q465.975 311.6844 466.2875 310.7625Q466.6 309.825 467.20938 309.325Q467.83438 308.825 468.77188 308.825Q469.45938 308.825 469.975 309.10626Q470.50626 309.3875 470.85 309.91876Q471.19376 310.4344 471.38126 311.1844Q471.56876 311.9344 471.56876 313.21564Q471.56876 314.73126 471.25626 315.65314Q470.95938 316.575 470.33438 317.09064Q469.725 317.59064 468.77188 317.59064Q467.5375 317.59064 466.81876 316.7Q465.975 315.6375 465.975 313.21564ZM467.05313 313.21564Q467.05313 315.325 467.55313 316.02814Q468.05313 316.73126 468.77188 316.73126Q469.50626 316.73126 469.99063 316.02814Q470.49063 315.325 470.49063 313.21564Q470.49063 311.09064 469.99063 310.40314Q469.50626 309.7 468.75626 309.7Q468.0375 309.7 467.6 310.3094Q467.05313 311.09064 467.05313 313.21564ZM472.975 313.21564Q472.975 311.6844 473.2875 310.7625Q473.6 309.825 474.20938 309.325Q474.83438 308.825 475.77188 308.825Q476.45938 308.825 476.975 309.10626Q477.50626 309.3875 477.85 309.91876Q478.19376 310.4344 478.38126 311.1844Q478.56876 311.9344 478.56876 313.21564Q478.56876 314.73126 478.25626 315.65314Q477.95938 316.575 477.33438 317.09064Q476.725 317.59064 475.77188 317.59064Q474.5375 317.59064 473.81876 316.7Q472.975 315.6375 472.975 313.21564ZM474.05313 313.21564Q474.05313 315.325 474.55313 316.02814Q475.05313 316.73126 475.77188 316.73126Q476.50626 316.73126 476.99063 316.02814Q477.49063 315.325 477.49063 313.21564Q477.49063 311.09064 476.99063 310.40314Q476.50626 309.7 475.75626 309.7Q475.0375 309.7 474.6 310.3094Q474.05313 311.09064 474.05313 313.21564Z" fill-rule="nonzero"/><path fill="#757575" d="M20.409374 37.55L20.409374 23.2375L22.315624 23.2375L22.315624 37.55L20.409374 37.55ZM24.55 37.8L28.70625 22.9875L30.1125 22.9875L25.971874 37.8L24.55 37.8ZM31.51875 30.58125Q31.51875 27.01875 33.425 25.003124Q35.346874 22.971874 38.378124 22.971874Q40.3625 22.971874 41.940624 23.925Q43.534374 24.878124 44.3625 26.58125Q45.20625 28.26875 45.20625 30.409374Q45.20625 32.58125 44.33125 34.3Q43.45625 36.01875 41.83125 36.909374Q40.221874 37.8 38.3625 37.8Q36.346874 37.8 34.753124 36.83125Q33.159374 35.846874 32.33125 34.159374Q31.51875 32.45625 31.51875 30.58125ZM33.471874 30.6125Q33.471874 33.190624 34.8625 34.690624Q36.253124 36.175 38.346874 36.175Q40.4875 36.175 41.8625 34.675Q43.253124 33.159374 43.253124 30.39375Q43.253124 28.659374 42.659374 27.3625Q42.08125 26.05 40.940624 25.33125Q39.8 24.6125 38.378124 24.6125Q36.378124 24.6125 34.925 26.003124Q33.471874 27.378124 33.471874 30.6125ZM56.596874 37.55L52.8 23.2375L54.7375 23.2375L56.909374 32.6125Q57.26875 34.096874 57.51875 35.55Q58.065624 33.253124 58.159374 32.89375L60.89375 23.2375L63.175 23.2375L65.22188 30.471874Q66.00313 33.175 66.34688 35.55Q66.6125 34.190624 67.05 32.425L69.3 23.2375L71.20625 23.2375L67.28438 37.55L65.45625 37.55L62.440624 26.64375Q62.05 25.26875 61.9875 24.95625Q61.753124 25.940624 61.565624 26.64375L58.534374 37.55L56.596874 37.55ZM72.84688 37.55L72.84688 27.175L74.425 27.175L74.425 28.753124Q75.03438 27.64375 75.55 27.3Q76.06563 26.940624 76.675 26.940624Q77.56563 26.940624 78.4875 27.503124L77.87813 29.14375Q77.2375 28.753124 76.59688 28.753124Q76.01875 28.753124 75.55 29.1125Q75.09688 29.45625 74.89375 30.065624Q74.6125 31.003124 74.6125 32.1125L74.6125 37.55L72.84688 37.55ZM79.87813 25.253124L79.87813 23.2375L81.64375 23.2375L81.64375 25.253124L79.87813 25.253124ZM79.87813 37.55L79.87813 27.175L81.64375 27.175L81.64375 37.55L79.87813 37.55ZM87.70625 35.971874L87.95625 37.534374Q87.22188 37.690624 86.62813 37.690624Q85.675 37.690624 85.14375 37.39375Q84.62813 37.08125 84.40938 36.596874Q84.19063 36.096874 84.19063 34.51875L84.19063 28.55L82.90938 28.55L82.90938 27.175L84.19063 27.175L84.19063 24.6125L85.94063 23.55L85.94063 27.175L87.70625 27.175L87.70625 28.55L85.94063 28.55L85.94063 34.6125Q85.94063 35.3625 86.03438 35.58125Q86.12813 35.784374 86.33125 35.925Q86.55 36.05 86.94063 36.05Q87.22188 36.05 87.70625 35.971874ZM93.70625 35.971874L93.95625 37.534374Q93.22188 37.690624 92.62813 37.690624Q91.675 37.690624 91.14375 37.39375Q90.62813 37.08125 90.40938 36.596874Q90.19063 36.096874 90.19063 34.51875L90.19063 28.55L88.90938 28.55L88.90938 27.175L90.19063 27.175L90.19063 24.6125L91.94063 23.55L91.94063 27.175L93.70625 27.175L93.70625 28.55L91.94063 28.55L91.94063 34.6125Q91.94063 35.3625 92.03438 35.58125Q92.12813 35.784374 92.33125 35.925Q92.55 36.05 92.94063 36.05Q93.22188 36.05 93.70625 35.971874ZM102.97188 34.20625L104.78438 34.440624Q104.3625 36.01875 103.19063 36.909374Q102.03438 37.784374 100.22188 37.784374Q97.95625 37.784374 96.6125 36.39375Q95.28438 34.9875 95.28438 32.45625Q95.28438 29.83125 96.62813 28.39375Q97.97188 26.940624 100.12813 26.940624Q102.20625 26.940624 103.51875 28.3625Q104.84688 29.76875 104.84688 32.346874Q104.84688 32.503124 104.83125 32.815624L97.09688 32.815624Q97.19063 34.51875 98.06563 35.425Q98.94063 36.33125 100.2375 36.33125Q101.20625 36.33125 101.87813 35.83125Q102.56563 35.315624 102.97188 34.20625ZM97.19063 31.3625L102.9875 31.3625Q102.87813 30.065624 102.33125 29.409374Q101.4875 28.39375 100.14375 28.39375Q98.94063 28.39375 98.1125 29.20625Q97.28438 30.003124 97.19063 31.3625ZM106.8625 37.55L106.8625 27.175L108.45625 27.175L108.45625 28.659374Q109.59688 26.940624 111.75313 26.940624Q112.69063 26.940624 113.47188 27.284374Q114.26875 27.6125 114.65938 28.159374Q115.05 28.70625 115.20625 29.45625Q115.3 29.95625 115.3 31.175L115.3 37.55L113.53438 37.55L113.53438 31.2375Q113.53438 30.159374 113.33125 29.628124Q113.12813 29.096874 112.59688 28.784374Q112.08125 28.471874 111.37813 28.471874Q110.25313 28.471874 109.44063 29.190624Q108.62813 29.89375 108.62813 31.878124L108.62813 37.55L106.8625 37.55ZM126.22188 41.753124Q124.76875 39.925 123.76875 37.471874Q122.76875 35.003124 122.76875 32.3625Q122.76875 30.034374 123.51875 27.909374Q124.39375 25.440624 126.22188 22.9875L127.4875 22.9875Q126.3 25.01875 125.925 25.89375Q125.33125 27.2375 124.9875 28.70625Q124.56563 30.534374 124.56563 32.378124Q124.56563 37.065624 127.4875 41.753124L126.22188 41.753124ZM130.03438 37.55L130.03438 23.2375L132.89375 23.2375L136.26875 33.3625Q136.7375 34.784374 136.95625 35.4875Q137.20625 34.70625 137.72188 33.190624L141.14375 23.2375L143.69063 23.2375L143.69063 37.55L141.87813 37.55L141.87813 25.565624L137.70625 37.55L136.00313 37.55L131.8625 25.3625L131.8625 37.55L130.03438 37.55ZM146.87813 25.253124L146.87813 23.2375L148.64375 23.2375L148.64375 25.253124L146.87813 25.253124ZM146.87813 37.55L146.87813 27.175L148.64375 27.175L148.64375 37.55L146.87813 37.55ZM151.01875 37.55L151.01875 23.2375L156.39375 23.2375Q158.03438 23.2375 159.01875 23.675Q160.00313 24.096874 160.56563 25.003124Q161.12813 25.909374 161.12813 26.89375Q161.12813 27.815624 160.62813 28.628124Q160.14375 29.440624 159.12813 29.925Q160.425 30.315624 161.12813 31.2375Q161.83125 32.14375 161.83125 33.39375Q161.83125 34.409374 161.39375 35.26875Q160.97188 36.128124 160.34688 36.596874Q159.72188 37.065624 158.78438 37.315624Q157.84688 37.55 156.47188 37.55L151.01875 37.55ZM152.90938 29.253124L156.00313 29.253124Q157.26875 29.253124 157.81563 29.08125Q158.53438 28.8625 158.89375 28.378124Q159.26875 27.878124 159.26875 27.1125Q159.26875 26.409374 158.925 25.8625Q158.58125 25.315624 157.94063 25.128124Q157.31563 24.925 155.76875 24.925L152.90938 24.925L152.90938 29.253124ZM152.90938 35.8625L156.47188 35.8625Q157.39375 35.8625 157.76875 35.784374Q158.425 35.675 158.8625 35.409374Q159.3 35.128124 159.58125 34.6125Q159.8625 34.08125 159.8625 33.39375Q159.8625 32.596874 159.45625 32.003124Q159.05 31.409374 158.31563 31.175Q157.58125 30.940624 156.22188 30.940624L152.90938 30.940624L152.90938 35.8625ZM165.01875 41.753124L163.76875 41.753124Q166.675 37.065624 166.675 32.378124Q166.675 30.534374 166.26875 28.7375Q165.925 27.26875 165.33125 25.925Q164.95625 25.034374 163.76875 22.9875L165.01875 22.9875Q166.8625 25.440624 167.7375 27.909374Q168.4875 30.034374 168.4875 32.3625Q168.4875 35.003124 167.47188 37.471874Q166.47188 39.925 165.01875 41.753124Z" fill-rule="nonzero"/></svg>