<svg version="1.1" viewBox="0.0 0.0 600.0 371.0" fill="none" stroke="none" stroke-linecap="square" stroke-miterlimit="10" width="600" height="371" xmlns:xlink="http://www.w3.org/1999/xlink" xmlns="http://www.w3.org/2000/svg"><path fill="#ffffff" d="M0 0L600.0 0L600.0 371.0L0 371.0L0 0Z" fill-rule="nonzero"/><path stroke="#333333" stroke-width="1.0" stroke-linecap="butt" d="M77.5 54.5L77.5 300.5" fill-rule="nonzero"/><path stroke="#cccccc" stroke-width="1.0" stroke-linecap="butt" d="M203.5 54.5L203.5 300.5" fill-rule="nonzero"/><path stroke="#cccccc" stroke-width="1.0" stroke-linecap="butt" d="M329.5 54.5L329.5 300.5" fill-rule="nonzero"/><path stroke="#cccccc" stroke-width="1.0" stroke-linecap="butt" d="M455.5 54.5L455.5 300.5" fill-rule="nonzero"/><path stroke="#cccccc" stroke-width="1.0" stroke-linecap="butt" d="M581.5 54.5L581.5 300.5" fill-rule="nonzero"/><clipPath id="id_0"><path d="M77.55 54.916668L581.45 54.916668L581.45 300.45L77.55 300.45L77.55 54.916668Z" clip-rule="nonzero"/></clipPath><path stroke="#000000" stroke-width="2.0" stroke-linecap="butt" stroke-opacity="0.0" clip-path="url(#id_0)" d="M78.0 112.0L78.0 75.0L502.0 75.0C503.10458 75.0 504.0 75.89543 504.0 77.0L504.0 110.0C504.0 111.10457 503.10458 112.0 502.0 112.0Z" fill-rule="nonzero"/><path fill="#4285f4" clip-path="url(#id_0)" d="M78.0 112.0L78.0 75.0L502.0 75.0C503.10458 75.0 504.0 75.89543 504.0 77.0L504.0 110.0C504.0 111.10457 503.10458 112.0 502.0 112.0Z" fill-rule="nonzero"/><path stroke="#000000" stroke-width="2.0" stroke-linecap="butt" stroke-opacity="0.0" clip-path="url(#id_0)" d="M78.0 168.0L78.0 131.0L524.0 131.0C525.10455 131.0 526.0 131.89543 526.0 133.0L526.0 166.0C526.0 167.10457 525.10455 168.0 524.0 168.0Z" fill-rule="nonzero"/><path fill="#4285f4" clip-path="url(#id_0)" d="M78.0 168.0L78.0 131.0L524.0 131.0C525.10455 131.0 526.0 131.89543 526.0 133.0L526.0 166.0C526.0 167.10457 525.10455 168.0 524.0 168.0Z" fill-rule="nonzero"/><path stroke="#000000" stroke-width="2.0" stroke-linecap="butt" stroke-opacity="0.0" clip-path="url(#id_0)" d="M78.0 225.0L78.0 188.0L500.0 188.0C501.10458 188.0 502.0 188.89543 502.0 190.0L502.0 223.0C502.0 224.10457 501.10458 225.0 500.0 225.0Z" fill-rule="nonzero"/><path fill="#4285f4" clip-path="url(#id_0)" d="M78.0 225.0L78.0 188.0L500.0 188.0C501.10458 188.0 502.0 188.89543 502.0 190.0L502.0 223.0C502.0 224.10457 501.10458 225.0 500.0 225.0Z" fill-rule="nonzero"/><path stroke="#000000" stroke-width="2.0" stroke-linecap="butt" stroke-opacity="0.0" clip-path="url(#id_0)" d="M78.0 281.0L78.0 244.0L525.0 244.0C526.10455 244.0 527.0 244.89543 527.0 246.0L527.0 279.0C527.0 280.10458 526.10455 281.0 525.0 281.0Z" fill-rule="nonzero"/><path fill="#4285f4" clip-path="url(#id_0)" d="M78.0 281.0L78.0 244.0L525.0 244.0C526.10455 244.0 527.0 244.89543 527.0 246.0L527.0 279.0C527.0 280.10458 526.10455 281.0 525.0 281.0Z" fill-rule="nonzero"/><path stroke="#4285f4" stroke-width="3.0" stroke-linejoin="round" stroke-linecap="round" d="M467.75748 91.1875Q467.75748 91.828125 467.41373 92.328125Q467.06998 92.828125 466.50748 93.109375Q467.16373 93.390625 467.55435 93.953125Q467.94498 94.5 467.94498 95.203125Q467.94498 96.296875 467.19498 96.96875Q466.4606 97.625 465.24185 97.625Q464.00748 97.625 463.25748 96.96875Q462.5231 96.296875 462.5231 95.203125Q462.5231 94.5 462.8981 93.953125Q463.2731 93.390625 463.94498 93.109375Q463.38248 92.828125 463.05435 92.328125Q462.72623 91.828125 462.72623 91.1875Q462.72623 90.109375 463.41373 89.484375Q464.10123 88.84375 465.24185 88.84375Q466.36685 88.84375 467.05435 89.484375Q467.75748 90.109375 467.75748 91.1875ZM466.86685 95.171875Q466.86685 94.453125 466.41373 94.015625Q465.9606 93.5625 465.22623 93.5625Q464.49185 93.5625 464.03873 94.015625Q463.60123 94.453125 463.60123 95.1875Q463.60123 95.90625 464.03873 96.328125Q464.47623 96.734375 465.24185 96.734375Q465.99185 96.734375 466.42935 96.3125Q466.86685 95.890625 466.86685 95.171875ZM465.24185 89.734375Q464.60123 89.734375 464.19498 90.140625Q463.80435 90.53125 463.80435 91.21875Q463.80435 91.859375 464.19498 92.265625Q464.5856 92.671875 465.22623 92.671875Q465.88248 92.671875 466.2731 92.265625Q466.66373 91.859375 466.66373 91.21875Q466.66373 90.5625 466.25748 90.15625Q465.85123 89.734375 465.24185 89.734375ZM474.1481 94.640625L475.3356 94.640625L475.3356 95.515625L474.1481 95.515625L474.1481 97.5L473.06998 97.5L473.06998 95.515625L469.17935 95.515625L469.17935 94.875L472.99185 88.96875L474.1481 88.96875L474.1481 94.640625ZM470.41373 94.640625L473.06998 94.640625L473.06998 90.453125L472.92935 90.6875L470.41373 94.640625ZM477.06998 93.21875L477.50748 88.96875L481.88248 88.96875L481.88248 89.96875L478.42935 89.96875L478.16373 92.296875Q478.80435 91.921875 479.60123 91.921875Q480.75748 91.921875 481.44498 92.703125Q482.13248 93.46875 482.13248 94.78125Q482.13248 96.09375 481.41373 96.859375Q480.7106 97.625 479.42935 97.625Q478.30435 97.625 477.5856 97.0Q476.86685 96.359375 476.7731 95.25L477.78873 95.25Q477.8981 95.984375 478.31998 96.359375Q478.74185 96.734375 479.42935 96.734375Q480.17935 96.734375 480.61685 96.21875Q481.05435 95.703125 481.05435 94.796875Q481.05435 93.9375 480.5856 93.421875Q480.11685 92.90625 479.3356 92.90625Q478.63248 92.90625 478.22623 93.203125L477.94498 93.4375L477.06998 93.21875ZM483.6481 99.203125L483.03873 98.78125Q483.5856 98.015625 483.61685 97.1875L483.61685 96.21875L484.67935 96.21875L484.67935 97.0625Q484.67935 97.65625 484.38248 98.25Q484.0856 98.84375 483.6481 99.203125ZM489.8356 88.96875L489.8356 89.875L489.63248 89.875Q488.36685 89.90625 487.61685 90.640625Q486.86685 91.359375 486.74185 92.671875Q487.42935 91.90625 488.5856 91.90625Q489.69498 91.90625 490.36685 92.6875Q491.03873 93.46875 491.03873 94.71875Q491.03873 96.03125 490.31998 96.828125Q489.60123 97.625 488.38248 97.625Q487.16373 97.625 486.3981 96.6875Q485.6481 95.734375 485.6481 94.25L485.6481 93.84375Q485.6481 91.484375 486.6481 90.234375Q487.6481 88.984375 489.63248 88.96875L489.8356 88.96875ZM488.41373 92.8125Q487.85123 92.8125 487.38248 93.140625Q486.91373 93.46875 486.72623 93.984375L486.72623 94.375Q486.72623 95.4375 487.19498 96.078125Q487.67935 96.71875 488.38248 96.71875Q489.11685 96.71875 489.53873 96.1875Q489.9606 95.640625 489.9606 94.765625Q489.9606 93.890625 489.53873 93.359375Q489.11685 92.8125 488.41373 92.8125ZM497.1481 94.640625L498.3356 94.640625L498.3356 95.515625L497.1481 95.515625L497.1481 97.5L496.06998 97.5L496.06998 95.515625L492.17935 95.515625L492.17935 94.875L495.99185 88.96875L497.1481 88.96875L497.1481 94.640625ZM493.41373 94.640625L496.06998 94.640625L496.06998 90.453125L495.92935 90.6875L493.41373 94.640625Z" fill-rule="nonzero"/><path fill="#ffffff" d="M467.75748 91.1875Q467.75748 91.828125 467.41373 92.328125Q467.06998 92.828125 466.50748 93.109375Q467.16373 93.390625 467.55435 93.953125Q467.94498 94.5 467.94498 95.203125Q467.94498 96.296875 467.19498 96.96875Q466.4606 97.625 465.24185 97.625Q464.00748 97.625 463.25748 96.96875Q462.5231 96.296875 462.5231 95.203125Q462.5231 94.5 462.8981 93.953125Q463.2731 93.390625 463.94498 93.109375Q463.38248 92.828125 463.05435 92.328125Q462.72623 91.828125 462.72623 91.1875Q462.72623 90.109375 463.41373 89.484375Q464.10123 88.84375 465.24185 88.84375Q466.36685 88.84375 467.05435 89.484375Q467.75748 90.109375 467.75748 91.1875ZM466.86685 95.171875Q466.86685 94.453125 466.41373 94.015625Q465.9606 93.5625 465.22623 93.5625Q464.49185 93.5625 464.03873 94.015625Q463.60123 94.453125 463.60123 95.1875Q463.60123 95.90625 464.03873 96.328125Q464.47623 96.734375 465.24185 96.734375Q465.99185 96.734375 466.42935 96.3125Q466.86685 95.890625 466.86685 95.171875ZM465.24185 89.734375Q464.60123 89.734375 464.19498 90.140625Q463.80435 90.53125 463.80435 91.21875Q463.80435 91.859375 464.19498 92.265625Q464.5856 92.671875 465.22623 92.671875Q465.88248 92.671875 466.2731 92.265625Q466.66373 91.859375 466.66373 91.21875Q466.66373 90.5625 466.25748 90.15625Q465.85123 89.734375 465.24185 89.734375ZM474.1481 94.640625L475.3356 94.640625L475.3356 95.515625L474.1481 95.515625L474.1481 97.5L473.06998 97.5L473.06998 95.515625L469.17935 95.515625L469.17935 94.875L472.99185 88.96875L474.1481 88.96875L474.1481 94.640625ZM470.41373 94.640625L473.06998 94.640625L473.06998 90.453125L472.92935 90.6875L470.41373 94.640625ZM477.06998 93.21875L477.50748 88.96875L481.88248 88.96875L481.88248 89.96875L478.42935 89.96875L478.16373 92.296875Q478.80435 91.921875 479.60123 91.921875Q480.75748 91.921875 481.44498 92.703125Q482.13248 93.46875 482.13248 94.78125Q482.13248 96.09375 481.41373 96.859375Q480.7106 97.625 479.42935 97.625Q478.30435 97.625 477.5856 97.0Q476.86685 96.359375 476.7731 95.25L477.78873 95.25Q477.8981 95.984375 478.31998 96.359375Q478.74185 96.734375 479.42935 96.734375Q480.17935 96.734375 480.61685 96.21875Q481.05435 95.703125 481.05435 94.796875Q481.05435 93.9375 480.5856 93.421875Q480.11685 92.90625 479.3356 92.90625Q478.63248 92.90625 478.22623 93.203125L477.94498 93.4375L477.06998 93.21875ZM483.6481 99.203125L483.03873 98.78125Q483.5856 98.015625 483.61685 97.1875L483.61685 96.21875L484.67935 96.21875L484.67935 97.0625Q484.67935 97.65625 484.38248 98.25Q484.0856 98.84375 483.6481 99.203125ZM489.8356 88.96875L489.8356 89.875L489.63248 89.875Q488.36685 89.90625 487.61685 90.640625Q486.86685 91.359375 486.74185 92.671875Q487.42935 91.90625 488.5856 91.90625Q489.69498 91.90625 490.36685 92.6875Q491.03873 93.46875 491.03873 94.71875Q491.03873 96.03125 490.31998 96.828125Q489.60123 97.625 488.38248 97.625Q487.16373 97.625 486.3981 96.6875Q485.6481 95.734375 485.6481 94.25L485.6481 93.84375Q485.6481 91.484375 486.6481 90.234375Q487.6481 88.984375 489.63248 88.96875L489.8356 88.96875ZM488.41373 92.8125Q487.85123 92.8125 487.38248 93.140625Q486.91373 93.46875 486.72623 93.984375L486.72623 94.375Q486.72623 95.4375 487.19498 96.078125Q487.67935 96.71875 488.38248 96.71875Q489.11685 96.71875 489.53873 96.1875Q489.9606 95.640625 489.9606 94.765625Q489.9606 93.890625 489.53873 93.359375Q489.11685 92.8125 488.41373 92.8125ZM497.1481 94.640625L498.3356 94.640625L498.3356 95.515625L497.1481 95.515625L497.1481 97.5L496.06998 97.5L496.06998 95.515625L492.17935 95.515625L492.17935 94.875L495.99185 88.96875L497.1481 88.96875L497.1481 94.640625ZM493.41373 94.640625L496.06998 94.640625L496.06998 90.453125L495.92935 90.6875L493.41373 94.640625Z" fill-rule="nonzero"/><path stroke="#4285f4" stroke-width="3.0" stroke-linejoin="round" stroke-linecap="round" d="M490.5709 147.1875Q490.5709 147.82812 490.22714 148.32812Q489.8834 148.82812 489.3209 149.10938Q489.97714 149.39062 490.36777 149.95312Q490.7584 150.5 490.7584 151.20312Q490.7584 152.29688 490.0084 152.96875Q489.27402 153.625 488.05527 153.625Q486.8209 153.625 486.0709 152.96875Q485.33652 152.29688 485.33652 151.20312Q485.33652 150.5 485.71152 149.95312Q486.08652 149.39062 486.7584 149.10938Q486.1959 148.82812 485.86777 148.32812Q485.53964 147.82812 485.53964 147.1875Q485.53964 146.10938 486.22714 145.48438Q486.91464 144.84375 488.05527 144.84375Q489.18027 144.84375 489.86777 145.48438Q490.5709 146.10938 490.5709 147.1875ZM489.68027 151.17188Q489.68027 150.45312 489.22714 150.01562Q488.77402 149.5625 488.03964 149.5625Q487.30527 149.5625 486.85214 150.01562Q486.41464 150.45312 486.41464 151.1875Q486.41464 151.90625 486.85214 152.32812Q487.28964 152.73438 488.05527 152.73438Q488.80527 152.73438 489.24277 152.3125Q489.68027 151.89062 489.68027 151.17188ZM488.05527 145.73438Q487.41464 145.73438 487.0084 146.14062Q486.61777 146.53125 486.61777 147.21875Q486.61777 147.85938 487.0084 148.26562Q487.39902 148.67188 488.03964 148.67188Q488.6959 148.67188 489.08652 148.26562Q489.47714 147.85938 489.47714 147.21875Q489.47714 146.5625 489.0709 146.15625Q488.66464 145.73438 488.05527 145.73438ZM496.53964 149.75Q496.21152 150.15625 495.72714 150.40625Q495.2584 150.64062 494.6959 150.64062Q493.96152 150.64062 493.41464 150.28125Q492.86777 149.92188 492.5709 149.26562Q492.27402 148.59375 492.27402 147.79688Q492.27402 146.95312 492.58652 146.26562Q492.91464 145.57812 493.5084 145.21875Q494.11777 144.84375 494.91464 144.84375Q496.18027 144.84375 496.89902 145.79688Q497.6334 146.75 497.6334 148.375L497.6334 148.6875Q497.6334 151.1875 496.64902 152.32812Q495.66464 153.46875 493.68027 153.5L493.46152 153.5L493.46152 152.59375L493.6959 152.59375Q495.03964 152.5625 495.7584 151.89062Q496.47714 151.21875 496.53964 149.75ZM494.86777 149.75Q495.41464 149.75 495.86777 149.42188Q496.33652 149.07812 496.55527 148.59375L496.55527 148.15625Q496.55527 147.09375 496.08652 146.42188Q495.61777 145.75 494.91464 145.75Q494.1959 145.75 493.7584 146.29688Q493.33652 146.84375 493.33652 147.75Q493.33652 148.625 493.74277 149.1875Q494.16464 149.75 494.86777 149.75ZM504.74277 149.85938Q504.74277 151.76562 504.08652 152.70312Q503.4459 153.625 502.05527 153.625Q500.6959 153.625 500.03964 152.71875Q499.3834 151.8125 499.35214 150.0L499.35214 148.5625Q499.35214 146.67188 499.99277 145.76562Q500.64902 144.84375 502.03964 144.84375Q503.41464 144.84375 504.0709 145.73438Q504.72714 146.60938 504.74277 148.45312L504.74277 149.85938ZM503.64902 148.375Q503.64902 147.0 503.2584 146.375Q502.8834 145.73438 502.03964 145.73438Q501.21152 145.73438 500.8209 146.375Q500.4459 147.0 500.4459 148.29688L500.4459 150.03125Q500.4459 151.40625 500.83652 152.07812Q501.24277 152.73438 502.05527 152.73438Q502.85214 152.73438 503.24277 152.10938Q503.6334 151.48438 503.64902 150.15625L503.64902 148.375ZM506.46152 155.20312L505.85214 154.78125Q506.39902 154.01562 506.43027 153.1875L506.43027 152.21875L507.49277 152.21875L507.49277 153.0625Q507.49277 153.65625 507.1959 154.25Q506.89902 154.84375 506.46152 155.20312ZM512.5396 149.75Q512.2115 150.15625 511.72714 150.40625Q511.2584 150.64062 510.6959 150.64062Q509.96152 150.64062 509.41464 150.28125Q508.86777 149.92188 508.5709 149.26562Q508.27402 148.59375 508.27402 147.79688Q508.27402 146.95312 508.58652 146.26562Q508.91464 145.57812 509.5084 145.21875Q510.11777 144.84375 510.91464 144.84375Q512.18024 144.84375 512.899 145.79688Q513.63336 146.75 513.63336 148.375L513.63336 148.6875Q513.63336 151.1875 512.649 152.32812Q511.66464 153.46875 509.68027 153.5L509.46152 153.5L509.46152 152.59375L509.6959 152.59375Q511.03964 152.5625 511.7584 151.89062Q512.4771 151.21875 512.5396 149.75ZM510.86777 149.75Q511.41464 149.75 511.86777 149.42188Q512.3365 149.07812 512.55524 148.59375L512.55524 148.15625Q512.55524 147.09375 512.0865 146.42188Q511.61777 145.75 510.91464 145.75Q510.1959 145.75 509.7584 146.29688Q509.33652 146.84375 509.33652 147.75Q509.33652 148.625 509.74277 149.1875Q510.16464 149.75 510.86777 149.75ZM518.94586 153.5L517.86774 153.5L517.86774 146.28125L515.68024 147.07812L515.68024 146.09375L518.7896 144.92188L518.94586 144.92188L518.94586 153.5Z" fill-rule="nonzero"/><path fill="#ffffff" d="M490.5709 147.1875Q490.5709 147.82812 490.22714 148.32812Q489.8834 148.82812 489.3209 149.10938Q489.97714 149.39062 490.36777 149.95312Q490.7584 150.5 490.7584 151.20312Q490.7584 152.29688 490.0084 152.96875Q489.27402 153.625 488.05527 153.625Q486.8209 153.625 486.0709 152.96875Q485.33652 152.29688 485.33652 151.20312Q485.33652 150.5 485.71152 149.95312Q486.08652 149.39062 486.7584 149.10938Q486.1959 148.82812 485.86777 148.32812Q485.53964 147.82812 485.53964 147.1875Q485.53964 146.10938 486.22714 145.48438Q486.91464 144.84375 488.05527 144.84375Q489.18027 144.84375 489.86777 145.48438Q490.5709 146.10938 490.5709 147.1875ZM489.68027 151.17188Q489.68027 150.45312 489.22714 150.01562Q488.77402 149.5625 488.03964 149.5625Q487.30527 149.5625 486.85214 150.01562Q486.41464 150.45312 486.41464 151.1875Q486.41464 151.90625 486.85214 152.32812Q487.28964 152.73438 488.05527 152.73438Q488.80527 152.73438 489.24277 152.3125Q489.68027 151.89062 489.68027 151.17188ZM488.05527 145.73438Q487.41464 145.73438 487.0084 146.14062Q486.61777 146.53125 486.61777 147.21875Q486.61777 147.85938 487.0084 148.26562Q487.39902 148.67188 488.03964 148.67188Q488.6959 148.67188 489.08652 148.26562Q489.47714 147.85938 489.47714 147.21875Q489.47714 146.5625 489.0709 146.15625Q488.66464 145.73438 488.05527 145.73438ZM496.53964 149.75Q496.21152 150.15625 495.72714 150.40625Q495.2584 150.64062 494.6959 150.64062Q493.96152 150.64062 493.41464 150.28125Q492.86777 149.92188 492.5709 149.26562Q492.27402 148.59375 492.27402 147.79688Q492.27402 146.95312 492.58652 146.26562Q492.91464 145.57812 493.5084 145.21875Q494.11777 144.84375 494.91464 144.84375Q496.18027 144.84375 496.89902 145.79688Q497.6334 146.75 497.6334 148.375L497.6334 148.6875Q497.6334 151.1875 496.64902 152.32812Q495.66464 153.46875 493.68027 153.5L493.46152 153.5L493.46152 152.59375L493.6959 152.59375Q495.03964 152.5625 495.7584 151.89062Q496.47714 151.21875 496.53964 149.75ZM494.86777 149.75Q495.41464 149.75 495.86777 149.42188Q496.33652 149.07812 496.55527 148.59375L496.55527 148.15625Q496.55527 147.09375 496.08652 146.42188Q495.61777 145.75 494.91464 145.75Q494.1959 145.75 493.7584 146.29688Q493.33652 146.84375 493.33652 147.75Q493.33652 148.625 493.74277 149.1875Q494.16464 149.75 494.86777 149.75ZM504.74277 149.85938Q504.74277 151.76562 504.08652 152.70312Q503.4459 153.625 502.05527 153.625Q500.6959 153.625 500.03964 152.71875Q499.3834 151.8125 499.35214 150.0L499.35214 148.5625Q499.35214 146.67188 499.99277 145.76562Q500.64902 144.84375 502.03964 144.84375Q503.41464 144.84375 504.0709 145.73438Q504.72714 146.60938 504.74277 148.45312L504.74277 149.85938ZM503.64902 148.375Q503.64902 147.0 503.2584 146.375Q502.8834 145.73438 502.03964 145.73438Q501.21152 145.73438 500.8209 146.375Q500.4459 147.0 500.4459 148.29688L500.4459 150.03125Q500.4459 151.40625 500.83652 152.07812Q501.24277 152.73438 502.05527 152.73438Q502.85214 152.73438 503.24277 152.10938Q503.6334 151.48438 503.64902 150.15625L503.64902 148.375ZM506.46152 155.20312L505.85214 154.78125Q506.39902 154.01562 506.43027 153.1875L506.43027 152.21875L507.49277 152.21875L507.49277 153.0625Q507.49277 153.65625 507.1959 154.25Q506.89902 154.84375 506.46152 155.20312ZM512.5397 149.75Q512.21155 150.15625 511.72714 150.40625Q511.2584 150.64062 510.6959 150.64062Q509.96152 150.64062 509.41464 150.28125Q508.86777 149.92188 508.5709 149.26562Q508.27402 148.59375 508.27402 147.79688Q508.27402 146.95312 508.58652 146.26562Q508.91464 145.57812 509.5084 145.21875Q510.11777 144.84375 510.91464 144.84375Q512.1803 144.84375 512.89905 145.79688Q513.6334 146.75 513.6334 148.375L513.6334 148.6875Q513.6334 151.1875 512.64905 152.32812Q511.66464 153.46875 509.68027 153.5L509.46152 153.5L509.46152 152.59375L509.6959 152.59375Q511.03964 152.5625 511.7584 151.89062Q512.4772 151.21875 512.5397 149.75ZM510.86777 149.75Q511.41464 149.75 511.86777 149.42188Q512.33655 149.07812 512.5553 148.59375L512.5553 148.15625Q512.5553 147.09375 512.08655 146.42188Q511.61777 145.75 510.91464 145.75Q510.1959 145.75 509.7584 146.29688Q509.33652 146.84375 509.33652 147.75Q509.33652 148.625 509.74277 149.1875Q510.16464 149.75 510.86777 149.75ZM518.9459 153.5L517.8678 153.5L517.8678 146.28125L515.6803 147.07812L515.6803 146.09375L518.7897 144.92188L518.9459 144.92188L518.9459 153.5Z" fill-rule="nonzero"/><path stroke="#4285f4" stroke-width="3.0" stroke-linejoin="round" stroke-linecap="round" d="M465.75085 204.1875Q465.75085 204.82812 465.4071 205.32812Q465.06335 205.82812 464.50085 206.10938Q465.1571 206.39062 465.54773 206.95312Q465.93835 207.5 465.93835 208.20312Q465.93835 209.29688 465.18835 209.96875Q464.45398 210.625 463.23523 210.625Q462.00085 210.625 461.25085 209.96875Q460.51648 209.29688 460.51648 208.20312Q460.51648 207.5 460.89148 206.95312Q461.26648 206.39062 461.93835 206.10938Q461.37585 205.82812 461.04773 205.32812Q460.7196 204.82812 460.7196 204.1875Q460.7196 203.10938 461.4071 202.48438Q462.0946 201.84375 463.23523 201.84375Q464.36023 201.84375 465.04773 202.48438Q465.75085 203.10938 465.75085 204.1875ZM464.86023 208.17188Q464.86023 207.45312 464.4071 207.01562Q463.95398 206.5625 463.2196 206.5625Q462.48523 206.5625 462.0321 207.01562Q461.5946 207.45312 461.5946 208.1875Q461.5946 208.90625 462.0321 209.32812Q462.4696 209.73438 463.23523 209.73438Q463.98523 209.73438 464.42273 209.3125Q464.86023 208.89062 464.86023 208.17188ZM463.23523 202.73438Q462.5946 202.73438 462.18835 203.14062Q461.79773 203.53125 461.79773 204.21875Q461.79773 204.85938 462.18835 205.26562Q462.57898 205.67188 463.2196 205.67188Q463.87585 205.67188 464.26648 205.26562Q464.6571 204.85938 464.6571 204.21875Q464.6571 203.5625 464.25085 203.15625Q463.8446 202.73438 463.23523 202.73438ZM472.14148 207.64062L473.32898 207.64062L473.32898 208.51562L472.14148 208.51562L472.14148 210.5L471.06335 210.5L471.06335 208.51562L467.17273 208.51562L467.17273 207.875L470.98523 201.96875L472.14148 201.96875L472.14148 207.64062ZM468.4071 207.64062L471.06335 207.64062L471.06335 203.45312L470.92273 203.6875L468.4071 207.64062ZM478.12585 210.5L477.04773 210.5L477.04773 203.28125L474.86023 204.07812L474.86023 203.09375L477.9696 201.92188L478.12585 201.92188L478.12585 210.5ZM481.64148 212.20312L481.0321 211.78125Q481.57898 211.01562 481.61023 210.1875L481.61023 209.21875L482.67273 209.21875L482.67273 210.0625Q482.67273 210.65625 482.37585 211.25Q482.07898 211.84375 481.64148 212.20312ZM487.82898 201.96875L487.82898 202.875L487.62585 202.875Q486.36023 202.90625 485.61023 203.64062Q484.86023 204.35938 484.73523 205.67188Q485.42273 204.90625 486.57898 204.90625Q487.68835 204.90625 488.36023 205.6875Q489.0321 206.46875 489.0321 207.71875Q489.0321 209.03125 488.31335 209.82812Q487.5946 210.625 486.37585 210.625Q485.1571 210.625 484.39148 209.6875Q483.64148 208.73438 483.64148 207.25L483.64148 206.84375Q483.64148 204.48438 484.64148 203.23438Q485.64148 201.98438 487.62585 201.96875L487.82898 201.96875ZM486.4071 205.8125Q485.8446 205.8125 485.37585 206.14062Q484.9071 206.46875 484.7196 206.98438L484.7196 207.375Q484.7196 208.4375 485.18835 209.07812Q485.67273 209.71875 486.37585 209.71875Q487.11023 209.71875 487.5321 209.1875Q487.95398 208.64062 487.95398 207.76562Q487.95398 206.89062 487.5321 206.35938Q487.11023 205.8125 486.4071 205.8125ZM494.82898 201.96875L494.82898 202.875L494.62585 202.875Q493.36023 202.90625 492.61023 203.64062Q491.86023 204.35938 491.73523 205.67188Q492.42273 204.90625 493.57898 204.90625Q494.68835 204.90625 495.36023 205.6875Q496.0321 206.46875 496.0321 207.71875Q496.0321 209.03125 495.31335 209.82812Q494.5946 210.625 493.37585 210.625Q492.1571 210.625 491.39148 209.6875Q490.64148 208.73438 490.64148 207.25L490.64148 206.84375Q490.64148 204.48438 491.64148 203.23438Q492.64148 201.98438 494.62585 201.96875L494.82898 201.96875ZM493.4071 205.8125Q492.8446 205.8125 492.37585 206.14062Q491.9071 206.46875 491.7196 206.98438L491.7196 207.375Q491.7196 208.4375 492.18835 209.07812Q492.67273 209.71875 493.37585 209.71875Q494.11023 209.71875 494.5321 209.1875Q494.95398 208.64062 494.95398 207.76562Q494.95398 206.89062 494.5321 206.35938Q494.11023 205.8125 493.4071 205.8125Z" fill-rule="nonzero"/><path fill="#ffffff" d="M465.75085 204.1875Q465.75085 204.82812 465.4071 205.32812Q465.06335 205.82812 464.50085 206.10938Q465.1571 206.39062 465.54773 206.95312Q465.93835 207.5 465.93835 208.20312Q465.93835 209.29688 465.18835 209.96875Q464.45398 210.625 463.23523 210.625Q462.00085 210.625 461.25085 209.96875Q460.51648 209.29688 460.51648 208.20312Q460.51648 207.5 460.89148 206.95312Q461.26648 206.39062 461.93835 206.10938Q461.37585 205.82812 461.04773 205.32812Q460.7196 204.82812 460.7196 204.1875Q460.7196 203.10938 461.4071 202.48438Q462.0946 201.84375 463.23523 201.84375Q464.36023 201.84375 465.04773 202.48438Q465.75085 203.10938 465.75085 204.1875ZM464.86023 208.17188Q464.86023 207.45312 464.4071 207.01562Q463.95398 206.5625 463.2196 206.5625Q462.48523 206.5625 462.0321 207.01562Q461.5946 207.45312 461.5946 208.1875Q461.5946 208.90625 462.0321 209.32812Q462.4696 209.73438 463.23523 209.73438Q463.98523 209.73438 464.42273 209.3125Q464.86023 208.89062 464.86023 208.17188ZM463.23523 202.73438Q462.5946 202.73438 462.18835 203.14062Q461.79773 203.53125 461.79773 204.21875Q461.79773 204.85938 462.18835 205.26562Q462.57898 205.67188 463.2196 205.67188Q463.87585 205.67188 464.26648 205.26562Q464.6571 204.85938 464.6571 204.21875Q464.6571 203.5625 464.25085 203.15625Q463.8446 202.73438 463.23523 202.73438ZM472.14148 207.64062L473.32898 207.64062L473.32898 208.51562L472.14148 208.51562L472.14148 210.5L471.06335 210.5L471.06335 208.51562L467.17273 208.51562L467.17273 207.875L470.98523 201.96875L472.14148 201.96875L472.14148 207.64062ZM468.4071 207.64062L471.06335 207.64062L471.06335 203.45312L470.92273 203.6875L468.4071 207.64062ZM478.12585 210.5L477.04773 210.5L477.04773 203.28125L474.86023 204.07812L474.86023 203.09375L477.9696 201.92188L478.12585 201.92188L478.12585 210.5ZM481.64148 212.20312L481.0321 211.78125Q481.57898 211.01562 481.61023 210.1875L481.61023 209.21875L482.67273 209.21875L482.67273 210.0625Q482.67273 210.65625 482.37585 211.25Q482.07898 211.84375 481.64148 212.20312ZM487.82898 201.96875L487.82898 202.875L487.62585 202.875Q486.36023 202.90625 485.61023 203.64062Q484.86023 204.35938 484.73523 205.67188Q485.42273 204.90625 486.57898 204.90625Q487.68835 204.90625 488.36023 205.6875Q489.0321 206.46875 489.0321 207.71875Q489.0321 209.03125 488.31335 209.82812Q487.5946 210.625 486.37585 210.625Q485.1571 210.625 484.39148 209.6875Q483.64148 208.73438 483.64148 207.25L483.64148 206.84375Q483.64148 204.48438 484.64148 203.23438Q485.64148 201.98438 487.62585 201.96875L487.82898 201.96875ZM486.4071 205.8125Q485.8446 205.8125 485.37585 206.14062Q484.9071 206.46875 484.7196 206.98438L484.7196 207.375Q484.7196 208.4375 485.18835 209.07812Q485.67273 209.71875 486.37585 209.71875Q487.11023 209.71875 487.5321 209.1875Q487.95398 208.64062 487.95398 207.76562Q487.95398 206.89062 487.5321 206.35938Q487.11023 205.8125 486.4071 205.8125ZM494.82898 201.96875L494.82898 202.875L494.62585 202.875Q493.36023 202.90625 492.61023 203.64062Q491.86023 204.35938 491.73523 205.67188Q492.42273 204.90625 493.57898 204.90625Q494.68835 204.90625 495.36023 205.6875Q496.0321 206.46875 496.0321 207.71875Q496.0321 209.03125 495.31335 209.82812Q494.5946 210.625 493.37585 210.625Q492.1571 210.625 491.39148 209.6875Q490.64148 208.73438 490.64148 207.25L490.64148 206.84375Q490.64148 204.48438 491.64148 203.23438Q492.64148 201.98438 494.62585 201.96875L494.82898 201.96875ZM493.4071 205.8125Q492.8446 205.8125 492.37585 206.14062Q491.9071 206.46875 491.7196 206.98438L491.7196 207.375Q491.7196 208.4375 492.18835 209.07812Q492.67273 209.71875 493.37585 209.71875Q494.11023 209.71875 494.5321 209.1875Q494.95398 208.64062 494.95398 207.76562Q494.95398 206.89062 494.5321 206.35938Q494.11023 205.8125 493.4071 205.8125Z" fill-rule="nonzero"/><path stroke="#4285f4" stroke-width="3.0" stroke-linejoin="round" stroke-linecap="round" d="M491.43503 260.1875Q491.43503 260.82812 491.09128 261.32812Q490.74753 261.82812 490.18503 262.10938Q490.84128 262.39062 491.2319 262.95312Q491.62253 263.5 491.62253 264.20312Q491.62253 265.29688 490.87253 265.96875Q490.13815 266.625 488.9194 266.625Q487.68503 266.625 486.93503 265.96875Q486.20065 265.29688 486.20065 264.20312Q486.20065 263.5 486.57565 262.95312Q486.95065 262.39062 487.62253 262.10938Q487.06003 261.82812 486.7319 261.32812Q486.40378 260.82812 486.40378 260.1875Q486.40378 259.10938 487.09128 258.48438Q487.77878 257.84375 488.9194 257.84375Q490.0444 257.84375 490.7319 258.48438Q491.43503 259.10938 491.43503 260.1875ZM490.5444 264.17188Q490.5444 263.45312 490.09128 263.01562Q489.63815 262.5625 488.90378 262.5625Q488.1694 262.5625 487.71628 263.01562Q487.27878 263.45312 487.27878 264.1875Q487.27878 264.90625 487.71628 265.32812Q488.15378 265.73438 488.9194 265.73438Q489.6694 265.73438 490.1069 265.3125Q490.5444 264.89062 490.5444 264.17188ZM488.9194 258.73438Q488.27878 258.73438 487.87253 259.14062Q487.4819 259.53125 487.4819 260.21875Q487.4819 260.85938 487.87253 261.26562Q488.26315 261.67188 488.90378 261.67188Q489.56003 261.67188 489.95065 261.26562Q490.34128 260.85938 490.34128 260.21875Q490.34128 259.5625 489.93503 259.15625Q489.52878 258.73438 488.9194 258.73438ZM497.40378 262.75Q497.07565 263.15625 496.59128 263.40625Q496.12253 263.64062 495.56003 263.64062Q494.82565 263.64062 494.27878 263.28125Q493.7319 262.92188 493.43503 262.26562Q493.13815 261.59375 493.13815 260.79688Q493.13815 259.95312 493.45065 259.26562Q493.77878 258.57812 494.37253 258.21875Q494.9819 257.84375 495.77878 257.84375Q497.0444 257.84375 497.76315 258.79688Q498.49753 259.75 498.49753 261.375L498.49753 261.6875Q498.49753 264.1875 497.51315 265.32812Q496.52878 266.46875 494.5444 266.5L494.32565 266.5L494.32565 265.59375L494.56003 265.59375Q495.90378 265.5625 496.62253 264.89062Q497.34128 264.21875 497.40378 262.75ZM495.7319 262.75Q496.27878 262.75 496.7319 262.42188Q497.20065 262.07812 497.4194 261.59375L497.4194 261.15625Q497.4194 260.09375 496.95065 259.42188Q496.4819 258.75 495.77878 258.75Q495.06003 258.75 494.62253 259.29688Q494.20065 259.84375 494.20065 260.75Q494.20065 261.625 494.6069 262.1875Q495.02878 262.75 495.7319 262.75ZM505.84128 266.5L500.24753 266.5L500.24753 265.71875L503.20065 262.4375Q503.8569 261.6875 504.1069 261.23438Q504.3569 260.76562 504.3569 260.26562Q504.3569 259.59375 503.95065 259.17188Q503.56003 258.73438 502.87253 258.73438Q502.07565 258.73438 501.62253 259.20312Q501.1694 259.65625 501.1694 260.48438L500.09128 260.48438Q500.09128 259.29688 500.84128 258.57812Q501.6069 257.84375 502.87253 257.84375Q504.07565 257.84375 504.76315 258.46875Q505.45065 259.09375 505.45065 260.14062Q505.45065 261.39062 503.84128 263.14062L501.56003 265.60938L505.84128 265.60938L505.84128 266.5ZM507.32565 268.20312L506.71628 267.78125Q507.26315 267.01562 507.2944 266.1875L507.2944 265.21875L508.3569 265.21875L508.3569 266.0625Q508.3569 266.65625 508.06003 267.25Q507.76315 267.84375 507.32565 268.20312ZM513.5132 257.96875L513.5132 258.875L513.31006 258.875Q512.04443 258.90625 511.2944 259.64062Q510.5444 260.35938 510.4194 261.67188Q511.1069 260.90625 512.2632 260.90625Q513.37256 260.90625 514.04443 261.6875Q514.7163 262.46875 514.7163 263.71875Q514.7163 265.03125 513.99756 265.82812Q513.2788 266.625 512.06006 266.625Q510.84128 266.625 510.07565 265.6875Q509.32565 264.73438 509.32565 263.25L509.32565 262.84375Q509.32565 260.48438 510.32565 259.23438Q511.32565 257.98438 513.31006 257.96875L513.5132 257.96875ZM512.0913 261.8125Q511.52878 261.8125 511.06003 262.14062Q510.59128 262.46875 510.40378 262.98438L510.40378 263.375Q510.40378 264.4375 510.87253 265.07812Q511.3569 265.71875 512.06006 265.71875Q512.79443 265.71875 513.2163 265.1875Q513.6382 264.64062 513.6382 263.76562Q513.6382 262.89062 513.2163 262.35938Q512.79443 261.8125 512.0913 261.8125ZM517.8257 261.70312L518.6382 261.70312Q519.41943 261.6875 519.85693 261.29688Q520.29443 260.90625 520.29443 260.23438Q520.29443 258.73438 518.79443 258.73438Q518.0913 258.73438 517.66943 259.14062Q517.2632 259.54688 517.2632 260.20312L516.16943 260.20312Q516.16943 259.1875 516.9038 258.51562Q517.6538 257.84375 518.79443 257.84375Q519.99756 257.84375 520.68506 258.48438Q521.37256 259.125 521.37256 260.26562Q521.37256 260.82812 521.0132 261.34375Q520.6538 261.85938 520.0288 262.125Q520.73193 262.34375 521.10693 262.85938Q521.49756 263.375 521.49756 264.125Q521.49756 265.26562 520.74756 265.95312Q519.99756 266.625 518.79443 266.625Q517.60693 266.625 516.8413 265.96875Q516.0913 265.3125 516.0913 264.25L517.18506 264.25Q517.18506 264.92188 517.62256 265.32812Q518.06006 265.73438 518.81006 265.73438Q519.5913 265.73438 519.99756 265.32812Q520.41943 264.90625 520.41943 264.14062Q520.41943 263.40625 519.9663 263.01562Q519.5132 262.60938 518.6382 262.59375L517.8257 262.59375L517.8257 261.70312Z" fill-rule="nonzero"/><path fill="#ffffff" d="M491.43503 260.1875Q491.43503 260.82812 491.09128 261.32812Q490.74753 261.82812 490.18503 262.10938Q490.84128 262.39062 491.2319 262.95312Q491.62253 263.5 491.62253 264.20312Q491.62253 265.29688 490.87253 265.96875Q490.13815 266.625 488.9194 266.625Q487.68503 266.625 486.93503 265.96875Q486.20065 265.29688 486.20065 264.20312Q486.20065 263.5 486.57565 262.95312Q486.95065 262.39062 487.62253 262.10938Q487.06003 261.82812 486.7319 261.32812Q486.40378 260.82812 486.40378 260.1875Q486.40378 259.10938 487.09128 258.48438Q487.77878 257.84375 488.9194 257.84375Q490.0444 257.84375 490.7319 258.48438Q491.43503 259.10938 491.43503 260.1875ZM490.5444 264.17188Q490.5444 263.45312 490.09128 263.01562Q489.63815 262.5625 488.90378 262.5625Q488.1694 262.5625 487.71628 263.01562Q487.27878 263.45312 487.27878 264.1875Q487.27878 264.90625 487.71628 265.32812Q488.15378 265.73438 488.9194 265.73438Q489.6694 265.73438 490.1069 265.3125Q490.5444 264.89062 490.5444 264.17188ZM488.9194 258.73438Q488.27878 258.73438 487.87253 259.14062Q487.4819 259.53125 487.4819 260.21875Q487.4819 260.85938 487.87253 261.26562Q488.26315 261.67188 488.90378 261.67188Q489.56003 261.67188 489.95065 261.26562Q490.34128 260.85938 490.34128 260.21875Q490.34128 259.5625 489.93503 259.15625Q489.52878 258.73438 488.9194 258.73438ZM497.40378 262.75Q497.07565 263.15625 496.59128 263.40625Q496.12253 263.64062 495.56003 263.64062Q494.82565 263.64062 494.27878 263.28125Q493.7319 262.92188 493.43503 262.26562Q493.13815 261.59375 493.13815 260.79688Q493.13815 259.95312 493.45065 259.26562Q493.77878 258.57812 494.37253 258.21875Q494.9819 257.84375 495.77878 257.84375Q497.0444 257.84375 497.76315 258.79688Q498.49753 259.75 498.49753 261.375L498.49753 261.6875Q498.49753 264.1875 497.51315 265.32812Q496.52878 266.46875 494.5444 266.5L494.32565 266.5L494.32565 265.59375L494.56003 265.59375Q495.90378 265.5625 496.62253 264.89062Q497.34128 264.21875 497.40378 262.75ZM495.7319 262.75Q496.27878 262.75 496.7319 262.42188Q497.20065 262.07812 497.4194 261.59375L497.4194 261.15625Q497.4194 260.09375 496.95065 259.42188Q496.4819 258.75 495.77878 258.75Q495.06003 258.75 494.62253 259.29688Q494.20065 259.84375 494.20065 260.75Q494.20065 261.625 494.6069 262.1875Q495.02878 262.75 495.7319 262.75ZM505.84128 266.5L500.24753 266.5L500.24753 265.71875L503.20065 262.4375Q503.8569 261.6875 504.1069 261.23438Q504.3569 260.76562 504.3569 260.26562Q504.3569 259.59375 503.95065 259.17188Q503.56003 258.73438 502.87253 258.73438Q502.07565 258.73438 501.62253 259.20312Q501.1694 259.65625 501.1694 260.48438L500.09128 260.48438Q500.09128 259.29688 500.84128 258.57812Q501.6069 257.84375 502.87253 257.84375Q504.07565 257.84375 504.76315 258.46875Q505.45065 259.09375 505.45065 260.14062Q505.45065 261.39062 503.84128 263.14062L501.56003 265.60938L505.84128 265.60938L505.84128 266.5ZM507.32565 268.20312L506.71628 267.78125Q507.26315 267.01562 507.2944 266.1875L507.2944 265.21875L508.3569 265.21875L508.3569 266.0625Q508.3569 266.65625 508.06003 267.25Q507.76315 267.84375 507.32565 268.20312ZM513.5132 257.96875L513.5132 258.875L513.31006 258.875Q512.04443 258.90625 511.2944 259.64062Q510.5444 260.35938 510.4194 261.67188Q511.1069 260.90625 512.2632 260.90625Q513.37256 260.90625 514.04443 261.6875Q514.7163 262.46875 514.7163 263.71875Q514.7163 265.03125 513.99756 265.82812Q513.2788 266.625 512.06006 266.625Q510.84128 266.625 510.07565 265.6875Q509.32565 264.73438 509.32565 263.25L509.32565 262.84375Q509.32565 260.48438 510.32565 259.23438Q511.32565 257.98438 513.31006 257.96875L513.5132 257.96875ZM512.0913 261.8125Q511.52878 261.8125 511.06003 262.14062Q510.59128 262.46875 510.40378 262.98438L510.40378 263.375Q510.40378 264.4375 510.87253 265.07812Q511.3569 265.71875 512.06006 265.71875Q512.79443 265.71875 513.2163 265.1875Q513.6382 264.64062 513.6382 263.76562Q513.6382 262.89062 513.2163 262.35938Q512.79443 261.8125 512.0913 261.8125ZM517.8257 261.70312L518.6382 261.70312Q519.41943 261.6875 519.85693 261.29688Q520.29443 260.90625 520.29443 260.23438Q520.29443 258.73438 518.79443 258.73438Q518.0913 258.73438 517.66943 259.14062Q517.2632 259.54688 517.2632 260.20312L516.16943 260.20312Q516.16943 259.1875 516.9038 258.51562Q517.6538 257.84375 518.79443 257.84375Q519.99756 257.84375 520.68506 258.48438Q521.37256 259.125 521.37256 260.26562Q521.37256 260.82812 521.0132 261.34375Q520.6538 261.85938 520.0288 262.125Q520.73193 262.34375 521.10693 262.85938Q521.49756 263.375 521.49756 264.125Q521.49756 265.26562 520.74756 265.95312Q519.99756 266.625 518.79443 266.625Q517.60693 266.625 516.8413 265.96875Q516.0913 265.3125 516.0913 264.25L517.18506 264.25Q517.18506 264.92188 517.62256 265.32812Q518.06006 265.73438 518.81006 265.73438Q519.5913 265.73438 519.99756 265.32812Q520.41943 264.90625 520.41943 264.14062Q520.41943 263.40625 519.9663 263.01562Q519.5132 262.60938 518.6382 262.59375L517.8257 262.59375L517.8257 261.70312Z" fill-rule="nonzero"/><path fill="#000000" d="M318.29688 342.075L318.29688 340.85626L319.35938 340.85626L319.35938 342.075L318.29688 342.075ZM318.29688 349.45L318.29688 343.23126L319.35938 343.23126L319.35938 349.45L318.29688 349.45ZM320.90625 346.34064Q320.90625 344.60626 321.85938 343.77814Q322.65625 343.09064 323.8125 343.09064Q325.09375 343.09064 325.90625 343.9344Q326.73438 344.7625 326.73438 346.2469Q326.73438 347.45 326.375 348.1375Q326.01562 348.825 325.3125 349.21564Q324.625 349.59064 323.8125 349.59064Q322.51562 349.59064 321.70312 348.7625Q320.90625 347.91876 320.90625 346.34064ZM321.98438 346.34064Q321.98438 347.52814 322.5 348.1219Q323.03125 348.71564 323.8125 348.71564Q324.60938 348.71564 325.125 348.1219Q325.64062 347.52814 325.64062 346.3094Q325.64062 345.15314 325.10938 344.5594Q324.59375 343.96564 323.8125 343.96564Q323.03125 343.96564 322.5 344.5594Q321.98438 345.1375 321.98438 346.34064ZM328.29688 351.84064L328.29688 343.23126L329.25 343.23126L329.25 344.02814Q329.59375 343.5594 330.01562 343.325Q330.45312 343.09064 331.0625 343.09064Q331.85938 343.09064 332.46875 343.4969Q333.07812 343.90314 333.375 344.65314Q333.6875 345.40314 333.6875 346.29376Q333.6875 347.2469 333.34375 348.0125Q333.01562 348.77814 332.35938 349.1844Q331.70312 349.59064 330.98438 349.59064Q330.45312 349.59064 330.03125 349.3719Q329.60938 349.1375 329.34375 348.8094L329.34375 351.84064L328.29688 351.84064ZM329.25 346.3719Q329.25 347.575 329.73438 348.15314Q330.21875 348.71564 330.90625 348.71564Q331.60938 348.71564 332.10938 348.1219Q332.60938 347.52814 332.60938 346.27814Q332.60938 345.09064 332.125 344.5125Q331.64062 343.91876 330.95312 343.91876Q330.28125 343.91876 329.76562 344.54376Q329.25 345.16876 329.25 346.3719ZM334.875 347.59064L335.90625 347.4344Q336.0 348.0594 336.39062 348.3875Q336.79688 348.71564 337.53125 348.71564Q338.25 348.71564 338.59375 348.4344Q338.95312 348.1375 338.95312 347.73126Q338.95312 347.3719 338.64062 347.16876Q338.42188 347.02814 337.5625 346.8094Q336.40625 346.5125 335.95312 346.3094Q335.51562 346.09064 335.28125 345.71564Q335.04688 345.34064 335.04688 344.8719Q335.04688 344.46564 335.23438 344.10626Q335.42188 343.7469 335.75 343.5125Q336.0 343.34064 336.42188 343.21564Q336.84375 343.09064 337.34375 343.09064Q338.0625 343.09064 338.60938 343.3094Q339.17188 343.5125 339.4375 343.8719Q339.70312 344.23126 339.79688 344.825L338.76562 344.96564Q338.70312 344.4969 338.35938 344.23126Q338.03125 343.95 337.40625 343.95Q336.6875 343.95 336.375 344.2Q336.0625 344.4344 336.0625 344.7625Q336.0625 344.96564 336.1875 345.1219Q336.32812 345.29376 336.59375 345.40314Q336.75 345.46564 337.53125 345.66876Q338.65625 345.98126 339.09375 346.16876Q339.53125 346.35626 339.78125 346.71564Q340.03125 347.075 340.03125 347.6219Q340.03125 348.15314 339.71875 348.6219Q339.42188 349.075 338.84375 349.34064Q338.26562 349.59064 337.53125 349.59064Q336.3125 349.59064 335.67188 349.09064Q335.04688 348.575 334.875 347.59064Z" fill-rule="nonzero"/><path fill="#000000" d="M29.550013 200.88646L23.331263 200.88646L23.331263 199.94896L24.206263 199.94896Q23.190638 199.26146 23.190638 197.96458Q23.190638 197.40208 23.393763 196.93333Q23.596888 196.44896 23.925013 196.21458Q24.253138 195.98021 24.690638 195.88646Q24.987513 195.83958 25.721888 195.83958L29.550013 195.83958L29.550013 196.88646L25.768763 196.88646Q25.112513 196.88646 24.800013 197.01146Q24.487513 197.13646 24.300013 197.44896Q24.096888 197.76146 24.096888 198.18333Q24.096888 198.85521 24.534388 199.35521Q24.956263 199.83958 26.143763 199.83958L29.550013 199.83958L29.550013 200.88646ZM26.440638 194.27708Q24.706263 194.27708 23.878138 193.32396Q23.190638 192.52708 23.190638 191.37083Q23.190638 190.08958 24.034388 189.27708Q24.862513 188.44896 26.346888 188.44896Q27.550013 188.44896 28.237513 188.80833Q28.925013 189.16771 29.315638 189.87083Q29.690638 190.55833 29.690638 191.37083Q29.690638 192.66771 28.862513 193.48021Q28.018763 194.27708 26.440638 194.27708ZM26.440638 193.19896Q27.628138 193.19896 28.221888 192.68333Q28.815638 192.15208 28.815638 191.37083Q28.815638 190.57396 28.221888 190.05833Q27.628138 189.54271 26.409388 189.54271Q25.253138 189.54271 24.659388 190.07396Q24.065638 190.58958 24.065638 191.37083Q24.065638 192.15208 24.659388 192.68333Q25.237513 193.19896 26.440638 193.19896ZM29.550013 182.85521L28.768763 182.85521Q29.690638 183.44896 29.690638 184.58958Q29.690638 185.33958 29.284388 185.96458Q28.862513 186.58958 28.128138 186.93333Q27.393763 187.27708 26.440638 187.27708Q25.518763 187.27708 24.753138 186.96458Q23.987513 186.65208 23.596888 186.02708Q23.190638 185.40208 23.190638 184.63646Q23.190638 184.07396 23.425013 183.63646Q23.659388 183.19896 24.034388 182.91771L20.956263 182.91771L20.956263 181.87083L29.550013 181.87083L29.550013 182.85521ZM26.440638 186.18333Q27.643763 186.18333 28.237513 185.68333Q28.815638 185.18333 28.815638 184.49583Q28.815638 183.80833 28.253138 183.32396Q27.690638 182.83958 26.534388 182.83958Q25.253138 182.83958 24.659388 183.33958Q24.065638 183.82396 24.065638 184.54271Q24.065638 185.24583 24.643763 185.71458Q25.206263 186.18333 26.440638 186.18333ZM27.550013 175.63646L27.675013 174.54271Q28.628138 174.79271 29.159388 175.49583Q29.690638 176.19896 29.690638 177.27708Q29.690638 178.63646 28.846888 179.44896Q28.003138 180.24583 26.487513 180.24583Q24.925013 180.24583 24.065638 179.43333Q23.190638 178.62083 23.190638 177.33958Q23.190638 176.08958 24.034388 175.30833Q24.878138 174.51146 26.425013 174.51146Q26.518763 174.51146 26.706263 174.51146L26.706263 179.15208Q27.737513 179.08958 28.284388 178.57396Q28.815638 178.05833 28.815638 177.27708Q28.815638 176.69896 28.518763 176.29271Q28.206263 175.87083 27.550013 175.63646ZM25.846888 179.08958L25.846888 175.62083Q25.050013 175.68333 24.659388 176.01146Q24.050013 176.52708 24.050013 177.32396Q24.050013 178.05833 24.534388 178.55833Q25.018763 179.04271 25.846888 179.08958Z" fill-rule="nonzero"/><path fill="#000000" d="M53.346874 99.407295L53.346874 90.79792L54.3 90.79792L54.3 91.594795Q54.64375 91.126045 55.065624 90.89167Q55.503124 90.657295 56.1125 90.657295Q56.909374 90.657295 57.51875 91.063545Q58.128124 91.469795 58.425 92.219795Q58.7375 92.969795 58.7375 93.86042Q58.7375 94.813545 58.39375 95.57917Q58.065624 96.344795 57.409374 96.751045Q56.753124 97.157295 56.034374 97.157295Q55.503124 97.157295 55.08125 96.938545Q54.659374 96.70417 54.39375 96.376045L54.39375 99.407295L53.346874 99.407295ZM54.3 93.938545Q54.3 95.14167 54.784374 95.719795Q55.26875 96.282295 55.95625 96.282295Q56.659374 96.282295 57.159374 95.688545Q57.659374 95.094795 57.659374 93.844795Q57.659374 92.657295 57.175 92.07917Q56.690624 91.48542 56.003124 91.48542Q55.33125 91.48542 54.815624 92.11042Q54.3 92.73542 54.3 93.938545ZM62.065624 97.01667L59.70625 90.79792L60.815624 90.79792L62.159374 94.51667Q62.3625 95.126045 62.55 95.76667Q62.690624 95.282295 62.940624 94.594795L64.33125 90.79792L65.40938 90.79792L63.05 97.01667L62.065624 97.01667ZM69.59688 95.01667L70.69063 95.14167Q70.44063 96.094795 69.7375 96.626045Q69.03438 97.157295 67.95625 97.157295Q66.59688 97.157295 65.78438 96.313545Q64.9875 95.469795 64.9875 93.95417Q64.9875 92.39167 65.8 91.532295Q66.6125 90.657295 67.89375 90.657295Q69.14375 90.657295 69.925 91.501045Q70.72188 92.344795 70.72188 93.89167Q70.72188 93.98542 70.72188 94.17292L66.08125 94.17292Q66.14375 95.20417 66.65938 95.751045Q67.175 96.282295 67.95625 96.282295Q68.53438 96.282295 68.94063 95.98542Q69.3625 95.67292 69.59688 95.01667ZM66.14375 93.313545L69.6125 93.313545Q69.55 92.51667 69.22188 92.126045Q68.70625 91.51667 67.90938 91.51667Q67.175 91.51667 66.675 92.001045Q66.19063 92.48542 66.14375 93.313545Z" fill-rule="nonzero"/><path fill="#000000" d="M56.596874 152.44548L56.596874 153.4611L50.909374 153.4611Q50.909374 153.0861 51.034374 152.72673Q51.253124 152.1486 51.721874 151.5861Q52.20625 151.0236 53.1125 150.28923Q54.51875 149.13298 55.003124 148.4611Q55.503124 147.78923 55.503124 147.19548Q55.503124 146.57048 55.05 146.1486Q54.596874 145.7111 53.878124 145.7111Q53.1125 145.7111 52.659374 146.16423Q52.20625 146.61736 52.190624 147.42986L51.1125 147.32048Q51.221874 146.10173 51.940624 145.47673Q52.675 144.8361 53.909374 144.8361Q55.14375 144.8361 55.8625 145.5236Q56.58125 146.2111 56.58125 147.22673Q56.58125 147.74236 56.3625 148.24236Q56.159374 148.72673 55.659374 149.28923Q55.175 149.8361 54.05 150.78923Q53.096874 151.5861 52.815624 151.88298Q52.55 152.16423 52.378124 152.44548L56.596874 152.44548ZM58.14375 153.97673L59.175 154.13298Q59.2375 154.60173 59.534374 154.82048Q59.925 155.11736 60.596874 155.11736Q61.33125 155.11736 61.721874 154.82048Q62.128124 154.5236 62.26875 154.00798Q62.3625 153.67986 62.346874 152.6486Q61.659374 153.4611 60.628124 153.4611Q59.346874 153.4611 58.64375 152.53923Q57.940624 151.60173 57.940624 150.32048Q57.940624 149.42986 58.253124 148.67986Q58.58125 147.91423 59.190624 147.50798Q59.8 147.10173 60.628124 147.10173Q61.7375 147.10173 62.45625 147.99236L62.45625 147.24236L63.425 147.24236L63.425 152.61736Q63.425 154.07048 63.128124 154.67986Q62.83125 155.28923 62.190624 155.63298Q61.55 155.99236 60.6125 155.99236Q59.503124 155.99236 58.815624 155.49236Q58.128124 154.99236 58.14375 153.97673ZM59.01875 150.24236Q59.01875 151.4611 59.503124 152.0236Q59.9875 152.5861 60.721874 152.5861Q61.45625 152.5861 61.940624 152.0236Q62.440624 151.4611 62.440624 150.2736Q62.440624 149.13298 61.925 148.55486Q61.425 147.97673 60.70625 147.97673Q60.003124 147.97673 59.503124 148.55486Q59.01875 149.11736 59.01875 150.24236ZM66.31563 153.4611L65.33125 153.4611L65.33125 144.86736L66.39375 144.86736L66.39375 147.92986Q67.06563 147.10173 68.09688 147.10173Q68.675 147.10173 69.175 147.3361Q69.69063 147.55486 70.01875 147.97673Q70.3625 148.3986 70.55 148.99236Q70.7375 149.5861 70.7375 150.25798Q70.7375 151.85173 69.94063 152.72673Q69.14375 153.60173 68.05 153.60173Q66.94063 153.60173 66.31563 152.67986L66.31563 153.4611ZM66.3 150.30486Q66.3 151.41423 66.6125 151.91423Q67.1125 152.72673 67.95625 152.72673Q68.64375 152.72673 69.14375 152.13298Q69.65938 151.53923 69.65938 150.3361Q69.65938 149.11736 69.175 148.53923Q68.69063 147.9611 68.00313 147.9611Q67.31563 147.9611 66.8 148.57048Q66.3 149.16423 66.3 150.30486Z" fill-rule="nonzero"/><path fill="#000000" d="M54.425 209.90555L54.425 207.84305L50.70625 207.84305L50.70625 206.8743L54.628124 201.3118L55.4875 201.3118L55.4875 206.8743L56.64375 206.8743L56.64375 207.84305L55.4875 207.84305L55.4875 209.90555L54.425 209.90555ZM54.425 206.8743L54.425 203.01492L51.7375 206.8743L54.425 206.8743ZM58.14375 210.42117L59.175 210.57742Q59.2375 211.04617 59.534374 211.26492Q59.925 211.5618 60.596874 211.5618Q61.33125 211.5618 61.721874 211.26492Q62.128124 210.96805 62.26875 210.45242Q62.3625 210.1243 62.346874 209.09305Q61.659374 209.90555 60.628124 209.90555Q59.346874 209.90555 58.64375 208.98367Q57.940624 208.04617 57.940624 206.76492Q57.940624 205.8743 58.253124 205.1243Q58.58125 204.35867 59.190624 203.95242Q59.8 203.54617 60.628124 203.54617Q61.7375 203.54617 62.45625 204.4368L62.45625 203.6868L63.425 203.6868L63.425 209.0618Q63.425 210.51492 63.128124 211.1243Q62.83125 211.73367 62.190624 212.07742Q61.55 212.4368 60.6125 212.4368Q59.503124 212.4368 58.815624 211.9368Q58.128124 211.4368 58.14375 210.42117ZM59.01875 206.6868Q59.01875 207.90555 59.503124 208.46805Q59.9875 209.03055 60.721874 209.03055Q61.45625 209.03055 61.940624 208.46805Q62.440624 207.90555 62.440624 206.71805Q62.440624 205.57742 61.925 204.9993Q61.425 204.42117 60.70625 204.42117Q60.003124 204.42117 59.503124 204.9993Q59.01875 205.5618 59.01875 206.6868ZM66.31563 209.90555L65.33125 209.90555L65.33125 201.3118L66.39375 201.3118L66.39375 204.3743Q67.06563 203.54617 68.09688 203.54617Q68.675 203.54617 69.175 203.78055Q69.69063 203.9993 70.01875 204.42117Q70.3625 204.84305 70.55 205.4368Q70.7375 206.03055 70.7375 206.70242Q70.7375 208.29617 69.94063 209.17117Q69.14375 210.04617 68.05 210.04617Q66.94063 210.04617 66.31563 209.1243L66.31563 209.90555ZM66.3 206.7493Q66.3 207.85867 66.6125 208.35867Q67.1125 209.17117 67.95625 209.17117Q68.64375 209.17117 69.14375 208.57742Q69.65938 207.98367 69.65938 206.78055Q69.65938 205.5618 69.175 204.98367Q68.69063 204.40555 68.00313 204.40555Q67.31563 204.40555 66.8 205.01492Q66.3 205.60867 66.3 206.7493Z" fill-rule="nonzero"/><path fill="#000000" d="M52.675 261.69376Q52.01875 261.44376 51.690624 261.00626Q51.378124 260.55313 51.378124 259.94376Q51.378124 259.00626 52.05 258.36563Q52.7375 257.725 53.846874 257.725Q54.971874 257.725 55.659374 258.38126Q56.346874 259.0375 56.346874 259.975Q56.346874 260.56876 56.034374 261.00626Q55.721874 261.44376 55.08125 261.69376Q55.878124 261.94376 56.284374 262.52188Q56.690624 263.1 56.690624 263.89688Q56.690624 264.99063 55.909374 265.74063Q55.14375 266.49063 53.8625 266.49063Q52.596874 266.49063 51.815624 265.74063Q51.034374 264.99063 51.034374 263.86563Q51.034374 263.02188 51.45625 262.45938Q51.89375 261.89688 52.675 261.69376ZM52.45625 259.89688Q52.45625 260.50626 52.846874 260.89688Q53.253124 261.2875 53.878124 261.2875Q54.4875 261.2875 54.878124 260.9125Q55.26875 260.52188 55.26875 259.95938Q55.26875 259.38126 54.8625 258.99063Q54.45625 258.58438 53.8625 258.58438Q53.253124 258.58438 52.846874 258.975Q52.45625 259.36563 52.45625 259.89688ZM52.128124 263.86563Q52.128124 264.31876 52.33125 264.74063Q52.55 265.1625 52.971874 265.39688Q53.39375 265.63126 53.878124 265.63126Q54.628124 265.63126 55.1125 265.14688Q55.6125 264.6625 55.6125 263.9125Q55.6125 263.14688 55.1125 262.64688Q54.6125 262.14688 53.846874 262.14688Q53.096874 262.14688 52.6125 262.64688Q52.128124 263.13126 52.128124 263.86563ZM58.14375 266.86563L59.175 267.02188Q59.2375 267.49063 59.534374 267.70938Q59.925 268.00626 60.596874 268.00626Q61.33125 268.00626 61.721874 267.70938Q62.128124 267.4125 62.26875 266.89688Q62.3625 266.56876 62.346874 265.5375Q61.659374 266.35 60.628124 266.35Q59.346874 266.35 58.64375 265.42813Q57.940624 264.49063 57.940624 263.20938Q57.940624 262.31876 58.253124 261.56876Q58.58125 260.80313 59.190624 260.39688Q59.8 259.99063 60.628124 259.99063Q61.7375 259.99063 62.45625 260.88126L62.45625 260.13126L63.425 260.13126L63.425 265.50626Q63.425 266.95938 63.128124 267.56876Q62.83125 268.17813 62.190624 268.52188Q61.55 268.88126 60.6125 268.88126Q59.503124 268.88126 58.815624 268.38126Q58.128124 267.88126 58.14375 266.86563ZM59.01875 263.13126Q59.01875 264.35 59.503124 264.9125Q59.9875 265.475 60.721874 265.475Q61.45625 265.475 61.940624 264.9125Q62.440624 264.35 62.440624 263.1625Q62.440624 262.02188 61.925 261.44376Q61.425 260.86563 60.70625 260.86563Q60.003124 260.86563 59.503124 261.44376Q59.01875 262.00626 59.01875 263.13126ZM66.31563 266.35L65.33125 266.35L65.33125 257.75626L66.39375 257.75626L66.39375 260.81876Q67.06563 259.99063 68.09688 259.99063Q68.675 259.99063 69.175 260.225Q69.69063 260.44376 70.01875 260.86563Q70.3625 261.2875 70.55 261.88126Q70.7375 262.475 70.7375 263.14688Q70.7375 264.74063 69.94063 265.61563Q69.14375 266.49063 68.05 266.49063Q66.94063 266.49063 66.31563 265.56876L66.31563 266.35ZM66.3 263.19376Q66.3 264.30313 66.6125 264.80313Q67.1125 265.61563 67.95625 265.61563Q68.64375 265.61563 69.14375 265.02188Q69.65938 264.42813 69.65938 263.225Q69.65938 262.00626 69.175 261.42813Q68.69063 260.85 68.00313 260.85Q67.31563 260.85 66.8 261.45938Q66.3 262.05313 66.3 263.19376Z" fill-rule="nonzero"/><path fill="#000000" d="M66.05 313.21564Q66.05 311.6844 66.3625 310.7625Q66.675 309.825 67.28438 309.325Q67.90938 308.825 68.84688 308.825Q69.53438 308.825 70.05 309.10626Q70.58125 309.3875 70.925 309.91876Q71.26875 310.4344 71.45625 311.1844Q71.64375 311.9344 71.64375 313.21564Q71.64375 314.73126 71.33125 315.65314Q71.03438 316.575 70.40938 317.09064Q69.8 317.59064 68.84688 317.59064Q67.6125 317.59064 66.89375 316.7Q66.05 315.6375 66.05 313.21564ZM67.12813 313.21564Q67.12813 315.325 67.62813 316.02814Q68.12813 316.73126 68.84688 316.73126Q69.58125 316.73126 70.06563 316.02814Q70.56563 315.325 70.56563 313.21564Q70.56563 311.09064 70.06563 310.40314Q69.58125 309.7 68.83125 309.7Q68.1125 309.7 67.675 310.3094Q67.12813 311.09064 67.12813 313.21564ZM73.6125 317.45L73.6125 316.2469L74.81563 316.2469L74.81563 317.45Q74.81563 318.10626 74.58125 318.5125Q74.34688 318.9344 73.84688 319.15314L73.55 318.7Q73.87813 318.5594 74.03438 318.2625Q74.19063 317.98126 74.22188 317.45L73.6125 317.45ZM76.05 313.21564Q76.05 311.6844 76.3625 310.7625Q76.675 309.825 77.28438 309.325Q77.90938 308.825 78.84688 308.825Q79.53438 308.825 80.05 309.10626Q80.58125 309.3875 80.925 309.91876Q81.26875 310.4344 81.45625 311.1844Q81.64375 311.9344 81.64375 313.21564Q81.64375 314.73126 81.33125 315.65314Q81.03438 316.575 80.40938 317.09064Q79.8 317.59064 78.84688 317.59064Q77.6125 317.59064 76.89375 316.7Q76.05 315.6375 76.05 313.21564ZM77.12813 313.21564Q77.12813 315.325 77.62813 316.02814Q78.12813 316.73126 78.84688 316.73126Q79.58125 316.73126 80.06563 316.02814Q80.56563 315.325 80.56563 313.21564Q80.56563 311.09064 80.06563 310.40314Q79.58125 309.7 78.83125 309.7Q78.1125 309.7 77.675 310.3094Q77.12813 311.09064 77.12813 313.21564ZM83.05 313.21564Q83.05 311.6844 83.3625 310.7625Q83.675 309.825 84.28438 309.325Q84.90938 308.825 85.84688 308.825Q86.53438 308.825 87.05 309.10626Q87.58125 309.3875 87.925 309.91876Q88.26875 310.4344 88.45625 311.1844Q88.64375 311.9344 88.64375 313.21564Q88.64375 314.73126 88.33125 315.65314Q88.03438 316.575 87.40938 317.09064Q86.8 317.59064 85.84688 317.59064Q84.6125 317.59064 83.89375 316.7Q83.05 315.6375 83.05 313.21564ZM84.12813 313.21564Q84.12813 315.325 84.62813 316.02814Q85.12813 316.73126 85.84688 316.73126Q86.58125 316.73126 87.06563 316.02814Q87.56563 315.325 87.56563 313.21564Q87.56563 311.09064 87.06563 310.40314Q86.58125 309.7 85.83125 309.7Q85.1125 309.7 84.675 310.3094Q84.12813 311.09064 84.12813 313.21564Z" fill-rule="nonzero"/><path fill="#000000" d="M190.57187 316.4344L190.57187 317.45L184.88437 317.45Q184.88437 317.075 185.00937 316.71564Q185.22812 316.1375 185.69687 315.575Q186.18124 315.0125 187.0875 314.27814Q188.49374 313.1219 188.97812 312.45Q189.47812 311.77814 189.47812 311.1844Q189.47812 310.5594 189.025 310.1375Q188.57187 309.7 187.85312 309.7Q187.0875 309.7 186.63437 310.15314Q186.18124 310.60626 186.16562 311.41876L185.0875 311.3094Q185.19687 310.09064 185.91562 309.46564Q186.65 308.825 187.88437 308.825Q189.11874 308.825 189.8375 309.5125Q190.55624 310.2 190.55624 311.21564Q190.55624 311.73126 190.3375 312.23126Q190.13437 312.71564 189.63437 313.27814Q189.15 313.825 188.025 314.77814Q187.07187 315.575 186.79062 315.8719Q186.525 316.15314 186.35312 316.4344L190.57187 316.4344ZM192.025 315.2L193.13437 315.10626Q193.25937 315.91876 193.69687 316.325Q194.15 316.73126 194.79062 316.73126Q195.54062 316.73126 196.07187 316.15314Q196.60312 315.575 196.60312 314.6375Q196.60312 313.73126 196.0875 313.21564Q195.5875 312.6844 194.75937 312.6844Q194.25937 312.6844 193.8375 312.91876Q193.43124 313.15314 193.19687 313.5125L192.2125 313.3875L193.04062 308.98126L197.32187 308.98126L197.32187 309.98126L193.88437 309.98126L193.43124 312.29376Q194.19687 311.7469 195.04062 311.7469Q196.16562 311.7469 196.93124 312.52814Q197.7125 313.3094 197.7125 314.54376Q197.7125 315.7 197.04062 316.5594Q196.2125 317.59064 194.79062 317.59064Q193.61874 317.59064 192.86874 316.9344Q192.13437 316.27814 192.025 315.2ZM199.025 313.21564Q199.025 311.6844 199.3375 310.7625Q199.65 309.825 200.25937 309.325Q200.88437 308.825 201.82187 308.825Q202.50937 308.825 203.025 309.10626Q203.55624 309.3875 203.9 309.91876Q204.24374 310.4344 204.43124 311.1844Q204.61874 311.9344 204.61874 313.21564Q204.61874 314.73126 204.30624 315.65314Q204.00937 316.575 203.38437 317.09064Q202.775 317.59064 201.82187 317.59064Q200.5875 317.59064 199.86874 316.7Q199.025 315.6375 199.025 313.21564ZM200.10312 313.21564Q200.10312 315.325 200.60312 316.02814Q201.10312 316.73126 201.82187 316.73126Q202.55624 316.73126 203.04062 316.02814Q203.54062 315.325 203.54062 313.21564Q203.54062 311.09064 203.04062 310.40314Q202.55624 309.7 201.80624 309.7Q201.0875 309.7 200.65 310.3094Q200.10312 311.09064 200.10312 313.21564ZM206.5875 317.45L206.5875 316.2469L207.79062 316.2469L207.79062 317.45Q207.79062 318.10626 207.55624 318.5125Q207.32187 318.9344 206.82187 319.15314L206.525 318.7Q206.85312 318.5594 207.00937 318.2625Q207.16562 317.98126 207.19687 317.45L206.5875 317.45ZM209.025 313.21564Q209.025 311.6844 209.3375 310.7625Q209.65 309.825 210.25937 309.325Q210.88437 308.825 211.82187 308.825Q212.50937 308.825 213.025 309.10626Q213.55624 309.3875 213.9 309.91876Q214.24374 310.4344 214.43124 311.1844Q214.61874 311.9344 214.61874 313.21564Q214.61874 314.73126 214.30624 315.65314Q214.00937 316.575 213.38437 317.09064Q212.775 317.59064 211.82187 317.59064Q210.5875 317.59064 209.86874 316.7Q209.025 315.6375 209.025 313.21564ZM210.10312 313.21564Q210.10312 315.325 210.60312 316.02814Q211.10312 316.73126 211.82187 316.73126Q212.55624 316.73126 213.04062 316.02814Q213.54062 315.325 213.54062 313.21564Q213.54062 311.09064 213.04062 310.40314Q212.55624 309.7 211.80624 309.7Q211.0875 309.7 210.65 310.3094Q210.10312 311.09064 210.10312 313.21564ZM216.025 313.21564Q216.025 311.6844 216.3375 310.7625Q216.65 309.825 217.25937 309.325Q217.88437 308.825 218.82187 308.825Q219.50937 308.825 220.025 309.10626Q220.55624 309.3875 220.9 309.91876Q221.24374 310.4344 221.43124 311.1844Q221.61874 311.9344 221.61874 313.21564Q221.61874 314.73126 221.30624 315.65314Q221.00937 316.575 220.38437 317.09064Q219.775 317.59064 218.82187 317.59064Q217.5875 317.59064 216.86874 316.7Q216.025 315.6375 216.025 313.21564ZM217.10312 313.21564Q217.10312 315.325 217.60312 316.02814Q218.10312 316.73126 218.82187 316.73126Q219.55624 316.73126 220.04062 316.02814Q220.54062 315.325 220.54062 313.21564Q220.54062 311.09064 220.04062 310.40314Q219.55624 309.7 218.80624 309.7Q218.0875 309.7 217.65 310.3094Q217.10312 311.09064 217.10312 313.21564Z" fill-rule="nonzero"/><path fill="#000000" d="M311.0 315.2L312.10938 315.10626Q312.23438 315.91876 312.67188 316.325Q313.125 316.73126 313.76562 316.73126Q314.51562 316.73126 315.04688 316.15314Q315.57812 315.575 315.57812 314.6375Q315.57812 313.73126 315.0625 313.21564Q314.5625 312.6844 313.73438 312.6844Q313.23438 312.6844 312.8125 312.91876Q312.40625 313.15314 312.17188 313.5125L311.1875 313.3875L312.01562 308.98126L316.29688 308.98126L316.29688 309.98126L312.85938 309.98126L312.40625 312.29376Q313.17188 311.7469 314.01562 311.7469Q315.14062 311.7469 315.90625 312.52814Q316.6875 313.3094 316.6875 314.54376Q316.6875 315.7 316.01562 316.5594Q315.1875 317.59064 313.76562 317.59064Q312.59375 317.59064 311.84375 316.9344Q311.10938 316.27814 311.0 315.2ZM318.0 313.21564Q318.0 311.6844 318.3125 310.7625Q318.625 309.825 319.23438 309.325Q319.85938 308.825 320.79688 308.825Q321.48438 308.825 322.0 309.10626Q322.53125 309.3875 322.875 309.91876Q323.21875 310.4344 323.40625 311.1844Q323.59375 311.9344 323.59375 313.21564Q323.59375 314.73126 323.28125 315.65314Q322.98438 316.575 322.35938 317.09064Q321.75 317.59064 320.79688 317.59064Q319.5625 317.59064 318.84375 316.7Q318.0 315.6375 318.0 313.21564ZM319.07812 313.21564Q319.07812 315.325 319.57812 316.02814Q320.07812 316.73126 320.79688 316.73126Q321.53125 316.73126 322.01562 316.02814Q322.51562 315.325 322.51562 313.21564Q322.51562 311.09064 322.01562 310.40314Q321.53125 309.7 320.78125 309.7Q320.0625 309.7 319.625 310.3094Q319.07812 311.09064 319.07812 313.21564ZM325.0 313.21564Q325.0 311.6844 325.3125 310.7625Q325.625 309.825 326.23438 309.325Q326.85938 308.825 327.79688 308.825Q328.48438 308.825 329.0 309.10626Q329.53125 309.3875 329.875 309.91876Q330.21875 310.4344 330.40625 311.1844Q330.59375 311.9344 330.59375 313.21564Q330.59375 314.73126 330.28125 315.65314Q329.98438 316.575 329.35938 317.09064Q328.75 317.59064 327.79688 317.59064Q326.5625 317.59064 325.84375 316.7Q325.0 315.6375 325.0 313.21564ZM326.07812 313.21564Q326.07812 315.325 326.57812 316.02814Q327.07812 316.73126 327.79688 316.73126Q328.53125 316.73126 329.01562 316.02814Q329.51562 315.325 329.51562 313.21564Q329.51562 311.09064 329.01562 310.40314Q328.53125 309.7 327.78125 309.7Q327.0625 309.7 326.625 310.3094Q326.07812 311.09064 326.07812 313.21564ZM332.5625 317.45L332.5625 316.2469L333.76562 316.2469L333.76562 317.45Q333.76562 318.10626 333.53125 318.5125Q333.29688 318.9344 332.79688 319.15314L332.5 318.7Q332.82812 318.5594 332.98438 318.2625Q333.14062 317.98126 333.17188 317.45L332.5625 317.45ZM335.0 313.21564Q335.0 311.6844 335.3125 310.7625Q335.625 309.825 336.23438 309.325Q336.85938 308.825 337.79688 308.825Q338.48438 308.825 339.0 309.10626Q339.53125 309.3875 339.875 309.91876Q340.21875 310.4344 340.40625 311.1844Q340.59375 311.9344 340.59375 313.21564Q340.59375 314.73126 340.28125 315.65314Q339.98438 316.575 339.35938 317.09064Q338.75 317.59064 337.79688 317.59064Q336.5625 317.59064 335.84375 316.7Q335.0 315.6375 335.0 313.21564ZM336.07812 313.21564Q336.07812 315.325 336.57812 316.02814Q337.07812 316.73126 337.79688 316.73126Q338.53125 316.73126 339.01562 316.02814Q339.51562 315.325 339.51562 313.21564Q339.51562 311.09064 339.01562 310.40314Q338.53125 309.7 337.78125 309.7Q337.0625 309.7 336.625 310.3094Q336.07812 311.09064 336.07812 313.21564ZM342.0 313.21564Q342.0 311.6844 342.3125 310.7625Q342.625 309.825 343.23438 309.325Q343.85938 308.825 344.79688 308.825Q345.48438 308.825 346.0 309.10626Q346.53125 309.3875 346.875 309.91876Q347.21875 310.4344 347.40625 311.1844Q347.59375 311.9344 347.59375 313.21564Q347.59375 314.73126 347.28125 315.65314Q346.98438 316.575 346.35938 317.09064Q345.75 317.59064 344.79688 317.59064Q343.5625 317.59064 342.84375 316.7Q342.0 315.6375 342.0 313.21564ZM343.07812 313.21564Q343.07812 315.325 343.57812 316.02814Q344.07812 316.73126 344.79688 316.73126Q345.53125 316.73126 346.01562 316.02814Q346.51562 315.325 346.51562 313.21564Q346.51562 311.09064 346.01562 310.40314Q345.53125 309.7 344.78125 309.7Q344.0625 309.7 343.625 310.3094Q343.07812 311.09064 343.07812 313.21564Z" fill-rule="nonzero"/><path fill="#000000" d="M437.0375 309.98126L437.0375 308.96564L442.6 308.96564L442.6 309.79376Q441.7875 310.66876 440.975 312.1219Q440.17813 313.5594 439.74063 315.09064Q439.4125 316.16876 439.33438 317.45L438.24063 317.45Q438.25626 316.4344 438.63126 314.9969Q439.02188 313.5594 439.725 312.23126Q440.44376 310.90314 441.25626 309.98126L437.0375 309.98126ZM443.975 315.2L445.08438 315.10626Q445.20938 315.91876 445.64688 316.325Q446.1 316.73126 446.74063 316.73126Q447.49063 316.73126 448.02188 316.15314Q448.55313 315.575 448.55313 314.6375Q448.55313 313.73126 448.0375 313.21564Q447.5375 312.6844 446.70938 312.6844Q446.20938 312.6844 445.7875 312.91876Q445.38126 313.15314 445.14688 313.5125L444.1625 313.3875L444.99063 308.98126L449.27188 308.98126L449.27188 309.98126L445.83438 309.98126L445.38126 312.29376Q446.14688 311.7469 446.99063 311.7469Q448.11563 311.7469 448.88126 312.52814Q449.6625 313.3094 449.6625 314.54376Q449.6625 315.7 448.99063 316.5594Q448.1625 317.59064 446.74063 317.59064Q445.56876 317.59064 444.81876 316.9344Q444.08438 316.27814 443.975 315.2ZM450.975 313.21564Q450.975 311.6844 451.2875 310.7625Q451.6 309.825 452.20938 309.325Q452.83438 308.825 453.77188 308.825Q454.45938 308.825 454.975 309.10626Q455.50626 309.3875 455.85 309.91876Q456.19376 310.4344 456.38126 311.1844Q456.56876 311.9344 456.56876 313.21564Q456.56876 314.73126 456.25626 315.65314Q455.95938 316.575 455.33438 317.09064Q454.725 317.59064 453.77188 317.59064Q452.5375 317.59064 451.81876 316.7Q450.975 315.6375 450.975 313.21564ZM452.05313 313.21564Q452.05313 315.325 452.55313 316.02814Q453.05313 316.73126 453.77188 316.73126Q454.50626 316.73126 454.99063 316.02814Q455.49063 315.325 455.49063 313.21564Q455.49063 311.09064 454.99063 310.40314Q454.50626 309.7 453.75626 309.7Q453.0375 309.7 452.6 310.3094Q452.05313 311.09064 452.05313 313.21564ZM458.5375 317.45L458.5375 316.2469L459.74063 316.2469L459.74063 317.45Q459.74063 318.10626 459.50626 318.5125Q459.27188 318.9344 458.77188 319.15314L458.475 318.7Q458.80313 318.5594 458.95938 318.2625Q459.11563 317.98126 459.14688 317.45L458.5375 317.45ZM460.975 313.21564Q460.975 311.6844 461.2875 310.7625Q461.6 309.825 462.20938 309.325Q462.83438 308.825 463.77188 308.825Q464.45938 308.825 464.975 309.10626Q465.50626 309.3875 465.85 309.91876Q466.19376 310.4344 466.38126 311.1844Q466.56876 311.9344 466.56876 313.21564Q466.56876 314.73126 466.25626 315.65314Q465.95938 316.575 465.33438 317.09064Q464.725 317.59064 463.77188 317.59064Q462.5375 317.59064 461.81876 316.7Q460.975 315.6375 460.975 313.21564ZM462.05313 313.21564Q462.05313 315.325 462.55313 316.02814Q463.05313 316.73126 463.77188 316.73126Q464.50626 316.73126 464.99063 316.02814Q465.49063 315.325 465.49063 313.21564Q465.49063 311.09064 464.99063 310.40314Q464.50626 309.7 463.75626 309.7Q463.0375 309.7 462.6 310.3094Q462.05313 311.09064 462.05313 313.21564ZM467.975 313.21564Q467.975 311.6844 468.2875 310.7625Q468.6 309.825 469.20938 309.325Q469.83438 308.825 470.77188 308.825Q471.45938 308.825 471.975 309.10626Q472.50626 309.3875 472.85 309.91876Q473.19376 310.4344 473.38126 311.1844Q473.56876 311.9344 473.56876 313.21564Q473.56876 314.73126 473.25626 315.65314Q472.95938 316.575 472.33438 317.09064Q471.725 317.59064 470.77188 317.59064Q469.5375 317.59064 468.81876 316.7Q467.975 315.6375 467.975 313.21564ZM469.05313 313.21564Q469.05313 315.325 469.55313 316.02814Q470.05313 316.73126 470.77188 316.73126Q471.50626 316.73126 471.99063 316.02814Q472.49063 315.325 472.49063 313.21564Q472.49063 311.09064 471.99063 310.40314Q471.50626 309.7 470.75626 309.7Q470.0375 309.7 469.6 310.3094Q469.05313 311.09064 469.05313 313.21564Z" fill-rule="nonzero"/><path fill="#757575" d="M20.409374 37.55L20.409374 23.2375L22.315624 23.2375L22.315624 37.55L20.409374 37.55ZM25.51875 30.58125Q25.51875 27.01875 27.425 25.003124Q29.346874 22.971874 32.378124 22.971874Q34.3625 22.971874 35.940624 23.925Q37.534374 24.878124 38.3625 26.58125Q39.20625 28.26875 39.20625 30.409374Q39.20625 32.58125 38.33125 34.3Q37.45625 36.01875 35.83125 36.909374Q34.221874 37.8 32.3625 37.8Q30.346874 37.8 28.753124 36.83125Q27.159374 35.846874 26.33125 34.159374Q25.51875 32.45625 25.51875 30.58125ZM27.471874 30.6125Q27.471874 33.190624 28.8625 34.690624Q30.253124 36.175 32.346874 36.175Q34.4875 36.175 35.8625 34.675Q37.253124 33.159374 37.253124 30.39375Q37.253124 28.659374 36.659374 27.3625Q36.08125 26.05 34.940624 25.33125Q33.8 24.6125 32.378124 24.6125Q30.378124 24.6125 28.925 26.003124Q27.471874 27.378124 27.471874 30.6125ZM42.096874 37.55L42.096874 23.2375L47.4875 23.2375Q48.925 23.2375 49.675 23.3625Q50.721874 23.55 51.440624 24.05Q52.159374 24.534374 52.58125 25.425Q53.01875 26.315624 53.01875 27.378124Q53.01875 29.20625 51.846874 30.471874Q50.690624 31.721874 47.659374 31.721874L43.9875 31.721874L43.9875 37.55L42.096874 37.55ZM43.9875 30.034374L47.690624 30.034374Q49.51875 30.034374 50.284374 29.3625Q51.065624 28.675 51.065624 27.425Q51.065624 26.534374 50.6125 25.89375Q50.159374 25.253124 49.425 25.05Q48.940624 24.925 47.64375 24.925L43.9875 24.925L43.9875 30.034374ZM54.45625 32.95625L56.2375 32.8Q56.3625 33.8625 56.815624 34.55Q57.284374 35.2375 58.253124 35.675Q59.2375 36.096874 60.471874 36.096874Q61.55 36.096874 62.378124 35.784374Q63.20625 35.45625 63.6125 34.89375Q64.01875 34.33125 64.01875 33.659374Q64.01875 32.9875 63.628124 32.4875Q63.2375 31.9875 62.346874 31.64375Q61.76875 31.409374 59.784374 30.940624Q57.815624 30.471874 57.034374 30.05Q56.003124 29.51875 55.503124 28.721874Q55.003124 27.925 55.003124 26.940624Q55.003124 25.846874 55.6125 24.909374Q56.221874 23.971874 57.409374 23.4875Q58.596874 22.9875 60.034374 22.9875Q61.628124 22.9875 62.846874 23.503124Q64.06563 24.01875 64.70625 25.01875Q65.3625 26.003124 65.40938 27.26875L63.596874 27.409374Q63.45625 26.05 62.6125 25.3625Q61.76875 24.659374 60.1125 24.659374Q58.39375 24.659374 57.596874 25.3Q56.815624 25.925 56.815624 26.8Q56.815624 27.58125 57.378124 28.08125Q57.925 28.58125 60.2375 29.096874Q62.55 29.6125 63.409374 30.003124Q64.65938 30.58125 65.25313 31.471874Q65.84688 32.346874 65.84688 33.503124Q65.84688 34.64375 65.19063 35.659374Q64.53438 36.675 63.3 37.2375Q62.08125 37.8 60.55 37.8Q58.6125 37.8 57.3 37.2375Q55.9875 36.659374 55.2375 35.51875Q54.4875 34.378124 54.45625 32.95625Z" fill-rule="nonzero"/></svg>