<svg version="1.1" viewBox="0.0 0.0 600.0 371.0" fill="none" stroke="none" stroke-linecap="square" stroke-miterlimit="10" width="600" height="371" xmlns:xlink="http://www.w3.org/1999/xlink" xmlns="http://www.w3.org/2000/svg"><path fill="#ffffff" d="M0 0L600.0 0L600.0 371.0L0 371.0L0 0Z" fill-rule="nonzero"/><path stroke="#333333" stroke-width="1.0" stroke-linecap="butt" d="M77.5 54.5L77.5 300.5" fill-rule="nonzero"/><path stroke="#cccccc" stroke-width="1.0" stroke-linecap="butt" d="M245.5 54.5L245.5 300.5" fill-rule="nonzero"/><path stroke="#cccccc" stroke-width="1.0" stroke-linecap="butt" d="M413.5 54.5L413.5 300.5" fill-rule="nonzero"/><path stroke="#cccccc" stroke-width="1.0" stroke-linecap="butt" d="M581.5 54.5L581.5 300.5" fill-rule="nonzero"/><clipPath id="id_0"><path d="M77.55 54.916668L581.45 54.916668L581.45 300.45L77.55 300.45L77.55 54.916668Z" clip-rule="nonzero"/></clipPath><path stroke="#000000" stroke-width="2.0" stroke-linecap="butt" stroke-opacity="0.0" clip-path="url(#id_0)" d="M78.0 112.0L78.0 75.0L519.0 75.0C520.10455 75.0 521.0 75.89543 521.0 77.0L521.0 110.0C521.0 111.10457 520.10455 112.0 519.0 112.0Z" fill-rule="nonzero"/><path fill="#4285f4" clip-path="url(#id_0)" d="M78.0 112.0L78.0 75.0L519.0 75.0C520.10455 75.0 521.0 75.89543 521.0 77.0L521.0 110.0C521.0 111.10457 520.10455 112.0 519.0 112.0Z" fill-rule="nonzero"/><path stroke="#000000" stroke-width="2.0" stroke-linecap="butt" stroke-opacity="0.0" clip-path="url(#id_0)" d="M78.0 168.0L78.0 131.0L543.0 131.0C544.10455 131.0 545.0 131.89543 545.0 133.0L545.0 166.0C545.0 167.10457 544.10455 168.0 543.0 168.0Z" fill-rule="nonzero"/><path fill="#4285f4" clip-path="url(#id_0)" d="M78.0 168.0L78.0 131.0L543.0 131.0C544.10455 131.0 545.0 131.89543 545.0 133.0L545.0 166.0C545.0 167.10457 544.10455 168.0 543.0 168.0Z" fill-rule="nonzero"/><path stroke="#000000" stroke-width="2.0" stroke-linecap="butt" stroke-opacity="0.0" clip-path="url(#id_0)" d="M78.0 225.0L78.0 188.0L517.0 188.0C518.10455 188.0 519.0 188.89543 519.0 190.0L519.0 223.0C519.0 224.10457 518.10455 225.0 517.0 225.0Z" fill-rule="nonzero"/><path fill="#4285f4" clip-path="url(#id_0)" d="M78.0 225.0L78.0 188.0L517.0 188.0C518.10455 188.0 519.0 188.89543 519.0 190.0L519.0 223.0C519.0 224.10457 518.10455 225.0 517.0 225.0Z" fill-rule="nonzero"/><path stroke="#000000" stroke-width="2.0" stroke-linecap="butt" stroke-opacity="0.0" clip-path="url(#id_0)" d="M78.0 281.0L78.0 244.0L544.0 244.0C545.10455 244.0 546.0 244.89543 546.0 246.0L546.0 279.0C546.0 280.10458 545.10455 281.0 544.0 281.0Z" fill-rule="nonzero"/><path fill="#4285f4" clip-path="url(#id_0)" d="M78.0 281.0L78.0 244.0L544.0 244.0C545.10455 244.0 546.0 244.89543 546.0 246.0L546.0 279.0C546.0 280.10458 545.10455 281.0 544.0 281.0Z" fill-rule="nonzero"/><path stroke="#4285f4" stroke-width="3.0" stroke-linejoin="round" stroke-linecap="round" d="M487.82486 93.21875L488.26236 88.96875L492.63736 88.96875L492.63736 89.96875L489.18423 89.96875L488.9186 92.296875Q489.55923 91.921875 490.3561 91.921875Q491.51236 91.921875 492.19986 92.703125Q492.88736 93.46875 492.88736 94.78125Q492.88736 96.09375 492.1686 96.859375Q491.46548 97.625 490.18423 97.625Q489.05923 97.625 488.34048 97.0Q487.62173 96.359375 487.52798 95.25L488.5436 95.25Q488.65298 95.984375 489.07486 96.359375Q489.49673 96.734375 490.18423 96.734375Q490.93423 96.734375 491.37173 96.21875Q491.80923 95.703125 491.80923 94.796875Q491.80923 93.9375 491.34048 93.421875Q490.87173 92.90625 490.09048 92.90625Q489.38736 92.90625 488.9811 93.203125L488.69986 93.4375L487.82486 93.21875ZM499.9186 97.5L494.32486 97.5L494.32486 96.71875L497.27798 93.4375Q497.93423 92.6875 498.18423 92.234375Q498.43423 91.765625 498.43423 91.265625Q498.43423 90.59375 498.02798 90.171875Q497.63736 89.734375 496.94986 89.734375Q496.15298 89.734375 495.69986 90.203125Q495.24673 90.65625 495.24673 91.484375L494.1686 91.484375Q494.1686 90.296875 494.9186 89.578125Q495.68423 88.84375 496.94986 88.84375Q498.15298 88.84375 498.84048 89.46875Q499.52798 90.09375 499.52798 91.140625Q499.52798 92.390625 497.9186 94.140625L495.63736 96.609375L499.9186 96.609375L499.9186 97.5ZM501.40298 99.203125L500.7936 98.78125Q501.34048 98.015625 501.37173 97.1875L501.37173 96.21875L502.43423 96.21875L502.43423 97.0625Q502.43423 97.65625 502.13736 98.25Q501.84048 98.84375 501.40298 99.203125ZM508.51236 91.1875Q508.51236 91.828125 508.1686 92.328125Q507.82486 92.828125 507.26236 93.109375Q507.9186 93.390625 508.30923 93.953125Q508.69986 94.5 508.69986 95.203125Q508.69986 96.296875 507.94986 96.96875Q507.21548 97.625 505.99673 97.625Q504.76236 97.625 504.01236 96.96875Q503.27798 96.296875 503.27798 95.203125Q503.27798 94.5 503.65298 93.953125Q504.02798 93.390625 504.69986 93.109375Q504.13736 92.828125 503.80923 92.328125Q503.4811 91.828125 503.4811 91.1875Q503.4811 90.109375 504.1686 89.484375Q504.8561 88.84375 505.99673 88.84375Q507.12173 88.84375 507.80923 89.484375Q508.51236 90.109375 508.51236 91.1875ZM507.62173 95.171875Q507.62173 94.453125 507.1686 94.015625Q506.71548 93.5625 505.9811 93.5625Q505.24673 93.5625 504.7936 94.015625Q504.3561 94.453125 504.3561 95.1875Q504.3561 95.90625 504.7936 96.328125Q505.2311 96.734375 505.99673 96.734375Q506.74673 96.734375 507.18423 96.3125Q507.62173 95.890625 507.62173 95.171875ZM505.99673 89.734375Q505.3561 89.734375 504.94986 90.140625Q504.55923 90.53125 504.55923 91.21875Q504.55923 91.859375 504.94986 92.265625Q505.34048 92.671875 505.9811 92.671875Q506.63736 92.671875 507.02798 92.265625Q507.4186 91.859375 507.4186 91.21875Q507.4186 90.5625 507.01236 90.15625Q506.6061 89.734375 505.99673 89.734375ZM510.82486 93.21875L511.26236 88.96875L515.6373 88.96875L515.6373 89.96875L512.1842 89.96875L511.9186 92.296875Q512.5592 91.921875 513.3561 91.921875Q514.5123 91.921875 515.1998 92.703125Q515.8873 93.46875 515.8873 94.78125Q515.8873 96.09375 515.1686 96.859375Q514.46545 97.625 513.1842 97.625Q512.0592 97.625 511.34048 97.0Q510.62173 96.359375 510.52798 95.25L511.5436 95.25Q511.65298 95.984375 512.0748 96.359375Q512.4967 96.734375 513.1842 96.734375Q513.9342 96.734375 514.3717 96.21875Q514.8092 95.703125 514.8092 94.796875Q514.8092 93.9375 514.34045 93.421875Q513.8717 92.90625 513.09045 92.90625Q512.3873 92.90625 511.9811 93.203125L511.69986 93.4375L510.82486 93.21875Z" fill-rule="nonzero"/><path fill="#ffffff" d="M487.82486 93.21875L488.26236 88.96875L492.63736 88.96875L492.63736 89.96875L489.18423 89.96875L488.9186 92.296875Q489.55923 91.921875 490.3561 91.921875Q491.51236 91.921875 492.19986 92.703125Q492.88736 93.46875 492.88736 94.78125Q492.88736 96.09375 492.1686 96.859375Q491.46548 97.625 490.18423 97.625Q489.05923 97.625 488.34048 97.0Q487.62173 96.359375 487.52798 95.25L488.5436 95.25Q488.65298 95.984375 489.07486 96.359375Q489.49673 96.734375 490.18423 96.734375Q490.93423 96.734375 491.37173 96.21875Q491.80923 95.703125 491.80923 94.796875Q491.80923 93.9375 491.34048 93.421875Q490.87173 92.90625 490.09048 92.90625Q489.38736 92.90625 488.9811 93.203125L488.69986 93.4375L487.82486 93.21875ZM499.9186 97.5L494.32486 97.5L494.32486 96.71875L497.27798 93.4375Q497.93423 92.6875 498.18423 92.234375Q498.43423 91.765625 498.43423 91.265625Q498.43423 90.59375 498.02798 90.171875Q497.63736 89.734375 496.94986 89.734375Q496.15298 89.734375 495.69986 90.203125Q495.24673 90.65625 495.24673 91.484375L494.1686 91.484375Q494.1686 90.296875 494.9186 89.578125Q495.68423 88.84375 496.94986 88.84375Q498.15298 88.84375 498.84048 89.46875Q499.52798 90.09375 499.52798 91.140625Q499.52798 92.390625 497.9186 94.140625L495.63736 96.609375L499.9186 96.609375L499.9186 97.5ZM501.40298 99.203125L500.7936 98.78125Q501.34048 98.015625 501.37173 97.1875L501.37173 96.21875L502.43423 96.21875L502.43423 97.0625Q502.43423 97.65625 502.13736 98.25Q501.84048 98.84375 501.40298 99.203125ZM508.51236 91.1875Q508.51236 91.828125 508.1686 92.328125Q507.82486 92.828125 507.26236 93.109375Q507.9186 93.390625 508.30923 93.953125Q508.69986 94.5 508.69986 95.203125Q508.69986 96.296875 507.94986 96.96875Q507.21548 97.625 505.99673 97.625Q504.76236 97.625 504.01236 96.96875Q503.27798 96.296875 503.27798 95.203125Q503.27798 94.5 503.65298 93.953125Q504.02798 93.390625 504.69986 93.109375Q504.13736 92.828125 503.80923 92.328125Q503.4811 91.828125 503.4811 91.1875Q503.4811 90.109375 504.1686 89.484375Q504.8561 88.84375 505.99673 88.84375Q507.12173 88.84375 507.80923 89.484375Q508.51236 90.109375 508.51236 91.1875ZM507.62173 95.171875Q507.62173 94.453125 507.1686 94.015625Q506.71548 93.5625 505.9811 93.5625Q505.24673 93.5625 504.7936 94.015625Q504.3561 94.453125 504.3561 95.1875Q504.3561 95.90625 504.7936 96.328125Q505.2311 96.734375 505.99673 96.734375Q506.74673 96.734375 507.18423 96.3125Q507.62173 95.890625 507.62173 95.171875ZM505.99673 89.734375Q505.3561 89.734375 504.94986 90.140625Q504.55923 90.53125 504.55923 91.21875Q504.55923 91.859375 504.94986 92.265625Q505.34048 92.671875 505.9811 92.671875Q506.63736 92.671875 507.02798 92.265625Q507.4186 91.859375 507.4186 91.21875Q507.4186 90.5625 507.01236 90.15625Q506.6061 89.734375 505.99673 89.734375ZM510.82486 93.21875L511.26236 88.96875L515.6373 88.96875L515.6373 89.96875L512.1842 89.96875L511.9186 92.296875Q512.5592 91.921875 513.3561 91.921875Q514.5123 91.921875 515.1998 92.703125Q515.8873 93.46875 515.8873 94.78125Q515.8873 96.09375 515.1686 96.859375Q514.46545 97.625 513.1842 97.625Q512.0592 97.625 511.34048 97.0Q510.62173 96.359375 510.52798 95.25L511.5436 95.25Q511.65298 95.984375 512.0748 96.359375Q512.4967 96.734375 513.1842 96.734375Q513.9342 96.734375 514.3717 96.21875Q514.8092 95.703125 514.8092 94.796875Q514.8092 93.9375 514.34045 93.421875Q513.8717 92.90625 513.09045 92.90625Q512.3873 92.90625 511.9811 93.203125L511.69986 93.4375L510.82486 93.21875Z" fill-rule="nonzero"/><path stroke="#4285f4" stroke-width="3.0" stroke-linejoin="round" stroke-linecap="round" d="M511.5888 149.21875L512.0263 144.96875L516.4013 144.96875L516.4013 145.96875L512.9482 145.96875L512.68256 148.29688Q513.3232 147.92188 514.12006 147.92188Q515.2763 147.92188 515.9638 148.70312Q516.6513 149.46875 516.6513 150.78125Q516.6513 152.09375 515.93256 152.85938Q515.22943 153.625 513.9482 153.625Q512.8232 153.625 512.10443 153.0Q511.38568 152.35938 511.29193 151.25L512.30756 151.25Q512.41693 151.98438 512.8388 152.35938Q513.2607 152.73438 513.9482 152.73438Q514.6982 152.73438 515.1357 152.21875Q515.5732 151.70312 515.5732 150.79688Q515.5732 149.9375 515.10443 149.42188Q514.6357 148.90625 513.85443 148.90625Q513.1513 148.90625 512.74506 149.20312L512.4638 149.4375L511.5888 149.21875ZM518.5888 149.21875L519.0263 144.96875L523.4013 144.96875L523.4013 145.96875L519.9482 145.96875L519.68256 148.29688Q520.3232 147.92188 521.12006 147.92188Q522.2763 147.92188 522.9638 148.70312Q523.6513 149.46875 523.6513 150.78125Q523.6513 152.09375 522.93256 152.85938Q522.22943 153.625 520.9482 153.625Q519.8232 153.625 519.10443 153.0Q518.3857 152.35938 518.29193 151.25L519.30756 151.25Q519.41693 151.98438 519.8388 152.35938Q520.2607 152.73438 520.9482 152.73438Q521.6982 152.73438 522.1357 152.21875Q522.5732 151.70312 522.5732 150.79688Q522.5732 149.9375 522.10443 149.42188Q521.6357 148.90625 520.85443 148.90625Q520.1513 148.90625 519.74506 149.20312L519.4638 149.4375L518.5888 149.21875ZM525.16693 155.20312L524.55756 154.78125Q525.10443 154.01562 525.1357 153.1875L525.1357 152.21875L526.1982 152.21875L526.1982 153.0625Q526.1982 153.65625 525.9013 154.25Q525.60443 154.84375 525.16693 155.20312ZM531.35443 144.96875L531.35443 145.875L531.1513 145.875Q529.8857 145.90625 529.1357 146.64062Q528.3857 147.35938 528.2607 148.67188Q528.9482 147.90625 530.10443 147.90625Q531.2138 147.90625 531.8857 148.6875Q532.55756 149.46875 532.55756 150.71875Q532.55756 152.03125 531.8388 152.82812Q531.12006 153.625 529.9013 153.625Q528.68256 153.625 527.91693 152.6875Q527.16693 151.73438 527.16693 150.25L527.16693 149.84375Q527.16693 147.48438 528.16693 146.23438Q529.16693 144.98438 531.1513 144.96875L531.35443 144.96875ZM529.93256 148.8125Q529.37006 148.8125 528.9013 149.14062Q528.43256 149.46875 528.24506 149.98438L528.24506 150.375Q528.24506 151.4375 528.7138 152.07812Q529.1982 152.71875 529.9013 152.71875Q530.6357 152.71875 531.05756 152.1875Q531.47943 151.64062 531.47943 150.76562Q531.47943 149.89062 531.05756 149.35938Q530.6357 148.8125 529.93256 148.8125ZM539.2763 147.1875Q539.2763 147.82812 538.93256 148.32812Q538.5888 148.82812 538.0263 149.10938Q538.68256 149.39062 539.0732 149.95312Q539.4638 150.5 539.4638 151.20312Q539.4638 152.29688 538.7138 152.96875Q537.97943 153.625 536.7607 153.625Q535.5263 153.625 534.7763 152.96875Q534.04193 152.29688 534.04193 151.20312Q534.04193 150.5 534.41693 149.95312Q534.79193 149.39062 535.4638 149.10938Q534.9013 148.82812 534.5732 148.32812Q534.24506 147.82812 534.24506 147.1875Q534.24506 146.10938 534.93256 145.48438Q535.62006 144.84375 536.7607 144.84375Q537.8857 144.84375 538.5732 145.48438Q539.2763 146.10938 539.2763 147.1875ZM538.3857 151.17188Q538.3857 150.45312 537.93256 150.01562Q537.47943 149.5625 536.74506 149.5625Q536.0107 149.5625 535.55756 150.01562Q535.12006 150.45312 535.12006 151.1875Q535.12006 151.90625 535.55756 152.32812Q535.99506 152.73438 536.7607 152.73438Q537.5107 152.73438 537.9482 152.3125Q538.3857 151.89062 538.3857 151.17188ZM536.7607 145.73438Q536.12006 145.73438 535.7138 146.14062Q535.3232 146.53125 535.3232 147.21875Q535.3232 147.85938 535.7138 148.26562Q536.10443 148.67188 536.74506 148.67188Q537.4013 148.67188 537.79193 148.26562Q538.18256 147.85938 538.18256 147.21875Q538.18256 146.5625 537.7763 146.15625Q537.37006 145.73438 536.7607 145.73438Z" fill-rule="nonzero"/><path fill="#ffffff" d="M511.5888 149.21875L512.0263 144.96875L516.4013 144.96875L516.4013 145.96875L512.9482 145.96875L512.68256 148.29688Q513.3232 147.92188 514.12006 147.92188Q515.2763 147.92188 515.9638 148.70312Q516.6513 149.46875 516.6513 150.78125Q516.6513 152.09375 515.93256 152.85938Q515.22943 153.625 513.9482 153.625Q512.8232 153.625 512.10443 153.0Q511.38568 152.35938 511.29193 151.25L512.30756 151.25Q512.41693 151.98438 512.8388 152.35938Q513.2607 152.73438 513.9482 152.73438Q514.6982 152.73438 515.1357 152.21875Q515.5732 151.70312 515.5732 150.79688Q515.5732 149.9375 515.10443 149.42188Q514.6357 148.90625 513.85443 148.90625Q513.1513 148.90625 512.74506 149.20312L512.4638 149.4375L511.5888 149.21875ZM518.5888 149.21875L519.0263 144.96875L523.4013 144.96875L523.4013 145.96875L519.9482 145.96875L519.68256 148.29688Q520.3232 147.92188 521.12006 147.92188Q522.2763 147.92188 522.9638 148.70312Q523.6513 149.46875 523.6513 150.78125Q523.6513 152.09375 522.93256 152.85938Q522.22943 153.625 520.9482 153.625Q519.8232 153.625 519.10443 153.0Q518.3857 152.35938 518.29193 151.25L519.30756 151.25Q519.41693 151.98438 519.8388 152.35938Q520.2607 152.73438 520.9482 152.73438Q521.6982 152.73438 522.1357 152.21875Q522.5732 151.70312 522.5732 150.79688Q522.5732 149.9375 522.10443 149.42188Q521.6357 148.90625 520.85443 148.90625Q520.1513 148.90625 519.74506 149.20312L519.4638 149.4375L518.5888 149.21875ZM525.16693 155.20312L524.55756 154.78125Q525.10443 154.01562 525.1357 153.1875L525.1357 152.21875L526.1982 152.21875L526.1982 153.0625Q526.1982 153.65625 525.9013 154.25Q525.60443 154.84375 525.16693 155.20312ZM531.35443 144.96875L531.35443 145.875L531.1513 145.875Q529.8857 145.90625 529.1357 146.64062Q528.3857 147.35938 528.2607 148.67188Q528.9482 147.90625 530.10443 147.90625Q531.2138 147.90625 531.8857 148.6875Q532.55756 149.46875 532.55756 150.71875Q532.55756 152.03125 531.8388 152.82812Q531.12006 153.625 529.9013 153.625Q528.68256 153.625 527.91693 152.6875Q527.16693 151.73438 527.16693 150.25L527.16693 149.84375Q527.16693 147.48438 528.16693 146.23438Q529.16693 144.98438 531.1513 144.96875L531.35443 144.96875ZM529.93256 148.8125Q529.37006 148.8125 528.9013 149.14062Q528.43256 149.46875 528.24506 149.98438L528.24506 150.375Q528.24506 151.4375 528.7138 152.07812Q529.1982 152.71875 529.9013 152.71875Q530.6357 152.71875 531.05756 152.1875Q531.47943 151.64062 531.47943 150.76562Q531.47943 149.89062 531.05756 149.35938Q530.6357 148.8125 529.93256 148.8125ZM539.2763 147.1875Q539.2763 147.82812 538.93256 148.32812Q538.5888 148.82812 538.0263 149.10938Q538.68256 149.39062 539.0732 149.95312Q539.4638 150.5 539.4638 151.20312Q539.4638 152.29688 538.7138 152.96875Q537.97943 153.625 536.7607 153.625Q535.5263 153.625 534.7763 152.96875Q534.04193 152.29688 534.04193 151.20312Q534.04193 150.5 534.41693 149.95312Q534.79193 149.39062 535.4638 149.10938Q534.9013 148.82812 534.5732 148.32812Q534.24506 147.82812 534.24506 147.1875Q534.24506 146.10938 534.93256 145.48438Q535.62006 144.84375 536.7607 144.84375Q537.8857 144.84375 538.5732 145.48438Q539.2763 146.10938 539.2763 147.1875ZM538.3857 151.17188Q538.3857 150.45312 537.93256 150.01562Q537.47943 149.5625 536.74506 149.5625Q536.0107 149.5625 535.55756 150.01562Q535.12006 150.45312 535.12006 151.1875Q535.12006 151.90625 535.55756 152.32812Q535.99506 152.73438 536.7607 152.73438Q537.5107 152.73438 537.9482 152.3125Q538.3857 151.89062 538.3857 151.17188ZM536.7607 145.73438Q536.12006 145.73438 535.7138 146.14062Q535.3232 146.53125 535.3232 147.21875Q535.3232 147.85938 535.7138 148.26562Q536.10443 148.67188 536.74506 148.67188Q537.4013 148.67188 537.79193 148.26562Q538.18256 147.85938 538.18256 147.21875Q538.18256 146.5625 537.7763 146.15625Q537.37006 145.73438 536.7607 145.73438Z" fill-rule="nonzero"/><path stroke="#4285f4" stroke-width="3.0" stroke-linejoin="round" stroke-linecap="round" d="M485.7346 206.21875L486.1721 201.96875L490.5471 201.96875L490.5471 202.96875L487.09396 202.96875L486.82834 205.29688Q487.46896 204.92188 488.26584 204.92188Q489.4221 204.92188 490.1096 205.70312Q490.7971 206.46875 490.7971 207.78125Q490.7971 209.09375 490.07834 209.85938Q489.3752 210.625 488.09396 210.625Q486.96896 210.625 486.2502 210.0Q485.53146 209.35938 485.4377 208.25L486.45334 208.25Q486.5627 208.98438 486.9846 209.35938Q487.40646 209.73438 488.09396 209.73438Q488.84396 209.73438 489.28146 209.21875Q489.71896 208.70312 489.71896 207.79688Q489.71896 206.9375 489.2502 206.42188Q488.78146 205.90625 488.0002 205.90625Q487.2971 205.90625 486.89084 206.20312L486.6096 206.4375L485.7346 206.21875ZM497.82834 210.5L492.2346 210.5L492.2346 209.71875L495.1877 206.4375Q495.84396 205.6875 496.09396 205.23438Q496.34396 204.76562 496.34396 204.26562Q496.34396 203.59375 495.9377 203.17188Q495.5471 202.73438 494.8596 202.73438Q494.0627 202.73438 493.6096 203.20312Q493.15646 203.65625 493.15646 204.48438L492.07834 204.48438Q492.07834 203.29688 492.82834 202.57812Q493.59396 201.84375 494.8596 201.84375Q496.0627 201.84375 496.7502 202.46875Q497.4377 203.09375 497.4377 204.14062Q497.4377 205.39062 495.82834 207.14062L493.5471 209.60938L497.82834 209.60938L497.82834 210.5ZM499.3127 212.20312L498.70334 211.78125Q499.2502 211.01562 499.28146 210.1875L499.28146 209.21875L500.34396 209.21875L500.34396 210.0625Q500.34396 210.65625 500.0471 211.25Q499.7502 211.84375 499.3127 212.20312ZM505.5002 201.96875L505.5002 202.875L505.2971 202.875Q504.03146 202.90625 503.28146 203.64062Q502.53146 204.35938 502.40646 205.67188Q503.09396 204.90625 504.2502 204.90625Q505.3596 204.90625 506.03146 205.6875Q506.70334 206.46875 506.70334 207.71875Q506.70334 209.03125 505.9846 209.82812Q505.26584 210.625 504.0471 210.625Q502.82834 210.625 502.0627 209.6875Q501.3127 208.73438 501.3127 207.25L501.3127 206.84375Q501.3127 204.48438 502.3127 203.23438Q503.3127 201.98438 505.2971 201.96875L505.5002 201.96875ZM504.07834 205.8125Q503.51584 205.8125 503.0471 206.14062Q502.57834 206.46875 502.39084 206.98438L502.39084 207.375Q502.39084 208.4375 502.8596 209.07812Q503.34396 209.71875 504.0471 209.71875Q504.78146 209.71875 505.20334 209.1875Q505.6252 208.64062 505.6252 207.76562Q505.6252 206.89062 505.20334 206.35938Q504.78146 205.8125 504.07834 205.8125ZM513.594 206.85938Q513.594 208.76562 512.93774 209.70312Q512.2971 210.625 510.90646 210.625Q509.5471 210.625 508.89084 209.71875Q508.2346 208.8125 508.20334 207.0L508.20334 205.5625Q508.20334 203.67188 508.84396 202.76562Q509.5002 201.84375 510.89084 201.84375Q512.26587 201.84375 512.9221 202.73438Q513.57837 203.60938 513.594 205.45312L513.594 206.85938ZM512.50024 205.375Q512.50024 204.0 512.1096 203.375Q511.7346 202.73438 510.89084 202.73438Q510.0627 202.73438 509.6721 203.375Q509.2971 204.0 509.2971 205.29688L509.2971 207.03125Q509.2971 208.40625 509.6877 209.07812Q510.09396 209.73438 510.90646 209.73438Q511.70334 209.73438 512.094 209.10938Q512.4846 208.48438 512.50024 207.15625L512.50024 205.375Z" fill-rule="nonzero"/><path fill="#ffffff" d="M485.7346 206.21875L486.1721 201.96875L490.5471 201.96875L490.5471 202.96875L487.09396 202.96875L486.82834 205.29688Q487.46896 204.92188 488.26584 204.92188Q489.4221 204.92188 490.1096 205.70312Q490.7971 206.46875 490.7971 207.78125Q490.7971 209.09375 490.07834 209.85938Q489.3752 210.625 488.09396 210.625Q486.96896 210.625 486.2502 210.0Q485.53146 209.35938 485.4377 208.25L486.45334 208.25Q486.5627 208.98438 486.9846 209.35938Q487.40646 209.73438 488.09396 209.73438Q488.84396 209.73438 489.28146 209.21875Q489.71896 208.70312 489.71896 207.79688Q489.71896 206.9375 489.2502 206.42188Q488.78146 205.90625 488.0002 205.90625Q487.2971 205.90625 486.89084 206.20312L486.6096 206.4375L485.7346 206.21875ZM497.82834 210.5L492.2346 210.5L492.2346 209.71875L495.1877 206.4375Q495.84396 205.6875 496.09396 205.23438Q496.34396 204.76562 496.34396 204.26562Q496.34396 203.59375 495.9377 203.17188Q495.5471 202.73438 494.8596 202.73438Q494.0627 202.73438 493.6096 203.20312Q493.15646 203.65625 493.15646 204.48438L492.07834 204.48438Q492.07834 203.29688 492.82834 202.57812Q493.59396 201.84375 494.8596 201.84375Q496.0627 201.84375 496.7502 202.46875Q497.4377 203.09375 497.4377 204.14062Q497.4377 205.39062 495.82834 207.14062L493.5471 209.60938L497.82834 209.60938L497.82834 210.5ZM499.3127 212.20312L498.70334 211.78125Q499.2502 211.01562 499.28146 210.1875L499.28146 209.21875L500.34396 209.21875L500.34396 210.0625Q500.34396 210.65625 500.0471 211.25Q499.7502 211.84375 499.3127 212.20312ZM505.5002 201.96875L505.5002 202.875L505.2971 202.875Q504.03146 202.90625 503.28146 203.64062Q502.53146 204.35938 502.40646 205.67188Q503.09396 204.90625 504.2502 204.90625Q505.3596 204.90625 506.03146 205.6875Q506.70334 206.46875 506.70334 207.71875Q506.70334 209.03125 505.9846 209.82812Q505.26584 210.625 504.0471 210.625Q502.82834 210.625 502.0627 209.6875Q501.3127 208.73438 501.3127 207.25L501.3127 206.84375Q501.3127 204.48438 502.3127 203.23438Q503.3127 201.98438 505.2971 201.96875L505.5002 201.96875ZM504.07834 205.8125Q503.51584 205.8125 503.0471 206.14062Q502.57834 206.46875 502.39084 206.98438L502.39084 207.375Q502.39084 208.4375 502.8596 209.07812Q503.34396 209.71875 504.0471 209.71875Q504.78146 209.71875 505.20334 209.1875Q505.6252 208.64062 505.6252 207.76562Q505.6252 206.89062 505.20334 206.35938Q504.78146 205.8125 504.07834 205.8125ZM513.594 206.85938Q513.594 208.76562 512.93774 209.70312Q512.2971 210.625 510.90646 210.625Q509.5471 210.625 508.89084 209.71875Q508.2346 208.8125 508.20334 207.0L508.20334 205.5625Q508.20334 203.67188 508.84396 202.76562Q509.5002 201.84375 510.89084 201.84375Q512.26587 201.84375 512.9221 202.73438Q513.57837 203.60938 513.594 205.45312L513.594 206.85938ZM512.50024 205.375Q512.50024 204.0 512.1096 203.375Q511.7346 202.73438 510.89084 202.73438Q510.0627 202.73438 509.6721 203.375Q509.2971 204.0 509.2971 205.29688L509.2971 207.03125Q509.2971 208.40625 509.6877 209.07812Q510.09396 209.73438 510.90646 209.73438Q511.70334 209.73438 512.094 209.10938Q512.4846 208.48438 512.50024 207.15625L512.50024 205.375Z" fill-rule="nonzero"/><path stroke="#4285f4" stroke-width="3.0" stroke-linejoin="round" stroke-linecap="round" d="M512.48895 262.21875L512.92645 257.96875L517.30145 257.96875L517.30145 258.96875L513.8483 258.96875L513.5827 261.29688Q514.2233 260.92188 515.0202 260.92188Q516.17645 260.92188 516.86395 261.70312Q517.55145 262.46875 517.55145 263.78125Q517.55145 265.09375 516.8327 265.85938Q516.1296 266.625 514.8483 266.625Q513.7233 266.625 513.0046 266.0Q512.2858 265.35938 512.1921 264.25L513.2077 264.25Q513.3171 264.98438 513.73895 265.35938Q514.1608 265.73438 514.8483 265.73438Q515.5983 265.73438 516.0358 265.21875Q516.4733 264.70312 516.4733 263.79688Q516.4733 262.9375 516.0046 262.42188Q515.5358 261.90625 514.7546 261.90625Q514.05145 261.90625 513.6452 262.20312L513.36395 262.4375L512.48895 262.21875ZM519.48895 262.21875L519.92645 257.96875L524.30145 257.96875L524.30145 258.96875L520.8483 258.96875L520.5827 261.29688Q521.2233 260.92188 522.0202 260.92188Q523.17645 260.92188 523.86395 261.70312Q524.55145 262.46875 524.55145 263.78125Q524.55145 265.09375 523.8327 265.85938Q523.1296 266.625 521.8483 266.625Q520.7233 266.625 520.0046 266.0Q519.2858 265.35938 519.1921 264.25L520.2077 264.25Q520.3171 264.98438 520.73895 265.35938Q521.1608 265.73438 521.8483 265.73438Q522.5983 265.73438 523.0358 265.21875Q523.4733 264.70312 523.4733 263.79688Q523.4733 262.9375 523.0046 262.42188Q522.5358 261.90625 521.7546 261.90625Q521.05145 261.90625 520.6452 262.20312L520.36395 262.4375L519.48895 262.21875ZM526.0671 268.20312L525.4577 267.78125Q526.0046 267.01562 526.0358 266.1875L526.0358 265.21875L527.0983 265.21875L527.0983 266.0625Q527.0983 266.65625 526.80145 267.25Q526.5046 267.84375 526.0671 268.20312ZM533.5046 258.57812L529.9733 266.5L528.8327 266.5L532.3483 258.85938L527.73895 258.85938L527.73895 257.96875L533.5046 257.96875L533.5046 258.57812ZM539.1452 262.75Q538.8171 263.15625 538.3327 263.40625Q537.86395 263.64062 537.30145 263.64062Q536.5671 263.64062 536.0202 263.28125Q535.4733 262.92188 535.17645 262.26562Q534.8796 261.59375 534.8796 260.79688Q534.8796 259.95312 535.1921 259.26562Q535.5202 258.57812 536.11395 258.21875Q536.7233 257.84375 537.5202 257.84375Q538.7858 257.84375 539.5046 258.79688Q540.23895 259.75 540.23895 261.375L540.23895 261.6875Q540.23895 264.1875 539.2546 265.32812Q538.2702 266.46875 536.2858 266.5L536.0671 266.5L536.0671 265.59375L536.30145 265.59375Q537.6452 265.5625 538.36395 264.89062Q539.0827 264.21875 539.1452 262.75ZM537.4733 262.75Q538.0202 262.75 538.4733 262.42188Q538.9421 262.07812 539.1608 261.59375L539.1608 261.15625Q539.1608 260.09375 538.6921 259.42188Q538.2233 258.75 537.5202 258.75Q536.80145 258.75 536.36395 259.29688Q535.9421 259.84375 535.9421 260.75Q535.9421 261.625 536.3483 262.1875Q536.7702 262.75 537.4733 262.75Z" fill-rule="nonzero"/><path fill="#ffffff" d="M512.489 262.21875L512.9265 257.96875L517.3015 257.96875L517.3015 258.96875L513.8484 258.96875L513.58276 261.29688Q514.2234 260.92188 515.02026 260.92188Q516.1765 260.92188 516.864 261.70312Q517.5515 262.46875 517.5515 263.78125Q517.5515 265.09375 516.83276 265.85938Q516.12964 266.625 514.8484 266.625Q513.7234 266.625 513.00464 266.0Q512.2859 265.35938 512.19214 264.25L513.20776 264.25Q513.31714 264.98438 513.739 265.35938Q514.1609 265.73438 514.8484 265.73438Q515.5984 265.73438 516.0359 265.21875Q516.4734 264.70312 516.4734 263.79688Q516.4734 262.9375 516.00464 262.42188Q515.5359 261.90625 514.75464 261.90625Q514.0515 261.90625 513.64526 262.20312L513.364 262.4375L512.489 262.21875ZM519.489 262.21875L519.9265 257.96875L524.3015 257.96875L524.3015 258.96875L520.8484 258.96875L520.58276 261.29688Q521.2234 260.92188 522.02026 260.92188Q523.1765 260.92188 523.864 261.70312Q524.5515 262.46875 524.5515 263.78125Q524.5515 265.09375 523.83276 265.85938Q523.12964 266.625 521.8484 266.625Q520.7234 266.625 520.00464 266.0Q519.2859 265.35938 519.19214 264.25L520.20776 264.25Q520.31714 264.98438 520.739 265.35938Q521.1609 265.73438 521.8484 265.73438Q522.5984 265.73438 523.0359 265.21875Q523.4734 264.70312 523.4734 263.79688Q523.4734 262.9375 523.00464 262.42188Q522.5359 261.90625 521.75464 261.90625Q521.0515 261.90625 520.64526 262.20312L520.364 262.4375L519.489 262.21875ZM526.06714 268.20312L525.45776 267.78125Q526.00464 267.01562 526.0359 266.1875L526.0359 265.21875L527.0984 265.21875L527.0984 266.0625Q527.0984 266.65625 526.8015 267.25Q526.50464 267.84375 526.06714 268.20312ZM533.50464 258.57812L529.9734 266.5L528.83276 266.5L532.3484 258.85938L527.739 258.85938L527.739 257.96875L533.50464 257.96875L533.50464 258.57812ZM539.14526 262.75Q538.81714 263.15625 538.33276 263.40625Q537.864 263.64062 537.3015 263.64062Q536.56714 263.64062 536.02026 263.28125Q535.4734 262.92188 535.1765 262.26562Q534.87964 261.59375 534.87964 260.79688Q534.87964 259.95312 535.19214 259.26562Q535.52026 258.57812 536.114 258.21875Q536.7234 257.84375 537.52026 257.84375Q538.7859 257.84375 539.50464 258.79688Q540.239 259.75 540.239 261.375L540.239 261.6875Q540.239 264.1875 539.25464 265.32812Q538.27026 266.46875 536.2859 266.5L536.06714 266.5L536.06714 265.59375L536.3015 265.59375Q537.64526 265.5625 538.364 264.89062Q539.08276 264.21875 539.14526 262.75ZM537.4734 262.75Q538.02026 262.75 538.4734 262.42188Q538.94214 262.07812 539.1609 261.59375L539.1609 261.15625Q539.1609 260.09375 538.69214 259.42188Q538.2234 258.75 537.52026 258.75Q536.8015 258.75 536.364 259.29688Q535.94214 259.84375 535.94214 260.75Q535.94214 261.625 536.3484 262.1875Q536.77026 262.75 537.4734 262.75Z" fill-rule="nonzero"/><path fill="#000000" d="M302.76562 349.45L301.78125 349.45L301.78125 340.85626L302.84375 340.85626L302.84375 343.91876Q303.51562 343.09064 304.54688 343.09064Q305.125 343.09064 305.625 343.325Q306.14062 343.54376 306.46875 343.96564Q306.8125 344.3875 307.0 344.98126Q307.1875 345.575 307.1875 346.2469Q307.1875 347.84064 306.39062 348.71564Q305.59375 349.59064 304.5 349.59064Q303.39062 349.59064 302.76562 348.66876L302.76562 349.45ZM302.75 346.29376Q302.75 347.40314 303.0625 347.90314Q303.5625 348.71564 304.40625 348.71564Q305.09375 348.71564 305.59375 348.1219Q306.10938 347.52814 306.10938 346.325Q306.10938 345.10626 305.625 344.52814Q305.14062 343.95 304.45312 343.95Q303.76562 343.95 303.25 344.5594Q302.75 345.15314 302.75 346.29376ZM312.85938 348.6844Q312.26562 349.1844 311.71875 349.3875Q311.1875 349.59064 310.5625 349.59064Q309.53125 349.59064 308.98438 349.09064Q308.4375 348.59064 308.4375 347.8094Q308.4375 347.35626 308.64062 346.98126Q308.84375 346.59064 309.1875 346.3719Q309.53125 346.1375 309.95312 346.02814Q310.25 345.9344 310.89062 345.85626Q312.15625 345.71564 312.76562 345.4969Q312.76562 345.27814 312.76562 345.23126Q312.76562 344.575 312.46875 344.3094Q312.0625 343.96564 311.26562 343.96564Q310.53125 343.96564 310.17188 344.23126Q309.8125 344.48126 309.64062 345.1375L308.60938 344.9969Q308.75 344.34064 309.07812 343.9344Q309.40625 343.52814 310.01562 343.3094Q310.625 343.09064 311.42188 343.09064Q312.21875 343.09064 312.71875 343.27814Q313.21875 343.46564 313.45312 343.7469Q313.6875 344.02814 313.78125 344.46564Q313.82812 344.73126 313.82812 345.4344L313.82812 346.84064Q313.82812 348.3094 313.89062 348.7Q313.96875 349.09064 314.17188 349.45L313.0625 349.45Q312.90625 349.1219 312.85938 348.6844ZM312.76562 346.325Q312.1875 346.5594 311.04688 346.73126Q310.39062 346.825 310.125 346.95Q309.85938 347.0594 309.70312 347.27814Q309.5625 347.4969 309.5625 347.77814Q309.5625 348.2 309.875 348.48126Q310.20312 348.7625 310.8125 348.7625Q311.42188 348.7625 311.89062 348.4969Q312.375 348.23126 312.59375 347.7625Q312.76562 347.40314 312.76562 346.71564L312.76562 346.325ZM315.79688 349.45L315.79688 343.23126L316.73438 343.23126L316.73438 344.10626Q317.42188 343.09064 318.71875 343.09064Q319.28125 343.09064 319.75 343.29376Q320.23438 343.4969 320.46875 343.825Q320.70312 344.15314 320.79688 344.59064Q320.84375 344.8875 320.84375 345.6219L320.84375 349.45L319.79688 349.45L319.79688 345.66876Q319.79688 345.0125 319.67188 344.7Q319.54688 344.3875 319.23438 344.2Q318.92188 343.9969 318.5 343.9969Q317.82812 343.9969 317.32812 344.4344Q316.84375 344.85626 316.84375 346.04376L316.84375 349.45L315.79688 349.45ZM326.82812 349.45L326.82812 348.66876Q326.23438 349.59064 325.09375 349.59064Q324.34375 349.59064 323.71875 349.1844Q323.09375 348.7625 322.75 348.02814Q322.40625 347.29376 322.40625 346.34064Q322.40625 345.41876 322.71875 344.65314Q323.03125 343.8875 323.65625 343.4969Q324.28125 343.09064 325.04688 343.09064Q325.60938 343.09064 326.04688 343.325Q326.48438 343.5594 326.76562 343.9344L326.76562 340.85626L327.8125 340.85626L327.8125 349.45L326.82812 349.45ZM323.5 346.34064Q323.5 347.54376 324.0 348.1375Q324.5 348.71564 325.1875 348.71564Q325.875 348.71564 326.35938 348.15314Q326.84375 347.59064 326.84375 346.4344Q326.84375 345.15314 326.34375 344.5594Q325.85938 343.96564 325.14062 343.96564Q324.4375 343.96564 323.96875 344.54376Q323.5 345.10626 323.5 346.34064ZM330.9375 349.45L329.03125 343.23126L330.125 343.23126L331.10938 346.825L331.48438 348.15314Q331.51562 348.0594 331.8125 346.8719L332.79688 343.23126L333.875 343.23126L334.8125 346.84064L335.125 348.02814L335.48438 346.825L336.54688 343.23126L337.57812 343.23126L335.625 349.45L334.53125 349.45L333.54688 345.71564L333.29688 344.66876L332.04688 349.45L330.9375 349.45ZM338.79688 342.075L338.79688 340.85626L339.85938 340.85626L339.85938 342.075L338.79688 342.075ZM338.79688 349.45L338.79688 343.23126L339.85938 343.23126L339.85938 349.45L338.79688 349.45ZM345.82812 349.45L345.82812 348.66876Q345.23438 349.59064 344.09375 349.59064Q343.34375 349.59064 342.71875 349.1844Q342.09375 348.7625 341.75 348.02814Q341.40625 347.29376 341.40625 346.34064Q341.40625 345.41876 341.71875 344.65314Q342.03125 343.8875 342.65625 343.4969Q343.28125 343.09064 344.04688 343.09064Q344.60938 343.09064 345.04688 343.325Q345.48438 343.5594 345.76562 343.9344L345.76562 340.85626L346.8125 340.85626L346.8125 349.45L345.82812 349.45ZM342.5 346.34064Q342.5 347.54376 343.0 348.1375Q343.5 348.71564 344.1875 348.71564Q344.875 348.71564 345.35938 348.15314Q345.84375 347.59064 345.84375 346.4344Q345.84375 345.15314 345.34375 344.5594Q344.85938 343.96564 344.14062 343.96564Q343.4375 343.96564 342.96875 344.54376Q342.5 345.10626 342.5 346.34064ZM351.09375 348.5125L351.25 349.4344Q350.79688 349.52814 350.45312 349.52814Q349.875 349.52814 349.5625 349.35626Q349.25 349.16876 349.10938 348.8719Q348.98438 348.575 348.98438 347.6219L348.98438 344.04376L348.21875 344.04376L348.21875 343.23126L348.98438 343.23126L348.98438 341.6844L350.03125 341.0594L350.03125 343.23126L351.09375 343.23126L351.09375 344.04376L350.03125 344.04376L350.03125 347.6844Q350.03125 348.1375 350.07812 348.2625Q350.14062 348.3875 350.26562 348.46564Q350.39062 348.54376 350.625 348.54376Q350.8125 348.54376 351.09375 348.5125ZM351.79688 349.45L351.79688 340.85626L352.84375 340.85626L352.84375 343.9344Q353.57812 343.09064 354.70312 343.09064Q355.40625 343.09064 355.90625 343.3719Q356.42188 343.6375 356.64062 344.1219Q356.85938 344.59064 356.85938 345.5125L356.85938 349.45L355.8125 349.45L355.8125 345.5125Q355.8125 344.71564 355.46875 344.35626Q355.125 343.9969 354.5 343.9969Q354.03125 343.9969 353.60938 344.2469Q353.20312 344.48126 353.01562 344.90314Q352.84375 345.3094 352.84375 346.04376L352.84375 349.45L351.79688 349.45Z" fill-rule="nonzero"/><path fill="#000000" d="M29.550013 200.88646L23.331263 200.88646L23.331263 199.94896L24.206263 199.94896Q23.190638 199.26146 23.190638 197.96458Q23.190638 197.40208 23.393763 196.93333Q23.596888 196.44896 23.925013 196.21458Q24.253138 195.98021 24.690638 195.88646Q24.987513 195.83958 25.721888 195.83958L29.550013 195.83958L29.550013 196.88646L25.768763 196.88646Q25.112513 196.88646 24.800013 197.01146Q24.487513 197.13646 24.300013 197.44896Q24.096888 197.76146 24.096888 198.18333Q24.096888 198.85521 24.534388 199.35521Q24.956263 199.83958 26.143763 199.83958L29.550013 199.83958L29.550013 200.88646ZM26.440638 194.27708Q24.706263 194.27708 23.878138 193.32396Q23.190638 192.52708 23.190638 191.37083Q23.190638 190.08958 24.034388 189.27708Q24.862513 188.44896 26.346888 188.44896Q27.550013 188.44896 28.237513 188.80833Q28.925013 189.16771 29.315638 189.87083Q29.690638 190.55833 29.690638 191.37083Q29.690638 192.66771 28.862513 193.48021Q28.018763 194.27708 26.440638 194.27708ZM26.440638 193.19896Q27.628138 193.19896 28.221888 192.68333Q28.815638 192.15208 28.815638 191.37083Q28.815638 190.57396 28.221888 190.05833Q27.628138 189.54271 26.409388 189.54271Q25.253138 189.54271 24.659388 190.07396Q24.065638 190.58958 24.065638 191.37083Q24.065638 192.15208 24.659388 192.68333Q25.237513 193.19896 26.440638 193.19896ZM29.550013 182.85521L28.768763 182.85521Q29.690638 183.44896 29.690638 184.58958Q29.690638 185.33958 29.284388 185.96458Q28.862513 186.58958 28.128138 186.93333Q27.393763 187.27708 26.440638 187.27708Q25.518763 187.27708 24.753138 186.96458Q23.987513 186.65208 23.596888 186.02708Q23.190638 185.40208 23.190638 184.63646Q23.190638 184.07396 23.425013 183.63646Q23.659388 183.19896 24.034388 182.91771L20.956263 182.91771L20.956263 181.87083L29.550013 181.87083L29.550013 182.85521ZM26.440638 186.18333Q27.643763 186.18333 28.237513 185.68333Q28.815638 185.18333 28.815638 184.49583Q28.815638 183.80833 28.253138 183.32396Q27.690638 182.83958 26.534388 182.83958Q25.253138 182.83958 24.659388 183.33958Q24.065638 183.82396 24.065638 184.54271Q24.065638 185.24583 24.643763 185.71458Q25.206263 186.18333 26.440638 186.18333ZM27.550013 175.63646L27.675013 174.54271Q28.628138 174.79271 29.159388 175.49583Q29.690638 176.19896 29.690638 177.27708Q29.690638 178.63646 28.846888 179.44896Q28.003138 180.24583 26.487513 180.24583Q24.925013 180.24583 24.065638 179.43333Q23.190638 178.62083 23.190638 177.33958Q23.190638 176.08958 24.034388 175.30833Q24.878138 174.51146 26.425013 174.51146Q26.518763 174.51146 26.706263 174.51146L26.706263 179.15208Q27.737513 179.08958 28.284388 178.57396Q28.815638 178.05833 28.815638 177.27708Q28.815638 176.69896 28.518763 176.29271Q28.206263 175.87083 27.550013 175.63646ZM25.846888 179.08958L25.846888 175.62083Q25.050013 175.68333 24.659388 176.01146Q24.050013 176.52708 24.050013 177.32396Q24.050013 178.05833 24.534388 178.55833Q25.018763 179.04271 25.846888 179.08958Z" fill-rule="nonzero"/><path fill="#000000" d="M53.346874 99.407295L53.346874 90.79792L54.3 90.79792L54.3 91.594795Q54.64375 91.126045 55.065624 90.89167Q55.503124 90.657295 56.1125 90.657295Q56.909374 90.657295 57.51875 91.063545Q58.128124 91.469795 58.425 92.219795Q58.7375 92.969795 58.7375 93.86042Q58.7375 94.813545 58.39375 95.57917Q58.065624 96.344795 57.409374 96.751045Q56.753124 97.157295 56.034374 97.157295Q55.503124 97.157295 55.08125 96.938545Q54.659374 96.70417 54.39375 96.376045L54.39375 99.407295L53.346874 99.407295ZM54.3 93.938545Q54.3 95.14167 54.784374 95.719795Q55.26875 96.282295 55.95625 96.282295Q56.659374 96.282295 57.159374 95.688545Q57.659374 95.094795 57.659374 93.844795Q57.659374 92.657295 57.175 92.07917Q56.690624 91.48542 56.003124 91.48542Q55.33125 91.48542 54.815624 92.11042Q54.3 92.73542 54.3 93.938545ZM62.065624 97.01667L59.70625 90.79792L60.815624 90.79792L62.159374 94.51667Q62.3625 95.126045 62.55 95.76667Q62.690624 95.282295 62.940624 94.594795L64.33125 90.79792L65.40938 90.79792L63.05 97.01667L62.065624 97.01667ZM69.59688 95.01667L70.69063 95.14167Q70.44063 96.094795 69.7375 96.626045Q69.03438 97.157295 67.95625 97.157295Q66.59688 97.157295 65.78438 96.313545Q64.9875 95.469795 64.9875 93.95417Q64.9875 92.39167 65.8 91.532295Q66.6125 90.657295 67.89375 90.657295Q69.14375 90.657295 69.925 91.501045Q70.72188 92.344795 70.72188 93.89167Q70.72188 93.98542 70.72188 94.17292L66.08125 94.17292Q66.14375 95.20417 66.65938 95.751045Q67.175 96.282295 67.95625 96.282295Q68.53438 96.282295 68.94063 95.98542Q69.3625 95.67292 69.59688 95.01667ZM66.14375 93.313545L69.6125 93.313545Q69.55 92.51667 69.22188 92.126045Q68.70625 91.51667 67.90938 91.51667Q67.175 91.51667 66.675 92.001045Q66.19063 92.48542 66.14375 93.313545Z" fill-rule="nonzero"/><path fill="#000000" d="M56.596874 152.44548L56.596874 153.4611L50.909374 153.4611Q50.909374 153.0861 51.034374 152.72673Q51.253124 152.1486 51.721874 151.5861Q52.20625 151.0236 53.1125 150.28923Q54.51875 149.13298 55.003124 148.4611Q55.503124 147.78923 55.503124 147.19548Q55.503124 146.57048 55.05 146.1486Q54.596874 145.7111 53.878124 145.7111Q53.1125 145.7111 52.659374 146.16423Q52.20625 146.61736 52.190624 147.42986L51.1125 147.32048Q51.221874 146.10173 51.940624 145.47673Q52.675 144.8361 53.909374 144.8361Q55.14375 144.8361 55.8625 145.5236Q56.58125 146.2111 56.58125 147.22673Q56.58125 147.74236 56.3625 148.24236Q56.159374 148.72673 55.659374 149.28923Q55.175 149.8361 54.05 150.78923Q53.096874 151.5861 52.815624 151.88298Q52.55 152.16423 52.378124 152.44548L56.596874 152.44548ZM58.14375 153.97673L59.175 154.13298Q59.2375 154.60173 59.534374 154.82048Q59.925 155.11736 60.596874 155.11736Q61.33125 155.11736 61.721874 154.82048Q62.128124 154.5236 62.26875 154.00798Q62.3625 153.67986 62.346874 152.6486Q61.659374 153.4611 60.628124 153.4611Q59.346874 153.4611 58.64375 152.53923Q57.940624 151.60173 57.940624 150.32048Q57.940624 149.42986 58.253124 148.67986Q58.58125 147.91423 59.190624 147.50798Q59.8 147.10173 60.628124 147.10173Q61.7375 147.10173 62.45625 147.99236L62.45625 147.24236L63.425 147.24236L63.425 152.61736Q63.425 154.07048 63.128124 154.67986Q62.83125 155.28923 62.190624 155.63298Q61.55 155.99236 60.6125 155.99236Q59.503124 155.99236 58.815624 155.49236Q58.128124 154.99236 58.14375 153.97673ZM59.01875 150.24236Q59.01875 151.4611 59.503124 152.0236Q59.9875 152.5861 60.721874 152.5861Q61.45625 152.5861 61.940624 152.0236Q62.440624 151.4611 62.440624 150.2736Q62.440624 149.13298 61.925 148.55486Q61.425 147.97673 60.70625 147.97673Q60.003124 147.97673 59.503124 148.55486Q59.01875 149.11736 59.01875 150.24236ZM66.31563 153.4611L65.33125 153.4611L65.33125 144.86736L66.39375 144.86736L66.39375 147.92986Q67.06563 147.10173 68.09688 147.10173Q68.675 147.10173 69.175 147.3361Q69.69063 147.55486 70.01875 147.97673Q70.3625 148.3986 70.55 148.99236Q70.7375 149.5861 70.7375 150.25798Q70.7375 151.85173 69.94063 152.72673Q69.14375 153.60173 68.05 153.60173Q66.94063 153.60173 66.31563 152.67986L66.31563 153.4611ZM66.3 150.30486Q66.3 151.41423 66.6125 151.91423Q67.1125 152.72673 67.95625 152.72673Q68.64375 152.72673 69.14375 152.13298Q69.65938 151.53923 69.65938 150.3361Q69.65938 149.11736 69.175 148.53923Q68.69063 147.9611 68.00313 147.9611Q67.31563 147.9611 66.8 148.57048Q66.3 149.16423 66.3 150.30486Z" fill-rule="nonzero"/><path fill="#000000" d="M54.425 209.90555L54.425 207.84305L50.70625 207.84305L50.70625 206.8743L54.628124 201.3118L55.4875 201.3118L55.4875 206.8743L56.64375 206.8743L56.64375 207.84305L55.4875 207.84305L55.4875 209.90555L54.425 209.90555ZM54.425 206.8743L54.425 203.01492L51.7375 206.8743L54.425 206.8743ZM58.14375 210.42117L59.175 210.57742Q59.2375 211.04617 59.534374 211.26492Q59.925 211.5618 60.596874 211.5618Q61.33125 211.5618 61.721874 211.26492Q62.128124 210.96805 62.26875 210.45242Q62.3625 210.1243 62.346874 209.09305Q61.659374 209.90555 60.628124 209.90555Q59.346874 209.90555 58.64375 208.98367Q57.940624 208.04617 57.940624 206.76492Q57.940624 205.8743 58.253124 205.1243Q58.58125 204.35867 59.190624 203.95242Q59.8 203.54617 60.628124 203.54617Q61.7375 203.54617 62.45625 204.4368L62.45625 203.6868L63.425 203.6868L63.425 209.0618Q63.425 210.51492 63.128124 211.1243Q62.83125 211.73367 62.190624 212.07742Q61.55 212.4368 60.6125 212.4368Q59.503124 212.4368 58.815624 211.9368Q58.128124 211.4368 58.14375 210.42117ZM59.01875 206.6868Q59.01875 207.90555 59.503124 208.46805Q59.9875 209.03055 60.721874 209.03055Q61.45625 209.03055 61.940624 208.46805Q62.440624 207.90555 62.440624 206.71805Q62.440624 205.57742 61.925 204.9993Q61.425 204.42117 60.70625 204.42117Q60.003124 204.42117 59.503124 204.9993Q59.01875 205.5618 59.01875 206.6868ZM66.31563 209.90555L65.33125 209.90555L65.33125 201.3118L66.39375 201.3118L66.39375 204.3743Q67.06563 203.54617 68.09688 203.54617Q68.675 203.54617 69.175 203.78055Q69.69063 203.9993 70.01875 204.42117Q70.3625 204.84305 70.55 205.4368Q70.7375 206.03055 70.7375 206.70242Q70.7375 208.29617 69.94063 209.17117Q69.14375 210.04617 68.05 210.04617Q66.94063 210.04617 66.31563 209.1243L66.31563 209.90555ZM66.3 206.7493Q66.3 207.85867 66.6125 208.35867Q67.1125 209.17117 67.95625 209.17117Q68.64375 209.17117 69.14375 208.57742Q69.65938 207.98367 69.65938 206.78055Q69.65938 205.5618 69.175 204.98367Q68.69063 204.40555 68.00313 204.40555Q67.31563 204.40555 66.8 205.01492Q66.3 205.60867 66.3 206.7493Z" fill-rule="nonzero"/><path fill="#000000" d="M52.675 261.69376Q52.01875 261.44376 51.690624 261.00626Q51.378124 260.55313 51.378124 259.94376Q51.378124 259.00626 52.05 258.36563Q52.7375 257.725 53.846874 257.725Q54.971874 257.725 55.659374 258.38126Q56.346874 259.0375 56.346874 259.975Q56.346874 260.56876 56.034374 261.00626Q55.721874 261.44376 55.08125 261.69376Q55.878124 261.94376 56.284374 262.52188Q56.690624 263.1 56.690624 263.89688Q56.690624 264.99063 55.909374 265.74063Q55.14375 266.49063 53.8625 266.49063Q52.596874 266.49063 51.815624 265.74063Q51.034374 264.99063 51.034374 263.86563Q51.034374 263.02188 51.45625 262.45938Q51.89375 261.89688 52.675 261.69376ZM52.45625 259.89688Q52.45625 260.50626 52.846874 260.89688Q53.253124 261.2875 53.878124 261.2875Q54.4875 261.2875 54.878124 260.9125Q55.26875 260.52188 55.26875 259.95938Q55.26875 259.38126 54.8625 258.99063Q54.45625 258.58438 53.8625 258.58438Q53.253124 258.58438 52.846874 258.975Q52.45625 259.36563 52.45625 259.89688ZM52.128124 263.86563Q52.128124 264.31876 52.33125 264.74063Q52.55 265.1625 52.971874 265.39688Q53.39375 265.63126 53.878124 265.63126Q54.628124 265.63126 55.1125 265.14688Q55.6125 264.6625 55.6125 263.9125Q55.6125 263.14688 55.1125 262.64688Q54.6125 262.14688 53.846874 262.14688Q53.096874 262.14688 52.6125 262.64688Q52.128124 263.13126 52.128124 263.86563ZM58.14375 266.86563L59.175 267.02188Q59.2375 267.49063 59.534374 267.70938Q59.925 268.00626 60.596874 268.00626Q61.33125 268.00626 61.721874 267.70938Q62.128124 267.4125 62.26875 266.89688Q62.3625 266.56876 62.346874 265.5375Q61.659374 266.35 60.628124 266.35Q59.346874 266.35 58.64375 265.42813Q57.940624 264.49063 57.940624 263.20938Q57.940624 262.31876 58.253124 261.56876Q58.58125 260.80313 59.190624 260.39688Q59.8 259.99063 60.628124 259.99063Q61.7375 259.99063 62.45625 260.88126L62.45625 260.13126L63.425 260.13126L63.425 265.50626Q63.425 266.95938 63.128124 267.56876Q62.83125 268.17813 62.190624 268.52188Q61.55 268.88126 60.6125 268.88126Q59.503124 268.88126 58.815624 268.38126Q58.128124 267.88126 58.14375 266.86563ZM59.01875 263.13126Q59.01875 264.35 59.503124 264.9125Q59.9875 265.475 60.721874 265.475Q61.45625 265.475 61.940624 264.9125Q62.440624 264.35 62.440624 263.1625Q62.440624 262.02188 61.925 261.44376Q61.425 260.86563 60.70625 260.86563Q60.003124 260.86563 59.503124 261.44376Q59.01875 262.00626 59.01875 263.13126ZM66.31563 266.35L65.33125 266.35L65.33125 257.75626L66.39375 257.75626L66.39375 260.81876Q67.06563 259.99063 68.09688 259.99063Q68.675 259.99063 69.175 260.225Q69.69063 260.44376 70.01875 260.86563Q70.3625 261.2875 70.55 261.88126Q70.7375 262.475 70.7375 263.14688Q70.7375 264.74063 69.94063 265.61563Q69.14375 266.49063 68.05 266.49063Q66.94063 266.49063 66.31563 265.56876L66.31563 266.35ZM66.3 263.19376Q66.3 264.30313 66.6125 264.80313Q67.1125 265.61563 67.95625 265.61563Q68.64375 265.61563 69.14375 265.02188Q69.65938 264.42813 69.65938 263.225Q69.65938 262.00626 69.175 261.42813Q68.69063 260.85 68.00313 260.85Q67.31563 260.85 66.8 261.45938Q66.3 262.05313 66.3 263.19376Z" fill-rule="nonzero"/><path fill="#000000" d="M66.05 313.21564Q66.05 311.6844 66.3625 310.7625Q66.675 309.825 67.28438 309.325Q67.90938 308.825 68.84688 308.825Q69.53438 308.825 70.05 309.10626Q70.58125 309.3875 70.925 309.91876Q71.26875 310.4344 71.45625 311.1844Q71.64375 311.9344 71.64375 313.21564Q71.64375 314.73126 71.33125 315.65314Q71.03438 316.575 70.40938 317.09064Q69.8 317.59064 68.84688 317.59064Q67.6125 317.59064 66.89375 316.7Q66.05 315.6375 66.05 313.21564ZM67.12813 313.21564Q67.12813 315.325 67.62813 316.02814Q68.12813 316.73126 68.84688 316.73126Q69.58125 316.73126 70.06563 316.02814Q70.56563 315.325 70.56563 313.21564Q70.56563 311.09064 70.06563 310.40314Q69.58125 309.7 68.83125 309.7Q68.1125 309.7 67.675 310.3094Q67.12813 311.09064 67.12813 313.21564ZM73.6125 317.45L73.6125 316.2469L74.81563 316.2469L74.81563 317.45Q74.81563 318.10626 74.58125 318.5125Q74.34688 318.9344 73.84688 319.15314L73.55 318.7Q73.87813 318.5594 74.03438 318.2625Q74.19063 317.98126 74.22188 317.45L73.6125 317.45ZM76.05 313.21564Q76.05 311.6844 76.3625 310.7625Q76.675 309.825 77.28438 309.325Q77.90938 308.825 78.84688 308.825Q79.53438 308.825 80.05 309.10626Q80.58125 309.3875 80.925 309.91876Q81.26875 310.4344 81.45625 311.1844Q81.64375 311.9344 81.64375 313.21564Q81.64375 314.73126 81.33125 315.65314Q81.03438 316.575 80.40938 317.09064Q79.8 317.59064 78.84688 317.59064Q77.6125 317.59064 76.89375 316.7Q76.05 315.6375 76.05 313.21564ZM77.12813 313.21564Q77.12813 315.325 77.62813 316.02814Q78.12813 316.73126 78.84688 316.73126Q79.58125 316.73126 80.06563 316.02814Q80.56563 315.325 80.56563 313.21564Q80.56563 311.09064 80.06563 310.40314Q79.58125 309.7 78.83125 309.7Q78.1125 309.7 77.675 310.3094Q77.12813 311.09064 77.12813 313.21564ZM83.05 313.21564Q83.05 311.6844 83.3625 310.7625Q83.675 309.825 84.28438 309.325Q84.90938 308.825 85.84688 308.825Q86.53438 308.825 87.05 309.10626Q87.58125 309.3875 87.925 309.91876Q88.26875 310.4344 88.45625 311.1844Q88.64375 311.9344 88.64375 313.21564Q88.64375 314.73126 88.33125 315.65314Q88.03438 316.575 87.40938 317.09064Q86.8 317.59064 85.84688 317.59064Q84.6125 317.59064 83.89375 316.7Q83.05 315.6375 83.05 313.21564ZM84.12813 313.21564Q84.12813 315.325 84.62813 316.02814Q85.12813 316.73126 85.84688 316.73126Q86.58125 316.73126 87.06563 316.02814Q87.56563 315.325 87.56563 313.21564Q87.56563 311.09064 87.06563 310.40314Q86.58125 309.7 85.83125 309.7Q85.1125 309.7 84.675 310.3094Q84.12813 311.09064 84.12813 313.21564Z" fill-rule="nonzero"/><path fill="#000000" d="M236.06354 316.4344L236.06354 317.45L230.37604 317.45Q230.37604 317.075 230.50104 316.71564Q230.71979 316.1375 231.18854 315.575Q231.67291 315.0125 232.57916 314.27814Q233.98541 313.1219 234.46979 312.45Q234.96979 311.77814 234.96979 311.1844Q234.96979 310.5594 234.51666 310.1375Q234.06354 309.7 233.34479 309.7Q232.57916 309.7 232.12604 310.15314Q231.67291 310.60626 231.65729 311.41876L230.57916 311.3094Q230.68854 310.09064 231.40729 309.46564Q232.14166 308.825 233.37604 308.825Q234.61041 308.825 235.32916 309.5125Q236.04791 310.2 236.04791 311.21564Q236.04791 311.73126 235.82916 312.23126Q235.62604 312.71564 235.12604 313.27814Q234.64166 313.825 233.51666 314.77814Q232.56354 315.575 232.28229 315.8719Q232.01666 316.15314 231.84479 316.4344L236.06354 316.4344ZM237.51666 313.21564Q237.51666 311.6844 237.82916 310.7625Q238.14166 309.825 238.75104 309.325Q239.37604 308.825 240.31354 308.825Q241.00104 308.825 241.51666 309.10626Q242.04791 309.3875 242.39166 309.91876Q242.73541 310.4344 242.92291 311.1844Q243.11041 311.9344 243.11041 313.21564Q243.11041 314.73126 242.79791 315.65314Q242.50104 316.575 241.87604 317.09064Q241.26666 317.59064 240.31354 317.59064Q239.07916 317.59064 238.36041 316.7Q237.51666 315.6375 237.51666 313.21564ZM238.59479 313.21564Q238.59479 315.325 239.09479 316.02814Q239.59479 316.73126 240.31354 316.73126Q241.04791 316.73126 241.53229 316.02814Q242.03229 315.325 242.03229 313.21564Q242.03229 311.09064 241.53229 310.40314Q241.04791 309.7 240.29791 309.7Q239.57916 309.7 239.14166 310.3094Q238.59479 311.09064 238.59479 313.21564ZM245.07916 317.45L245.07916 316.2469L246.28229 316.2469L246.28229 317.45Q246.28229 318.10626 246.04791 318.5125Q245.81354 318.9344 245.31354 319.15314L245.01666 318.7Q245.34479 318.5594 245.50104 318.2625Q245.65729 317.98126 245.68854 317.45L245.07916 317.45ZM247.51666 313.21564Q247.51666 311.6844 247.82916 310.7625Q248.14166 309.825 248.75104 309.325Q249.37604 308.825 250.31354 308.825Q251.00104 308.825 251.51666 309.10626Q252.04791 309.3875 252.39166 309.91876Q252.73541 310.4344 252.92291 311.1844Q253.11041 311.9344 253.11041 313.21564Q253.11041 314.73126 252.79791 315.65314Q252.50104 316.575 251.87604 317.09064Q251.26666 317.59064 250.31354 317.59064Q249.07916 317.59064 248.36041 316.7Q247.51666 315.6375 247.51666 313.21564ZM248.59479 313.21564Q248.59479 315.325 249.09479 316.02814Q249.59479 316.73126 250.31354 316.73126Q251.04791 316.73126 251.53229 316.02814Q252.03229 315.325 252.03229 313.21564Q252.03229 311.09064 251.53229 310.40314Q251.04791 309.7 250.29791 309.7Q249.57916 309.7 249.14166 310.3094Q248.59479 311.09064 248.59479 313.21564ZM254.51666 313.21564Q254.51666 311.6844 254.82916 310.7625Q255.14166 309.825 255.75104 309.325Q256.37604 308.825 257.31354 308.825Q258.00104 308.825 258.51666 309.10626Q259.0479 309.3875 259.39166 309.91876Q259.7354 310.4344 259.9229 311.1844Q260.1104 311.9344 260.1104 313.21564Q260.1104 314.73126 259.7979 315.65314Q259.50104 316.575 258.87604 317.09064Q258.26666 317.59064 257.31354 317.59064Q256.07916 317.59064 255.36041 316.7Q254.51666 315.6375 254.51666 313.21564ZM255.59479 313.21564Q255.59479 315.325 256.0948 316.02814Q256.5948 316.73126 257.31354 316.73126Q258.0479 316.73126 258.5323 316.02814Q259.0323 315.325 259.0323 313.21564Q259.0323 311.09064 258.5323 310.40314Q258.0479 309.7 257.2979 309.7Q256.57916 309.7 256.14166 310.3094Q255.59479 311.09064 255.59479 313.21564Z" fill-rule="nonzero"/><path fill="#000000" d="M401.85834 317.45L401.85834 315.3875L398.1396 315.3875L398.1396 314.41876L402.06146 308.85626L402.92084 308.85626L402.92084 314.41876L404.0771 314.41876L404.0771 315.3875L402.92084 315.3875L402.92084 317.45L401.85834 317.45ZM401.85834 314.41876L401.85834 310.5594L399.17084 314.41876L401.85834 314.41876ZM405.48334 313.21564Q405.48334 311.6844 405.79584 310.7625Q406.10834 309.825 406.7177 309.325Q407.3427 308.825 408.2802 308.825Q408.9677 308.825 409.48334 309.10626Q410.0146 309.3875 410.35834 309.91876Q410.7021 310.4344 410.8896 311.1844Q411.0771 311.9344 411.0771 313.21564Q411.0771 314.73126 410.7646 315.65314Q410.4677 316.575 409.8427 317.09064Q409.23334 317.59064 408.2802 317.59064Q407.04584 317.59064 406.3271 316.7Q405.48334 315.6375 405.48334 313.21564ZM406.56146 313.21564Q406.56146 315.325 407.06146 316.02814Q407.56146 316.73126 408.2802 316.73126Q409.0146 316.73126 409.49896 316.02814Q409.99896 315.325 409.99896 313.21564Q409.99896 311.09064 409.49896 310.40314Q409.0146 309.7 408.2646 309.7Q407.54584 309.7 407.10834 310.3094Q406.56146 311.09064 406.56146 313.21564ZM413.04584 317.45L413.04584 316.2469L414.24896 316.2469L414.24896 317.45Q414.24896 318.10626 414.0146 318.5125Q413.7802 318.9344 413.2802 319.15314L412.98334 318.7Q413.31146 318.5594 413.4677 318.2625Q413.62396 317.98126 413.6552 317.45L413.04584 317.45ZM415.48334 313.21564Q415.48334 311.6844 415.79584 310.7625Q416.10834 309.825 416.7177 309.325Q417.3427 308.825 418.2802 308.825Q418.9677 308.825 419.48334 309.10626Q420.0146 309.3875 420.35834 309.91876Q420.7021 310.4344 420.8896 311.1844Q421.0771 311.9344 421.0771 313.21564Q421.0771 314.73126 420.7646 315.65314Q420.4677 316.575 419.8427 317.09064Q419.23334 317.59064 418.2802 317.59064Q417.04584 317.59064 416.3271 316.7Q415.48334 315.6375 415.48334 313.21564ZM416.56146 313.21564Q416.56146 315.325 417.06146 316.02814Q417.56146 316.73126 418.2802 316.73126Q419.0146 316.73126 419.49896 316.02814Q419.99896 315.325 419.99896 313.21564Q419.99896 311.09064 419.49896 310.40314Q419.0146 309.7 418.2646 309.7Q417.54584 309.7 417.10834 310.3094Q416.56146 311.09064 416.56146 313.21564ZM422.48334 313.21564Q422.48334 311.6844 422.79584 310.7625Q423.10834 309.825 423.7177 309.325Q424.3427 308.825 425.2802 308.825Q425.9677 308.825 426.48334 309.10626Q427.0146 309.3875 427.35834 309.91876Q427.7021 310.4344 427.8896 311.1844Q428.0771 311.9344 428.0771 313.21564Q428.0771 314.73126 427.7646 315.65314Q427.4677 316.575 426.8427 317.09064Q426.23334 317.59064 425.2802 317.59064Q424.04584 317.59064 423.3271 316.7Q422.48334 315.6375 422.48334 313.21564ZM423.56146 313.21564Q423.56146 315.325 424.06146 316.02814Q424.56146 316.73126 425.2802 316.73126Q426.0146 316.73126 426.49896 316.02814Q426.99896 315.325 426.99896 313.21564Q426.99896 311.09064 426.49896 310.40314Q426.0146 309.7 425.2646 309.7Q424.54584 309.7 424.10834 310.3094Q423.56146 311.09064 423.56146 313.21564Z" fill-rule="nonzero"/><path fill="#000000" d="M571.91876 310.96564L570.8719 311.04376Q570.73126 310.41876 570.48126 310.1375Q570.04376 309.6844 569.41876 309.6844Q568.91876 309.6844 568.52814 309.96564Q568.04376 310.34064 567.7469 311.04376Q567.46564 311.73126 567.45 313.0125Q567.825 312.4344 568.3719 312.15314Q568.9344 311.8719 569.54376 311.8719Q570.59064 311.8719 571.325 312.65314Q572.075 313.4344 572.075 314.65314Q572.075 315.46564 571.71564 316.16876Q571.3719 316.85626 570.7625 317.23126Q570.15314 317.59064 569.3875 317.59064Q568.0594 317.59064 567.23126 316.6219Q566.40314 315.65314 566.40314 313.4344Q566.40314 310.9344 567.325 309.8094Q568.1219 308.825 569.48126 308.825Q570.4969 308.825 571.1375 309.40314Q571.79376 309.96564 571.91876 310.96564ZM567.6219 314.66876Q567.6219 315.21564 567.84064 315.71564Q568.075 316.2 568.48126 316.46564Q568.90314 316.73126 569.3719 316.73126Q570.02814 316.73126 570.5125 316.2Q570.9969 315.65314 570.9969 314.73126Q570.9969 313.84064 570.5125 313.325Q570.04376 312.8094 569.325 312.8094Q568.60626 312.8094 568.10626 313.325Q567.6219 313.84064 567.6219 314.66876ZM573.45 313.21564Q573.45 311.6844 573.7625 310.7625Q574.075 309.825 574.6844 309.325Q575.3094 308.825 576.2469 308.825Q576.9344 308.825 577.45 309.10626Q577.98126 309.3875 578.325 309.91876Q578.66876 310.4344 578.85626 311.1844Q579.04376 311.9344 579.04376 313.21564Q579.04376 314.73126 578.73126 315.65314Q578.4344 316.575 577.8094 317.09064Q577.2 317.59064 576.2469 317.59064Q575.0125 317.59064 574.29376 316.7Q573.45 315.6375 573.45 313.21564ZM574.52814 313.21564Q574.52814 315.325 575.02814 316.02814Q575.52814 316.73126 576.2469 316.73126Q576.98126 316.73126 577.46564 316.02814Q577.96564 315.325 577.96564 313.21564Q577.96564 311.09064 577.46564 310.40314Q576.98126 309.7 576.23126 309.7Q575.5125 309.7 575.075 310.3094Q574.52814 311.09064 574.52814 313.21564ZM581.0125 317.45L581.0125 316.2469L582.21564 316.2469L582.21564 317.45Q582.21564 318.10626 581.98126 318.5125Q581.7469 318.9344 581.2469 319.15314L580.95 318.7Q581.27814 318.5594 581.4344 318.2625Q581.59064 317.98126 581.6219 317.45L581.0125 317.45ZM583.45 313.21564Q583.45 311.6844 583.7625 310.7625Q584.075 309.825 584.6844 309.325Q585.3094 308.825 586.2469 308.825Q586.9344 308.825 587.45 309.10626Q587.98126 309.3875 588.325 309.91876Q588.66876 310.4344 588.85626 311.1844Q589.04376 311.9344 589.04376 313.21564Q589.04376 314.73126 588.73126 315.65314Q588.4344 316.575 587.8094 317.09064Q587.2 317.59064 586.2469 317.59064Q585.0125 317.59064 584.29376 316.7Q583.45 315.6375 583.45 313.21564ZM584.52814 313.21564Q584.52814 315.325 585.02814 316.02814Q585.52814 316.73126 586.2469 316.73126Q586.98126 316.73126 587.46564 316.02814Q587.96564 315.325 587.96564 313.21564Q587.96564 311.09064 587.46564 310.40314Q586.98126 309.7 586.23126 309.7Q585.5125 309.7 585.075 310.3094Q584.52814 311.09064 584.52814 313.21564ZM590.45 313.21564Q590.45 311.6844 590.7625 310.7625Q591.075 309.825 591.6844 309.325Q592.3094 308.825 593.2469 308.825Q593.9344 308.825 594.45 309.10626Q594.98126 309.3875 595.325 309.91876Q595.66876 310.4344 595.85626 311.1844Q596.04376 311.9344 596.04376 313.21564Q596.04376 314.73126 595.73126 315.65314Q595.4344 316.575 594.8094 317.09064Q594.2 317.59064 593.2469 317.59064Q592.0125 317.59064 591.29376 316.7Q590.45 315.6375 590.45 313.21564ZM591.52814 313.21564Q591.52814 315.325 592.02814 316.02814Q592.52814 316.73126 593.2469 316.73126Q593.98126 316.73126 594.46564 316.02814Q594.96564 315.325 594.96564 313.21564Q594.96564 311.09064 594.46564 310.40314Q593.98126 309.7 593.23126 309.7Q592.5125 309.7 592.075 310.3094Q591.52814 311.09064 591.52814 313.21564Z" fill-rule="nonzero"/><path fill="#757575" d="M20.01875 37.55L20.01875 23.2375L25.39375 23.2375Q27.034374 23.2375 28.01875 23.675Q29.003124 24.096874 29.565624 25.003124Q30.128124 25.909374 30.128124 26.89375Q30.128124 27.815624 29.628124 28.628124Q29.14375 29.440624 28.128124 29.925Q29.425 30.315624 30.128124 31.2375Q30.83125 32.14375 30.83125 33.39375Q30.83125 34.409374 30.39375 35.26875Q29.971874 36.128124 29.346874 36.596874Q28.721874 37.065624 27.784374 37.315624Q26.846874 37.55 25.471874 37.55L20.01875 37.55ZM21.909374 29.253124L25.003124 29.253124Q26.26875 29.253124 26.815624 29.08125Q27.534374 28.8625 27.89375 28.378124Q28.26875 27.878124 28.26875 27.1125Q28.26875 26.409374 27.925 25.8625Q27.58125 25.315624 26.940624 25.128124Q26.315624 24.925 24.76875 24.925L21.909374 24.925L21.909374 29.253124ZM21.909374 35.8625L25.471874 35.8625Q26.39375 35.8625 26.76875 35.784374Q27.425 35.675 27.8625 35.409374Q28.3 35.128124 28.58125 34.6125Q28.8625 34.08125 28.8625 33.39375Q28.8625 32.596874 28.45625 32.003124Q28.05 31.409374 27.315624 31.175Q26.58125 30.940624 25.221874 30.940624L21.909374 30.940624L21.909374 35.8625ZM39.64375 36.26875Q38.659374 37.096874 37.753124 37.440624Q36.846874 37.784374 35.815624 37.784374Q34.1125 37.784374 33.190624 36.95625Q32.26875 36.1125 32.26875 34.815624Q32.26875 34.05 32.6125 33.425Q32.971874 32.8 33.534374 32.425Q34.096874 32.034374 34.8 31.83125Q35.315624 31.70625 36.3625 31.565624Q38.4875 31.315624 39.4875 30.971874Q39.503124 30.6125 39.503124 30.503124Q39.503124 29.440624 39.003124 28.9875Q38.33125 28.39375 37.003124 28.39375Q35.753124 28.39375 35.159374 28.83125Q34.58125 29.26875 34.3 30.378124L32.58125 30.14375Q32.815624 29.034374 33.346874 28.3625Q33.878124 27.675 34.89375 27.315624Q35.909374 26.940624 37.253124 26.940624Q38.58125 26.940624 39.409374 27.253124Q40.2375 27.565624 40.628124 28.05Q41.01875 28.51875 41.175 29.2375Q41.26875 29.690624 41.26875 30.8625L41.26875 33.20625Q41.26875 35.659374 41.378124 36.315624Q41.4875 36.95625 41.83125 37.55L39.9875 37.55Q39.721874 37.003124 39.64375 36.26875ZM39.4875 32.346874Q38.534374 32.7375 36.6125 33.003124Q35.534374 33.159374 35.08125 33.3625Q34.64375 33.55 34.39375 33.925Q34.14375 34.3 34.14375 34.76875Q34.14375 35.471874 34.675 35.940624Q35.20625 36.409374 36.2375 36.409374Q37.253124 36.409374 38.034374 35.971874Q38.83125 35.51875 39.20625 34.753124Q39.4875 34.14375 39.4875 32.9875L39.4875 32.346874ZM43.8625 37.55L43.8625 27.175L45.45625 27.175L45.45625 28.659374Q46.596874 26.940624 48.753124 26.940624Q49.690624 26.940624 50.471874 27.284374Q51.26875 27.6125 51.659374 28.159374Q52.05 28.70625 52.20625 29.45625Q52.3 29.95625 52.3 31.175L52.3 37.55L50.534374 37.55L50.534374 31.2375Q50.534374 30.159374 50.33125 29.628124Q50.128124 29.096874 49.596874 28.784374Q49.08125 28.471874 48.378124 28.471874Q47.253124 28.471874 46.440624 29.190624Q45.628124 29.89375 45.628124 31.878124L45.628124 37.55L43.8625 37.55ZM60.596874 37.55L60.596874 36.2375Q59.6125 37.784374 57.690624 37.784374Q56.45625 37.784374 55.409374 37.096874Q54.378124 36.409374 53.8 35.190624Q53.2375 33.971874 53.2375 32.378124Q53.2375 30.815624 53.753124 29.55Q54.26875 28.284374 55.3 27.6125Q56.346874 26.940624 57.6125 26.940624Q58.55 26.940624 59.284374 27.346874Q60.01875 27.7375 60.4875 28.3625L60.4875 23.2375L62.221874 23.2375L62.221874 37.55L60.596874 37.55ZM55.034374 32.378124Q55.034374 34.3625 55.878124 35.346874Q56.721874 36.33125 57.8625 36.33125Q59.01875 36.33125 59.815624 35.39375Q60.628124 34.45625 60.628124 32.51875Q60.628124 30.39375 59.8 29.39375Q58.9875 28.39375 57.784374 28.39375Q56.6125 28.39375 55.815624 29.3625Q55.034374 30.315624 55.034374 32.378124ZM66.78438 37.55L63.6125 27.175L65.425 27.175L67.08125 33.159374L67.69063 35.39375Q67.7375 35.221874 68.22188 33.253124L69.87813 27.175L71.69063 27.175L73.2375 33.190624L73.75313 35.175L74.34688 33.175L76.12813 27.175L77.83125 27.175L74.59688 37.55L72.76875 37.55L71.1125 31.33125L70.72188 29.565624L68.6125 37.55L66.78438 37.55ZM79.87813 25.253124L79.87813 23.2375L81.64375 23.2375L81.64375 25.253124L79.87813 25.253124ZM79.87813 37.55L79.87813 27.175L81.64375 27.175L81.64375 37.55L79.87813 37.55ZM90.59688 37.55L90.59688 36.2375Q89.6125 37.784374 87.69063 37.784374Q86.45625 37.784374 85.40938 37.096874Q84.37813 36.409374 83.8 35.190624Q83.2375 33.971874 83.2375 32.378124Q83.2375 30.815624 83.75313 29.55Q84.26875 28.284374 85.3 27.6125Q86.34688 26.940624 87.6125 26.940624Q88.55 26.940624 89.28438 27.346874Q90.01875 27.7375 90.4875 28.3625L90.4875 23.2375L92.22188 23.2375L92.22188 37.55L90.59688 37.55ZM85.03438 32.378124Q85.03438 34.3625 85.87813 35.346874Q86.72188 36.33125 87.8625 36.33125Q89.01875 36.33125 89.81563 35.39375Q90.62813 34.45625 90.62813 32.51875Q90.62813 30.39375 89.8 29.39375Q88.9875 28.39375 87.78438 28.39375Q86.6125 28.39375 85.81563 29.3625Q85.03438 30.315624 85.03438 32.378124ZM98.70625 35.971874L98.95625 37.534374Q98.22188 37.690624 97.62813 37.690624Q96.675 37.690624 96.14375 37.39375Q95.62813 37.08125 95.40938 36.596874Q95.19063 36.096874 95.19063 34.51875L95.19063 28.55L93.90938 28.55L93.90938 27.175L95.19063 27.175L95.19063 24.6125L96.94063 23.55L96.94063 27.175L98.70625 27.175L98.70625 28.55L96.94063 28.55L96.94063 34.6125Q96.94063 35.3625 97.03438 35.58125Q97.12813 35.784374 97.33125 35.925Q97.55 36.05 97.94063 36.05Q98.22188 36.05 98.70625 35.971874ZM100.8625 37.55L100.8625 23.2375L102.62813 23.2375L102.62813 28.3625Q103.8625 26.940624 105.7375 26.940624Q106.87813 26.940624 107.72188 27.39375Q108.58125 27.846874 108.94063 28.659374Q109.31563 29.45625 109.31563 30.971874L109.31563 37.55L107.56563 37.55L107.56563 30.971874Q107.56563 29.659374 106.9875 29.065624Q106.40938 28.45625 105.37813 28.45625Q104.59688 28.45625 103.89375 28.8625Q103.20625 29.26875 102.90938 29.971874Q102.62813 30.659374 102.62813 31.878124L102.62813 37.55L100.8625 37.55ZM120.22188 41.753124Q118.76875 39.925 117.76875 37.471874Q116.76875 35.003124 116.76875 32.3625Q116.76875 30.034374 117.51875 27.909374Q118.39375 25.440624 120.22188 22.9875L121.4875 22.9875Q120.3 25.01875 119.925 25.89375Q119.33125 27.2375 118.9875 28.70625Q118.56563 30.534374 118.56563 32.378124Q118.56563 37.065624 121.4875 41.753124L120.22188 41.753124ZM124.03438 37.55L124.03438 23.2375L126.89375 23.2375L130.26875 33.3625Q130.7375 34.784374 130.95625 35.4875Q131.20625 34.70625 131.72188 33.190624L135.14375 23.2375L137.69063 23.2375L137.69063 37.55L135.87813 37.55L135.87813 25.565624L131.70625 37.55L130.00313 37.55L125.8625 25.3625L125.8625 37.55L124.03438 37.55ZM140.87813 25.253124L140.87813 23.2375L142.64375 23.2375L142.64375 25.253124L140.87813 25.253124ZM140.87813 37.55L140.87813 27.175L142.64375 27.175L142.64375 37.55L140.87813 37.55ZM145.01875 37.55L145.01875 23.2375L150.39375 23.2375Q152.03438 23.2375 153.01875 23.675Q154.00313 24.096874 154.56563 25.003124Q155.12813 25.909374 155.12813 26.89375Q155.12813 27.815624 154.62813 28.628124Q154.14375 29.440624 153.12813 29.925Q154.425 30.315624 155.12813 31.2375Q155.83125 32.14375 155.83125 33.39375Q155.83125 34.409374 155.39375 35.26875Q154.97188 36.128124 154.34688 36.596874Q153.72188 37.065624 152.78438 37.315624Q151.84688 37.55 150.47188 37.55L145.01875 37.55ZM146.90938 29.253124L150.00313 29.253124Q151.26875 29.253124 151.81563 29.08125Q152.53438 28.8625 152.89375 28.378124Q153.26875 27.878124 153.26875 27.1125Q153.26875 26.409374 152.925 25.8625Q152.58125 25.315624 151.94063 25.128124Q151.31563 24.925 149.76875 24.925L146.90938 24.925L146.90938 29.253124ZM146.90938 35.8625L150.47188 35.8625Q151.39375 35.8625 151.76875 35.784374Q152.425 35.675 152.8625 35.409374Q153.3 35.128124 153.58125 34.6125Q153.8625 34.08125 153.8625 33.39375Q153.8625 32.596874 153.45625 32.003124Q153.05 31.409374 152.31563 31.175Q151.58125 30.940624 150.22188 30.940624L146.90938 30.940624L146.90938 35.8625ZM156.55 37.8L160.70625 22.9875L162.1125 22.9875L157.97188 37.8L156.55 37.8ZM163.15938 34.45625L164.90938 34.175Q165.05 35.221874 165.72188 35.784374Q166.39375 36.33125 167.59688 36.33125Q168.8 36.33125 169.37813 35.846874Q169.97188 35.346874 169.97188 34.690624Q169.97188 34.096874 169.45625 33.753124Q169.09688 33.51875 167.65938 33.159374Q165.72188 32.659374 164.97188 32.315624Q164.2375 31.95625 163.84688 31.33125Q163.45625 30.690624 163.45625 29.925Q163.45625 29.2375 163.76875 28.64375Q164.09688 28.05 164.64375 27.659374Q165.05 27.3625 165.75313 27.159374Q166.47188 26.940624 167.28438 26.940624Q168.50313 26.940624 169.425 27.3Q170.34688 27.64375 170.78438 28.253124Q171.22188 28.846874 171.39375 29.846874L169.675 30.08125Q169.55 29.284374 168.9875 28.846874Q168.425 28.39375 167.40938 28.39375Q166.19063 28.39375 165.675 28.8Q165.15938 29.190624 165.15938 29.721874Q165.15938 30.065624 165.37813 30.346874Q165.58125 30.628124 166.05 30.815624Q166.31563 30.909374 167.59688 31.253124Q169.47188 31.753124 170.20625 32.08125Q170.94063 32.39375 171.3625 33.003124Q171.78438 33.596874 171.78438 34.503124Q171.78438 35.378124 171.26875 36.159374Q170.75313 36.940624 169.78438 37.3625Q168.81563 37.784374 167.59688 37.784374Q165.58125 37.784374 164.51875 36.940624Q163.45625 36.096874 163.15938 34.45625ZM175.01875 41.753124L173.76875 41.753124Q176.675 37.065624 176.675 32.378124Q176.675 30.534374 176.26875 28.7375Q175.925 27.26875 175.33125 25.925Q174.95625 25.034374 173.76875 22.9875L175.01875 22.9875Q176.8625 25.440624 177.7375 27.909374Q178.4875 30.034374 178.4875 32.3625Q178.4875 35.003124 177.47188 37.471874Q176.47188 39.925 175.01875 41.753124Z" fill-rule="nonzero"/></svg>