<svg version="1.1" viewBox="0.0 0.0 600.0 371.0" fill="none" stroke="none" stroke-linecap="square" stroke-miterlimit="10" width="600" height="371" xmlns:xlink="http://www.w3.org/1999/xlink" xmlns="http://www.w3.org/2000/svg"><path fill="#ffffff" d="M0 0L600.0 0L600.0 371.0L0 371.0L0 0Z" fill-rule="nonzero"/><path stroke="#333333" stroke-width="1.0" stroke-linecap="butt" d="M77.5 54.5L77.5 300.5" fill-rule="nonzero"/><path stroke="#cccccc" stroke-width="1.0" stroke-linecap="butt" d="M203.5 54.5L203.5 300.5" fill-rule="nonzero"/><path stroke="#cccccc" stroke-width="1.0" stroke-linecap="butt" d="M329.5 54.5L329.5 300.5" fill-rule="nonzero"/><path stroke="#cccccc" stroke-width="1.0" stroke-linecap="butt" d="M455.5 54.5L455.5 300.5" fill-rule="nonzero"/><path stroke="#cccccc" stroke-width="1.0" stroke-linecap="butt" d="M581.5 54.5L581.5 300.5" fill-rule="nonzero"/><clipPath id="id_0"><path d="M77.55 54.916668L581.45 54.916668L581.45 300.45L77.55 300.45L77.55 54.916668Z" clip-rule="nonzero"/></clipPath><path stroke="#000000" stroke-width="2.0" stroke-linecap="butt" stroke-opacity="0.0" clip-path="url(#id_0)" d="M78.0 112.0L78.0 75.0L561.0 75.0C562.10455 75.0 563.0 75.89543 563.0 77.0L563.0 110.0C563.0 111.10457 562.10455 112.0 561.0 112.0Z" fill-rule="nonzero"/><path fill="#4285f4" clip-path="url(#id_0)" d="M78.0 112.0L78.0 75.0L561.0 75.0C562.10455 75.0 563.0 75.89543 563.0 77.0L563.0 110.0C563.0 111.10457 562.10455 112.0 561.0 112.0Z" fill-rule="nonzero"/><path stroke="#000000" stroke-width="2.0" stroke-linecap="butt" stroke-opacity="0.0" clip-path="url(#id_0)" d="M78.0 168.0L78.0 131.0L437.0 131.0C438.10458 131.0 439.0 131.89543 439.0 133.0L439.0 166.0C439.0 167.10457 438.10458 168.0 437.0 168.0Z" fill-rule="nonzero"/><path fill="#4285f4" clip-path="url(#id_0)" d="M78.0 168.0L78.0 131.0L437.0 131.0C438.10458 131.0 439.0 131.89543 439.0 133.0L439.0 166.0C439.0 167.10457 438.10458 168.0 437.0 168.0Z" fill-rule="nonzero"/><path stroke="#000000" stroke-width="2.0" stroke-linecap="butt" stroke-opacity="0.0" clip-path="url(#id_0)" d="M78.0 225.0L78.0 188.0L431.0 188.0C432.10458 188.0 433.0 188.89543 433.0 190.0L433.0 223.0C433.0 224.10457 432.10458 225.0 431.0 225.0Z" fill-rule="nonzero"/><path fill="#4285f4" clip-path="url(#id_0)" d="M78.0 225.0L78.0 188.0L431.0 188.0C432.10458 188.0 433.0 188.89543 433.0 190.0L433.0 223.0C433.0 224.10457 432.10458 225.0 431.0 225.0Z" fill-rule="nonzero"/><path stroke="#000000" stroke-width="2.0" stroke-linecap="butt" stroke-opacity="0.0" clip-path="url(#id_0)" d="M78.0 281.0L78.0 244.0L433.0 244.0C434.10458 244.0 435.0 244.89543 435.0 246.0L435.0 279.0C435.0 280.10458 434.10458 281.0 433.0 281.0Z" fill-rule="nonzero"/><path fill="#4285f4" clip-path="url(#id_0)" d="M78.0 281.0L78.0 244.0L433.0 244.0C434.10458 244.0 435.0 244.89543 435.0 246.0L435.0 279.0C435.0 280.10458 434.10458 281.0 433.0 281.0Z" fill-rule="nonzero"/><path stroke="#4285f4" stroke-width="3.0" stroke-linejoin="round" stroke-linecap="round" d="M510.8984 89.578125L507.36716 97.5L506.22653 97.5L509.74216 89.859375L505.13278 89.859375L505.13278 88.96875L510.8984 88.96875L510.8984 89.578125ZM517.89844 89.578125L514.3672 97.5L513.22656 97.5L516.7422 89.859375L512.1328 89.859375L512.1328 88.96875L517.89844 88.96875L517.89844 89.578125ZM525.9453 97.5L524.8672 97.5L524.8672 90.28125L522.6797 91.078125L522.6797 90.09375L525.78906 88.921875L525.9453 88.921875L525.9453 97.5ZM533.96094 94.640625L535.14844 94.640625L535.14844 95.515625L533.96094 95.515625L533.96094 97.5L532.8828 97.5L532.8828 95.515625L528.9922 95.515625L528.9922 94.875L532.8047 88.96875L533.96094 88.96875L533.96094 94.640625ZM530.22656 94.640625L532.8828 94.640625L532.8828 90.453125L532.7422 90.6875L530.22656 94.640625ZM541.89844 89.578125L538.3672 97.5L537.22656 97.5L540.7422 89.859375L536.1328 89.859375L536.1328 88.96875L541.89844 88.96875L541.89844 89.578125ZM543.46094 99.203125L542.85156 98.78125Q543.39844 98.015625 543.4297 97.1875L543.4297 96.21875L544.4922 96.21875L544.4922 97.0625Q544.4922 97.65625 544.1953 98.25Q543.89844 98.84375 543.46094 99.203125ZM550.7422 93.859375Q550.7422 95.765625 550.08594 96.703125Q549.4453 97.625 548.0547 97.625Q546.6953 97.625 546.03906 96.71875Q545.3828 95.8125 545.35156 94.0L545.35156 92.5625Q545.35156 90.671875 545.9922 89.765625Q546.64844 88.84375 548.03906 88.84375Q549.41406 88.84375 550.0703 89.734375Q550.72656 90.609375 550.7422 92.453125L550.7422 93.859375ZM549.64844 92.375Q549.64844 91.0 549.2578 90.375Q548.8828 89.734375 548.03906 89.734375Q547.21094 89.734375 546.8203 90.375Q546.4453 91.0 546.4453 92.296875L546.4453 94.03125Q546.4453 95.40625 546.83594 96.078125Q547.2422 96.734375 548.0547 96.734375Q548.85156 96.734375 549.2422 96.109375Q549.6328 95.484375 549.64844 94.15625L549.64844 92.375ZM557.7422 93.859375Q557.7422 95.765625 557.08594 96.703125Q556.4453 97.625 555.0547 97.625Q553.6953 97.625 553.03906 96.71875Q552.3828 95.8125 552.35156 94.0L552.35156 92.5625Q552.35156 90.671875 552.9922 89.765625Q553.64844 88.84375 555.03906 88.84375Q556.41406 88.84375 557.0703 89.734375Q557.72656 90.609375 557.7422 92.453125L557.7422 93.859375ZM556.64844 92.375Q556.64844 91.0 556.2578 90.375Q555.8828 89.734375 555.03906 89.734375Q554.21094 89.734375 553.8203 90.375Q553.4453 91.0 553.4453 92.296875L553.4453 94.03125Q553.4453 95.40625 553.83594 96.078125Q554.2422 96.734375 555.0547 96.734375Q555.85156 96.734375 556.2422 96.109375Q556.6328 95.484375 556.64844 94.15625L556.64844 92.375Z" fill-rule="nonzero"/><path fill="#ffffff" d="M510.8984 89.578125L507.36716 97.5L506.22653 97.5L509.74216 89.859375L505.13278 89.859375L505.13278 88.96875L510.8984 88.96875L510.8984 89.578125ZM517.89844 89.578125L514.3672 97.5L513.22656 97.5L516.7422 89.859375L512.1328 89.859375L512.1328 88.96875L517.89844 88.96875L517.89844 89.578125ZM525.9453 97.5L524.8672 97.5L524.8672 90.28125L522.6797 91.078125L522.6797 90.09375L525.78906 88.921875L525.9453 88.921875L525.9453 97.5ZM533.96094 94.640625L535.14844 94.640625L535.14844 95.515625L533.96094 95.515625L533.96094 97.5L532.8828 97.5L532.8828 95.515625L528.9922 95.515625L528.9922 94.875L532.8047 88.96875L533.96094 88.96875L533.96094 94.640625ZM530.22656 94.640625L532.8828 94.640625L532.8828 90.453125L532.7422 90.6875L530.22656 94.640625ZM541.89844 89.578125L538.3672 97.5L537.22656 97.5L540.7422 89.859375L536.1328 89.859375L536.1328 88.96875L541.89844 88.96875L541.89844 89.578125ZM543.46094 99.203125L542.85156 98.78125Q543.39844 98.015625 543.4297 97.1875L543.4297 96.21875L544.4922 96.21875L544.4922 97.0625Q544.4922 97.65625 544.1953 98.25Q543.89844 98.84375 543.46094 99.203125ZM550.7422 93.859375Q550.7422 95.765625 550.08594 96.703125Q549.4453 97.625 548.0547 97.625Q546.6953 97.625 546.03906 96.71875Q545.3828 95.8125 545.35156 94.0L545.35156 92.5625Q545.35156 90.671875 545.9922 89.765625Q546.64844 88.84375 548.03906 88.84375Q549.41406 88.84375 550.0703 89.734375Q550.72656 90.609375 550.7422 92.453125L550.7422 93.859375ZM549.64844 92.375Q549.64844 91.0 549.2578 90.375Q548.8828 89.734375 548.03906 89.734375Q547.21094 89.734375 546.8203 90.375Q546.4453 91.0 546.4453 92.296875L546.4453 94.03125Q546.4453 95.40625 546.83594 96.078125Q547.2422 96.734375 548.0547 96.734375Q548.85156 96.734375 549.2422 96.109375Q549.6328 95.484375 549.64844 94.15625L549.64844 92.375ZM557.7422 93.859375Q557.7422 95.765625 557.08594 96.703125Q556.4453 97.625 555.0547 97.625Q553.6953 97.625 553.03906 96.71875Q552.3828 95.8125 552.35156 94.0L552.35156 92.5625Q552.35156 90.671875 552.9922 89.765625Q553.64844 88.84375 555.03906 88.84375Q556.41406 88.84375 557.0703 89.734375Q557.72656 90.609375 557.7422 92.453125L557.7422 93.859375ZM556.64844 92.375Q556.64844 91.0 556.2578 90.375Q555.8828 89.734375 555.03906 89.734375Q554.21094 89.734375 553.8203 90.375Q553.4453 91.0 553.4453 92.296875L553.4453 94.03125Q553.4453 95.40625 553.83594 96.078125Q554.2422 96.734375 555.0547 96.734375Q555.85156 96.734375 556.2422 96.109375Q556.6328 95.484375 556.64844 94.15625L556.64844 92.375Z" fill-rule="nonzero"/><path stroke="#4285f4" stroke-width="3.0" stroke-linejoin="round" stroke-linecap="round" d="M381.57697 149.21875L382.01447 144.96875L386.38947 144.96875L386.38947 145.96875L382.93634 145.96875L382.67072 148.29688Q383.31134 147.92188 384.10822 147.92188Q385.26447 147.92188 385.95197 148.70312Q386.63947 149.46875 386.63947 150.78125Q386.63947 152.09375 385.92072 152.85938Q385.2176 153.625 383.93634 153.625Q382.81134 153.625 382.0926 153.0Q381.37384 152.35938 381.2801 151.25L382.29572 151.25Q382.4051 151.98438 382.82697 152.35938Q383.24884 152.73438 383.93634 152.73438Q384.68634 152.73438 385.12384 152.21875Q385.56134 151.70312 385.56134 150.79688Q385.56134 149.9375 385.0926 149.42188Q384.62384 148.90625 383.8426 148.90625Q383.13947 148.90625 382.73322 149.20312L382.45197 149.4375L381.57697 149.21875ZM393.5926 145.57812L390.06134 153.5L388.92072 153.5L392.43634 145.85938L387.82697 145.85938L387.82697 144.96875L393.5926 144.96875L393.5926 145.57812ZM402.6551 150.64062L403.8426 150.64062L403.8426 151.51562L402.6551 151.51562L402.6551 153.5L401.57697 153.5L401.57697 151.51562L397.68634 151.51562L397.68634 150.875L401.49884 144.96875L402.6551 144.96875L402.6551 150.64062ZM398.92072 150.64062L401.57697 150.64062L401.57697 146.45312L401.43634 146.6875L398.92072 150.64062ZM408.63947 153.5L407.56134 153.5L407.56134 146.28125L405.37384 147.07812L405.37384 146.09375L408.48322 144.92188L408.63947 144.92188L408.63947 153.5ZM417.67072 153.5L412.07697 153.5L412.07697 152.71875L415.0301 149.4375Q415.68634 148.6875 415.93634 148.23438Q416.18634 147.76562 416.18634 147.26562Q416.18634 146.59375 415.7801 146.17188Q415.38947 145.73438 414.70197 145.73438Q413.9051 145.73438 413.45197 146.20312Q412.99884 146.65625 412.99884 147.48438L411.92072 147.48438Q411.92072 146.29688 412.67072 145.57812Q413.43634 144.84375 414.70197 144.84375Q415.9051 144.84375 416.5926 145.46875Q417.2801 146.09375 417.2801 147.14062Q417.2801 148.39062 415.67072 150.14062L413.38947 152.60938L417.67072 152.60938L417.67072 153.5ZM419.1551 155.20312L418.54572 154.78125Q419.0926 154.01562 419.12384 153.1875L419.12384 152.21875L420.18634 152.21875L420.18634 153.0625Q420.18634 153.65625 419.88947 154.25Q419.5926 154.84375 419.1551 155.20312ZM426.43634 149.85938Q426.43634 151.76562 425.7801 152.70312Q425.13947 153.625 423.74884 153.625Q422.38947 153.625 421.73322 152.71875Q421.07697 151.8125 421.04572 150.0L421.04572 148.5625Q421.04572 146.67188 421.68634 145.76562Q422.3426 144.84375 423.73322 144.84375Q425.10822 144.84375 425.76447 145.73438Q426.42072 146.60938 426.43634 148.45312L426.43634 149.85938ZM425.3426 148.375Q425.3426 147.0 424.95197 146.375Q424.57697 145.73438 423.73322 145.73438Q422.9051 145.73438 422.51447 146.375Q422.13947 147.0 422.13947 148.29688L422.13947 150.03125Q422.13947 151.40625 422.5301 152.07812Q422.93634 152.73438 423.74884 152.73438Q424.54572 152.73438 424.93634 152.10938Q425.32697 151.48438 425.3426 150.15625L425.3426 148.375ZM433.43634 149.85938Q433.43634 151.76562 432.7801 152.70312Q432.13947 153.625 430.74884 153.625Q429.38947 153.625 428.73322 152.71875Q428.07697 151.8125 428.04572 150.0L428.04572 148.5625Q428.04572 146.67188 428.68634 145.76562Q429.3426 144.84375 430.73322 144.84375Q432.10822 144.84375 432.76447 145.73438Q433.42072 146.60938 433.43634 148.45312L433.43634 149.85938ZM432.3426 148.375Q432.3426 147.0 431.95197 146.375Q431.57697 145.73438 430.73322 145.73438Q429.9051 145.73438 429.51447 146.375Q429.13947 147.0 429.13947 148.29688L429.13947 150.03125Q429.13947 151.40625 429.5301 152.07812Q429.93634 152.73438 430.74884 152.73438Q431.54572 152.73438 431.93634 152.10938Q432.32697 151.48438 432.3426 150.15625L432.3426 148.375Z" fill-rule="nonzero"/><path fill="#ffffff" d="M381.57697 149.21875L382.01447 144.96875L386.38947 144.96875L386.38947 145.96875L382.93634 145.96875L382.67072 148.29688Q383.31134 147.92188 384.10822 147.92188Q385.26447 147.92188 385.95197 148.70312Q386.63947 149.46875 386.63947 150.78125Q386.63947 152.09375 385.92072 152.85938Q385.2176 153.625 383.93634 153.625Q382.81134 153.625 382.0926 153.0Q381.37384 152.35938 381.2801 151.25L382.29572 151.25Q382.4051 151.98438 382.82697 152.35938Q383.24884 152.73438 383.93634 152.73438Q384.68634 152.73438 385.12384 152.21875Q385.56134 151.70312 385.56134 150.79688Q385.56134 149.9375 385.0926 149.42188Q384.62384 148.90625 383.8426 148.90625Q383.13947 148.90625 382.73322 149.20312L382.45197 149.4375L381.57697 149.21875ZM393.5926 145.57812L390.06134 153.5L388.92072 153.5L392.43634 145.85938L387.82697 145.85938L387.82697 144.96875L393.5926 144.96875L393.5926 145.57812ZM402.6551 150.64062L403.8426 150.64062L403.8426 151.51562L402.6551 151.51562L402.6551 153.5L401.57697 153.5L401.57697 151.51562L397.68634 151.51562L397.68634 150.875L401.49884 144.96875L402.6551 144.96875L402.6551 150.64062ZM398.92072 150.64062L401.57697 150.64062L401.57697 146.45312L401.43634 146.6875L398.92072 150.64062ZM408.63947 153.5L407.56134 153.5L407.56134 146.28125L405.37384 147.07812L405.37384 146.09375L408.48322 144.92188L408.63947 144.92188L408.63947 153.5ZM417.67072 153.5L412.07697 153.5L412.07697 152.71875L415.0301 149.4375Q415.68634 148.6875 415.93634 148.23438Q416.18634 147.76562 416.18634 147.26562Q416.18634 146.59375 415.7801 146.17188Q415.38947 145.73438 414.70197 145.73438Q413.9051 145.73438 413.45197 146.20312Q412.99884 146.65625 412.99884 147.48438L411.92072 147.48438Q411.92072 146.29688 412.67072 145.57812Q413.43634 144.84375 414.70197 144.84375Q415.9051 144.84375 416.5926 145.46875Q417.2801 146.09375 417.2801 147.14062Q417.2801 148.39062 415.67072 150.14062L413.38947 152.60938L417.67072 152.60938L417.67072 153.5ZM419.1551 155.20312L418.54572 154.78125Q419.0926 154.01562 419.12384 153.1875L419.12384 152.21875L420.18634 152.21875L420.18634 153.0625Q420.18634 153.65625 419.88947 154.25Q419.5926 154.84375 419.1551 155.20312ZM426.43634 149.85938Q426.43634 151.76562 425.7801 152.70312Q425.13947 153.625 423.74884 153.625Q422.38947 153.625 421.73322 152.71875Q421.07697 151.8125 421.04572 150.0L421.04572 148.5625Q421.04572 146.67188 421.68634 145.76562Q422.3426 144.84375 423.73322 144.84375Q425.10822 144.84375 425.76447 145.73438Q426.42072 146.60938 426.43634 148.45312L426.43634 149.85938ZM425.3426 148.375Q425.3426 147.0 424.95197 146.375Q424.57697 145.73438 423.73322 145.73438Q422.9051 145.73438 422.51447 146.375Q422.13947 147.0 422.13947 148.29688L422.13947 150.03125Q422.13947 151.40625 422.5301 152.07812Q422.93634 152.73438 423.74884 152.73438Q424.54572 152.73438 424.93634 152.10938Q425.32697 151.48438 425.3426 150.15625L425.3426 148.375ZM433.43634 149.85938Q433.43634 151.76562 432.7801 152.70312Q432.13947 153.625 430.74884 153.625Q429.38947 153.625 428.73322 152.71875Q428.07697 151.8125 428.04572 150.0L428.04572 148.5625Q428.04572 146.67188 428.68634 145.76562Q429.3426 144.84375 430.73322 144.84375Q432.10822 144.84375 432.76447 145.73438Q433.42072 146.60938 433.43634 148.45312L433.43634 149.85938ZM432.3426 148.375Q432.3426 147.0 431.95197 146.375Q431.57697 145.73438 430.73322 145.73438Q429.9051 145.73438 429.51447 146.375Q429.13947 147.0 429.13947 148.29688L429.13947 150.03125Q429.13947 151.40625 429.5301 152.07812Q429.93634 152.73438 430.74884 152.73438Q431.54572 152.73438 431.93634 152.10938Q432.32697 151.48438 432.3426 150.15625L432.3426 148.375Z" fill-rule="nonzero"/><path stroke="#4285f4" stroke-width="3.0" stroke-linejoin="round" stroke-linecap="round" d="M375.86398 206.21875L376.30148 201.96875L380.67648 201.96875L380.67648 202.96875L377.22336 202.96875L376.95773 205.29688Q377.59836 204.92188 378.39523 204.92188Q379.55148 204.92188 380.23898 205.70312Q380.92648 206.46875 380.92648 207.78125Q380.92648 209.09375 380.20773 209.85938Q379.5046 210.625 378.22336 210.625Q377.09836 210.625 376.3796 210.0Q375.66086 209.35938 375.5671 208.25L376.58273 208.25Q376.6921 208.98438 377.11398 209.35938Q377.53586 209.73438 378.22336 209.73438Q378.97336 209.73438 379.41086 209.21875Q379.84836 208.70312 379.84836 207.79688Q379.84836 206.9375 379.3796 206.42188Q378.91086 205.90625 378.1296 205.90625Q377.42648 205.90625 377.02023 206.20312L376.73898 206.4375L375.86398 206.21875ZM386.6296 201.96875L386.6296 202.875L386.42648 202.875Q385.16086 202.90625 384.41086 203.64062Q383.66086 204.35938 383.53586 205.67188Q384.22336 204.90625 385.3796 204.90625Q386.48898 204.90625 387.16086 205.6875Q387.83273 206.46875 387.83273 207.71875Q387.83273 209.03125 387.11398 209.82812Q386.39523 210.625 385.17648 210.625Q383.95773 210.625 383.1921 209.6875Q382.4421 208.73438 382.4421 207.25L382.4421 206.84375Q382.4421 204.48438 383.4421 203.23438Q384.4421 201.98438 386.42648 201.96875L386.6296 201.96875ZM385.20773 205.8125Q384.64523 205.8125 384.17648 206.14062Q383.70773 206.46875 383.52023 206.98438L383.52023 207.375Q383.52023 208.4375 383.98898 209.07812Q384.47336 209.71875 385.17648 209.71875Q385.91086 209.71875 386.33273 209.1875Q386.7546 208.64062 386.7546 207.76562Q386.7546 206.89062 386.33273 206.35938Q385.91086 205.8125 385.20773 205.8125ZM392.86398 206.21875L393.30148 201.96875L397.67648 201.96875L397.67648 202.96875L394.22336 202.96875L393.95773 205.29688Q394.59836 204.92188 395.39523 204.92188Q396.55148 204.92188 397.23898 205.70312Q397.92648 206.46875 397.92648 207.78125Q397.92648 209.09375 397.20773 209.85938Q396.5046 210.625 395.22336 210.625Q394.09836 210.625 393.3796 210.0Q392.66086 209.35938 392.5671 208.25L393.58273 208.25Q393.6921 208.98438 394.11398 209.35938Q394.53586 209.73438 395.22336 209.73438Q395.97336 209.73438 396.41086 209.21875Q396.84836 208.70312 396.84836 207.79688Q396.84836 206.9375 396.3796 206.42188Q395.91086 205.90625 395.1296 205.90625Q394.42648 205.90625 394.02023 206.20312L393.73898 206.4375L392.86398 206.21875ZM404.72336 206.85938Q404.72336 208.76562 404.0671 209.70312Q403.42648 210.625 402.03586 210.625Q400.67648 210.625 400.02023 209.71875Q399.36398 208.8125 399.33273 207.0L399.33273 205.5625Q399.33273 203.67188 399.97336 202.76562Q400.6296 201.84375 402.02023 201.84375Q403.39523 201.84375 404.05148 202.73438Q404.70773 203.60938 404.72336 205.45312L404.72336 206.85938ZM403.6296 205.375Q403.6296 204.0 403.23898 203.375Q402.86398 202.73438 402.02023 202.73438Q401.1921 202.73438 400.80148 203.375Q400.42648 204.0 400.42648 205.29688L400.42648 207.03125Q400.42648 208.40625 400.8171 209.07812Q401.22336 209.73438 402.03586 209.73438Q402.83273 209.73438 403.22336 209.10938Q403.61398 208.48438 403.6296 207.15625L403.6296 205.375ZM406.86398 206.21875L407.30148 201.96875L411.67648 201.96875L411.67648 202.96875L408.22336 202.96875L407.95773 205.29688Q408.59836 204.92188 409.39523 204.92188Q410.55148 204.92188 411.23898 205.70312Q411.92648 206.46875 411.92648 207.78125Q411.92648 209.09375 411.20773 209.85938Q410.5046 210.625 409.22336 210.625Q408.09836 210.625 407.3796 210.0Q406.66086 209.35938 406.5671 208.25L407.58273 208.25Q407.6921 208.98438 408.11398 209.35938Q408.53586 209.73438 409.22336 209.73438Q409.97336 209.73438 410.41086 209.21875Q410.84836 208.70312 410.84836 207.79688Q410.84836 206.9375 410.3796 206.42188Q409.91086 205.90625 409.1296 205.90625Q408.42648 205.90625 408.02023 206.20312L407.73898 206.4375L406.86398 206.21875ZM413.4421 212.20312L412.83273 211.78125Q413.3796 211.01562 413.41086 210.1875L413.41086 209.21875L414.47336 209.21875L414.47336 210.0625Q414.47336 210.65625 414.17648 211.25Q413.8796 211.84375 413.4421 212.20312ZM420.72336 206.85938Q420.72336 208.76562 420.0671 209.70312Q419.42648 210.625 418.03586 210.625Q416.67648 210.625 416.02023 209.71875Q415.36398 208.8125 415.33273 207.0L415.33273 205.5625Q415.33273 203.67188 415.97336 202.76562Q416.6296 201.84375 418.02023 201.84375Q419.39523 201.84375 420.05148 202.73438Q420.70773 203.60938 420.72336 205.45312L420.72336 206.85938ZM419.6296 205.375Q419.6296 204.0 419.23898 203.375Q418.86398 202.73438 418.02023 202.73438Q417.1921 202.73438 416.80148 203.375Q416.42648 204.0 416.42648 205.29688L416.42648 207.03125Q416.42648 208.40625 416.8171 209.07812Q417.22336 209.73438 418.03586 209.73438Q418.83273 209.73438 419.22336 209.10938Q419.61398 208.48438 419.6296 207.15625L419.6296 205.375ZM427.72336 206.85938Q427.72336 208.76562 427.0671 209.70312Q426.42648 210.625 425.03586 210.625Q423.67648 210.625 423.02023 209.71875Q422.36398 208.8125 422.33273 207.0L422.33273 205.5625Q422.33273 203.67188 422.97336 202.76562Q423.6296 201.84375 425.02023 201.84375Q426.39523 201.84375 427.05148 202.73438Q427.70773 203.60938 427.72336 205.45312L427.72336 206.85938ZM426.6296 205.375Q426.6296 204.0 426.23898 203.375Q425.86398 202.73438 425.02023 202.73438Q424.1921 202.73438 423.80148 203.375Q423.42648 204.0 423.42648 205.29688L423.42648 207.03125Q423.42648 208.40625 423.8171 209.07812Q424.22336 209.73438 425.03586 209.73438Q425.83273 209.73438 426.22336 209.10938Q426.61398 208.48438 426.6296 207.15625L426.6296 205.375Z" fill-rule="nonzero"/><path fill="#ffffff" d="M375.86398 206.21875L376.30148 201.96875L380.67648 201.96875L380.67648 202.96875L377.22336 202.96875L376.95773 205.29688Q377.59836 204.92188 378.39523 204.92188Q379.55148 204.92188 380.23898 205.70312Q380.92648 206.46875 380.92648 207.78125Q380.92648 209.09375 380.20773 209.85938Q379.5046 210.625 378.22336 210.625Q377.09836 210.625 376.3796 210.0Q375.66086 209.35938 375.5671 208.25L376.58273 208.25Q376.6921 208.98438 377.11398 209.35938Q377.53586 209.73438 378.22336 209.73438Q378.97336 209.73438 379.41086 209.21875Q379.84836 208.70312 379.84836 207.79688Q379.84836 206.9375 379.3796 206.42188Q378.91086 205.90625 378.1296 205.90625Q377.42648 205.90625 377.02023 206.20312L376.73898 206.4375L375.86398 206.21875ZM386.6296 201.96875L386.6296 202.875L386.42648 202.875Q385.16086 202.90625 384.41086 203.64062Q383.66086 204.35938 383.53586 205.67188Q384.22336 204.90625 385.3796 204.90625Q386.48898 204.90625 387.16086 205.6875Q387.83273 206.46875 387.83273 207.71875Q387.83273 209.03125 387.11398 209.82812Q386.39523 210.625 385.17648 210.625Q383.95773 210.625 383.1921 209.6875Q382.4421 208.73438 382.4421 207.25L382.4421 206.84375Q382.4421 204.48438 383.4421 203.23438Q384.4421 201.98438 386.42648 201.96875L386.6296 201.96875ZM385.20773 205.8125Q384.64523 205.8125 384.17648 206.14062Q383.70773 206.46875 383.52023 206.98438L383.52023 207.375Q383.52023 208.4375 383.98898 209.07812Q384.47336 209.71875 385.17648 209.71875Q385.91086 209.71875 386.33273 209.1875Q386.7546 208.64062 386.7546 207.76562Q386.7546 206.89062 386.33273 206.35938Q385.91086 205.8125 385.20773 205.8125ZM392.86398 206.21875L393.30148 201.96875L397.67648 201.96875L397.67648 202.96875L394.22336 202.96875L393.95773 205.29688Q394.59836 204.92188 395.39523 204.92188Q396.55148 204.92188 397.23898 205.70312Q397.92648 206.46875 397.92648 207.78125Q397.92648 209.09375 397.20773 209.85938Q396.5046 210.625 395.22336 210.625Q394.09836 210.625 393.3796 210.0Q392.66086 209.35938 392.5671 208.25L393.58273 208.25Q393.6921 208.98438 394.11398 209.35938Q394.53586 209.73438 395.22336 209.73438Q395.97336 209.73438 396.41086 209.21875Q396.84836 208.70312 396.84836 207.79688Q396.84836 206.9375 396.3796 206.42188Q395.91086 205.90625 395.1296 205.90625Q394.42648 205.90625 394.02023 206.20312L393.73898 206.4375L392.86398 206.21875ZM404.72336 206.85938Q404.72336 208.76562 404.0671 209.70312Q403.42648 210.625 402.03586 210.625Q400.67648 210.625 400.02023 209.71875Q399.36398 208.8125 399.33273 207.0L399.33273 205.5625Q399.33273 203.67188 399.97336 202.76562Q400.6296 201.84375 402.02023 201.84375Q403.39523 201.84375 404.05148 202.73438Q404.70773 203.60938 404.72336 205.45312L404.72336 206.85938ZM403.6296 205.375Q403.6296 204.0 403.23898 203.375Q402.86398 202.73438 402.02023 202.73438Q401.1921 202.73438 400.80148 203.375Q400.42648 204.0 400.42648 205.29688L400.42648 207.03125Q400.42648 208.40625 400.8171 209.07812Q401.22336 209.73438 402.03586 209.73438Q402.83273 209.73438 403.22336 209.10938Q403.61398 208.48438 403.6296 207.15625L403.6296 205.375ZM406.86398 206.21875L407.30148 201.96875L411.67648 201.96875L411.67648 202.96875L408.22336 202.96875L407.95773 205.29688Q408.59836 204.92188 409.39523 204.92188Q410.55148 204.92188 411.23898 205.70312Q411.92648 206.46875 411.92648 207.78125Q411.92648 209.09375 411.20773 209.85938Q410.5046 210.625 409.22336 210.625Q408.09836 210.625 407.3796 210.0Q406.66086 209.35938 406.5671 208.25L407.58273 208.25Q407.6921 208.98438 408.11398 209.35938Q408.53586 209.73438 409.22336 209.73438Q409.97336 209.73438 410.41086 209.21875Q410.84836 208.70312 410.84836 207.79688Q410.84836 206.9375 410.3796 206.42188Q409.91086 205.90625 409.1296 205.90625Q408.42648 205.90625 408.02023 206.20312L407.73898 206.4375L406.86398 206.21875ZM413.4421 212.20312L412.83273 211.78125Q413.3796 211.01562 413.41086 210.1875L413.41086 209.21875L414.47336 209.21875L414.47336 210.0625Q414.47336 210.65625 414.17648 211.25Q413.8796 211.84375 413.4421 212.20312ZM420.72336 206.85938Q420.72336 208.76562 420.0671 209.70312Q419.42648 210.625 418.03586 210.625Q416.67648 210.625 416.02023 209.71875Q415.36398 208.8125 415.33273 207.0L415.33273 205.5625Q415.33273 203.67188 415.97336 202.76562Q416.6296 201.84375 418.02023 201.84375Q419.39523 201.84375 420.05148 202.73438Q420.70773 203.60938 420.72336 205.45312L420.72336 206.85938ZM419.6296 205.375Q419.6296 204.0 419.23898 203.375Q418.86398 202.73438 418.02023 202.73438Q417.1921 202.73438 416.80148 203.375Q416.42648 204.0 416.42648 205.29688L416.42648 207.03125Q416.42648 208.40625 416.8171 209.07812Q417.22336 209.73438 418.03586 209.73438Q418.83273 209.73438 419.22336 209.10938Q419.61398 208.48438 419.6296 207.15625L419.6296 205.375ZM427.72336 206.85938Q427.72336 208.76562 427.0671 209.70312Q426.42648 210.625 425.03586 210.625Q423.67648 210.625 423.02023 209.71875Q422.36398 208.8125 422.33273 207.0L422.33273 205.5625Q422.33273 203.67188 422.97336 202.76562Q423.6296 201.84375 425.02023 201.84375Q426.39523 201.84375 427.05148 202.73438Q427.70773 203.60938 427.72336 205.45312L427.72336 206.85938ZM426.6296 205.375Q426.6296 204.0 426.23898 203.375Q425.86398 202.73438 425.02023 202.73438Q424.1921 202.73438 423.80148 203.375Q423.42648 204.0 423.42648 205.29688L423.42648 207.03125Q423.42648 208.40625 423.8171 209.07812Q424.22336 209.73438 425.03586 209.73438Q425.83273 209.73438 426.22336 209.10938Q426.61398 208.48438 426.6296 207.15625L426.6296 205.375Z" fill-rule="nonzero"/><path stroke="#4285f4" stroke-width="3.0" stroke-linejoin="round" stroke-linecap="round" d="M377.14893 262.21875L377.58643 257.96875L381.96143 257.96875L381.96143 258.96875L378.5083 258.96875L378.24268 261.29688Q378.8833 260.92188 379.68018 260.92188Q380.83643 260.92188 381.52393 261.70312Q382.21143 262.46875 382.21143 263.78125Q382.21143 265.09375 381.49268 265.85938Q380.78955 266.625 379.5083 266.625Q378.3833 266.625 377.66455 266.0Q376.9458 265.35938 376.85205 264.25L377.86768 264.25Q377.97705 264.98438 378.39893 265.35938Q378.8208 265.73438 379.5083 265.73438Q380.2583 265.73438 380.6958 265.21875Q381.1333 264.70312 381.1333 263.79688Q381.1333 262.9375 380.66455 262.42188Q380.1958 261.90625 379.41455 261.90625Q378.71143 261.90625 378.30518 262.20312L378.02393 262.4375L377.14893 262.21875ZM387.91455 257.96875L387.91455 258.875L387.71143 258.875Q386.4458 258.90625 385.6958 259.64062Q384.9458 260.35938 384.8208 261.67188Q385.5083 260.90625 386.66455 260.90625Q387.77393 260.90625 388.4458 261.6875Q389.11768 262.46875 389.11768 263.71875Q389.11768 265.03125 388.39893 265.82812Q387.68018 266.625 386.46143 266.625Q385.24268 266.625 384.47705 265.6875Q383.72705 264.73438 383.72705 263.25L383.72705 262.84375Q383.72705 260.48438 384.72705 259.23438Q385.72705 257.98438 387.71143 257.96875L387.91455 257.96875ZM386.49268 261.8125Q385.93018 261.8125 385.46143 262.14062Q384.99268 262.46875 384.80518 262.98438L384.80518 263.375Q384.80518 264.4375 385.27393 265.07812Q385.7583 265.71875 386.46143 265.71875Q387.1958 265.71875 387.61768 265.1875Q388.03955 264.64062 388.03955 263.76562Q388.03955 262.89062 387.61768 262.35938Q387.1958 261.8125 386.49268 261.8125ZM399.16455 258.57812L395.6333 266.5L394.49268 266.5L398.0083 258.85938L393.39893 258.85938L393.39893 257.96875L399.16455 257.96875L399.16455 258.57812ZM406.0083 262.85938Q406.0083 264.76562 405.35205 265.70312Q404.71143 266.625 403.3208 266.625Q401.96143 266.625 401.30518 265.71875Q400.64893 264.8125 400.61768 263.0L400.61768 261.5625Q400.61768 259.67188 401.2583 258.76562Q401.91455 257.84375 403.30518 257.84375Q404.68018 257.84375 405.33643 258.73438Q405.99268 259.60938 406.0083 261.45312L406.0083 262.85938ZM404.91455 261.375Q404.91455 260.0 404.52393 259.375Q404.14893 258.73438 403.30518 258.73438Q402.47705 258.73438 402.08643 259.375Q401.71143 260.0 401.71143 261.29688L401.71143 263.03125Q401.71143 264.40625 402.10205 265.07812Q402.5083 265.73438 403.3208 265.73438Q404.11768 265.73438 404.5083 265.10938Q404.89893 264.48438 404.91455 263.15625L404.91455 261.375ZM411.80518 262.75Q411.47705 263.15625 410.99268 263.40625Q410.52393 263.64062 409.96143 263.64062Q409.22705 263.64062 408.68018 263.28125Q408.1333 262.92188 407.83643 262.26562Q407.53955 261.59375 407.53955 260.79688Q407.53955 259.95312 407.85205 259.26562Q408.18018 258.57812 408.77393 258.21875Q409.3833 257.84375 410.18018 257.84375Q411.4458 257.84375 412.16455 258.79688Q412.89893 259.75 412.89893 261.375L412.89893 261.6875Q412.89893 264.1875 411.91455 265.32812Q410.93018 266.46875 408.9458 266.5L408.72705 266.5L408.72705 265.59375L408.96143 265.59375Q410.30518 265.5625 411.02393 264.89062Q411.74268 264.21875 411.80518 262.75ZM410.1333 262.75Q410.68018 262.75 411.1333 262.42188Q411.60205 262.07812 411.8208 261.59375L411.8208 261.15625Q411.8208 260.09375 411.35205 259.42188Q410.8833 258.75 410.18018 258.75Q409.46143 258.75 409.02393 259.29688Q408.60205 259.84375 408.60205 260.75Q408.60205 261.625 409.0083 262.1875Q409.43018 262.75 410.1333 262.75ZM414.72705 268.20312L414.11768 267.78125Q414.66455 267.01562 414.6958 266.1875L414.6958 265.21875L415.7583 265.21875L415.7583 266.0625Q415.7583 266.65625 415.46143 267.25Q415.16455 267.84375 414.72705 268.20312ZM422.0083 262.85938Q422.0083 264.76562 421.35205 265.70312Q420.71143 266.625 419.3208 266.625Q417.96143 266.625 417.30518 265.71875Q416.64893 264.8125 416.61768 263.0L416.61768 261.5625Q416.61768 259.67188 417.2583 258.76562Q417.91455 257.84375 419.30518 257.84375Q420.68018 257.84375 421.33643 258.73438Q421.99268 259.60938 422.0083 261.45312L422.0083 262.85938ZM420.91455 261.375Q420.91455 260.0 420.52393 259.375Q420.14893 258.73438 419.30518 258.73438Q418.47705 258.73438 418.08643 259.375Q417.71143 260.0 417.71143 261.29688L417.71143 263.03125Q417.71143 264.40625 418.10205 265.07812Q418.5083 265.73438 419.3208 265.73438Q420.11768 265.73438 420.5083 265.10938Q420.89893 264.48438 420.91455 263.15625L420.91455 261.375ZM429.0083 262.85938Q429.0083 264.76562 428.35205 265.70312Q427.71143 266.625 426.3208 266.625Q424.96143 266.625 424.30518 265.71875Q423.64893 264.8125 423.61768 263.0L423.61768 261.5625Q423.61768 259.67188 424.2583 258.76562Q424.91455 257.84375 426.30518 257.84375Q427.68018 257.84375 428.33643 258.73438Q428.99268 259.60938 429.0083 261.45312L429.0083 262.85938ZM427.91455 261.375Q427.91455 260.0 427.52393 259.375Q427.14893 258.73438 426.30518 258.73438Q425.47705 258.73438 425.08643 259.375Q424.71143 260.0 424.71143 261.29688L424.71143 263.03125Q424.71143 264.40625 425.10205 265.07812Q425.5083 265.73438 426.3208 265.73438Q427.11768 265.73438 427.5083 265.10938Q427.89893 264.48438 427.91455 263.15625L427.91455 261.375Z" fill-rule="nonzero"/><path fill="#ffffff" d="M377.14893 262.21875L377.58643 257.96875L381.96143 257.96875L381.96143 258.96875L378.5083 258.96875L378.24268 261.29688Q378.8833 260.92188 379.68018 260.92188Q380.83643 260.92188 381.52393 261.70312Q382.21143 262.46875 382.21143 263.78125Q382.21143 265.09375 381.49268 265.85938Q380.78955 266.625 379.5083 266.625Q378.3833 266.625 377.66455 266.0Q376.9458 265.35938 376.85205 264.25L377.86768 264.25Q377.97705 264.98438 378.39893 265.35938Q378.8208 265.73438 379.5083 265.73438Q380.2583 265.73438 380.6958 265.21875Q381.1333 264.70312 381.1333 263.79688Q381.1333 262.9375 380.66455 262.42188Q380.1958 261.90625 379.41455 261.90625Q378.71143 261.90625 378.30518 262.20312L378.02393 262.4375L377.14893 262.21875ZM387.91455 257.96875L387.91455 258.875L387.71143 258.875Q386.4458 258.90625 385.6958 259.64062Q384.9458 260.35938 384.8208 261.67188Q385.5083 260.90625 386.66455 260.90625Q387.77393 260.90625 388.4458 261.6875Q389.11768 262.46875 389.11768 263.71875Q389.11768 265.03125 388.39893 265.82812Q387.68018 266.625 386.46143 266.625Q385.24268 266.625 384.47705 265.6875Q383.72705 264.73438 383.72705 263.25L383.72705 262.84375Q383.72705 260.48438 384.72705 259.23438Q385.72705 257.98438 387.71143 257.96875L387.91455 257.96875ZM386.49268 261.8125Q385.93018 261.8125 385.46143 262.14062Q384.99268 262.46875 384.80518 262.98438L384.80518 263.375Q384.80518 264.4375 385.27393 265.07812Q385.7583 265.71875 386.46143 265.71875Q387.1958 265.71875 387.61768 265.1875Q388.03955 264.64062 388.03955 263.76562Q388.03955 262.89062 387.61768 262.35938Q387.1958 261.8125 386.49268 261.8125ZM399.16455 258.57812L395.6333 266.5L394.49268 266.5L398.0083 258.85938L393.39893 258.85938L393.39893 257.96875L399.16455 257.96875L399.16455 258.57812ZM406.0083 262.85938Q406.0083 264.76562 405.35205 265.70312Q404.71143 266.625 403.3208 266.625Q401.96143 266.625 401.30518 265.71875Q400.64893 264.8125 400.61768 263.0L400.61768 261.5625Q400.61768 259.67188 401.2583 258.76562Q401.91455 257.84375 403.30518 257.84375Q404.68018 257.84375 405.33643 258.73438Q405.99268 259.60938 406.0083 261.45312L406.0083 262.85938ZM404.91455 261.375Q404.91455 260.0 404.52393 259.375Q404.14893 258.73438 403.30518 258.73438Q402.47705 258.73438 402.08643 259.375Q401.71143 260.0 401.71143 261.29688L401.71143 263.03125Q401.71143 264.40625 402.10205 265.07812Q402.5083 265.73438 403.3208 265.73438Q404.11768 265.73438 404.5083 265.10938Q404.89893 264.48438 404.91455 263.15625L404.91455 261.375ZM411.80518 262.75Q411.47705 263.15625 410.99268 263.40625Q410.52393 263.64062 409.96143 263.64062Q409.22705 263.64062 408.68018 263.28125Q408.1333 262.92188 407.83643 262.26562Q407.53955 261.59375 407.53955 260.79688Q407.53955 259.95312 407.85205 259.26562Q408.18018 258.57812 408.77393 258.21875Q409.3833 257.84375 410.18018 257.84375Q411.4458 257.84375 412.16455 258.79688Q412.89893 259.75 412.89893 261.375L412.89893 261.6875Q412.89893 264.1875 411.91455 265.32812Q410.93018 266.46875 408.9458 266.5L408.72705 266.5L408.72705 265.59375L408.96143 265.59375Q410.30518 265.5625 411.02393 264.89062Q411.74268 264.21875 411.80518 262.75ZM410.1333 262.75Q410.68018 262.75 411.1333 262.42188Q411.60205 262.07812 411.8208 261.59375L411.8208 261.15625Q411.8208 260.09375 411.35205 259.42188Q410.8833 258.75 410.18018 258.75Q409.46143 258.75 409.02393 259.29688Q408.60205 259.84375 408.60205 260.75Q408.60205 261.625 409.0083 262.1875Q409.43018 262.75 410.1333 262.75ZM414.72705 268.20312L414.11768 267.78125Q414.66455 267.01562 414.6958 266.1875L414.6958 265.21875L415.7583 265.21875L415.7583 266.0625Q415.7583 266.65625 415.46143 267.25Q415.16455 267.84375 414.72705 268.20312ZM422.0083 262.85938Q422.0083 264.76562 421.35205 265.70312Q420.71143 266.625 419.3208 266.625Q417.96143 266.625 417.30518 265.71875Q416.64893 264.8125 416.61768 263.0L416.61768 261.5625Q416.61768 259.67188 417.2583 258.76562Q417.91455 257.84375 419.30518 257.84375Q420.68018 257.84375 421.33643 258.73438Q421.99268 259.60938 422.0083 261.45312L422.0083 262.85938ZM420.91455 261.375Q420.91455 260.0 420.52393 259.375Q420.14893 258.73438 419.30518 258.73438Q418.47705 258.73438 418.08643 259.375Q417.71143 260.0 417.71143 261.29688L417.71143 263.03125Q417.71143 264.40625 418.10205 265.07812Q418.5083 265.73438 419.3208 265.73438Q420.11768 265.73438 420.5083 265.10938Q420.89893 264.48438 420.91455 263.15625L420.91455 261.375ZM429.0083 262.85938Q429.0083 264.76562 428.35205 265.70312Q427.71143 266.625 426.3208 266.625Q424.96143 266.625 424.30518 265.71875Q423.64893 264.8125 423.61768 263.0L423.61768 261.5625Q423.61768 259.67188 424.2583 258.76562Q424.91455 257.84375 426.30518 257.84375Q427.68018 257.84375 428.33643 258.73438Q428.99268 259.60938 429.0083 261.45312L429.0083 262.85938ZM427.91455 261.375Q427.91455 260.0 427.52393 259.375Q427.14893 258.73438 426.30518 258.73438Q425.47705 258.73438 425.08643 259.375Q424.71143 260.0 424.71143 261.29688L424.71143 263.03125Q424.71143 264.40625 425.10205 265.07812Q425.5083 265.73438 426.3208 265.73438Q427.11768 265.73438 427.5083 265.10938Q427.89893 264.48438 427.91455 263.15625L427.91455 261.375Z" fill-rule="nonzero"/><path fill="#000000" d="M303.79688 342.075L303.79688 340.85626L304.85938 340.85626L304.85938 342.075L303.79688 342.075ZM303.79688 349.45L303.79688 343.23126L304.85938 343.23126L304.85938 349.45L303.79688 349.45ZM306.40625 346.34064Q306.40625 344.60626 307.35938 343.77814Q308.15625 343.09064 309.3125 343.09064Q310.59375 343.09064 311.40625 343.9344Q312.23438 344.7625 312.23438 346.2469Q312.23438 347.45 311.875 348.1375Q311.51562 348.825 310.8125 349.21564Q310.125 349.59064 309.3125 349.59064Q308.01562 349.59064 307.20312 348.7625Q306.40625 347.91876 306.40625 346.34064ZM307.48438 346.34064Q307.48438 347.52814 308.0 348.1219Q308.53125 348.71564 309.3125 348.71564Q310.10938 348.71564 310.625 348.1219Q311.14062 347.52814 311.14062 346.3094Q311.14062 345.15314 310.60938 344.5594Q310.09375 343.96564 309.3125 343.96564Q308.53125 343.96564 308.0 344.5594Q307.48438 345.1375 307.48438 346.34064ZM312.8125 351.84064L312.8125 351.075L319.8125 351.075L319.8125 351.84064L312.8125 351.84064ZM321.9375 349.45L320.03125 343.23126L321.125 343.23126L322.10938 346.825L322.48438 348.15314Q322.51562 348.0594 322.8125 346.8719L323.79688 343.23126L324.875 343.23126L325.8125 346.84064L326.125 348.02814L326.48438 346.825L327.54688 343.23126L328.57812 343.23126L326.625 349.45L325.53125 349.45L324.54688 345.71564L324.29688 344.66876L323.04688 349.45L321.9375 349.45ZM329.78125 349.45L329.78125 343.23126L330.73438 343.23126L330.73438 344.16876Q331.09375 343.5125 331.39062 343.3094Q331.70312 343.09064 332.07812 343.09064Q332.60938 343.09064 333.15625 343.41876L332.79688 344.40314Q332.40625 344.16876 332.03125 344.16876Q331.67188 344.16876 331.39062 344.3875Q331.125 344.59064 331.01562 344.96564Q330.82812 345.52814 330.82812 346.1844L330.82812 349.45L329.78125 349.45ZM333.79688 342.075L333.79688 340.85626L334.85938 340.85626L334.85938 342.075L333.79688 342.075ZM333.79688 349.45L333.79688 343.23126L334.85938 343.23126L334.85938 349.45L333.79688 349.45ZM339.09375 348.5125L339.25 349.4344Q338.79688 349.52814 338.45312 349.52814Q337.875 349.52814 337.5625 349.35626Q337.25 349.16876 337.10938 348.8719Q336.98438 348.575 336.98438 347.6219L336.98438 344.04376L336.21875 344.04376L336.21875 343.23126L336.98438 343.23126L336.98438 341.6844L338.03125 341.0594L338.03125 343.23126L339.09375 343.23126L339.09375 344.04376L338.03125 344.04376L338.03125 347.6844Q338.03125 348.1375 338.07812 348.2625Q338.14062 348.3875 338.26562 348.46564Q338.39062 348.54376 338.625 348.54376Q338.8125 348.54376 339.09375 348.5125ZM342.09375 348.5125L342.25 349.4344Q341.79688 349.52814 341.45312 349.52814Q340.875 349.52814 340.5625 349.35626Q340.25 349.16876 340.10938 348.8719Q339.98438 348.575 339.98438 347.6219L339.98438 344.04376L339.21875 344.04376L339.21875 343.23126L339.98438 343.23126L339.98438 341.6844L341.03125 341.0594L341.03125 343.23126L342.09375 343.23126L342.09375 344.04376L341.03125 344.04376L341.03125 347.6844Q341.03125 348.1375 341.07812 348.2625Q341.14062 348.3875 341.26562 348.46564Q341.39062 348.54376 341.625 348.54376Q341.8125 348.54376 342.09375 348.5125ZM347.04688 347.45L348.14062 347.575Q347.89062 348.52814 347.1875 349.0594Q346.48438 349.59064 345.40625 349.59064Q344.04688 349.59064 343.23438 348.7469Q342.4375 347.90314 342.4375 346.3875Q342.4375 344.825 343.25 343.96564Q344.0625 343.09064 345.34375 343.09064Q346.59375 343.09064 347.375 343.9344Q348.17188 344.77814 348.17188 346.325Q348.17188 346.41876 348.17188 346.60626L343.53125 346.60626Q343.59375 347.6375 344.10938 348.1844Q344.625 348.71564 345.40625 348.71564Q345.98438 348.71564 346.39062 348.41876Q346.8125 348.10626 347.04688 347.45ZM343.59375 345.7469L347.0625 345.7469Q347.0 344.95 346.67188 344.5594Q346.15625 343.95 345.35938 343.95Q344.625 343.95 344.125 344.4344Q343.64062 344.91876 343.59375 345.7469ZM349.79688 349.45L349.79688 343.23126L350.73438 343.23126L350.73438 344.10626Q351.42188 343.09064 352.71875 343.09064Q353.28125 343.09064 353.75 343.29376Q354.23438 343.4969 354.46875 343.825Q354.70312 344.15314 354.79688 344.59064Q354.84375 344.8875 354.84375 345.6219L354.84375 349.45L353.79688 349.45L353.79688 345.66876Q353.79688 345.0125 353.67188 344.7Q353.54688 344.3875 353.23438 344.2Q352.92188 343.9969 352.5 343.9969Q351.82812 343.9969 351.32812 344.4344Q350.84375 344.85626 350.84375 346.04376L350.84375 349.45L349.79688 349.45Z" fill-rule="nonzero"/><path fill="#000000" d="M29.550013 200.88646L23.331263 200.88646L23.331263 199.94896L24.206263 199.94896Q23.190638 199.26146 23.190638 197.96458Q23.190638 197.40208 23.393763 196.93333Q23.596888 196.44896 23.925013 196.21458Q24.253138 195.98021 24.690638 195.88646Q24.987513 195.83958 25.721888 195.83958L29.550013 195.83958L29.550013 196.88646L25.768763 196.88646Q25.112513 196.88646 24.800013 197.01146Q24.487513 197.13646 24.300013 197.44896Q24.096888 197.76146 24.096888 198.18333Q24.096888 198.85521 24.534388 199.35521Q24.956263 199.83958 26.143763 199.83958L29.550013 199.83958L29.550013 200.88646ZM26.440638 194.27708Q24.706263 194.27708 23.878138 193.32396Q23.190638 192.52708 23.190638 191.37083Q23.190638 190.08958 24.034388 189.27708Q24.862513 188.44896 26.346888 188.44896Q27.550013 188.44896 28.237513 188.80833Q28.925013 189.16771 29.315638 189.87083Q29.690638 190.55833 29.690638 191.37083Q29.690638 192.66771 28.862513 193.48021Q28.018763 194.27708 26.440638 194.27708ZM26.440638 193.19896Q27.628138 193.19896 28.221888 192.68333Q28.815638 192.15208 28.815638 191.37083Q28.815638 190.57396 28.221888 190.05833Q27.628138 189.54271 26.409388 189.54271Q25.253138 189.54271 24.659388 190.07396Q24.065638 190.58958 24.065638 191.37083Q24.065638 192.15208 24.659388 192.68333Q25.237513 193.19896 26.440638 193.19896ZM29.550013 182.85521L28.768763 182.85521Q29.690638 183.44896 29.690638 184.58958Q29.690638 185.33958 29.284388 185.96458Q28.862513 186.58958 28.128138 186.93333Q27.393763 187.27708 26.440638 187.27708Q25.518763 187.27708 24.753138 186.96458Q23.987513 186.65208 23.596888 186.02708Q23.190638 185.40208 23.190638 184.63646Q23.190638 184.07396 23.425013 183.63646Q23.659388 183.19896 24.034388 182.91771L20.956263 182.91771L20.956263 181.87083L29.550013 181.87083L29.550013 182.85521ZM26.440638 186.18333Q27.643763 186.18333 28.237513 185.68333Q28.815638 185.18333 28.815638 184.49583Q28.815638 183.80833 28.253138 183.32396Q27.690638 182.83958 26.534388 182.83958Q25.253138 182.83958 24.659388 183.33958Q24.065638 183.82396 24.065638 184.54271Q24.065638 185.24583 24.643763 185.71458Q25.206263 186.18333 26.440638 186.18333ZM27.550013 175.63646L27.675013 174.54271Q28.628138 174.79271 29.159388 175.49583Q29.690638 176.19896 29.690638 177.27708Q29.690638 178.63646 28.846888 179.44896Q28.003138 180.24583 26.487513 180.24583Q24.925013 180.24583 24.065638 179.43333Q23.190638 178.62083 23.190638 177.33958Q23.190638 176.08958 24.034388 175.30833Q24.878138 174.51146 26.425013 174.51146Q26.518763 174.51146 26.706263 174.51146L26.706263 179.15208Q27.737513 179.08958 28.284388 178.57396Q28.815638 178.05833 28.815638 177.27708Q28.815638 176.69896 28.518763 176.29271Q28.206263 175.87083 27.550013 175.63646ZM25.846888 179.08958L25.846888 175.62083Q25.050013 175.68333 24.659388 176.01146Q24.050013 176.52708 24.050013 177.32396Q24.050013 178.05833 24.534388 178.55833Q25.018763 179.04271 25.846888 179.08958Z" fill-rule="nonzero"/><path fill="#000000" d="M53.346874 99.407295L53.346874 90.79792L54.3 90.79792L54.3 91.594795Q54.64375 91.126045 55.065624 90.89167Q55.503124 90.657295 56.1125 90.657295Q56.909374 90.657295 57.51875 91.063545Q58.128124 91.469795 58.425 92.219795Q58.7375 92.969795 58.7375 93.86042Q58.7375 94.813545 58.39375 95.57917Q58.065624 96.344795 57.409374 96.751045Q56.753124 97.157295 56.034374 97.157295Q55.503124 97.157295 55.08125 96.938545Q54.659374 96.70417 54.39375 96.376045L54.39375 99.407295L53.346874 99.407295ZM54.3 93.938545Q54.3 95.14167 54.784374 95.719795Q55.26875 96.282295 55.95625 96.282295Q56.659374 96.282295 57.159374 95.688545Q57.659374 95.094795 57.659374 93.844795Q57.659374 92.657295 57.175 92.07917Q56.690624 91.48542 56.003124 91.48542Q55.33125 91.48542 54.815624 92.11042Q54.3 92.73542 54.3 93.938545ZM62.065624 97.01667L59.70625 90.79792L60.815624 90.79792L62.159374 94.51667Q62.3625 95.126045 62.55 95.76667Q62.690624 95.282295 62.940624 94.594795L64.33125 90.79792L65.40938 90.79792L63.05 97.01667L62.065624 97.01667ZM69.59688 95.01667L70.69063 95.14167Q70.44063 96.094795 69.7375 96.626045Q69.03438 97.157295 67.95625 97.157295Q66.59688 97.157295 65.78438 96.313545Q64.9875 95.469795 64.9875 93.95417Q64.9875 92.39167 65.8 91.532295Q66.6125 90.657295 67.89375 90.657295Q69.14375 90.657295 69.925 91.501045Q70.72188 92.344795 70.72188 93.89167Q70.72188 93.98542 70.72188 94.17292L66.08125 94.17292Q66.14375 95.20417 66.65938 95.751045Q67.175 96.282295 67.95625 96.282295Q68.53438 96.282295 68.94063 95.98542Q69.3625 95.67292 69.59688 95.01667ZM66.14375 93.313545L69.6125 93.313545Q69.55 92.51667 69.22188 92.126045Q68.70625 91.51667 67.90938 91.51667Q67.175 91.51667 66.675 92.001045Q66.19063 92.48542 66.14375 93.313545Z" fill-rule="nonzero"/><path fill="#000000" d="M56.596874 152.44548L56.596874 153.4611L50.909374 153.4611Q50.909374 153.0861 51.034374 152.72673Q51.253124 152.1486 51.721874 151.5861Q52.20625 151.0236 53.1125 150.28923Q54.51875 149.13298 55.003124 148.4611Q55.503124 147.78923 55.503124 147.19548Q55.503124 146.57048 55.05 146.1486Q54.596874 145.7111 53.878124 145.7111Q53.1125 145.7111 52.659374 146.16423Q52.20625 146.61736 52.190624 147.42986L51.1125 147.32048Q51.221874 146.10173 51.940624 145.47673Q52.675 144.8361 53.909374 144.8361Q55.14375 144.8361 55.8625 145.5236Q56.58125 146.2111 56.58125 147.22673Q56.58125 147.74236 56.3625 148.24236Q56.159374 148.72673 55.659374 149.28923Q55.175 149.8361 54.05 150.78923Q53.096874 151.5861 52.815624 151.88298Q52.55 152.16423 52.378124 152.44548L56.596874 152.44548ZM58.14375 153.97673L59.175 154.13298Q59.2375 154.60173 59.534374 154.82048Q59.925 155.11736 60.596874 155.11736Q61.33125 155.11736 61.721874 154.82048Q62.128124 154.5236 62.26875 154.00798Q62.3625 153.67986 62.346874 152.6486Q61.659374 153.4611 60.628124 153.4611Q59.346874 153.4611 58.64375 152.53923Q57.940624 151.60173 57.940624 150.32048Q57.940624 149.42986 58.253124 148.67986Q58.58125 147.91423 59.190624 147.50798Q59.8 147.10173 60.628124 147.10173Q61.7375 147.10173 62.45625 147.99236L62.45625 147.24236L63.425 147.24236L63.425 152.61736Q63.425 154.07048 63.128124 154.67986Q62.83125 155.28923 62.190624 155.63298Q61.55 155.99236 60.6125 155.99236Q59.503124 155.99236 58.815624 155.49236Q58.128124 154.99236 58.14375 153.97673ZM59.01875 150.24236Q59.01875 151.4611 59.503124 152.0236Q59.9875 152.5861 60.721874 152.5861Q61.45625 152.5861 61.940624 152.0236Q62.440624 151.4611 62.440624 150.2736Q62.440624 149.13298 61.925 148.55486Q61.425 147.97673 60.70625 147.97673Q60.003124 147.97673 59.503124 148.55486Q59.01875 149.11736 59.01875 150.24236ZM66.31563 153.4611L65.33125 153.4611L65.33125 144.86736L66.39375 144.86736L66.39375 147.92986Q67.06563 147.10173 68.09688 147.10173Q68.675 147.10173 69.175 147.3361Q69.69063 147.55486 70.01875 147.97673Q70.3625 148.3986 70.55 148.99236Q70.7375 149.5861 70.7375 150.25798Q70.7375 151.85173 69.94063 152.72673Q69.14375 153.60173 68.05 153.60173Q66.94063 153.60173 66.31563 152.67986L66.31563 153.4611ZM66.3 150.30486Q66.3 151.41423 66.6125 151.91423Q67.1125 152.72673 67.95625 152.72673Q68.64375 152.72673 69.14375 152.13298Q69.65938 151.53923 69.65938 150.3361Q69.65938 149.11736 69.175 148.53923Q68.69063 147.9611 68.00313 147.9611Q67.31563 147.9611 66.8 148.57048Q66.3 149.16423 66.3 150.30486Z" fill-rule="nonzero"/><path fill="#000000" d="M54.425 209.90555L54.425 207.84305L50.70625 207.84305L50.70625 206.8743L54.628124 201.3118L55.4875 201.3118L55.4875 206.8743L56.64375 206.8743L56.64375 207.84305L55.4875 207.84305L55.4875 209.90555L54.425 209.90555ZM54.425 206.8743L54.425 203.01492L51.7375 206.8743L54.425 206.8743ZM58.14375 210.42117L59.175 210.57742Q59.2375 211.04617 59.534374 211.26492Q59.925 211.5618 60.596874 211.5618Q61.33125 211.5618 61.721874 211.26492Q62.128124 210.96805 62.26875 210.45242Q62.3625 210.1243 62.346874 209.09305Q61.659374 209.90555 60.628124 209.90555Q59.346874 209.90555 58.64375 208.98367Q57.940624 208.04617 57.940624 206.76492Q57.940624 205.8743 58.253124 205.1243Q58.58125 204.35867 59.190624 203.95242Q59.8 203.54617 60.628124 203.54617Q61.7375 203.54617 62.45625 204.4368L62.45625 203.6868L63.425 203.6868L63.425 209.0618Q63.425 210.51492 63.128124 211.1243Q62.83125 211.73367 62.190624 212.07742Q61.55 212.4368 60.6125 212.4368Q59.503124 212.4368 58.815624 211.9368Q58.128124 211.4368 58.14375 210.42117ZM59.01875 206.6868Q59.01875 207.90555 59.503124 208.46805Q59.9875 209.03055 60.721874 209.03055Q61.45625 209.03055 61.940624 208.46805Q62.440624 207.90555 62.440624 206.71805Q62.440624 205.57742 61.925 204.9993Q61.425 204.42117 60.70625 204.42117Q60.003124 204.42117 59.503124 204.9993Q59.01875 205.5618 59.01875 206.6868ZM66.31563 209.90555L65.33125 209.90555L65.33125 201.3118L66.39375 201.3118L66.39375 204.3743Q67.06563 203.54617 68.09688 203.54617Q68.675 203.54617 69.175 203.78055Q69.69063 203.9993 70.01875 204.42117Q70.3625 204.84305 70.55 205.4368Q70.7375 206.03055 70.7375 206.70242Q70.7375 208.29617 69.94063 209.17117Q69.14375 210.04617 68.05 210.04617Q66.94063 210.04617 66.31563 209.1243L66.31563 209.90555ZM66.3 206.7493Q66.3 207.85867 66.6125 208.35867Q67.1125 209.17117 67.95625 209.17117Q68.64375 209.17117 69.14375 208.57742Q69.65938 207.98367 69.65938 206.78055Q69.65938 205.5618 69.175 204.98367Q68.69063 204.40555 68.00313 204.40555Q67.31563 204.40555 66.8 205.01492Q66.3 205.60867 66.3 206.7493Z" fill-rule="nonzero"/><path fill="#000000" d="M52.675 261.69376Q52.01875 261.44376 51.690624 261.00626Q51.378124 260.55313 51.378124 259.94376Q51.378124 259.00626 52.05 258.36563Q52.7375 257.725 53.846874 257.725Q54.971874 257.725 55.659374 258.38126Q56.346874 259.0375 56.346874 259.975Q56.346874 260.56876 56.034374 261.00626Q55.721874 261.44376 55.08125 261.69376Q55.878124 261.94376 56.284374 262.52188Q56.690624 263.1 56.690624 263.89688Q56.690624 264.99063 55.909374 265.74063Q55.14375 266.49063 53.8625 266.49063Q52.596874 266.49063 51.815624 265.74063Q51.034374 264.99063 51.034374 263.86563Q51.034374 263.02188 51.45625 262.45938Q51.89375 261.89688 52.675 261.69376ZM52.45625 259.89688Q52.45625 260.50626 52.846874 260.89688Q53.253124 261.2875 53.878124 261.2875Q54.4875 261.2875 54.878124 260.9125Q55.26875 260.52188 55.26875 259.95938Q55.26875 259.38126 54.8625 258.99063Q54.45625 258.58438 53.8625 258.58438Q53.253124 258.58438 52.846874 258.975Q52.45625 259.36563 52.45625 259.89688ZM52.128124 263.86563Q52.128124 264.31876 52.33125 264.74063Q52.55 265.1625 52.971874 265.39688Q53.39375 265.63126 53.878124 265.63126Q54.628124 265.63126 55.1125 265.14688Q55.6125 264.6625 55.6125 263.9125Q55.6125 263.14688 55.1125 262.64688Q54.6125 262.14688 53.846874 262.14688Q53.096874 262.14688 52.6125 262.64688Q52.128124 263.13126 52.128124 263.86563ZM58.14375 266.86563L59.175 267.02188Q59.2375 267.49063 59.534374 267.70938Q59.925 268.00626 60.596874 268.00626Q61.33125 268.00626 61.721874 267.70938Q62.128124 267.4125 62.26875 266.89688Q62.3625 266.56876 62.346874 265.5375Q61.659374 266.35 60.628124 266.35Q59.346874 266.35 58.64375 265.42813Q57.940624 264.49063 57.940624 263.20938Q57.940624 262.31876 58.253124 261.56876Q58.58125 260.80313 59.190624 260.39688Q59.8 259.99063 60.628124 259.99063Q61.7375 259.99063 62.45625 260.88126L62.45625 260.13126L63.425 260.13126L63.425 265.50626Q63.425 266.95938 63.128124 267.56876Q62.83125 268.17813 62.190624 268.52188Q61.55 268.88126 60.6125 268.88126Q59.503124 268.88126 58.815624 268.38126Q58.128124 267.88126 58.14375 266.86563ZM59.01875 263.13126Q59.01875 264.35 59.503124 264.9125Q59.9875 265.475 60.721874 265.475Q61.45625 265.475 61.940624 264.9125Q62.440624 264.35 62.440624 263.1625Q62.440624 262.02188 61.925 261.44376Q61.425 260.86563 60.70625 260.86563Q60.003124 260.86563 59.503124 261.44376Q59.01875 262.00626 59.01875 263.13126ZM66.31563 266.35L65.33125 266.35L65.33125 257.75626L66.39375 257.75626L66.39375 260.81876Q67.06563 259.99063 68.09688 259.99063Q68.675 259.99063 69.175 260.225Q69.69063 260.44376 70.01875 260.86563Q70.3625 261.2875 70.55 261.88126Q70.7375 262.475 70.7375 263.14688Q70.7375 264.74063 69.94063 265.61563Q69.14375 266.49063 68.05 266.49063Q66.94063 266.49063 66.31563 265.56876L66.31563 266.35ZM66.3 263.19376Q66.3 264.30313 66.6125 264.80313Q67.1125 265.61563 67.95625 265.61563Q68.64375 265.61563 69.14375 265.02188Q69.65938 264.42813 69.65938 263.225Q69.65938 262.00626 69.175 261.42813Q68.69063 260.85 68.00313 260.85Q67.31563 260.85 66.8 261.45938Q66.3 262.05313 66.3 263.19376Z" fill-rule="nonzero"/><path fill="#000000" d="M66.05 313.21564Q66.05 311.6844 66.3625 310.7625Q66.675 309.825 67.28438 309.325Q67.90938 308.825 68.84688 308.825Q69.53438 308.825 70.05 309.10626Q70.58125 309.3875 70.925 309.91876Q71.26875 310.4344 71.45625 311.1844Q71.64375 311.9344 71.64375 313.21564Q71.64375 314.73126 71.33125 315.65314Q71.03438 316.575 70.40938 317.09064Q69.8 317.59064 68.84688 317.59064Q67.6125 317.59064 66.89375 316.7Q66.05 315.6375 66.05 313.21564ZM67.12813 313.21564Q67.12813 315.325 67.62813 316.02814Q68.12813 316.73126 68.84688 316.73126Q69.58125 316.73126 70.06563 316.02814Q70.56563 315.325 70.56563 313.21564Q70.56563 311.09064 70.06563 310.40314Q69.58125 309.7 68.83125 309.7Q68.1125 309.7 67.675 310.3094Q67.12813 311.09064 67.12813 313.21564ZM73.6125 317.45L73.6125 316.2469L74.81563 316.2469L74.81563 317.45Q74.81563 318.10626 74.58125 318.5125Q74.34688 318.9344 73.84688 319.15314L73.55 318.7Q73.87813 318.5594 74.03438 318.2625Q74.19063 317.98126 74.22188 317.45L73.6125 317.45ZM76.05 313.21564Q76.05 311.6844 76.3625 310.7625Q76.675 309.825 77.28438 309.325Q77.90938 308.825 78.84688 308.825Q79.53438 308.825 80.05 309.10626Q80.58125 309.3875 80.925 309.91876Q81.26875 310.4344 81.45625 311.1844Q81.64375 311.9344 81.64375 313.21564Q81.64375 314.73126 81.33125 315.65314Q81.03438 316.575 80.40938 317.09064Q79.8 317.59064 78.84688 317.59064Q77.6125 317.59064 76.89375 316.7Q76.05 315.6375 76.05 313.21564ZM77.12813 313.21564Q77.12813 315.325 77.62813 316.02814Q78.12813 316.73126 78.84688 316.73126Q79.58125 316.73126 80.06563 316.02814Q80.56563 315.325 80.56563 313.21564Q80.56563 311.09064 80.06563 310.40314Q79.58125 309.7 78.83125 309.7Q78.1125 309.7 77.675 310.3094Q77.12813 311.09064 77.12813 313.21564ZM83.05 313.21564Q83.05 311.6844 83.3625 310.7625Q83.675 309.825 84.28438 309.325Q84.90938 308.825 85.84688 308.825Q86.53438 308.825 87.05 309.10626Q87.58125 309.3875 87.925 309.91876Q88.26875 310.4344 88.45625 311.1844Q88.64375 311.9344 88.64375 313.21564Q88.64375 314.73126 88.33125 315.65314Q88.03438 316.575 87.40938 317.09064Q86.8 317.59064 85.84688 317.59064Q84.6125 317.59064 83.89375 316.7Q83.05 315.6375 83.05 313.21564ZM84.12813 313.21564Q84.12813 315.325 84.62813 316.02814Q85.12813 316.73126 85.84688 316.73126Q86.58125 316.73126 87.06563 316.02814Q87.56563 315.325 87.56563 313.21564Q87.56563 311.09064 87.06563 310.40314Q86.58125 309.7 85.83125 309.7Q85.1125 309.7 84.675 310.3094Q84.12813 311.09064 84.12813 313.21564Z" fill-rule="nonzero"/><path fill="#000000" d="M182.07187 316.4344L182.07187 317.45L176.38437 317.45Q176.38437 317.075 176.50937 316.71564Q176.72812 316.1375 177.19687 315.575Q177.68124 315.0125 178.5875 314.27814Q179.99374 313.1219 180.47812 312.45Q180.97812 311.77814 180.97812 311.1844Q180.97812 310.5594 180.525 310.1375Q180.07187 309.7 179.35312 309.7Q178.5875 309.7 178.13437 310.15314Q177.68124 310.60626 177.66562 311.41876L176.5875 311.3094Q176.69687 310.09064 177.41562 309.46564Q178.15 308.825 179.38437 308.825Q180.61874 308.825 181.3375 309.5125Q182.05624 310.2 182.05624 311.21564Q182.05624 311.73126 181.8375 312.23126Q181.63437 312.71564 181.13437 313.27814Q180.65 313.825 179.525 314.77814Q178.57187 315.575 178.29062 315.8719Q178.025 316.15314 177.85312 316.4344L182.07187 316.4344ZM183.525 313.21564Q183.525 311.6844 183.8375 310.7625Q184.15 309.825 184.75937 309.325Q185.38437 308.825 186.32187 308.825Q187.00937 308.825 187.525 309.10626Q188.05624 309.3875 188.4 309.91876Q188.74374 310.4344 188.93124 311.1844Q189.11874 311.9344 189.11874 313.21564Q189.11874 314.73126 188.80624 315.65314Q188.50937 316.575 187.88437 317.09064Q187.275 317.59064 186.32187 317.59064Q185.0875 317.59064 184.36874 316.7Q183.525 315.6375 183.525 313.21564ZM184.60312 313.21564Q184.60312 315.325 185.10312 316.02814Q185.60312 316.73126 186.32187 316.73126Q187.05624 316.73126 187.54062 316.02814Q188.04062 315.325 188.04062 313.21564Q188.04062 311.09064 187.54062 310.40314Q187.05624 309.7 186.30624 309.7Q185.5875 309.7 185.15 310.3094Q184.60312 311.09064 184.60312 313.21564ZM193.525 313.21564Q193.525 311.6844 193.8375 310.7625Q194.15 309.825 194.75937 309.325Q195.38437 308.825 196.32187 308.825Q197.00937 308.825 197.525 309.10626Q198.05624 309.3875 198.4 309.91876Q198.74374 310.4344 198.93124 311.1844Q199.11874 311.9344 199.11874 313.21564Q199.11874 314.73126 198.80624 315.65314Q198.50937 316.575 197.88437 317.09064Q197.275 317.59064 196.32187 317.59064Q195.0875 317.59064 194.36874 316.7Q193.525 315.6375 193.525 313.21564ZM194.60312 313.21564Q194.60312 315.325 195.10312 316.02814Q195.60312 316.73126 196.32187 316.73126Q197.05624 316.73126 197.54062 316.02814Q198.04062 315.325 198.04062 313.21564Q198.04062 311.09064 197.54062 310.40314Q197.05624 309.7 196.30624 309.7Q195.5875 309.7 195.15 310.3094Q194.60312 311.09064 194.60312 313.21564ZM200.525 313.21564Q200.525 311.6844 200.8375 310.7625Q201.15 309.825 201.75937 309.325Q202.38437 308.825 203.32187 308.825Q204.00937 308.825 204.525 309.10626Q205.05624 309.3875 205.4 309.91876Q205.74374 310.4344 205.93124 311.1844Q206.11874 311.9344 206.11874 313.21564Q206.11874 314.73126 205.80624 315.65314Q205.50937 316.575 204.88437 317.09064Q204.275 317.59064 203.32187 317.59064Q202.0875 317.59064 201.36874 316.7Q200.525 315.6375 200.525 313.21564ZM201.60312 313.21564Q201.60312 315.325 202.10312 316.02814Q202.60312 316.73126 203.32187 316.73126Q204.05624 316.73126 204.54062 316.02814Q205.04062 315.325 205.04062 313.21564Q205.04062 311.09064 204.54062 310.40314Q204.05624 309.7 203.30624 309.7Q202.5875 309.7 202.15 310.3094Q201.60312 311.09064 201.60312 313.21564ZM207.525 313.21564Q207.525 311.6844 207.8375 310.7625Q208.15 309.825 208.75937 309.325Q209.38437 308.825 210.32187 308.825Q211.00937 308.825 211.525 309.10626Q212.05624 309.3875 212.4 309.91876Q212.74374 310.4344 212.93124 311.1844Q213.11874 311.9344 213.11874 313.21564Q213.11874 314.73126 212.80624 315.65314Q212.50937 316.575 211.88437 317.09064Q211.275 317.59064 210.32187 317.59064Q209.0875 317.59064 208.36874 316.7Q207.525 315.6375 207.525 313.21564ZM208.60312 313.21564Q208.60312 315.325 209.10312 316.02814Q209.60312 316.73126 210.32187 316.73126Q211.05624 316.73126 211.54062 316.02814Q212.04062 315.325 212.04062 313.21564Q212.04062 311.09064 211.54062 310.40314Q211.05624 309.7 210.30624 309.7Q209.5875 309.7 209.15 310.3094Q208.60312 311.09064 208.60312 313.21564ZM215.0875 317.45L215.0875 316.2469L216.29062 316.2469L216.29062 317.45Q216.29062 318.10626 216.05624 318.5125Q215.82187 318.9344 215.32187 319.15314L215.025 318.7Q215.35312 318.5594 215.50937 318.2625Q215.66562 317.98126 215.69687 317.45L215.0875 317.45ZM217.525 313.21564Q217.525 311.6844 217.8375 310.7625Q218.15 309.825 218.75937 309.325Q219.38437 308.825 220.32187 308.825Q221.00937 308.825 221.525 309.10626Q222.05624 309.3875 222.4 309.91876Q222.74374 310.4344 222.93124 311.1844Q223.11874 311.9344 223.11874 313.21564Q223.11874 314.73126 222.80624 315.65314Q222.50937 316.575 221.88437 317.09064Q221.275 317.59064 220.32187 317.59064Q219.0875 317.59064 218.36874 316.7Q217.525 315.6375 217.525 313.21564ZM218.60312 313.21564Q218.60312 315.325 219.10312 316.02814Q219.60312 316.73126 220.32187 316.73126Q221.05624 316.73126 221.54062 316.02814Q222.04062 315.325 222.04062 313.21564Q222.04062 311.09064 221.54062 310.40314Q221.05624 309.7 220.30624 309.7Q219.5875 309.7 219.15 310.3094Q218.60312 311.09064 218.60312 313.21564ZM224.525 313.21564Q224.525 311.6844 224.8375 310.7625Q225.15 309.825 225.75937 309.325Q226.38437 308.825 227.32187 308.825Q228.00937 308.825 228.525 309.10626Q229.05624 309.3875 229.4 309.91876Q229.74374 310.4344 229.93124 311.1844Q230.11874 311.9344 230.11874 313.21564Q230.11874 314.73126 229.80624 315.65314Q229.50937 316.575 228.88437 317.09064Q228.275 317.59064 227.32187 317.59064Q226.0875 317.59064 225.36874 316.7Q224.525 315.6375 224.525 313.21564ZM225.60312 313.21564Q225.60312 315.325 226.10312 316.02814Q226.60312 316.73126 227.32187 316.73126Q228.05624 316.73126 228.54062 316.02814Q229.04062 315.325 229.04062 313.21564Q229.04062 311.09064 228.54062 310.40314Q228.05624 309.7 227.30624 309.7Q226.5875 309.7 226.15 310.3094Q225.60312 311.09064 225.60312 313.21564Z" fill-rule="nonzero"/><path fill="#000000" d="M305.875 317.45L305.875 315.3875L302.15625 315.3875L302.15625 314.41876L306.07812 308.85626L306.9375 308.85626L306.9375 314.41876L308.09375 314.41876L308.09375 315.3875L306.9375 315.3875L306.9375 317.45L305.875 317.45ZM305.875 314.41876L305.875 310.5594L303.1875 314.41876L305.875 314.41876ZM309.5 313.21564Q309.5 311.6844 309.8125 310.7625Q310.125 309.825 310.73438 309.325Q311.35938 308.825 312.29688 308.825Q312.98438 308.825 313.5 309.10626Q314.03125 309.3875 314.375 309.91876Q314.71875 310.4344 314.90625 311.1844Q315.09375 311.9344 315.09375 313.21564Q315.09375 314.73126 314.78125 315.65314Q314.48438 316.575 313.85938 317.09064Q313.25 317.59064 312.29688 317.59064Q311.0625 317.59064 310.34375 316.7Q309.5 315.6375 309.5 313.21564ZM310.57812 313.21564Q310.57812 315.325 311.07812 316.02814Q311.57812 316.73126 312.29688 316.73126Q313.03125 316.73126 313.51562 316.02814Q314.01562 315.325 314.01562 313.21564Q314.01562 311.09064 313.51562 310.40314Q313.03125 309.7 312.28125 309.7Q311.5625 309.7 311.125 310.3094Q310.57812 311.09064 310.57812 313.21564ZM319.5 313.21564Q319.5 311.6844 319.8125 310.7625Q320.125 309.825 320.73438 309.325Q321.35938 308.825 322.29688 308.825Q322.98438 308.825 323.5 309.10626Q324.03125 309.3875 324.375 309.91876Q324.71875 310.4344 324.90625 311.1844Q325.09375 311.9344 325.09375 313.21564Q325.09375 314.73126 324.78125 315.65314Q324.48438 316.575 323.85938 317.09064Q323.25 317.59064 322.29688 317.59064Q321.0625 317.59064 320.34375 316.7Q319.5 315.6375 319.5 313.21564ZM320.57812 313.21564Q320.57812 315.325 321.07812 316.02814Q321.57812 316.73126 322.29688 316.73126Q323.03125 316.73126 323.51562 316.02814Q324.01562 315.325 324.01562 313.21564Q324.01562 311.09064 323.51562 310.40314Q323.03125 309.7 322.28125 309.7Q321.5625 309.7 321.125 310.3094Q320.57812 311.09064 320.57812 313.21564ZM326.5 313.21564Q326.5 311.6844 326.8125 310.7625Q327.125 309.825 327.73438 309.325Q328.35938 308.825 329.29688 308.825Q329.98438 308.825 330.5 309.10626Q331.03125 309.3875 331.375 309.91876Q331.71875 310.4344 331.90625 311.1844Q332.09375 311.9344 332.09375 313.21564Q332.09375 314.73126 331.78125 315.65314Q331.48438 316.575 330.85938 317.09064Q330.25 317.59064 329.29688 317.59064Q328.0625 317.59064 327.34375 316.7Q326.5 315.6375 326.5 313.21564ZM327.57812 313.21564Q327.57812 315.325 328.07812 316.02814Q328.57812 316.73126 329.29688 316.73126Q330.03125 316.73126 330.51562 316.02814Q331.01562 315.325 331.01562 313.21564Q331.01562 311.09064 330.51562 310.40314Q330.03125 309.7 329.28125 309.7Q328.5625 309.7 328.125 310.3094Q327.57812 311.09064 327.57812 313.21564ZM333.5 313.21564Q333.5 311.6844 333.8125 310.7625Q334.125 309.825 334.73438 309.325Q335.35938 308.825 336.29688 308.825Q336.98438 308.825 337.5 309.10626Q338.03125 309.3875 338.375 309.91876Q338.71875 310.4344 338.90625 311.1844Q339.09375 311.9344 339.09375 313.21564Q339.09375 314.73126 338.78125 315.65314Q338.48438 316.575 337.85938 317.09064Q337.25 317.59064 336.29688 317.59064Q335.0625 317.59064 334.34375 316.7Q333.5 315.6375 333.5 313.21564ZM334.57812 313.21564Q334.57812 315.325 335.07812 316.02814Q335.57812 316.73126 336.29688 316.73126Q337.03125 316.73126 337.51562 316.02814Q338.01562 315.325 338.01562 313.21564Q338.01562 311.09064 337.51562 310.40314Q337.03125 309.7 336.28125 309.7Q335.5625 309.7 335.125 310.3094Q334.57812 311.09064 334.57812 313.21564ZM341.0625 317.45L341.0625 316.2469L342.26562 316.2469L342.26562 317.45Q342.26562 318.10626 342.03125 318.5125Q341.79688 318.9344 341.29688 319.15314L341.0 318.7Q341.32812 318.5594 341.48438 318.2625Q341.64062 317.98126 341.67188 317.45L341.0625 317.45ZM343.5 313.21564Q343.5 311.6844 343.8125 310.7625Q344.125 309.825 344.73438 309.325Q345.35938 308.825 346.29688 308.825Q346.98438 308.825 347.5 309.10626Q348.03125 309.3875 348.375 309.91876Q348.71875 310.4344 348.90625 311.1844Q349.09375 311.9344 349.09375 313.21564Q349.09375 314.73126 348.78125 315.65314Q348.48438 316.575 347.85938 317.09064Q347.25 317.59064 346.29688 317.59064Q345.0625 317.59064 344.34375 316.7Q343.5 315.6375 343.5 313.21564ZM344.57812 313.21564Q344.57812 315.325 345.07812 316.02814Q345.57812 316.73126 346.29688 316.73126Q347.03125 316.73126 347.51562 316.02814Q348.01562 315.325 348.01562 313.21564Q348.01562 311.09064 347.51562 310.40314Q347.03125 309.7 346.28125 309.7Q345.5625 309.7 345.125 310.3094Q344.57812 311.09064 344.57812 313.21564ZM350.5 313.21564Q350.5 311.6844 350.8125 310.7625Q351.125 309.825 351.73438 309.325Q352.35938 308.825 353.29688 308.825Q353.98438 308.825 354.5 309.10626Q355.03125 309.3875 355.375 309.91876Q355.71875 310.4344 355.90625 311.1844Q356.09375 311.9344 356.09375 313.21564Q356.09375 314.73126 355.78125 315.65314Q355.48438 316.575 354.85938 317.09064Q354.25 317.59064 353.29688 317.59064Q352.0625 317.59064 351.34375 316.7Q350.5 315.6375 350.5 313.21564ZM351.57812 313.21564Q351.57812 315.325 352.07812 316.02814Q352.57812 316.73126 353.29688 316.73126Q354.03125 316.73126 354.51562 316.02814Q355.01562 315.325 355.01562 313.21564Q355.01562 311.09064 354.51562 310.40314Q354.03125 309.7 353.28125 309.7Q352.5625 309.7 352.125 310.3094Q351.57812 311.09064 351.57812 313.21564Z" fill-rule="nonzero"/><path fill="#000000" d="M433.94376 310.96564L432.89688 311.04376Q432.75626 310.41876 432.50626 310.1375Q432.06876 309.6844 431.44376 309.6844Q430.94376 309.6844 430.55313 309.96564Q430.06876 310.34064 429.77188 311.04376Q429.49063 311.73126 429.475 313.0125Q429.85 312.4344 430.39688 312.15314Q430.95938 311.8719 431.56876 311.8719Q432.61563 311.8719 433.35 312.65314Q434.1 313.4344 434.1 314.65314Q434.1 315.46564 433.74063 316.16876Q433.39688 316.85626 432.7875 317.23126Q432.17813 317.59064 431.4125 317.59064Q430.08438 317.59064 429.25626 316.6219Q428.42813 315.65314 428.42813 313.4344Q428.42813 310.9344 429.35 309.8094Q430.14688 308.825 431.50626 308.825Q432.52188 308.825 433.1625 309.40314Q433.81876 309.96564 433.94376 310.96564ZM429.64688 314.66876Q429.64688 315.21564 429.86563 315.71564Q430.1 316.2 430.50626 316.46564Q430.92813 316.73126 431.39688 316.73126Q432.05313 316.73126 432.5375 316.2Q433.02188 315.65314 433.02188 314.73126Q433.02188 313.84064 432.5375 313.325Q432.06876 312.8094 431.35 312.8094Q430.63126 312.8094 430.13126 313.325Q429.64688 313.84064 429.64688 314.66876ZM435.475 313.21564Q435.475 311.6844 435.7875 310.7625Q436.1 309.825 436.70938 309.325Q437.33438 308.825 438.27188 308.825Q438.95938 308.825 439.475 309.10626Q440.00626 309.3875 440.35 309.91876Q440.69376 310.4344 440.88126 311.1844Q441.06876 311.9344 441.06876 313.21564Q441.06876 314.73126 440.75626 315.65314Q440.45938 316.575 439.83438 317.09064Q439.225 317.59064 438.27188 317.59064Q437.0375 317.59064 436.31876 316.7Q435.475 315.6375 435.475 313.21564ZM436.55313 313.21564Q436.55313 315.325 437.05313 316.02814Q437.55313 316.73126 438.27188 316.73126Q439.00626 316.73126 439.49063 316.02814Q439.99063 315.325 439.99063 313.21564Q439.99063 311.09064 439.49063 310.40314Q439.00626 309.7 438.25626 309.7Q437.5375 309.7 437.1 310.3094Q436.55313 311.09064 436.55313 313.21564ZM445.475 313.21564Q445.475 311.6844 445.7875 310.7625Q446.1 309.825 446.70938 309.325Q447.33438 308.825 448.27188 308.825Q448.95938 308.825 449.475 309.10626Q450.00626 309.3875 450.35 309.91876Q450.69376 310.4344 450.88126 311.1844Q451.06876 311.9344 451.06876 313.21564Q451.06876 314.73126 450.75626 315.65314Q450.45938 316.575 449.83438 317.09064Q449.225 317.59064 448.27188 317.59064Q447.0375 317.59064 446.31876 316.7Q445.475 315.6375 445.475 313.21564ZM446.55313 313.21564Q446.55313 315.325 447.05313 316.02814Q447.55313 316.73126 448.27188 316.73126Q449.00626 316.73126 449.49063 316.02814Q449.99063 315.325 449.99063 313.21564Q449.99063 311.09064 449.49063 310.40314Q449.00626 309.7 448.25626 309.7Q447.5375 309.7 447.1 310.3094Q446.55313 311.09064 446.55313 313.21564ZM452.475 313.21564Q452.475 311.6844 452.7875 310.7625Q453.1 309.825 453.70938 309.325Q454.33438 308.825 455.27188 308.825Q455.95938 308.825 456.475 309.10626Q457.00626 309.3875 457.35 309.91876Q457.69376 310.4344 457.88126 311.1844Q458.06876 311.9344 458.06876 313.21564Q458.06876 314.73126 457.75626 315.65314Q457.45938 316.575 456.83438 317.09064Q456.225 317.59064 455.27188 317.59064Q454.0375 317.59064 453.31876 316.7Q452.475 315.6375 452.475 313.21564ZM453.55313 313.21564Q453.55313 315.325 454.05313 316.02814Q454.55313 316.73126 455.27188 316.73126Q456.00626 316.73126 456.49063 316.02814Q456.99063 315.325 456.99063 313.21564Q456.99063 311.09064 456.49063 310.40314Q456.00626 309.7 455.25626 309.7Q454.5375 309.7 454.1 310.3094Q453.55313 311.09064 453.55313 313.21564ZM459.475 313.21564Q459.475 311.6844 459.7875 310.7625Q460.1 309.825 460.70938 309.325Q461.33438 308.825 462.27188 308.825Q462.95938 308.825 463.475 309.10626Q464.00626 309.3875 464.35 309.91876Q464.69376 310.4344 464.88126 311.1844Q465.06876 311.9344 465.06876 313.21564Q465.06876 314.73126 464.75626 315.65314Q464.45938 316.575 463.83438 317.09064Q463.225 317.59064 462.27188 317.59064Q461.0375 317.59064 460.31876 316.7Q459.475 315.6375 459.475 313.21564ZM460.55313 313.21564Q460.55313 315.325 461.05313 316.02814Q461.55313 316.73126 462.27188 316.73126Q463.00626 316.73126 463.49063 316.02814Q463.99063 315.325 463.99063 313.21564Q463.99063 311.09064 463.49063 310.40314Q463.00626 309.7 462.25626 309.7Q461.5375 309.7 461.1 310.3094Q460.55313 311.09064 460.55313 313.21564ZM467.0375 317.45L467.0375 316.2469L468.24063 316.2469L468.24063 317.45Q468.24063 318.10626 468.00626 318.5125Q467.77188 318.9344 467.27188 319.15314L466.975 318.7Q467.30313 318.5594 467.45938 318.2625Q467.61563 317.98126 467.64688 317.45L467.0375 317.45ZM469.475 313.21564Q469.475 311.6844 469.7875 310.7625Q470.1 309.825 470.70938 309.325Q471.33438 308.825 472.27188 308.825Q472.95938 308.825 473.475 309.10626Q474.00626 309.3875 474.35 309.91876Q474.69376 310.4344 474.88126 311.1844Q475.06876 311.9344 475.06876 313.21564Q475.06876 314.73126 474.75626 315.65314Q474.45938 316.575 473.83438 317.09064Q473.225 317.59064 472.27188 317.59064Q471.0375 317.59064 470.31876 316.7Q469.475 315.6375 469.475 313.21564ZM470.55313 313.21564Q470.55313 315.325 471.05313 316.02814Q471.55313 316.73126 472.27188 316.73126Q473.00626 316.73126 473.49063 316.02814Q473.99063 315.325 473.99063 313.21564Q473.99063 311.09064 473.49063 310.40314Q473.00626 309.7 472.25626 309.7Q471.5375 309.7 471.1 310.3094Q470.55313 311.09064 470.55313 313.21564ZM476.475 313.21564Q476.475 311.6844 476.7875 310.7625Q477.1 309.825 477.70938 309.325Q478.33438 308.825 479.27188 308.825Q479.95938 308.825 480.475 309.10626Q481.00626 309.3875 481.35 309.91876Q481.69376 310.4344 481.88126 311.1844Q482.06876 311.9344 482.06876 313.21564Q482.06876 314.73126 481.75626 315.65314Q481.45938 316.575 480.83438 317.09064Q480.225 317.59064 479.27188 317.59064Q478.0375 317.59064 477.31876 316.7Q476.475 315.6375 476.475 313.21564ZM477.55313 313.21564Q477.55313 315.325 478.05313 316.02814Q478.55313 316.73126 479.27188 316.73126Q480.00626 316.73126 480.49063 316.02814Q480.99063 315.325 480.99063 313.21564Q480.99063 311.09064 480.49063 310.40314Q480.00626 309.7 479.25626 309.7Q478.5375 309.7 478.1 310.3094Q477.55313 311.09064 477.55313 313.21564Z" fill-rule="nonzero"/><path fill="#757575" d="M20.409374 37.55L20.409374 23.2375L22.315624 23.2375L22.315624 37.55L20.409374 37.55ZM25.51875 30.58125Q25.51875 27.01875 27.425 25.003124Q29.346874 22.971874 32.378124 22.971874Q34.3625 22.971874 35.940624 23.925Q37.534374 24.878124 38.3625 26.58125Q39.20625 28.26875 39.20625 30.409374Q39.20625 32.58125 38.33125 34.3Q37.45625 36.01875 35.83125 36.909374Q34.221874 37.8 32.3625 37.8Q30.346874 37.8 28.753124 36.83125Q27.159374 35.846874 26.33125 34.159374Q25.51875 32.45625 25.51875 30.58125ZM27.471874 30.6125Q27.471874 33.190624 28.8625 34.690624Q30.253124 36.175 32.346874 36.175Q34.4875 36.175 35.8625 34.675Q37.253124 33.159374 37.253124 30.39375Q37.253124 28.659374 36.659374 27.3625Q36.08125 26.05 34.940624 25.33125Q33.8 24.6125 32.378124 24.6125Q30.378124 24.6125 28.925 26.003124Q27.471874 27.378124 27.471874 30.6125ZM50.596874 37.55L46.8 23.2375L48.7375 23.2375L50.909374 32.6125Q51.26875 34.096874 51.51875 35.55Q52.065624 33.253124 52.159374 32.89375L54.89375 23.2375L57.175 23.2375L59.221874 30.471874Q60.003124 33.175 60.346874 35.55Q60.6125 34.190624 61.05 32.425L63.3 23.2375L65.20625 23.2375L61.284374 37.55L59.45625 37.55L56.440624 26.64375Q56.05 25.26875 55.9875 24.95625Q55.753124 25.940624 55.565624 26.64375L52.534374 37.55L50.596874 37.55ZM66.84688 37.55L66.84688 27.175L68.425 27.175L68.425 28.753124Q69.03438 27.64375 69.55 27.3Q70.06563 26.940624 70.675 26.940624Q71.56563 26.940624 72.4875 27.503124L71.87813 29.14375Q71.2375 28.753124 70.59688 28.753124Q70.01875 28.753124 69.55 29.1125Q69.09688 29.45625 68.89375 30.065624Q68.6125 31.003124 68.6125 32.1125L68.6125 37.55L66.84688 37.55ZM73.87813 25.253124L73.87813 23.2375L75.64375 23.2375L75.64375 25.253124L73.87813 25.253124ZM73.87813 37.55L73.87813 27.175L75.64375 27.175L75.64375 37.55L73.87813 37.55ZM81.70625 35.971874L81.95625 37.534374Q81.22188 37.690624 80.62813 37.690624Q79.675 37.690624 79.14375 37.39375Q78.62813 37.08125 78.40938 36.596874Q78.19063 36.096874 78.19063 34.51875L78.19063 28.55L76.90938 28.55L76.90938 27.175L78.19063 27.175L78.19063 24.6125L79.94063 23.55L79.94063 27.175L81.70625 27.175L81.70625 28.55L79.94063 28.55L79.94063 34.6125Q79.94063 35.3625 80.03438 35.58125Q80.12813 35.784374 80.33125 35.925Q80.55 36.05 80.94063 36.05Q81.22188 36.05 81.70625 35.971874ZM87.70625 35.971874L87.95625 37.534374Q87.22188 37.690624 86.62813 37.690624Q85.675 37.690624 85.14375 37.39375Q84.62813 37.08125 84.40938 36.596874Q84.19063 36.096874 84.19063 34.51875L84.19063 28.55L82.90938 28.55L82.90938 27.175L84.19063 27.175L84.19063 24.6125L85.94063 23.55L85.94063 27.175L87.70625 27.175L87.70625 28.55L85.94063 28.55L85.94063 34.6125Q85.94063 35.3625 86.03438 35.58125Q86.12813 35.784374 86.33125 35.925Q86.55 36.05 86.94063 36.05Q87.22188 36.05 87.70625 35.971874ZM96.97188 34.20625L98.78438 34.440624Q98.3625 36.01875 97.19063 36.909374Q96.03438 37.784374 94.22188 37.784374Q91.95625 37.784374 90.6125 36.39375Q89.28438 34.9875 89.28438 32.45625Q89.28438 29.83125 90.62813 28.39375Q91.97188 26.940624 94.12813 26.940624Q96.20625 26.940624 97.51875 28.3625Q98.84688 29.76875 98.84688 32.346874Q98.84688 32.503124 98.83125 32.815624L91.09688 32.815624Q91.19063 34.51875 92.06563 35.425Q92.94063 36.33125 94.2375 36.33125Q95.20625 36.33125 95.87813 35.83125Q96.56563 35.315624 96.97188 34.20625ZM91.19063 31.3625L96.9875 31.3625Q96.87813 30.065624 96.33125 29.409374Q95.4875 28.39375 94.14375 28.39375Q92.94063 28.39375 92.1125 29.20625Q91.28438 30.003124 91.19063 31.3625ZM100.8625 37.55L100.8625 27.175L102.45625 27.175L102.45625 28.659374Q103.59688 26.940624 105.75313 26.940624Q106.69063 26.940624 107.47188 27.284374Q108.26875 27.6125 108.65938 28.159374Q109.05 28.70625 109.20625 29.45625Q109.3 29.95625 109.3 31.175L109.3 37.55L107.53438 37.55L107.53438 31.2375Q107.53438 30.159374 107.33125 29.628124Q107.12813 29.096874 106.59688 28.784374Q106.08125 28.471874 105.37813 28.471874Q104.25313 28.471874 103.44063 29.190624Q102.62813 29.89375 102.62813 31.878124L102.62813 37.55L100.8625 37.55ZM120.22188 41.753124Q118.76875 39.925 117.76875 37.471874Q116.76875 35.003124 116.76875 32.3625Q116.76875 30.034374 117.51875 27.909374Q118.39375 25.440624 120.22188 22.9875L121.4875 22.9875Q120.3 25.01875 119.925 25.89375Q119.33125 27.2375 118.9875 28.70625Q118.56563 30.534374 118.56563 32.378124Q118.56563 37.065624 121.4875 41.753124L120.22188 41.753124ZM124.03438 37.55L124.03438 23.2375L126.89375 23.2375L130.26875 33.3625Q130.7375 34.784374 130.95625 35.4875Q131.20625 34.70625 131.72188 33.190624L135.14375 23.2375L137.69063 23.2375L137.69063 37.55L135.87813 37.55L135.87813 25.565624L131.70625 37.55L130.00313 37.55L125.8625 25.3625L125.8625 37.55L124.03438 37.55ZM140.87813 25.253124L140.87813 23.2375L142.64375 23.2375L142.64375 25.253124L140.87813 25.253124ZM140.87813 37.55L140.87813 27.175L142.64375 27.175L142.64375 37.55L140.87813 37.55ZM145.01875 37.55L145.01875 23.2375L150.39375 23.2375Q152.03438 23.2375 153.01875 23.675Q154.00313 24.096874 154.56563 25.003124Q155.12813 25.909374 155.12813 26.89375Q155.12813 27.815624 154.62813 28.628124Q154.14375 29.440624 153.12813 29.925Q154.425 30.315624 155.12813 31.2375Q155.83125 32.14375 155.83125 33.39375Q155.83125 34.409374 155.39375 35.26875Q154.97188 36.128124 154.34688 36.596874Q153.72188 37.065624 152.78438 37.315624Q151.84688 37.55 150.47188 37.55L145.01875 37.55ZM146.90938 29.253124L150.00313 29.253124Q151.26875 29.253124 151.81563 29.08125Q152.53438 28.8625 152.89375 28.378124Q153.26875 27.878124 153.26875 27.1125Q153.26875 26.409374 152.925 25.8625Q152.58125 25.315624 151.94063 25.128124Q151.31563 24.925 149.76875 24.925L146.90938 24.925L146.90938 29.253124ZM146.90938 35.8625L150.47188 35.8625Q151.39375 35.8625 151.76875 35.784374Q152.425 35.675 152.8625 35.409374Q153.3 35.128124 153.58125 34.6125Q153.8625 34.08125 153.8625 33.39375Q153.8625 32.596874 153.45625 32.003124Q153.05 31.409374 152.31563 31.175Q151.58125 30.940624 150.22188 30.940624L146.90938 30.940624L146.90938 35.8625ZM159.01875 41.753124L157.76875 41.753124Q160.675 37.065624 160.675 32.378124Q160.675 30.534374 160.26875 28.7375Q159.925 27.26875 159.33125 25.925Q158.95625 25.034374 157.76875 22.9875L159.01875 22.9875Q160.8625 25.440624 161.7375 27.909374Q162.4875 30.034374 162.4875 32.3625Q162.4875 35.003124 161.47188 37.471874Q160.47188 39.925 159.01875 41.753124Z" fill-rule="nonzero"/></svg>