<svg version="1.1" viewBox="0.0 0.0 600.0 371.0" fill="none" stroke="none" stroke-linecap="square" stroke-miterlimit="10" width="600" height="371" xmlns:xlink="http://www.w3.org/1999/xlink" xmlns="http://www.w3.org/2000/svg"><path fill="#ffffff" d="M0 0L600.0 0L600.0 371.0L0 371.0L0 0Z" fill-rule="nonzero"/><path stroke="#333333" stroke-width="1.0" stroke-linecap="butt" d="M77.5 54.5L77.5 300.5" fill-rule="nonzero"/><path stroke="#cccccc" stroke-width="1.0" stroke-linecap="butt" d="M178.5 54.5L178.5 300.5" fill-rule="nonzero"/><path stroke="#cccccc" stroke-width="1.0" stroke-linecap="butt" d="M279.5 54.5L279.5 300.5" fill-rule="nonzero"/><path stroke="#cccccc" stroke-width="1.0" stroke-linecap="butt" d="M379.5 54.5L379.5 300.5" fill-rule="nonzero"/><path stroke="#cccccc" stroke-width="1.0" stroke-linecap="butt" d="M480.5 54.5L480.5 300.5" fill-rule="nonzero"/><path stroke="#cccccc" stroke-width="1.0" stroke-linecap="butt" d="M581.5 54.5L581.5 300.5" fill-rule="nonzero"/><clipPath id="id_0"><path d="M77.55 54.916668L581.45 54.916668L581.45 300.45L77.55 300.45L77.55 54.916668Z" clip-rule="nonzero"/></clipPath><path stroke="#000000" stroke-width="2.0" stroke-linecap="butt" stroke-opacity="0.0" clip-path="url(#id_0)" d="M78.0 112.0L78.0 75.0L563.0 75.0C564.10455 75.0 565.0 75.89543 565.0 77.0L565.0 110.0C565.0 111.10457 564.10455 112.0 563.0 112.0Z" fill-rule="nonzero"/><path fill="#4285f4" clip-path="url(#id_0)" d="M78.0 112.0L78.0 75.0L563.0 75.0C564.10455 75.0 565.0 75.89543 565.0 77.0L565.0 110.0C565.0 111.10457 564.10455 112.0 563.0 112.0Z" fill-rule="nonzero"/><path stroke="#000000" stroke-width="2.0" stroke-linecap="butt" stroke-opacity="0.0" clip-path="url(#id_0)" d="M78.0 168.0L78.0 131.0L448.0 131.0C449.10458 131.0 450.0 131.89543 450.0 133.0L450.0 166.0C450.0 167.10457 449.10458 168.0 448.0 168.0Z" fill-rule="nonzero"/><path fill="#4285f4" clip-path="url(#id_0)" d="M78.0 168.0L78.0 131.0L448.0 131.0C449.10458 131.0 450.0 131.89543 450.0 133.0L450.0 166.0C450.0 167.10457 449.10458 168.0 448.0 168.0Z" fill-rule="nonzero"/><path stroke="#000000" stroke-width="2.0" stroke-linecap="butt" stroke-opacity="0.0" clip-path="url(#id_0)" d="M78.0 225.0L78.0 188.0L423.0 188.0C424.10458 188.0 425.0 188.89543 425.0 190.0L425.0 223.0C425.0 224.10457 424.10458 225.0 423.0 225.0Z" fill-rule="nonzero"/><path fill="#4285f4" clip-path="url(#id_0)" d="M78.0 225.0L78.0 188.0L423.0 188.0C424.10458 188.0 425.0 188.89543 425.0 190.0L425.0 223.0C425.0 224.10457 424.10458 225.0 423.0 225.0Z" fill-rule="nonzero"/><path stroke="#000000" stroke-width="2.0" stroke-linecap="butt" stroke-opacity="0.0" clip-path="url(#id_0)" d="M78.0 281.0L78.0 244.0L443.0 244.0C444.10458 244.0 445.0 244.89543 445.0 246.0L445.0 279.0C445.0 280.10458 444.10458 281.0 443.0 281.0Z" fill-rule="nonzero"/><path fill="#4285f4" clip-path="url(#id_0)" d="M78.0 281.0L78.0 244.0L443.0 244.0C444.10458 244.0 445.0 244.89543 445.0 246.0L445.0 279.0C445.0 280.10458 444.10458 281.0 443.0 281.0Z" fill-rule="nonzero"/><path stroke="#4285f4" stroke-width="3.0" stroke-linejoin="round" stroke-linecap="round" d="M517.5297 97.5L516.4516 97.5L516.4516 90.28125L514.2641 91.078125L514.2641 90.09375L517.3735 88.921875L517.5297 88.921875L517.5297 97.5ZM529.561 97.5L523.9672 97.5L523.9672 96.71875L526.92035 93.4375Q527.5766 92.6875 527.8266 92.234375Q528.0766 91.765625 528.0766 91.265625Q528.0766 90.59375 527.67035 90.171875Q527.2797 89.734375 526.5922 89.734375Q525.79535 89.734375 525.3422 90.203125Q524.8891 90.65625 524.8891 91.484375L523.811 91.484375Q523.811 90.296875 524.561 89.578125Q525.3266 88.84375 526.5922 88.84375Q527.79535 88.84375 528.48285 89.46875Q529.17035 90.09375 529.17035 91.140625Q529.17035 92.390625 527.561 94.140625L525.2797 96.609375L529.561 96.609375L529.561 97.5ZM536.3266 93.859375Q536.3266 95.765625 535.67035 96.703125Q535.0297 97.625 533.6391 97.625Q532.2797 97.625 531.6235 96.71875Q530.9672 95.8125 530.936 94.0L530.936 92.5625Q530.936 90.671875 531.5766 89.765625Q532.23285 88.84375 533.6235 88.84375Q534.9985 88.84375 535.6547 89.734375Q536.311 90.609375 536.3266 92.453125L536.3266 93.859375ZM535.23285 92.375Q535.23285 91.0 534.8422 90.375Q534.4672 89.734375 533.6235 89.734375Q532.79535 89.734375 532.4047 90.375Q532.0297 91.0 532.0297 92.296875L532.0297 94.03125Q532.0297 95.40625 532.42035 96.078125Q532.8266 96.734375 533.6391 96.734375Q534.436 96.734375 534.8266 96.109375Q535.2172 95.484375 535.23285 94.15625L535.23285 92.375ZM542.1235 93.75Q541.79535 94.15625 541.311 94.40625Q540.8422 94.640625 540.2797 94.640625Q539.54535 94.640625 538.9985 94.28125Q538.4516 93.921875 538.1547 93.265625Q537.85785 92.59375 537.85785 91.796875Q537.85785 90.953125 538.17035 90.265625Q538.4985 89.578125 539.0922 89.21875Q539.7016 88.84375 540.4985 88.84375Q541.7641 88.84375 542.48285 89.796875Q543.2172 90.75 543.2172 92.375L543.2172 92.6875Q543.2172 95.1875 542.23285 96.328125Q541.2485 97.46875 539.2641 97.5L539.04535 97.5L539.04535 96.59375L539.2797 96.59375Q540.6235 96.5625 541.3422 95.890625Q542.061 95.21875 542.1235 93.75ZM540.4516 93.75Q540.9985 93.75 541.4516 93.421875Q541.92035 93.078125 542.1391 92.59375L542.1391 92.15625Q542.1391 91.09375 541.67035 90.421875Q541.2016 89.75 540.4985 89.75Q539.7797 89.75 539.3422 90.296875Q538.92035 90.84375 538.92035 91.75Q538.92035 92.625 539.3266 93.1875Q539.7485 93.75 540.4516 93.75ZM545.04535 99.203125L544.436 98.78125Q544.98285 98.015625 545.0141 97.1875L545.0141 96.21875L546.0766 96.21875L546.0766 97.0625Q546.0766 97.65625 545.7797 98.25Q545.48285 98.84375 545.04535 99.203125ZM548.54535 92.703125L549.35785 92.703125Q550.1391 92.6875 550.5766 92.296875Q551.0141 91.90625 551.0141 91.234375Q551.0141 89.734375 549.5141 89.734375Q548.811 89.734375 548.3891 90.140625Q547.98285 90.546875 547.98285 91.203125L546.8891 91.203125Q546.8891 90.1875 547.6235 89.515625Q548.3735 88.84375 549.5141 88.84375Q550.7172 88.84375 551.4047 89.484375Q552.0922 90.125 552.0922 91.265625Q552.0922 91.828125 551.73285 92.34375Q551.3735 92.859375 550.7485 93.125Q551.4516 93.34375 551.8266 93.859375Q552.2172 94.375 552.2172 95.125Q552.2172 96.265625 551.4672 96.953125Q550.7172 97.625 549.5141 97.625Q548.3266 97.625 547.561 96.96875Q546.811 96.3125 546.811 95.25L547.9047 95.25Q547.9047 95.921875 548.3422 96.328125Q548.7797 96.734375 549.5297 96.734375Q550.311 96.734375 550.7172 96.328125Q551.1391 95.90625 551.1391 95.140625Q551.1391 94.40625 550.686 94.015625Q550.23285 93.609375 549.35785 93.59375L548.54535 93.59375L548.54535 92.703125ZM554.4672 93.21875L554.9047 88.96875L559.2797 88.96875L559.2797 89.96875L555.8266 89.96875L555.561 92.296875Q556.2016 91.921875 556.9985 91.921875Q558.1547 91.921875 558.8422 92.703125Q559.5297 93.46875 559.5297 94.78125Q559.5297 96.09375 558.811 96.859375Q558.10785 97.625 556.8266 97.625Q555.7016 97.625 554.98285 97.0Q554.2641 96.359375 554.17035 95.25L555.186 95.25Q555.29535 95.984375 555.7172 96.359375Q556.1391 96.734375 556.8266 96.734375Q557.5766 96.734375 558.0141 96.21875Q558.4516 95.703125 558.4516 94.796875Q558.4516 93.9375 557.98285 93.421875Q557.5141 92.90625 556.73285 92.90625Q556.0297 92.90625 555.6235 93.203125L555.3422 93.4375L554.4672 93.21875Z" fill-rule="nonzero"/><path fill="#ffffff" d="M517.5297 97.5L516.4516 97.5L516.4516 90.28125L514.2641 91.078125L514.2641 90.09375L517.3735 88.921875L517.5297 88.921875L517.5297 97.5ZM529.561 97.5L523.9672 97.5L523.9672 96.71875L526.92035 93.4375Q527.5766 92.6875 527.8266 92.234375Q528.0766 91.765625 528.0766 91.265625Q528.0766 90.59375 527.67035 90.171875Q527.2797 89.734375 526.5922 89.734375Q525.79535 89.734375 525.3422 90.203125Q524.8891 90.65625 524.8891 91.484375L523.811 91.484375Q523.811 90.296875 524.561 89.578125Q525.3266 88.84375 526.5922 88.84375Q527.79535 88.84375 528.48285 89.46875Q529.17035 90.09375 529.17035 91.140625Q529.17035 92.390625 527.561 94.140625L525.2797 96.609375L529.561 96.609375L529.561 97.5ZM536.3266 93.859375Q536.3266 95.765625 535.67035 96.703125Q535.0297 97.625 533.6391 97.625Q532.2797 97.625 531.6235 96.71875Q530.9672 95.8125 530.936 94.0L530.936 92.5625Q530.936 90.671875 531.5766 89.765625Q532.23285 88.84375 533.6235 88.84375Q534.9985 88.84375 535.6547 89.734375Q536.311 90.609375 536.3266 92.453125L536.3266 93.859375ZM535.23285 92.375Q535.23285 91.0 534.8422 90.375Q534.4672 89.734375 533.6235 89.734375Q532.79535 89.734375 532.4047 90.375Q532.0297 91.0 532.0297 92.296875L532.0297 94.03125Q532.0297 95.40625 532.42035 96.078125Q532.8266 96.734375 533.6391 96.734375Q534.436 96.734375 534.8266 96.109375Q535.2172 95.484375 535.23285 94.15625L535.23285 92.375ZM542.1235 93.75Q541.79535 94.15625 541.311 94.40625Q540.8422 94.640625 540.2797 94.640625Q539.54535 94.640625 538.9985 94.28125Q538.4516 93.921875 538.1547 93.265625Q537.85785 92.59375 537.85785 91.796875Q537.85785 90.953125 538.17035 90.265625Q538.4985 89.578125 539.0922 89.21875Q539.7016 88.84375 540.4985 88.84375Q541.7641 88.84375 542.48285 89.796875Q543.2172 90.75 543.2172 92.375L543.2172 92.6875Q543.2172 95.1875 542.23285 96.328125Q541.2485 97.46875 539.2641 97.5L539.04535 97.5L539.04535 96.59375L539.2797 96.59375Q540.6235 96.5625 541.3422 95.890625Q542.061 95.21875 542.1235 93.75ZM540.4516 93.75Q540.9985 93.75 541.4516 93.421875Q541.92035 93.078125 542.1391 92.59375L542.1391 92.15625Q542.1391 91.09375 541.67035 90.421875Q541.2016 89.75 540.4985 89.75Q539.7797 89.75 539.3422 90.296875Q538.92035 90.84375 538.92035 91.75Q538.92035 92.625 539.3266 93.1875Q539.7485 93.75 540.4516 93.75ZM545.04535 99.203125L544.436 98.78125Q544.98285 98.015625 545.0141 97.1875L545.0141 96.21875L546.0766 96.21875L546.0766 97.0625Q546.0766 97.65625 545.7797 98.25Q545.48285 98.84375 545.04535 99.203125ZM548.54535 92.703125L549.35785 92.703125Q550.1391 92.6875 550.5766 92.296875Q551.0141 91.90625 551.0141 91.234375Q551.0141 89.734375 549.5141 89.734375Q548.811 89.734375 548.3891 90.140625Q547.98285 90.546875 547.98285 91.203125L546.8891 91.203125Q546.8891 90.1875 547.6235 89.515625Q548.3735 88.84375 549.5141 88.84375Q550.7172 88.84375 551.4047 89.484375Q552.0922 90.125 552.0922 91.265625Q552.0922 91.828125 551.73285 92.34375Q551.3735 92.859375 550.7485 93.125Q551.4516 93.34375 551.8266 93.859375Q552.2172 94.375 552.2172 95.125Q552.2172 96.265625 551.4672 96.953125Q550.7172 97.625 549.5141 97.625Q548.3266 97.625 547.561 96.96875Q546.811 96.3125 546.811 95.25L547.9047 95.25Q547.9047 95.921875 548.3422 96.328125Q548.7797 96.734375 549.5297 96.734375Q550.311 96.734375 550.7172 96.328125Q551.1391 95.90625 551.1391 95.140625Q551.1391 94.40625 550.686 94.015625Q550.23285 93.609375 549.35785 93.59375L548.54535 93.59375L548.54535 92.703125ZM554.4672 93.21875L554.9047 88.96875L559.2797 88.96875L559.2797 89.96875L555.8266 89.96875L555.561 92.296875Q556.2016 91.921875 556.9985 91.921875Q558.1547 91.921875 558.8422 92.703125Q559.5297 93.46875 559.5297 94.78125Q559.5297 96.09375 558.811 96.859375Q558.10785 97.625 556.8266 97.625Q555.7016 97.625 554.98285 97.0Q554.2641 96.359375 554.17035 95.25L555.186 95.25Q555.29535 95.984375 555.7172 96.359375Q556.1391 96.734375 556.8266 96.734375Q557.5766 96.734375 558.0141 96.21875Q558.4516 95.703125 558.4516 94.796875Q558.4516 93.9375 557.98285 93.421875Q557.5141 92.90625 556.73285 92.90625Q556.0297 92.90625 555.6235 93.203125L555.3422 93.4375L554.4672 93.21875Z" fill-rule="nonzero"/><path stroke="#4285f4" stroke-width="3.0" stroke-linejoin="round" stroke-linecap="round" d="M413.26138 149.75Q412.93326 150.15625 412.44888 150.40625Q411.98013 150.64062 411.41763 150.64062Q410.68326 150.64062 410.13638 150.28125Q409.5895 149.92188 409.29263 149.26562Q408.99576 148.59375 408.99576 147.79688Q408.99576 146.95312 409.30826 146.26562Q409.63638 145.57812 410.23013 145.21875Q410.8395 144.84375 411.63638 144.84375Q412.902 144.84375 413.62076 145.79688Q414.35513 146.75 414.35513 148.375L414.35513 148.6875Q414.35513 151.1875 413.37076 152.32812Q412.38638 153.46875 410.402 153.5L410.18326 153.5L410.18326 152.59375L410.41763 152.59375Q411.76138 152.5625 412.48013 151.89062Q413.19888 151.21875 413.26138 149.75ZM411.5895 149.75Q412.13638 149.75 412.5895 149.42188Q413.05826 149.07812 413.277 148.59375L413.277 148.15625Q413.277 147.09375 412.80826 146.42188Q412.3395 145.75 411.63638 145.75Q410.91763 145.75 410.48013 146.29688Q410.05826 146.84375 410.05826 147.75Q410.05826 148.625 410.4645 149.1875Q410.88638 149.75 411.5895 149.75ZM421.69888 153.5L416.10513 153.5L416.10513 152.71875L419.05826 149.4375Q419.7145 148.6875 419.9645 148.23438Q420.2145 147.76562 420.2145 147.26562Q420.2145 146.59375 419.80826 146.17188Q419.41763 145.73438 418.73013 145.73438Q417.93326 145.73438 417.48013 146.20312Q417.027 146.65625 417.027 147.48438L415.94888 147.48438Q415.94888 146.29688 416.69888 145.57812Q417.4645 144.84375 418.73013 144.84375Q419.93326 144.84375 420.62076 145.46875Q421.30826 146.09375 421.30826 147.14062Q421.30826 148.39062 419.69888 150.14062L417.41763 152.60938L421.69888 152.60938L421.69888 153.5ZM427.68326 150.64062L428.87076 150.64062L428.87076 151.51562L427.68326 151.51562L427.68326 153.5L426.60513 153.5L426.60513 151.51562L422.7145 151.51562L422.7145 150.875L426.527 144.96875L427.68326 144.96875L427.68326 150.64062ZM423.94888 150.64062L426.60513 150.64062L426.60513 146.45312L426.4645 146.6875L423.94888 150.64062ZM430.18326 155.20312L429.57388 154.78125Q430.12076 154.01562 430.152 153.1875L430.152 152.21875L431.2145 152.21875L431.2145 153.0625Q431.2145 153.65625 430.91763 154.25Q430.62076 154.84375 430.18326 155.20312ZM436.68326 150.64062L437.87076 150.64062L437.87076 151.51562L436.68326 151.51562L436.68326 153.5L435.60513 153.5L435.60513 151.51562L431.7145 151.51562L431.7145 150.875L435.527 144.96875L436.68326 144.96875L436.68326 150.64062ZM432.94888 150.64062L435.60513 150.64062L435.60513 146.45312L435.4645 146.6875L432.94888 150.64062ZM444.69888 153.5L439.10513 153.5L439.10513 152.71875L442.05826 149.4375Q442.7145 148.6875 442.9645 148.23438Q443.2145 147.76562 443.2145 147.26562Q443.2145 146.59375 442.80826 146.17188Q442.41763 145.73438 441.73013 145.73438Q440.93326 145.73438 440.48013 146.20312Q440.027 146.65625 440.027 147.48438L438.94888 147.48438Q438.94888 146.29688 439.69888 145.57812Q440.4645 144.84375 441.73013 144.84375Q442.93326 144.84375 443.62076 145.46875Q444.30826 146.09375 444.30826 147.14062Q444.30826 148.39062 442.69888 150.14062L440.41763 152.60938L444.69888 152.60938L444.69888 153.5Z" fill-rule="nonzero"/><path fill="#ffffff" d="M413.26138 149.75Q412.93326 150.15625 412.44888 150.40625Q411.98013 150.64062 411.41763 150.64062Q410.68326 150.64062 410.13638 150.28125Q409.5895 149.92188 409.29263 149.26562Q408.99576 148.59375 408.99576 147.79688Q408.99576 146.95312 409.30826 146.26562Q409.63638 145.57812 410.23013 145.21875Q410.8395 144.84375 411.63638 144.84375Q412.902 144.84375 413.62076 145.79688Q414.35513 146.75 414.35513 148.375L414.35513 148.6875Q414.35513 151.1875 413.37076 152.32812Q412.38638 153.46875 410.402 153.5L410.18326 153.5L410.18326 152.59375L410.41763 152.59375Q411.76138 152.5625 412.48013 151.89062Q413.19888 151.21875 413.26138 149.75ZM411.5895 149.75Q412.13638 149.75 412.5895 149.42188Q413.05826 149.07812 413.277 148.59375L413.277 148.15625Q413.277 147.09375 412.80826 146.42188Q412.3395 145.75 411.63638 145.75Q410.91763 145.75 410.48013 146.29688Q410.05826 146.84375 410.05826 147.75Q410.05826 148.625 410.4645 149.1875Q410.88638 149.75 411.5895 149.75ZM421.69888 153.5L416.10513 153.5L416.10513 152.71875L419.05826 149.4375Q419.7145 148.6875 419.9645 148.23438Q420.2145 147.76562 420.2145 147.26562Q420.2145 146.59375 419.80826 146.17188Q419.41763 145.73438 418.73013 145.73438Q417.93326 145.73438 417.48013 146.20312Q417.027 146.65625 417.027 147.48438L415.94888 147.48438Q415.94888 146.29688 416.69888 145.57812Q417.4645 144.84375 418.73013 144.84375Q419.93326 144.84375 420.62076 145.46875Q421.30826 146.09375 421.30826 147.14062Q421.30826 148.39062 419.69888 150.14062L417.41763 152.60938L421.69888 152.60938L421.69888 153.5ZM427.68326 150.64062L428.87076 150.64062L428.87076 151.51562L427.68326 151.51562L427.68326 153.5L426.60513 153.5L426.60513 151.51562L422.7145 151.51562L422.7145 150.875L426.527 144.96875L427.68326 144.96875L427.68326 150.64062ZM423.94888 150.64062L426.60513 150.64062L426.60513 146.45312L426.4645 146.6875L423.94888 150.64062ZM430.18326 155.20312L429.57388 154.78125Q430.12076 154.01562 430.152 153.1875L430.152 152.21875L431.2145 152.21875L431.2145 153.0625Q431.2145 153.65625 430.91763 154.25Q430.62076 154.84375 430.18326 155.20312ZM436.68326 150.64062L437.87076 150.64062L437.87076 151.51562L436.68326 151.51562L436.68326 153.5L435.60513 153.5L435.60513 151.51562L431.7145 151.51562L431.7145 150.875L435.527 144.96875L436.68326 144.96875L436.68326 150.64062ZM432.94888 150.64062L435.60513 150.64062L435.60513 146.45312L435.4645 146.6875L432.94888 150.64062ZM444.69888 153.5L439.10513 153.5L439.10513 152.71875L442.05826 149.4375Q442.7145 148.6875 442.9645 148.23438Q443.2145 147.76562 443.2145 147.26562Q443.2145 146.59375 442.80826 146.17188Q442.41763 145.73438 441.73013 145.73438Q440.93326 145.73438 440.48013 146.20312Q440.027 146.65625 440.027 147.48438L438.94888 147.48438Q438.94888 146.29688 439.69888 145.57812Q440.4645 144.84375 441.73013 144.84375Q442.93326 144.84375 443.62076 145.46875Q444.30826 146.09375 444.30826 147.14062Q444.30826 148.39062 442.69888 150.14062L440.41763 152.60938L444.69888 152.60938L444.69888 153.5Z" fill-rule="nonzero"/><path stroke="#4285f4" stroke-width="3.0" stroke-linejoin="round" stroke-linecap="round" d="M388.7226 204.1875Q388.7226 204.82812 388.37885 205.32812Q388.0351 205.82812 387.4726 206.10938Q388.12885 206.39062 388.51947 206.95312Q388.9101 207.5 388.9101 208.20312Q388.9101 209.29688 388.1601 209.96875Q387.42572 210.625 386.20697 210.625Q384.9726 210.625 384.2226 209.96875Q383.48822 209.29688 383.48822 208.20312Q383.48822 207.5 383.86322 206.95312Q384.23822 206.39062 384.9101 206.10938Q384.3476 205.82812 384.01947 205.32812Q383.69135 204.82812 383.69135 204.1875Q383.69135 203.10938 384.37885 202.48438Q385.06635 201.84375 386.20697 201.84375Q387.33197 201.84375 388.01947 202.48438Q388.7226 203.10938 388.7226 204.1875ZM387.83197 208.17188Q387.83197 207.45312 387.37885 207.01562Q386.92572 206.5625 386.19135 206.5625Q385.45697 206.5625 385.00385 207.01562Q384.56635 207.45312 384.56635 208.1875Q384.56635 208.90625 385.00385 209.32812Q385.44135 209.73438 386.20697 209.73438Q386.95697 209.73438 387.39447 209.3125Q387.83197 208.89062 387.83197 208.17188ZM386.20697 202.73438Q385.56635 202.73438 385.1601 203.14062Q384.76947 203.53125 384.76947 204.21875Q384.76947 204.85938 385.1601 205.26562Q385.55072 205.67188 386.19135 205.67188Q386.8476 205.67188 387.23822 205.26562Q387.62885 204.85938 387.62885 204.21875Q387.62885 203.5625 387.2226 203.15625Q386.81635 202.73438 386.20697 202.73438ZM394.80072 201.96875L394.80072 202.875L394.5976 202.875Q393.33197 202.90625 392.58197 203.64062Q391.83197 204.35938 391.70697 205.67188Q392.39447 204.90625 393.55072 204.90625Q394.6601 204.90625 395.33197 205.6875Q396.00385 206.46875 396.00385 207.71875Q396.00385 209.03125 395.2851 209.82812Q394.56635 210.625 393.3476 210.625Q392.12885 210.625 391.36322 209.6875Q390.61322 208.73438 390.61322 207.25L390.61322 206.84375Q390.61322 204.48438 391.61322 203.23438Q392.61322 201.98438 394.5976 201.96875L394.80072 201.96875ZM393.37885 205.8125Q392.81635 205.8125 392.3476 206.14062Q391.87885 206.46875 391.69135 206.98438L391.69135 207.375Q391.69135 208.4375 392.1601 209.07812Q392.64447 209.71875 393.3476 209.71875Q394.08197 209.71875 394.50385 209.1875Q394.92572 208.64062 394.92572 207.76562Q394.92572 206.89062 394.50385 206.35938Q394.08197 205.8125 393.37885 205.8125ZM402.89447 206.85938Q402.89447 208.76562 402.23822 209.70312Q401.5976 210.625 400.20697 210.625Q398.8476 210.625 398.19135 209.71875Q397.5351 208.8125 397.50385 207.0L397.50385 205.5625Q397.50385 203.67188 398.14447 202.76562Q398.80072 201.84375 400.19135 201.84375Q401.56635 201.84375 402.2226 202.73438Q402.87885 203.60938 402.89447 205.45312L402.89447 206.85938ZM401.80072 205.375Q401.80072 204.0 401.4101 203.375Q401.0351 202.73438 400.19135 202.73438Q399.36322 202.73438 398.9726 203.375Q398.5976 204.0 398.5976 205.29688L398.5976 207.03125Q398.5976 208.40625 398.98822 209.07812Q399.39447 209.73438 400.20697 209.73438Q401.00385 209.73438 401.39447 209.10938Q401.7851 208.48438 401.80072 207.15625L401.80072 205.375ZM404.61322 212.20312L404.00385 211.78125Q404.55072 211.01562 404.58197 210.1875L404.58197 209.21875L405.64447 209.21875L405.64447 210.0625Q405.64447 210.65625 405.3476 211.25Q405.05072 211.84375 404.61322 212.20312ZM410.69135 206.75Q410.36322 207.15625 409.87885 207.40625Q409.4101 207.64062 408.8476 207.64062Q408.11322 207.64062 407.56635 207.28125Q407.01947 206.92188 406.7226 206.26562Q406.42572 205.59375 406.42572 204.79688Q406.42572 203.95312 406.73822 203.26562Q407.06635 202.57812 407.6601 202.21875Q408.26947 201.84375 409.06635 201.84375Q410.33197 201.84375 411.05072 202.79688Q411.7851 203.75 411.7851 205.375L411.7851 205.6875Q411.7851 208.1875 410.80072 209.32812Q409.81635 210.46875 407.83197 210.5L407.61322 210.5L407.61322 209.59375L407.8476 209.59375Q409.19135 209.5625 409.9101 208.89062Q410.62885 208.21875 410.69135 206.75ZM409.01947 206.75Q409.56635 206.75 410.01947 206.42188Q410.48822 206.07812 410.70697 205.59375L410.70697 205.15625Q410.70697 204.09375 410.23822 203.42188Q409.76947 202.75 409.06635 202.75Q408.3476 202.75 407.9101 203.29688Q407.48822 203.84375 407.48822 204.75Q407.48822 205.625 407.89447 206.1875Q408.31635 206.75 409.01947 206.75ZM417.69135 206.75Q417.36322 207.15625 416.87885 207.40625Q416.4101 207.64062 415.8476 207.64062Q415.11322 207.64062 414.56635 207.28125Q414.01947 206.92188 413.7226 206.26562Q413.42572 205.59375 413.42572 204.79688Q413.42572 203.95312 413.73822 203.26562Q414.06635 202.57812 414.6601 202.21875Q415.26947 201.84375 416.06635 201.84375Q417.33197 201.84375 418.05072 202.79688Q418.7851 203.75 418.7851 205.375L418.7851 205.6875Q418.7851 208.1875 417.80072 209.32812Q416.81635 210.46875 414.83197 210.5L414.61322 210.5L414.61322 209.59375L414.8476 209.59375Q416.19135 209.5625 416.9101 208.89062Q417.62885 208.21875 417.69135 206.75ZM416.01947 206.75Q416.56635 206.75 417.01947 206.42188Q417.48822 206.07812 417.70697 205.59375L417.70697 205.15625Q417.70697 204.09375 417.23822 203.42188Q416.76947 202.75 416.06635 202.75Q415.3476 202.75 414.9101 203.29688Q414.48822 203.84375 414.48822 204.75Q414.48822 205.625 414.89447 206.1875Q415.31635 206.75 416.01947 206.75Z" fill-rule="nonzero"/><path fill="#ffffff" d="M388.7226 204.1875Q388.7226 204.82812 388.37885 205.32812Q388.0351 205.82812 387.4726 206.10938Q388.12885 206.39062 388.51947 206.95312Q388.9101 207.5 388.9101 208.20312Q388.9101 209.29688 388.1601 209.96875Q387.42572 210.625 386.20697 210.625Q384.9726 210.625 384.2226 209.96875Q383.48822 209.29688 383.48822 208.20312Q383.48822 207.5 383.86322 206.95312Q384.23822 206.39062 384.9101 206.10938Q384.3476 205.82812 384.01947 205.32812Q383.69135 204.82812 383.69135 204.1875Q383.69135 203.10938 384.37885 202.48438Q385.06635 201.84375 386.20697 201.84375Q387.33197 201.84375 388.01947 202.48438Q388.7226 203.10938 388.7226 204.1875ZM387.83197 208.17188Q387.83197 207.45312 387.37885 207.01562Q386.92572 206.5625 386.19135 206.5625Q385.45697 206.5625 385.00385 207.01562Q384.56635 207.45312 384.56635 208.1875Q384.56635 208.90625 385.00385 209.32812Q385.44135 209.73438 386.20697 209.73438Q386.95697 209.73438 387.39447 209.3125Q387.83197 208.89062 387.83197 208.17188ZM386.20697 202.73438Q385.56635 202.73438 385.1601 203.14062Q384.76947 203.53125 384.76947 204.21875Q384.76947 204.85938 385.1601 205.26562Q385.55072 205.67188 386.19135 205.67188Q386.8476 205.67188 387.23822 205.26562Q387.62885 204.85938 387.62885 204.21875Q387.62885 203.5625 387.2226 203.15625Q386.81635 202.73438 386.20697 202.73438ZM394.80072 201.96875L394.80072 202.875L394.5976 202.875Q393.33197 202.90625 392.58197 203.64062Q391.83197 204.35938 391.70697 205.67188Q392.39447 204.90625 393.55072 204.90625Q394.6601 204.90625 395.33197 205.6875Q396.00385 206.46875 396.00385 207.71875Q396.00385 209.03125 395.2851 209.82812Q394.56635 210.625 393.3476 210.625Q392.12885 210.625 391.36322 209.6875Q390.61322 208.73438 390.61322 207.25L390.61322 206.84375Q390.61322 204.48438 391.61322 203.23438Q392.61322 201.98438 394.5976 201.96875L394.80072 201.96875ZM393.37885 205.8125Q392.81635 205.8125 392.3476 206.14062Q391.87885 206.46875 391.69135 206.98438L391.69135 207.375Q391.69135 208.4375 392.1601 209.07812Q392.64447 209.71875 393.3476 209.71875Q394.08197 209.71875 394.50385 209.1875Q394.92572 208.64062 394.92572 207.76562Q394.92572 206.89062 394.50385 206.35938Q394.08197 205.8125 393.37885 205.8125ZM402.89447 206.85938Q402.89447 208.76562 402.23822 209.70312Q401.5976 210.625 400.20697 210.625Q398.8476 210.625 398.19135 209.71875Q397.5351 208.8125 397.50385 207.0L397.50385 205.5625Q397.50385 203.67188 398.14447 202.76562Q398.80072 201.84375 400.19135 201.84375Q401.56635 201.84375 402.2226 202.73438Q402.87885 203.60938 402.89447 205.45312L402.89447 206.85938ZM401.80072 205.375Q401.80072 204.0 401.4101 203.375Q401.0351 202.73438 400.19135 202.73438Q399.36322 202.73438 398.9726 203.375Q398.5976 204.0 398.5976 205.29688L398.5976 207.03125Q398.5976 208.40625 398.98822 209.07812Q399.39447 209.73438 400.20697 209.73438Q401.00385 209.73438 401.39447 209.10938Q401.7851 208.48438 401.80072 207.15625L401.80072 205.375ZM404.61322 212.20312L404.00385 211.78125Q404.55072 211.01562 404.58197 210.1875L404.58197 209.21875L405.64447 209.21875L405.64447 210.0625Q405.64447 210.65625 405.3476 211.25Q405.05072 211.84375 404.61322 212.20312ZM410.69135 206.75Q410.36322 207.15625 409.87885 207.40625Q409.4101 207.64062 408.8476 207.64062Q408.11322 207.64062 407.56635 207.28125Q407.01947 206.92188 406.7226 206.26562Q406.42572 205.59375 406.42572 204.79688Q406.42572 203.95312 406.73822 203.26562Q407.06635 202.57812 407.6601 202.21875Q408.26947 201.84375 409.06635 201.84375Q410.33197 201.84375 411.05072 202.79688Q411.7851 203.75 411.7851 205.375L411.7851 205.6875Q411.7851 208.1875 410.80072 209.32812Q409.81635 210.46875 407.83197 210.5L407.61322 210.5L407.61322 209.59375L407.8476 209.59375Q409.19135 209.5625 409.9101 208.89062Q410.62885 208.21875 410.69135 206.75ZM409.01947 206.75Q409.56635 206.75 410.01947 206.42188Q410.48822 206.07812 410.70697 205.59375L410.70697 205.15625Q410.70697 204.09375 410.23822 203.42188Q409.76947 202.75 409.06635 202.75Q408.3476 202.75 407.9101 203.29688Q407.48822 203.84375 407.48822 204.75Q407.48822 205.625 407.89447 206.1875Q408.31635 206.75 409.01947 206.75ZM417.69135 206.75Q417.36322 207.15625 416.87885 207.40625Q416.4101 207.64062 415.8476 207.64062Q415.11322 207.64062 414.56635 207.28125Q414.01947 206.92188 413.7226 206.26562Q413.42572 205.59375 413.42572 204.79688Q413.42572 203.95312 413.73822 203.26562Q414.06635 202.57812 414.6601 202.21875Q415.26947 201.84375 416.06635 201.84375Q417.33197 201.84375 418.05072 202.79688Q418.7851 203.75 418.7851 205.375L418.7851 205.6875Q418.7851 208.1875 417.80072 209.32812Q416.81635 210.46875 414.83197 210.5L414.61322 210.5L414.61322 209.59375L414.8476 209.59375Q416.19135 209.5625 416.9101 208.89062Q417.62885 208.21875 417.69135 206.75ZM416.01947 206.75Q416.56635 206.75 417.01947 206.42188Q417.48822 206.07812 417.70697 205.59375L417.70697 205.15625Q417.70697 204.09375 417.23822 203.42188Q416.76947 202.75 416.06635 202.75Q415.3476 202.75 414.9101 203.29688Q414.48822 203.84375 414.48822 204.75Q414.48822 205.625 414.89447 206.1875Q415.31635 206.75 416.01947 206.75Z" fill-rule="nonzero"/><path stroke="#4285f4" stroke-width="3.0" stroke-linejoin="round" stroke-linecap="round" d="M408.54428 262.75Q408.21616 263.15625 407.73178 263.40625Q407.26303 263.64062 406.70053 263.64062Q405.96616 263.64062 405.41928 263.28125Q404.8724 262.92188 404.57553 262.26562Q404.27866 261.59375 404.27866 260.79688Q404.27866 259.95312 404.59116 259.26562Q404.91928 258.57812 405.51303 258.21875Q406.1224 257.84375 406.91928 257.84375Q408.1849 257.84375 408.90366 258.79688Q409.63803 259.75 409.63803 261.375L409.63803 261.6875Q409.63803 264.1875 408.65366 265.32812Q407.66928 266.46875 405.6849 266.5L405.46616 266.5L405.46616 265.59375L405.70053 265.59375Q407.04428 265.5625 407.76303 264.89062Q408.48178 264.21875 408.54428 262.75ZM406.8724 262.75Q407.41928 262.75 407.8724 262.42188Q408.34116 262.07812 408.5599 261.59375L408.5599 261.15625Q408.5599 260.09375 408.09116 259.42188Q407.6224 258.75 406.91928 258.75Q406.20053 258.75 405.76303 259.29688Q405.34116 259.84375 405.34116 260.75Q405.34116 261.625 405.7474 262.1875Q406.16928 262.75 406.8724 262.75ZM414.95053 266.5L413.8724 266.5L413.8724 259.28125L411.6849 260.07812L411.6849 259.09375L414.79428 257.92188L414.95053 257.92188L414.95053 266.5ZM423.98178 266.5L418.38803 266.5L418.38803 265.71875L421.34116 262.4375Q421.9974 261.6875 422.2474 261.23438Q422.4974 260.76562 422.4974 260.26562Q422.4974 259.59375 422.09116 259.17188Q421.70053 258.73438 421.01303 258.73438Q420.21616 258.73438 419.76303 259.20312Q419.3099 259.65625 419.3099 260.48438L418.23178 260.48438Q418.23178 259.29688 418.98178 258.57812Q419.7474 257.84375 421.01303 257.84375Q422.21616 257.84375 422.90366 258.46875Q423.59116 259.09375 423.59116 260.14062Q423.59116 261.39062 421.98178 263.14062L419.70053 265.60938L423.98178 265.60938L423.98178 266.5ZM425.46616 268.20312L424.85678 267.78125Q425.40366 267.01562 425.4349 266.1875L425.4349 265.21875L426.4974 265.21875L426.4974 266.0625Q426.4974 266.65625 426.20053 267.25Q425.90366 267.84375 425.46616 268.20312ZM432.90366 258.57812L429.3724 266.5L428.23178 266.5L431.7474 258.85938L427.13803 258.85938L427.13803 257.96875L432.90366 257.96875L432.90366 258.57812ZM439.98178 266.5L434.38803 266.5L434.38803 265.71875L437.34116 262.4375Q437.9974 261.6875 438.2474 261.23438Q438.4974 260.76562 438.4974 260.26562Q438.4974 259.59375 438.09116 259.17188Q437.70053 258.73438 437.01303 258.73438Q436.21616 258.73438 435.76303 259.20312Q435.3099 259.65625 435.3099 260.48438L434.23178 260.48438Q434.23178 259.29688 434.98178 258.57812Q435.7474 257.84375 437.01303 257.84375Q438.21616 257.84375 438.90366 258.46875Q439.59116 259.09375 439.59116 260.14062Q439.59116 261.39062 437.98178 263.14062L435.70053 265.60938L439.98178 265.60938L439.98178 266.5Z" fill-rule="nonzero"/><path fill="#ffffff" d="M408.54428 262.75Q408.21616 263.15625 407.73178 263.40625Q407.26303 263.64062 406.70053 263.64062Q405.96616 263.64062 405.41928 263.28125Q404.8724 262.92188 404.57553 262.26562Q404.27866 261.59375 404.27866 260.79688Q404.27866 259.95312 404.59116 259.26562Q404.91928 258.57812 405.51303 258.21875Q406.1224 257.84375 406.91928 257.84375Q408.1849 257.84375 408.90366 258.79688Q409.63803 259.75 409.63803 261.375L409.63803 261.6875Q409.63803 264.1875 408.65366 265.32812Q407.66928 266.46875 405.6849 266.5L405.46616 266.5L405.46616 265.59375L405.70053 265.59375Q407.04428 265.5625 407.76303 264.89062Q408.48178 264.21875 408.54428 262.75ZM406.8724 262.75Q407.41928 262.75 407.8724 262.42188Q408.34116 262.07812 408.5599 261.59375L408.5599 261.15625Q408.5599 260.09375 408.09116 259.42188Q407.6224 258.75 406.91928 258.75Q406.20053 258.75 405.76303 259.29688Q405.34116 259.84375 405.34116 260.75Q405.34116 261.625 405.7474 262.1875Q406.16928 262.75 406.8724 262.75ZM414.95053 266.5L413.8724 266.5L413.8724 259.28125L411.6849 260.07812L411.6849 259.09375L414.79428 257.92188L414.95053 257.92188L414.95053 266.5ZM423.98178 266.5L418.38803 266.5L418.38803 265.71875L421.34116 262.4375Q421.9974 261.6875 422.2474 261.23438Q422.4974 260.76562 422.4974 260.26562Q422.4974 259.59375 422.09116 259.17188Q421.70053 258.73438 421.01303 258.73438Q420.21616 258.73438 419.76303 259.20312Q419.3099 259.65625 419.3099 260.48438L418.23178 260.48438Q418.23178 259.29688 418.98178 258.57812Q419.7474 257.84375 421.01303 257.84375Q422.21616 257.84375 422.90366 258.46875Q423.59116 259.09375 423.59116 260.14062Q423.59116 261.39062 421.98178 263.14062L419.70053 265.60938L423.98178 265.60938L423.98178 266.5ZM425.46616 268.20312L424.85678 267.78125Q425.40366 267.01562 425.4349 266.1875L425.4349 265.21875L426.4974 265.21875L426.4974 266.0625Q426.4974 266.65625 426.20053 267.25Q425.90366 267.84375 425.46616 268.20312ZM432.90366 258.57812L429.3724 266.5L428.23178 266.5L431.7474 258.85938L427.13803 258.85938L427.13803 257.96875L432.90366 257.96875L432.90366 258.57812ZM439.98178 266.5L434.38803 266.5L434.38803 265.71875L437.34116 262.4375Q437.9974 261.6875 438.2474 261.23438Q438.4974 260.76562 438.4974 260.26562Q438.4974 259.59375 438.09116 259.17188Q437.70053 258.73438 437.01303 258.73438Q436.21616 258.73438 435.76303 259.20312Q435.3099 259.65625 435.3099 260.48438L434.23178 260.48438Q434.23178 259.29688 434.98178 258.57812Q435.7474 257.84375 437.01303 257.84375Q438.21616 257.84375 438.90366 258.46875Q439.59116 259.09375 439.59116 260.14062Q439.59116 261.39062 437.98178 263.14062L435.70053 265.60938L439.98178 265.60938L439.98178 266.5Z" fill-rule="nonzero"/><path fill="#000000" d="M318.29688 342.075L318.29688 340.85626L319.35938 340.85626L319.35938 342.075L318.29688 342.075ZM318.29688 349.45L318.29688 343.23126L319.35938 343.23126L319.35938 349.45L318.29688 349.45ZM320.90625 346.34064Q320.90625 344.60626 321.85938 343.77814Q322.65625 343.09064 323.8125 343.09064Q325.09375 343.09064 325.90625 343.9344Q326.73438 344.7625 326.73438 346.2469Q326.73438 347.45 326.375 348.1375Q326.01562 348.825 325.3125 349.21564Q324.625 349.59064 323.8125 349.59064Q322.51562 349.59064 321.70312 348.7625Q320.90625 347.91876 320.90625 346.34064ZM321.98438 346.34064Q321.98438 347.52814 322.5 348.1219Q323.03125 348.71564 323.8125 348.71564Q324.60938 348.71564 325.125 348.1219Q325.64062 347.52814 325.64062 346.3094Q325.64062 345.15314 325.10938 344.5594Q324.59375 343.96564 323.8125 343.96564Q323.03125 343.96564 322.5 344.5594Q321.98438 345.1375 321.98438 346.34064ZM328.29688 351.84064L328.29688 343.23126L329.25 343.23126L329.25 344.02814Q329.59375 343.5594 330.01562 343.325Q330.45312 343.09064 331.0625 343.09064Q331.85938 343.09064 332.46875 343.4969Q333.07812 343.90314 333.375 344.65314Q333.6875 345.40314 333.6875 346.29376Q333.6875 347.2469 333.34375 348.0125Q333.01562 348.77814 332.35938 349.1844Q331.70312 349.59064 330.98438 349.59064Q330.45312 349.59064 330.03125 349.3719Q329.60938 349.1375 329.34375 348.8094L329.34375 351.84064L328.29688 351.84064ZM329.25 346.3719Q329.25 347.575 329.73438 348.15314Q330.21875 348.71564 330.90625 348.71564Q331.60938 348.71564 332.10938 348.1219Q332.60938 347.52814 332.60938 346.27814Q332.60938 345.09064 332.125 344.5125Q331.64062 343.91876 330.95312 343.91876Q330.28125 343.91876 329.76562 344.54376Q329.25 345.16876 329.25 346.3719ZM334.875 347.59064L335.90625 347.4344Q336.0 348.0594 336.39062 348.3875Q336.79688 348.71564 337.53125 348.71564Q338.25 348.71564 338.59375 348.4344Q338.95312 348.1375 338.95312 347.73126Q338.95312 347.3719 338.64062 347.16876Q338.42188 347.02814 337.5625 346.8094Q336.40625 346.5125 335.95312 346.3094Q335.51562 346.09064 335.28125 345.71564Q335.04688 345.34064 335.04688 344.8719Q335.04688 344.46564 335.23438 344.10626Q335.42188 343.7469 335.75 343.5125Q336.0 343.34064 336.42188 343.21564Q336.84375 343.09064 337.34375 343.09064Q338.0625 343.09064 338.60938 343.3094Q339.17188 343.5125 339.4375 343.8719Q339.70312 344.23126 339.79688 344.825L338.76562 344.96564Q338.70312 344.4969 338.35938 344.23126Q338.03125 343.95 337.40625 343.95Q336.6875 343.95 336.375 344.2Q336.0625 344.4344 336.0625 344.7625Q336.0625 344.96564 336.1875 345.1219Q336.32812 345.29376 336.59375 345.40314Q336.75 345.46564 337.53125 345.66876Q338.65625 345.98126 339.09375 346.16876Q339.53125 346.35626 339.78125 346.71564Q340.03125 347.075 340.03125 347.6219Q340.03125 348.15314 339.71875 348.6219Q339.42188 349.075 338.84375 349.34064Q338.26562 349.59064 337.53125 349.59064Q336.3125 349.59064 335.67188 349.09064Q335.04688 348.575 334.875 347.59064Z" fill-rule="nonzero"/><path fill="#000000" d="M29.550013 200.88646L23.331263 200.88646L23.331263 199.94896L24.206263 199.94896Q23.190638 199.26146 23.190638 197.96458Q23.190638 197.40208 23.393763 196.93333Q23.596888 196.44896 23.925013 196.21458Q24.253138 195.98021 24.690638 195.88646Q24.987513 195.83958 25.721888 195.83958L29.550013 195.83958L29.550013 196.88646L25.768763 196.88646Q25.112513 196.88646 24.800013 197.01146Q24.487513 197.13646 24.300013 197.44896Q24.096888 197.76146 24.096888 198.18333Q24.096888 198.85521 24.534388 199.35521Q24.956263 199.83958 26.143763 199.83958L29.550013 199.83958L29.550013 200.88646ZM26.440638 194.27708Q24.706263 194.27708 23.878138 193.32396Q23.190638 192.52708 23.190638 191.37083Q23.190638 190.08958 24.034388 189.27708Q24.862513 188.44896 26.346888 188.44896Q27.550013 188.44896 28.237513 188.80833Q28.925013 189.16771 29.315638 189.87083Q29.690638 190.55833 29.690638 191.37083Q29.690638 192.66771 28.862513 193.48021Q28.018763 194.27708 26.440638 194.27708ZM26.440638 193.19896Q27.628138 193.19896 28.221888 192.68333Q28.815638 192.15208 28.815638 191.37083Q28.815638 190.57396 28.221888 190.05833Q27.628138 189.54271 26.409388 189.54271Q25.253138 189.54271 24.659388 190.07396Q24.065638 190.58958 24.065638 191.37083Q24.065638 192.15208 24.659388 192.68333Q25.237513 193.19896 26.440638 193.19896ZM29.550013 182.85521L28.768763 182.85521Q29.690638 183.44896 29.690638 184.58958Q29.690638 185.33958 29.284388 185.96458Q28.862513 186.58958 28.128138 186.93333Q27.393763 187.27708 26.440638 187.27708Q25.518763 187.27708 24.753138 186.96458Q23.987513 186.65208 23.596888 186.02708Q23.190638 185.40208 23.190638 184.63646Q23.190638 184.07396 23.425013 183.63646Q23.659388 183.19896 24.034388 182.91771L20.956263 182.91771L20.956263 181.87083L29.550013 181.87083L29.550013 182.85521ZM26.440638 186.18333Q27.643763 186.18333 28.237513 185.68333Q28.815638 185.18333 28.815638 184.49583Q28.815638 183.80833 28.253138 183.32396Q27.690638 182.83958 26.534388 182.83958Q25.253138 182.83958 24.659388 183.33958Q24.065638 183.82396 24.065638 184.54271Q24.065638 185.24583 24.643763 185.71458Q25.206263 186.18333 26.440638 186.18333ZM27.550013 175.63646L27.675013 174.54271Q28.628138 174.79271 29.159388 175.49583Q29.690638 176.19896 29.690638 177.27708Q29.690638 178.63646 28.846888 179.44896Q28.003138 180.24583 26.487513 180.24583Q24.925013 180.24583 24.065638 179.43333Q23.190638 178.62083 23.190638 177.33958Q23.190638 176.08958 24.034388 175.30833Q24.878138 174.51146 26.425013 174.51146Q26.518763 174.51146 26.706263 174.51146L26.706263 179.15208Q27.737513 179.08958 28.284388 178.57396Q28.815638 178.05833 28.815638 177.27708Q28.815638 176.69896 28.518763 176.29271Q28.206263 175.87083 27.550013 175.63646ZM25.846888 179.08958L25.846888 175.62083Q25.050013 175.68333 24.659388 176.01146Q24.050013 176.52708 24.050013 177.32396Q24.050013 178.05833 24.534388 178.55833Q25.018763 179.04271 25.846888 179.08958Z" fill-rule="nonzero"/><path fill="#000000" d="M53.346874 99.407295L53.346874 90.79792L54.3 90.79792L54.3 91.594795Q54.64375 91.126045 55.065624 90.89167Q55.503124 90.657295 56.1125 90.657295Q56.909374 90.657295 57.51875 91.063545Q58.128124 91.469795 58.425 92.219795Q58.7375 92.969795 58.7375 93.86042Q58.7375 94.813545 58.39375 95.57917Q58.065624 96.344795 57.409374 96.751045Q56.753124 97.157295 56.034374 97.157295Q55.503124 97.157295 55.08125 96.938545Q54.659374 96.70417 54.39375 96.376045L54.39375 99.407295L53.346874 99.407295ZM54.3 93.938545Q54.3 95.14167 54.784374 95.719795Q55.26875 96.282295 55.95625 96.282295Q56.659374 96.282295 57.159374 95.688545Q57.659374 95.094795 57.659374 93.844795Q57.659374 92.657295 57.175 92.07917Q56.690624 91.48542 56.003124 91.48542Q55.33125 91.48542 54.815624 92.11042Q54.3 92.73542 54.3 93.938545ZM62.065624 97.01667L59.70625 90.79792L60.815624 90.79792L62.159374 94.51667Q62.3625 95.126045 62.55 95.76667Q62.690624 95.282295 62.940624 94.594795L64.33125 90.79792L65.40938 90.79792L63.05 97.01667L62.065624 97.01667ZM69.59688 95.01667L70.69063 95.14167Q70.44063 96.094795 69.7375 96.626045Q69.03438 97.157295 67.95625 97.157295Q66.59688 97.157295 65.78438 96.313545Q64.9875 95.469795 64.9875 93.95417Q64.9875 92.39167 65.8 91.532295Q66.6125 90.657295 67.89375 90.657295Q69.14375 90.657295 69.925 91.501045Q70.72188 92.344795 70.72188 93.89167Q70.72188 93.98542 70.72188 94.17292L66.08125 94.17292Q66.14375 95.20417 66.65938 95.751045Q67.175 96.282295 67.95625 96.282295Q68.53438 96.282295 68.94063 95.98542Q69.3625 95.67292 69.59688 95.01667ZM66.14375 93.313545L69.6125 93.313545Q69.55 92.51667 69.22188 92.126045Q68.70625 91.51667 67.90938 91.51667Q67.175 91.51667 66.675 92.001045Q66.19063 92.48542 66.14375 93.313545Z" fill-rule="nonzero"/><path fill="#000000" d="M56.596874 152.44548L56.596874 153.4611L50.909374 153.4611Q50.909374 153.0861 51.034374 152.72673Q51.253124 152.1486 51.721874 151.5861Q52.20625 151.0236 53.1125 150.28923Q54.51875 149.13298 55.003124 148.4611Q55.503124 147.78923 55.503124 147.19548Q55.503124 146.57048 55.05 146.1486Q54.596874 145.7111 53.878124 145.7111Q53.1125 145.7111 52.659374 146.16423Q52.20625 146.61736 52.190624 147.42986L51.1125 147.32048Q51.221874 146.10173 51.940624 145.47673Q52.675 144.8361 53.909374 144.8361Q55.14375 144.8361 55.8625 145.5236Q56.58125 146.2111 56.58125 147.22673Q56.58125 147.74236 56.3625 148.24236Q56.159374 148.72673 55.659374 149.28923Q55.175 149.8361 54.05 150.78923Q53.096874 151.5861 52.815624 151.88298Q52.55 152.16423 52.378124 152.44548L56.596874 152.44548ZM58.14375 153.97673L59.175 154.13298Q59.2375 154.60173 59.534374 154.82048Q59.925 155.11736 60.596874 155.11736Q61.33125 155.11736 61.721874 154.82048Q62.128124 154.5236 62.26875 154.00798Q62.3625 153.67986 62.346874 152.6486Q61.659374 153.4611 60.628124 153.4611Q59.346874 153.4611 58.64375 152.53923Q57.940624 151.60173 57.940624 150.32048Q57.940624 149.42986 58.253124 148.67986Q58.58125 147.91423 59.190624 147.50798Q59.8 147.10173 60.628124 147.10173Q61.7375 147.10173 62.45625 147.99236L62.45625 147.24236L63.425 147.24236L63.425 152.61736Q63.425 154.07048 63.128124 154.67986Q62.83125 155.28923 62.190624 155.63298Q61.55 155.99236 60.6125 155.99236Q59.503124 155.99236 58.815624 155.49236Q58.128124 154.99236 58.14375 153.97673ZM59.01875 150.24236Q59.01875 151.4611 59.503124 152.0236Q59.9875 152.5861 60.721874 152.5861Q61.45625 152.5861 61.940624 152.0236Q62.440624 151.4611 62.440624 150.2736Q62.440624 149.13298 61.925 148.55486Q61.425 147.97673 60.70625 147.97673Q60.003124 147.97673 59.503124 148.55486Q59.01875 149.11736 59.01875 150.24236ZM66.31563 153.4611L65.33125 153.4611L65.33125 144.86736L66.39375 144.86736L66.39375 147.92986Q67.06563 147.10173 68.09688 147.10173Q68.675 147.10173 69.175 147.3361Q69.69063 147.55486 70.01875 147.97673Q70.3625 148.3986 70.55 148.99236Q70.7375 149.5861 70.7375 150.25798Q70.7375 151.85173 69.94063 152.72673Q69.14375 153.60173 68.05 153.60173Q66.94063 153.60173 66.31563 152.67986L66.31563 153.4611ZM66.3 150.30486Q66.3 151.41423 66.6125 151.91423Q67.1125 152.72673 67.95625 152.72673Q68.64375 152.72673 69.14375 152.13298Q69.65938 151.53923 69.65938 150.3361Q69.65938 149.11736 69.175 148.53923Q68.69063 147.9611 68.00313 147.9611Q67.31563 147.9611 66.8 148.57048Q66.3 149.16423 66.3 150.30486Z" fill-rule="nonzero"/><path fill="#000000" d="M54.425 209.90555L54.425 207.84305L50.70625 207.84305L50.70625 206.8743L54.628124 201.3118L55.4875 201.3118L55.4875 206.8743L56.64375 206.8743L56.64375 207.84305L55.4875 207.84305L55.4875 209.90555L54.425 209.90555ZM54.425 206.8743L54.425 203.01492L51.7375 206.8743L54.425 206.8743ZM58.14375 210.42117L59.175 210.57742Q59.2375 211.04617 59.534374 211.26492Q59.925 211.5618 60.596874 211.5618Q61.33125 211.5618 61.721874 211.26492Q62.128124 210.96805 62.26875 210.45242Q62.3625 210.1243 62.346874 209.09305Q61.659374 209.90555 60.628124 209.90555Q59.346874 209.90555 58.64375 208.98367Q57.940624 208.04617 57.940624 206.76492Q57.940624 205.8743 58.253124 205.1243Q58.58125 204.35867 59.190624 203.95242Q59.8 203.54617 60.628124 203.54617Q61.7375 203.54617 62.45625 204.4368L62.45625 203.6868L63.425 203.6868L63.425 209.0618Q63.425 210.51492 63.128124 211.1243Q62.83125 211.73367 62.190624 212.07742Q61.55 212.4368 60.6125 212.4368Q59.503124 212.4368 58.815624 211.9368Q58.128124 211.4368 58.14375 210.42117ZM59.01875 206.6868Q59.01875 207.90555 59.503124 208.46805Q59.9875 209.03055 60.721874 209.03055Q61.45625 209.03055 61.940624 208.46805Q62.440624 207.90555 62.440624 206.71805Q62.440624 205.57742 61.925 204.9993Q61.425 204.42117 60.70625 204.42117Q60.003124 204.42117 59.503124 204.9993Q59.01875 205.5618 59.01875 206.6868ZM66.31563 209.90555L65.33125 209.90555L65.33125 201.3118L66.39375 201.3118L66.39375 204.3743Q67.06563 203.54617 68.09688 203.54617Q68.675 203.54617 69.175 203.78055Q69.69063 203.9993 70.01875 204.42117Q70.3625 204.84305 70.55 205.4368Q70.7375 206.03055 70.7375 206.70242Q70.7375 208.29617 69.94063 209.17117Q69.14375 210.04617 68.05 210.04617Q66.94063 210.04617 66.31563 209.1243L66.31563 209.90555ZM66.3 206.7493Q66.3 207.85867 66.6125 208.35867Q67.1125 209.17117 67.95625 209.17117Q68.64375 209.17117 69.14375 208.57742Q69.65938 207.98367 69.65938 206.78055Q69.65938 205.5618 69.175 204.98367Q68.69063 204.40555 68.00313 204.40555Q67.31563 204.40555 66.8 205.01492Q66.3 205.60867 66.3 206.7493Z" fill-rule="nonzero"/><path fill="#000000" d="M52.675 261.69376Q52.01875 261.44376 51.690624 261.00626Q51.378124 260.55313 51.378124 259.94376Q51.378124 259.00626 52.05 258.36563Q52.7375 257.725 53.846874 257.725Q54.971874 257.725 55.659374 258.38126Q56.346874 259.0375 56.346874 259.975Q56.346874 260.56876 56.034374 261.00626Q55.721874 261.44376 55.08125 261.69376Q55.878124 261.94376 56.284374 262.52188Q56.690624 263.1 56.690624 263.89688Q56.690624 264.99063 55.909374 265.74063Q55.14375 266.49063 53.8625 266.49063Q52.596874 266.49063 51.815624 265.74063Q51.034374 264.99063 51.034374 263.86563Q51.034374 263.02188 51.45625 262.45938Q51.89375 261.89688 52.675 261.69376ZM52.45625 259.89688Q52.45625 260.50626 52.846874 260.89688Q53.253124 261.2875 53.878124 261.2875Q54.4875 261.2875 54.878124 260.9125Q55.26875 260.52188 55.26875 259.95938Q55.26875 259.38126 54.8625 258.99063Q54.45625 258.58438 53.8625 258.58438Q53.253124 258.58438 52.846874 258.975Q52.45625 259.36563 52.45625 259.89688ZM52.128124 263.86563Q52.128124 264.31876 52.33125 264.74063Q52.55 265.1625 52.971874 265.39688Q53.39375 265.63126 53.878124 265.63126Q54.628124 265.63126 55.1125 265.14688Q55.6125 264.6625 55.6125 263.9125Q55.6125 263.14688 55.1125 262.64688Q54.6125 262.14688 53.846874 262.14688Q53.096874 262.14688 52.6125 262.64688Q52.128124 263.13126 52.128124 263.86563ZM58.14375 266.86563L59.175 267.02188Q59.2375 267.49063 59.534374 267.70938Q59.925 268.00626 60.596874 268.00626Q61.33125 268.00626 61.721874 267.70938Q62.128124 267.4125 62.26875 266.89688Q62.3625 266.56876 62.346874 265.5375Q61.659374 266.35 60.628124 266.35Q59.346874 266.35 58.64375 265.42813Q57.940624 264.49063 57.940624 263.20938Q57.940624 262.31876 58.253124 261.56876Q58.58125 260.80313 59.190624 260.39688Q59.8 259.99063 60.628124 259.99063Q61.7375 259.99063 62.45625 260.88126L62.45625 260.13126L63.425 260.13126L63.425 265.50626Q63.425 266.95938 63.128124 267.56876Q62.83125 268.17813 62.190624 268.52188Q61.55 268.88126 60.6125 268.88126Q59.503124 268.88126 58.815624 268.38126Q58.128124 267.88126 58.14375 266.86563ZM59.01875 263.13126Q59.01875 264.35 59.503124 264.9125Q59.9875 265.475 60.721874 265.475Q61.45625 265.475 61.940624 264.9125Q62.440624 264.35 62.440624 263.1625Q62.440624 262.02188 61.925 261.44376Q61.425 260.86563 60.70625 260.86563Q60.003124 260.86563 59.503124 261.44376Q59.01875 262.00626 59.01875 263.13126ZM66.31563 266.35L65.33125 266.35L65.33125 257.75626L66.39375 257.75626L66.39375 260.81876Q67.06563 259.99063 68.09688 259.99063Q68.675 259.99063 69.175 260.225Q69.69063 260.44376 70.01875 260.86563Q70.3625 261.2875 70.55 261.88126Q70.7375 262.475 70.7375 263.14688Q70.7375 264.74063 69.94063 265.61563Q69.14375 266.49063 68.05 266.49063Q66.94063 266.49063 66.31563 265.56876L66.31563 266.35ZM66.3 263.19376Q66.3 264.30313 66.6125 264.80313Q67.1125 265.61563 67.95625 265.61563Q68.64375 265.61563 69.14375 265.02188Q69.65938 264.42813 69.65938 263.225Q69.65938 262.00626 69.175 261.42813Q68.69063 260.85 68.00313 260.85Q67.31563 260.85 66.8 261.45938Q66.3 262.05313 66.3 263.19376Z" fill-rule="nonzero"/><path fill="#000000" d="M66.05 313.21564Q66.05 311.6844 66.3625 310.7625Q66.675 309.825 67.28438 309.325Q67.90938 308.825 68.84688 308.825Q69.53438 308.825 70.05 309.10626Q70.58125 309.3875 70.925 309.91876Q71.26875 310.4344 71.45625 311.1844Q71.64375 311.9344 71.64375 313.21564Q71.64375 314.73126 71.33125 315.65314Q71.03438 316.575 70.40938 317.09064Q69.8 317.59064 68.84688 317.59064Q67.6125 317.59064 66.89375 316.7Q66.05 315.6375 66.05 313.21564ZM67.12813 313.21564Q67.12813 315.325 67.62813 316.02814Q68.12813 316.73126 68.84688 316.73126Q69.58125 316.73126 70.06563 316.02814Q70.56563 315.325 70.56563 313.21564Q70.56563 311.09064 70.06563 310.40314Q69.58125 309.7 68.83125 309.7Q68.1125 309.7 67.675 310.3094Q67.12813 311.09064 67.12813 313.21564ZM73.6125 317.45L73.6125 316.2469L74.81563 316.2469L74.81563 317.45Q74.81563 318.10626 74.58125 318.5125Q74.34688 318.9344 73.84688 319.15314L73.55 318.7Q73.87813 318.5594 74.03438 318.2625Q74.19063 317.98126 74.22188 317.45L73.6125 317.45ZM76.05 313.21564Q76.05 311.6844 76.3625 310.7625Q76.675 309.825 77.28438 309.325Q77.90938 308.825 78.84688 308.825Q79.53438 308.825 80.05 309.10626Q80.58125 309.3875 80.925 309.91876Q81.26875 310.4344 81.45625 311.1844Q81.64375 311.9344 81.64375 313.21564Q81.64375 314.73126 81.33125 315.65314Q81.03438 316.575 80.40938 317.09064Q79.8 317.59064 78.84688 317.59064Q77.6125 317.59064 76.89375 316.7Q76.05 315.6375 76.05 313.21564ZM77.12813 313.21564Q77.12813 315.325 77.62813 316.02814Q78.12813 316.73126 78.84688 316.73126Q79.58125 316.73126 80.06563 316.02814Q80.56563 315.325 80.56563 313.21564Q80.56563 311.09064 80.06563 310.40314Q79.58125 309.7 78.83125 309.7Q78.1125 309.7 77.675 310.3094Q77.12813 311.09064 77.12813 313.21564ZM83.05 313.21564Q83.05 311.6844 83.3625 310.7625Q83.675 309.825 84.28438 309.325Q84.90938 308.825 85.84688 308.825Q86.53438 308.825 87.05 309.10626Q87.58125 309.3875 87.925 309.91876Q88.26875 310.4344 88.45625 311.1844Q88.64375 311.9344 88.64375 313.21564Q88.64375 314.73126 88.33125 315.65314Q88.03438 316.575 87.40938 317.09064Q86.8 317.59064 85.84688 317.59064Q84.6125 317.59064 83.89375 316.7Q83.05 315.6375 83.05 313.21564ZM84.12813 313.21564Q84.12813 315.325 84.62813 316.02814Q85.12813 316.73126 85.84688 316.73126Q86.58125 316.73126 87.06563 316.02814Q87.56563 315.325 87.56563 313.21564Q87.56563 311.09064 87.06563 310.40314Q86.58125 309.7 85.83125 309.7Q85.1125 309.7 84.675 310.3094Q84.12813 311.09064 84.12813 313.21564Z" fill-rule="nonzero"/><path fill="#000000" d="M165.37688 316.4344L165.37688 317.45L159.68938 317.45Q159.68938 317.075 159.81438 316.71564Q160.03313 316.1375 160.50188 315.575Q160.98625 315.0125 161.8925 314.27814Q163.29875 313.1219 163.78313 312.45Q164.28313 311.77814 164.28313 311.1844Q164.28313 310.5594 163.83 310.1375Q163.37688 309.7 162.65813 309.7Q161.8925 309.7 161.43938 310.15314Q160.98625 310.60626 160.97063 311.41876L159.8925 311.3094Q160.00188 310.09064 160.72063 309.46564Q161.455 308.825 162.68938 308.825Q163.92375 308.825 164.6425 309.5125Q165.36125 310.2 165.36125 311.21564Q165.36125 311.73126 165.1425 312.23126Q164.93938 312.71564 164.43938 313.27814Q163.955 313.825 162.83 314.77814Q161.87688 315.575 161.59563 315.8719Q161.33 316.15314 161.15813 316.4344L165.37688 316.4344ZM166.83 315.2L167.93938 315.10626Q168.06438 315.91876 168.50188 316.325Q168.955 316.73126 169.59563 316.73126Q170.34563 316.73126 170.87688 316.15314Q171.40813 315.575 171.40813 314.6375Q171.40813 313.73126 170.8925 313.21564Q170.3925 312.6844 169.56438 312.6844Q169.06438 312.6844 168.6425 312.91876Q168.23625 313.15314 168.00188 313.5125L167.0175 313.3875L167.84563 308.98126L172.12688 308.98126L172.12688 309.98126L168.68938 309.98126L168.23625 312.29376Q169.00188 311.7469 169.84563 311.7469Q170.97063 311.7469 171.73625 312.52814Q172.5175 313.3094 172.5175 314.54376Q172.5175 315.7 171.84563 316.5594Q171.0175 317.59064 169.59563 317.59064Q168.42375 317.59064 167.67375 316.9344Q166.93938 316.27814 166.83 315.2ZM173.83 313.21564Q173.83 311.6844 174.1425 310.7625Q174.455 309.825 175.06438 309.325Q175.68938 308.825 176.62688 308.825Q177.31438 308.825 177.83 309.10626Q178.36125 309.3875 178.705 309.91876Q179.04875 310.4344 179.23625 311.1844Q179.42375 311.9344 179.42375 313.21564Q179.42375 314.73126 179.11125 315.65314Q178.81438 316.575 178.18938 317.09064Q177.58 317.59064 176.62688 317.59064Q175.3925 317.59064 174.67375 316.7Q173.83 315.6375 173.83 313.21564ZM174.90813 313.21564Q174.90813 315.325 175.40813 316.02814Q175.90813 316.73126 176.62688 316.73126Q177.36125 316.73126 177.84563 316.02814Q178.34563 315.325 178.34563 313.21564Q178.34563 311.09064 177.84563 310.40314Q177.36125 309.7 176.61125 309.7Q175.8925 309.7 175.455 310.3094Q174.90813 311.09064 174.90813 313.21564ZM181.3925 317.45L181.3925 316.2469L182.59563 316.2469L182.59563 317.45Q182.59563 318.10626 182.36125 318.5125Q182.12688 318.9344 181.62688 319.15314L181.33 318.7Q181.65813 318.5594 181.81438 318.2625Q181.97063 317.98126 182.00188 317.45L181.3925 317.45ZM183.83 313.21564Q183.83 311.6844 184.1425 310.7625Q184.455 309.825 185.06438 309.325Q185.68938 308.825 186.62688 308.825Q187.31438 308.825 187.83 309.10626Q188.36125 309.3875 188.705 309.91876Q189.04875 310.4344 189.23625 311.1844Q189.42375 311.9344 189.42375 313.21564Q189.42375 314.73126 189.11125 315.65314Q188.81438 316.575 188.18938 317.09064Q187.58 317.59064 186.62688 317.59064Q185.3925 317.59064 184.67375 316.7Q183.83 315.6375 183.83 313.21564ZM184.90813 313.21564Q184.90813 315.325 185.40813 316.02814Q185.90813 316.73126 186.62688 316.73126Q187.36125 316.73126 187.84563 316.02814Q188.34563 315.325 188.34563 313.21564Q188.34563 311.09064 187.84563 310.40314Q187.36125 309.7 186.61125 309.7Q185.8925 309.7 185.455 310.3094Q184.90813 311.09064 184.90813 313.21564ZM190.83 313.21564Q190.83 311.6844 191.1425 310.7625Q191.455 309.825 192.06438 309.325Q192.68938 308.825 193.62688 308.825Q194.31438 308.825 194.83 309.10626Q195.36125 309.3875 195.705 309.91876Q196.04875 310.4344 196.23625 311.1844Q196.42375 311.9344 196.42375 313.21564Q196.42375 314.73126 196.11125 315.65314Q195.81438 316.575 195.18938 317.09064Q194.58 317.59064 193.62688 317.59064Q192.3925 317.59064 191.67375 316.7Q190.83 315.6375 190.83 313.21564ZM191.90813 313.21564Q191.90813 315.325 192.40813 316.02814Q192.90813 316.73126 193.62688 316.73126Q194.36125 316.73126 194.84563 316.02814Q195.34563 315.325 195.34563 313.21564Q195.34563 311.09064 194.84563 310.40314Q194.36125 309.7 193.61125 309.7Q192.8925 309.7 192.455 310.3094Q191.90813 311.09064 191.90813 313.21564Z" fill-rule="nonzero"/><path fill="#000000" d="M260.61 315.2L261.71936 315.10626Q261.84436 315.91876 262.28186 316.325Q262.735 316.73126 263.3756 316.73126Q264.1256 316.73126 264.65686 316.15314Q265.1881 315.575 265.1881 314.6375Q265.1881 313.73126 264.6725 313.21564Q264.1725 312.6844 263.34436 312.6844Q262.84436 312.6844 262.4225 312.91876Q262.01624 313.15314 261.78186 313.5125L260.7975 313.3875L261.6256 308.98126L265.90686 308.98126L265.90686 309.98126L262.46936 309.98126L262.01624 312.29376Q262.78186 311.7469 263.6256 311.7469Q264.7506 311.7469 265.51624 312.52814Q266.2975 313.3094 266.2975 314.54376Q266.2975 315.7 265.6256 316.5594Q264.7975 317.59064 263.3756 317.59064Q262.20374 317.59064 261.45374 316.9344Q260.71936 316.27814 260.61 315.2ZM267.61 313.21564Q267.61 311.6844 267.9225 310.7625Q268.235 309.825 268.84436 309.325Q269.46936 308.825 270.40686 308.825Q271.09436 308.825 271.61 309.10626Q272.14124 309.3875 272.485 309.91876Q272.82874 310.4344 273.01624 311.1844Q273.20374 311.9344 273.20374 313.21564Q273.20374 314.73126 272.89124 315.65314Q272.59436 316.575 271.96936 317.09064Q271.36 317.59064 270.40686 317.59064Q269.1725 317.59064 268.45374 316.7Q267.61 315.6375 267.61 313.21564ZM268.6881 313.21564Q268.6881 315.325 269.1881 316.02814Q269.6881 316.73126 270.40686 316.73126Q271.14124 316.73126 271.6256 316.02814Q272.1256 315.325 272.1256 313.21564Q272.1256 311.09064 271.6256 310.40314Q271.14124 309.7 270.39124 309.7Q269.6725 309.7 269.235 310.3094Q268.6881 311.09064 268.6881 313.21564ZM274.61 313.21564Q274.61 311.6844 274.9225 310.7625Q275.235 309.825 275.84436 309.325Q276.46936 308.825 277.40686 308.825Q278.09436 308.825 278.61 309.10626Q279.14124 309.3875 279.485 309.91876Q279.82874 310.4344 280.01624 311.1844Q280.20374 311.9344 280.20374 313.21564Q280.20374 314.73126 279.89124 315.65314Q279.59436 316.575 278.96936 317.09064Q278.36 317.59064 277.40686 317.59064Q276.1725 317.59064 275.45374 316.7Q274.61 315.6375 274.61 313.21564ZM275.6881 313.21564Q275.6881 315.325 276.1881 316.02814Q276.6881 316.73126 277.40686 316.73126Q278.14124 316.73126 278.6256 316.02814Q279.1256 315.325 279.1256 313.21564Q279.1256 311.09064 278.6256 310.40314Q278.14124 309.7 277.39124 309.7Q276.6725 309.7 276.235 310.3094Q275.6881 311.09064 275.6881 313.21564ZM282.1725 317.45L282.1725 316.2469L283.3756 316.2469L283.3756 317.45Q283.3756 318.10626 283.14124 318.5125Q282.90686 318.9344 282.40686 319.15314L282.11 318.7Q282.4381 318.5594 282.59436 318.2625Q282.7506 317.98126 282.78186 317.45L282.1725 317.45ZM284.61 313.21564Q284.61 311.6844 284.9225 310.7625Q285.235 309.825 285.84436 309.325Q286.46936 308.825 287.40686 308.825Q288.09436 308.825 288.61 309.10626Q289.14124 309.3875 289.485 309.91876Q289.82874 310.4344 290.01624 311.1844Q290.20374 311.9344 290.20374 313.21564Q290.20374 314.73126 289.89124 315.65314Q289.59436 316.575 288.96936 317.09064Q288.36 317.59064 287.40686 317.59064Q286.1725 317.59064 285.45374 316.7Q284.61 315.6375 284.61 313.21564ZM285.6881 313.21564Q285.6881 315.325 286.1881 316.02814Q286.6881 316.73126 287.40686 316.73126Q288.14124 316.73126 288.6256 316.02814Q289.1256 315.325 289.1256 313.21564Q289.1256 311.09064 288.6256 310.40314Q288.14124 309.7 287.39124 309.7Q286.6725 309.7 286.235 310.3094Q285.6881 311.09064 285.6881 313.21564ZM291.61 313.21564Q291.61 311.6844 291.9225 310.7625Q292.235 309.825 292.84436 309.325Q293.46936 308.825 294.40686 308.825Q295.09436 308.825 295.61 309.10626Q296.14124 309.3875 296.485 309.91876Q296.82874 310.4344 297.01624 311.1844Q297.20374 311.9344 297.20374 313.21564Q297.20374 314.73126 296.89124 315.65314Q296.59436 316.575 295.96936 317.09064Q295.36 317.59064 294.40686 317.59064Q293.1725 317.59064 292.45374 316.7Q291.61 315.6375 291.61 313.21564ZM292.6881 313.21564Q292.6881 315.325 293.1881 316.02814Q293.6881 316.73126 294.40686 316.73126Q295.14124 316.73126 295.6256 316.02814Q296.1256 315.325 296.1256 313.21564Q296.1256 311.09064 295.6256 310.40314Q295.14124 309.7 294.39124 309.7Q293.6725 309.7 293.235 310.3094Q292.6881 311.09064 292.6881 313.21564Z" fill-rule="nonzero"/><path fill="#000000" d="M361.4525 309.98126L361.4525 308.96564L367.015 308.96564L367.015 309.79376Q366.2025 310.66876 365.39 312.1219Q364.59314 313.5594 364.15564 315.09064Q363.8275 316.16876 363.7494 317.45L362.65564 317.45Q362.67126 316.4344 363.04626 314.9969Q363.4369 313.5594 364.14 312.23126Q364.85876 310.90314 365.67126 309.98126L361.4525 309.98126ZM368.39 315.2L369.4994 315.10626Q369.6244 315.91876 370.0619 316.325Q370.515 316.73126 371.15564 316.73126Q371.90564 316.73126 372.4369 316.15314Q372.96814 315.575 372.96814 314.6375Q372.96814 313.73126 372.4525 313.21564Q371.9525 312.6844 371.1244 312.6844Q370.6244 312.6844 370.2025 312.91876Q369.79626 313.15314 369.5619 313.5125L368.5775 313.3875L369.40564 308.98126L373.6869 308.98126L373.6869 309.98126L370.2494 309.98126L369.79626 312.29376Q370.5619 311.7469 371.40564 311.7469Q372.53064 311.7469 373.29626 312.52814Q374.0775 313.3094 374.0775 314.54376Q374.0775 315.7 373.40564 316.5594Q372.5775 317.59064 371.15564 317.59064Q369.98376 317.59064 369.23376 316.9344Q368.4994 316.27814 368.39 315.2ZM375.39 313.21564Q375.39 311.6844 375.7025 310.7625Q376.015 309.825 376.6244 309.325Q377.2494 308.825 378.1869 308.825Q378.8744 308.825 379.39 309.10626Q379.92126 309.3875 380.265 309.91876Q380.60876 310.4344 380.79626 311.1844Q380.98376 311.9344 380.98376 313.21564Q380.98376 314.73126 380.67126 315.65314Q380.3744 316.575 379.7494 317.09064Q379.14 317.59064 378.1869 317.59064Q376.9525 317.59064 376.23376 316.7Q375.39 315.6375 375.39 313.21564ZM376.46814 313.21564Q376.46814 315.325 376.96814 316.02814Q377.46814 316.73126 378.1869 316.73126Q378.92126 316.73126 379.40564 316.02814Q379.90564 315.325 379.90564 313.21564Q379.90564 311.09064 379.40564 310.40314Q378.92126 309.7 378.17126 309.7Q377.4525 309.7 377.015 310.3094Q376.46814 311.09064 376.46814 313.21564ZM382.9525 317.45L382.9525 316.2469L384.15564 316.2469L384.15564 317.45Q384.15564 318.10626 383.92126 318.5125Q383.6869 318.9344 383.1869 319.15314L382.89 318.7Q383.21814 318.5594 383.3744 318.2625Q383.53064 317.98126 383.5619 317.45L382.9525 317.45ZM385.39 313.21564Q385.39 311.6844 385.7025 310.7625Q386.015 309.825 386.6244 309.325Q387.2494 308.825 388.1869 308.825Q388.8744 308.825 389.39 309.10626Q389.92126 309.3875 390.265 309.91876Q390.60876 310.4344 390.79626 311.1844Q390.98376 311.9344 390.98376 313.21564Q390.98376 314.73126 390.67126 315.65314Q390.3744 316.575 389.7494 317.09064Q389.14 317.59064 388.1869 317.59064Q386.9525 317.59064 386.23376 316.7Q385.39 315.6375 385.39 313.21564ZM386.46814 313.21564Q386.46814 315.325 386.96814 316.02814Q387.46814 316.73126 388.1869 316.73126Q388.92126 316.73126 389.40564 316.02814Q389.90564 315.325 389.90564 313.21564Q389.90564 311.09064 389.40564 310.40314Q388.92126 309.7 388.17126 309.7Q387.4525 309.7 387.015 310.3094Q386.46814 311.09064 386.46814 313.21564ZM392.39 313.21564Q392.39 311.6844 392.7025 310.7625Q393.015 309.825 393.6244 309.325Q394.2494 308.825 395.1869 308.825Q395.8744 308.825 396.39 309.10626Q396.92126 309.3875 397.265 309.91876Q397.60876 310.4344 397.79626 311.1844Q397.98376 311.9344 397.98376 313.21564Q397.98376 314.73126 397.67126 315.65314Q397.3744 316.575 396.7494 317.09064Q396.14 317.59064 395.1869 317.59064Q393.9525 317.59064 393.23376 316.7Q392.39 315.6375 392.39 313.21564ZM393.46814 313.21564Q393.46814 315.325 393.96814 316.02814Q394.46814 316.73126 395.1869 316.73126Q395.92126 316.73126 396.40564 316.02814Q396.90564 315.325 396.90564 313.21564Q396.90564 311.09064 396.40564 310.40314Q395.92126 309.7 395.17126 309.7Q394.4525 309.7 394.015 310.3094Q393.46814 311.09064 393.46814 313.21564Z" fill-rule="nonzero"/><path fill="#000000" d="M461.13876 317.45L460.0919 317.45L460.0919 310.73126Q459.70126 311.09064 459.07626 311.46564Q458.4669 311.825 457.9825 311.9969L457.9825 310.98126Q458.8575 310.5594 459.51376 309.98126Q460.18564 309.3875 460.4669 308.825L461.13876 308.825L461.13876 317.45ZM467.17 313.21564Q467.17 311.6844 467.4825 310.7625Q467.795 309.825 468.4044 309.325Q469.0294 308.825 469.9669 308.825Q470.6544 308.825 471.17 309.10626Q471.70126 309.3875 472.045 309.91876Q472.38876 310.4344 472.57626 311.1844Q472.76376 311.9344 472.76376 313.21564Q472.76376 314.73126 472.45126 315.65314Q472.1544 316.575 471.5294 317.09064Q470.92 317.59064 469.9669 317.59064Q468.7325 317.59064 468.01376 316.7Q467.17 315.6375 467.17 313.21564ZM468.24814 313.21564Q468.24814 315.325 468.74814 316.02814Q469.24814 316.73126 469.9669 316.73126Q470.70126 316.73126 471.18564 316.02814Q471.68564 315.325 471.68564 313.21564Q471.68564 311.09064 471.18564 310.40314Q470.70126 309.7 469.95126 309.7Q469.2325 309.7 468.795 310.3094Q468.24814 311.09064 468.24814 313.21564ZM474.17 313.21564Q474.17 311.6844 474.4825 310.7625Q474.795 309.825 475.4044 309.325Q476.0294 308.825 476.9669 308.825Q477.6544 308.825 478.17 309.10626Q478.70126 309.3875 479.045 309.91876Q479.38876 310.4344 479.57626 311.1844Q479.76376 311.9344 479.76376 313.21564Q479.76376 314.73126 479.45126 315.65314Q479.1544 316.575 478.5294 317.09064Q477.92 317.59064 476.9669 317.59064Q475.7325 317.59064 475.01376 316.7Q474.17 315.6375 474.17 313.21564ZM475.24814 313.21564Q475.24814 315.325 475.74814 316.02814Q476.24814 316.73126 476.9669 316.73126Q477.70126 316.73126 478.18564 316.02814Q478.68564 315.325 478.68564 313.21564Q478.68564 311.09064 478.18564 310.40314Q477.70126 309.7 476.95126 309.7Q476.2325 309.7 475.795 310.3094Q475.24814 311.09064 475.24814 313.21564ZM481.17 313.21564Q481.17 311.6844 481.4825 310.7625Q481.795 309.825 482.4044 309.325Q483.0294 308.825 483.9669 308.825Q484.6544 308.825 485.17 309.10626Q485.70126 309.3875 486.045 309.91876Q486.38876 310.4344 486.57626 311.1844Q486.76376 311.9344 486.76376 313.21564Q486.76376 314.73126 486.45126 315.65314Q486.1544 316.575 485.5294 317.09064Q484.92 317.59064 483.9669 317.59064Q482.7325 317.59064 482.01376 316.7Q481.17 315.6375 481.17 313.21564ZM482.24814 313.21564Q482.24814 315.325 482.74814 316.02814Q483.24814 316.73126 483.9669 316.73126Q484.70126 316.73126 485.18564 316.02814Q485.68564 315.325 485.68564 313.21564Q485.68564 311.09064 485.18564 310.40314Q484.70126 309.7 483.95126 309.7Q483.2325 309.7 482.795 310.3094Q482.24814 311.09064 482.24814 313.21564ZM488.7325 317.45L488.7325 316.2469L489.93564 316.2469L489.93564 317.45Q489.93564 318.10626 489.70126 318.5125Q489.4669 318.9344 488.9669 319.15314L488.67 318.7Q488.99814 318.5594 489.1544 318.2625Q489.31064 317.98126 489.3419 317.45L488.7325 317.45ZM491.17 313.21564Q491.17 311.6844 491.4825 310.7625Q491.795 309.825 492.4044 309.325Q493.0294 308.825 493.9669 308.825Q494.6544 308.825 495.17 309.10626Q495.70126 309.3875 496.045 309.91876Q496.38876 310.4344 496.57626 311.1844Q496.76376 311.9344 496.76376 313.21564Q496.76376 314.73126 496.45126 315.65314Q496.1544 316.575 495.5294 317.09064Q494.92 317.59064 493.9669 317.59064Q492.7325 317.59064 492.01376 316.7Q491.17 315.6375 491.17 313.21564ZM492.24814 313.21564Q492.24814 315.325 492.74814 316.02814Q493.24814 316.73126 493.9669 316.73126Q494.70126 316.73126 495.18564 316.02814Q495.68564 315.325 495.68564 313.21564Q495.68564 311.09064 495.18564 310.40314Q494.70126 309.7 493.95126 309.7Q493.2325 309.7 492.795 310.3094Q492.24814 311.09064 492.24814 313.21564ZM498.17 313.21564Q498.17 311.6844 498.4825 310.7625Q498.795 309.825 499.4044 309.325Q500.0294 308.825 500.9669 308.825Q501.6544 308.825 502.17 309.10626Q502.70126 309.3875 503.045 309.91876Q503.38876 310.4344 503.57626 311.1844Q503.76376 311.9344 503.76376 313.21564Q503.76376 314.73126 503.45126 315.65314Q503.1544 316.575 502.5294 317.09064Q501.92 317.59064 500.9669 317.59064Q499.7325 317.59064 499.01376 316.7Q498.17 315.6375 498.17 313.21564ZM499.24814 313.21564Q499.24814 315.325 499.74814 316.02814Q500.24814 316.73126 500.9669 316.73126Q501.70126 316.73126 502.18564 316.02814Q502.68564 315.325 502.68564 313.21564Q502.68564 311.09064 502.18564 310.40314Q501.70126 309.7 500.95126 309.7Q500.2325 309.7 499.795 310.3094Q499.24814 311.09064 499.24814 313.21564Z" fill-rule="nonzero"/><path fill="#757575" d="M20.409374 37.55L20.409374 23.2375L22.315624 23.2375L22.315624 37.55L20.409374 37.55ZM25.51875 30.58125Q25.51875 27.01875 27.425 25.003124Q29.346874 22.971874 32.378124 22.971874Q34.3625 22.971874 35.940624 23.925Q37.534374 24.878124 38.3625 26.58125Q39.20625 28.26875 39.20625 30.409374Q39.20625 32.58125 38.33125 34.3Q37.45625 36.01875 35.83125 36.909374Q34.221874 37.8 32.3625 37.8Q30.346874 37.8 28.753124 36.83125Q27.159374 35.846874 26.33125 34.159374Q25.51875 32.45625 25.51875 30.58125ZM27.471874 30.6125Q27.471874 33.190624 28.8625 34.690624Q30.253124 36.175 32.346874 36.175Q34.4875 36.175 35.8625 34.675Q37.253124 33.159374 37.253124 30.39375Q37.253124 28.659374 36.659374 27.3625Q36.08125 26.05 34.940624 25.33125Q33.8 24.6125 32.378124 24.6125Q30.378124 24.6125 28.925 26.003124Q27.471874 27.378124 27.471874 30.6125ZM42.096874 37.55L42.096874 23.2375L47.4875 23.2375Q48.925 23.2375 49.675 23.3625Q50.721874 23.55 51.440624 24.05Q52.159374 24.534374 52.58125 25.425Q53.01875 26.315624 53.01875 27.378124Q53.01875 29.20625 51.846874 30.471874Q50.690624 31.721874 47.659374 31.721874L43.9875 31.721874L43.9875 37.55L42.096874 37.55ZM43.9875 30.034374L47.690624 30.034374Q49.51875 30.034374 50.284374 29.3625Q51.065624 28.675 51.065624 27.425Q51.065624 26.534374 50.6125 25.89375Q50.159374 25.253124 49.425 25.05Q48.940624 24.925 47.64375 24.925L43.9875 24.925L43.9875 30.034374ZM54.45625 32.95625L56.2375 32.8Q56.3625 33.8625 56.815624 34.55Q57.284374 35.2375 58.253124 35.675Q59.2375 36.096874 60.471874 36.096874Q61.55 36.096874 62.378124 35.784374Q63.20625 35.45625 63.6125 34.89375Q64.01875 34.33125 64.01875 33.659374Q64.01875 32.9875 63.628124 32.4875Q63.2375 31.9875 62.346874 31.64375Q61.76875 31.409374 59.784374 30.940624Q57.815624 30.471874 57.034374 30.05Q56.003124 29.51875 55.503124 28.721874Q55.003124 27.925 55.003124 26.940624Q55.003124 25.846874 55.6125 24.909374Q56.221874 23.971874 57.409374 23.4875Q58.596874 22.9875 60.034374 22.9875Q61.628124 22.9875 62.846874 23.503124Q64.06563 24.01875 64.70625 25.01875Q65.3625 26.003124 65.40938 27.26875L63.596874 27.409374Q63.45625 26.05 62.6125 25.3625Q61.76875 24.659374 60.1125 24.659374Q58.39375 24.659374 57.596874 25.3Q56.815624 25.925 56.815624 26.8Q56.815624 27.58125 57.378124 28.08125Q57.925 28.58125 60.2375 29.096874Q62.55 29.6125 63.409374 30.003124Q64.65938 30.58125 65.25313 31.471874Q65.84688 32.346874 65.84688 33.503124Q65.84688 34.64375 65.19063 35.659374Q64.53438 36.675 63.3 37.2375Q62.08125 37.8 60.55 37.8Q58.6125 37.8 57.3 37.2375Q55.9875 36.659374 55.2375 35.51875Q54.4875 34.378124 54.45625 32.95625Z" fill-rule="nonzero"/></svg>