<svg version="1.1" viewBox="0.0 0.0 600.0 371.0" fill="none" stroke="none" stroke-linecap="square" stroke-miterlimit="10" width="600" height="371" xmlns:xlink="http://www.w3.org/1999/xlink" xmlns="http://www.w3.org/2000/svg"><path fill="#ffffff" d="M0 0L600.0 0L600.0 371.0L0 371.0L0 0Z" fill-rule="nonzero"/><path stroke="#333333" stroke-width="1.0" stroke-linecap="butt" d="M77.5 54.5L77.5 300.5" fill-rule="nonzero"/><path stroke="#cccccc" stroke-width="1.0" stroke-linecap="butt" d="M178.5 54.5L178.5 300.5" fill-rule="nonzero"/><path stroke="#cccccc" stroke-width="1.0" stroke-linecap="butt" d="M279.5 54.5L279.5 300.5" fill-rule="nonzero"/><path stroke="#cccccc" stroke-width="1.0" stroke-linecap="butt" d="M379.5 54.5L379.5 300.5" fill-rule="nonzero"/><path stroke="#cccccc" stroke-width="1.0" stroke-linecap="butt" d="M480.5 54.5L480.5 300.5" fill-rule="nonzero"/><path stroke="#cccccc" stroke-width="1.0" stroke-linecap="butt" d="M581.5 54.5L581.5 300.5" fill-rule="nonzero"/><clipPath id="id_0"><path d="M77.55 54.916668L581.45 54.916668L581.45 300.45L77.55 300.45L77.55 54.916668Z" clip-rule="nonzero"/></clipPath><path stroke="#000000" stroke-width="2.0" stroke-linecap="butt" stroke-opacity="0.0" clip-path="url(#id_0)" d="M78.0 112.0L78.0 75.0L307.0 75.0C308.10458 75.0 309.0 75.89543 309.0 77.0L309.0 110.0C309.0 111.10457 308.10458 112.0 307.0 112.0Z" fill-rule="nonzero"/><path fill="#4285f4" clip-path="url(#id_0)" d="M78.0 112.0L78.0 75.0L307.0 75.0C308.10458 75.0 309.0 75.89543 309.0 77.0L309.0 110.0C309.0 111.10457 308.10458 112.0 307.0 112.0Z" fill-rule="nonzero"/><path stroke="#000000" stroke-width="2.0" stroke-linecap="butt" stroke-opacity="0.0" clip-path="url(#id_0)" d="M78.0 168.0L78.0 131.0L504.0 131.0C505.10458 131.0 506.0 131.89543 506.0 133.0L506.0 166.0C506.0 167.10457 505.10458 168.0 504.0 168.0Z" fill-rule="nonzero"/><path fill="#4285f4" clip-path="url(#id_0)" d="M78.0 168.0L78.0 131.0L504.0 131.0C505.10458 131.0 506.0 131.89543 506.0 133.0L506.0 166.0C506.0 167.10457 505.10458 168.0 504.0 168.0Z" fill-rule="nonzero"/><path stroke="#000000" stroke-width="2.0" stroke-linecap="butt" stroke-opacity="0.0" clip-path="url(#id_0)" d="M78.0 225.0L78.0 188.0L515.0 188.0C516.10455 188.0 517.0 188.89543 517.0 190.0L517.0 223.0C517.0 224.10457 516.10455 225.0 515.0 225.0Z" fill-rule="nonzero"/><path fill="#4285f4" clip-path="url(#id_0)" d="M78.0 225.0L78.0 188.0L515.0 188.0C516.10455 188.0 517.0 188.89543 517.0 190.0L517.0 223.0C517.0 224.10457 516.10455 225.0 515.0 225.0Z" fill-rule="nonzero"/><path stroke="#000000" stroke-width="2.0" stroke-linecap="butt" stroke-opacity="0.0" clip-path="url(#id_0)" d="M78.0 281.0L78.0 244.0L553.0 244.0C554.10455 244.0 555.0 244.89543 555.0 246.0L555.0 279.0C555.0 280.10458 554.10455 281.0 553.0 281.0Z" fill-rule="nonzero"/><path fill="#4285f4" clip-path="url(#id_0)" d="M78.0 281.0L78.0 244.0L553.0 244.0C554.10455 244.0 555.0 244.89543 555.0 246.0L555.0 279.0C555.0 280.10458 554.10455 281.0 553.0 281.0Z" fill-rule="nonzero"/><path stroke="#4285f4" stroke-width="3.0" stroke-linejoin="round" stroke-linecap="round" d="M271.00137 97.5L269.92325 97.5L269.92325 90.28125L267.73575 91.078125L267.73575 90.09375L270.84512 88.921875L271.00137 88.921875L271.00137 97.5ZM278.00137 97.5L276.92325 97.5L276.92325 90.28125L274.73575 91.078125L274.73575 90.09375L277.84512 88.921875L278.00137 88.921875L278.00137 97.5ZM286.017 94.640625L287.2045 94.640625L287.2045 95.515625L286.017 95.515625L286.017 97.5L284.93887 97.5L284.93887 95.515625L281.04825 95.515625L281.04825 94.875L284.86075 88.96875L286.017 88.96875L286.017 94.640625ZM282.28262 94.640625L284.93887 94.640625L284.93887 90.453125L284.79825 90.6875L282.28262 94.640625ZM288.517 99.203125L287.90762 98.78125Q288.4545 98.015625 288.48575 97.1875L288.48575 96.21875L289.54825 96.21875L289.54825 97.0625Q289.54825 97.65625 289.25137 98.25Q288.9545 98.84375 288.517 99.203125ZM294.7045 88.96875L294.7045 89.875L294.50137 89.875Q293.23575 89.90625 292.48575 90.640625Q291.73575 91.359375 291.61075 92.671875Q292.29825 91.90625 293.4545 91.90625Q294.56387 91.90625 295.23575 92.6875Q295.90762 93.46875 295.90762 94.71875Q295.90762 96.03125 295.18887 96.828125Q294.47012 97.625 293.25137 97.625Q292.03262 97.625 291.267 96.6875Q290.517 95.734375 290.517 94.25L290.517 93.84375Q290.517 91.484375 291.517 90.234375Q292.517 88.984375 294.50137 88.96875L294.7045 88.96875ZM293.28262 92.8125Q292.72012 92.8125 292.25137 93.140625Q291.78262 93.46875 291.59512 93.984375L291.59512 94.375Q291.59512 95.4375 292.06387 96.078125Q292.54825 96.71875 293.25137 96.71875Q293.98575 96.71875 294.40762 96.1875Q294.8295 95.640625 294.8295 94.765625Q294.8295 93.890625 294.40762 93.359375Q293.98575 92.8125 293.28262 92.8125ZM302.79825 93.859375Q302.79825 95.765625 302.142 96.703125Q301.50137 97.625 300.11075 97.625Q298.75137 97.625 298.09512 96.71875Q297.43887 95.8125 297.40762 94.0L297.40762 92.5625Q297.40762 90.671875 298.04825 89.765625Q298.7045 88.84375 300.09512 88.84375Q301.47012 88.84375 302.12637 89.734375Q302.78262 90.609375 302.79825 92.453125L302.79825 93.859375ZM301.7045 92.375Q301.7045 91.0 301.31387 90.375Q300.93887 89.734375 300.09512 89.734375Q299.267 89.734375 298.87637 90.375Q298.50137 91.0 298.50137 92.296875L298.50137 94.03125Q298.50137 95.40625 298.892 96.078125Q299.29825 96.734375 300.11075 96.734375Q300.90762 96.734375 301.29825 96.109375Q301.68887 95.484375 301.7045 94.15625L301.7045 92.375Z" fill-rule="nonzero"/><path fill="#ffffff" d="M271.00137 97.5L269.92325 97.5L269.92325 90.28125L267.73575 91.078125L267.73575 90.09375L270.84512 88.921875L271.00137 88.921875L271.00137 97.5ZM278.00137 97.5L276.92325 97.5L276.92325 90.28125L274.73575 91.078125L274.73575 90.09375L277.84512 88.921875L278.00137 88.921875L278.00137 97.5ZM286.017 94.640625L287.2045 94.640625L287.2045 95.515625L286.017 95.515625L286.017 97.5L284.93887 97.5L284.93887 95.515625L281.04825 95.515625L281.04825 94.875L284.86075 88.96875L286.017 88.96875L286.017 94.640625ZM282.28262 94.640625L284.93887 94.640625L284.93887 90.453125L284.79825 90.6875L282.28262 94.640625ZM288.517 99.203125L287.90762 98.78125Q288.4545 98.015625 288.48575 97.1875L288.48575 96.21875L289.54825 96.21875L289.54825 97.0625Q289.54825 97.65625 289.25137 98.25Q288.9545 98.84375 288.517 99.203125ZM294.7045 88.96875L294.7045 89.875L294.50137 89.875Q293.23575 89.90625 292.48575 90.640625Q291.73575 91.359375 291.61075 92.671875Q292.29825 91.90625 293.4545 91.90625Q294.56387 91.90625 295.23575 92.6875Q295.90762 93.46875 295.90762 94.71875Q295.90762 96.03125 295.18887 96.828125Q294.47012 97.625 293.25137 97.625Q292.03262 97.625 291.267 96.6875Q290.517 95.734375 290.517 94.25L290.517 93.84375Q290.517 91.484375 291.517 90.234375Q292.517 88.984375 294.50137 88.96875L294.7045 88.96875ZM293.28262 92.8125Q292.72012 92.8125 292.25137 93.140625Q291.78262 93.46875 291.59512 93.984375L291.59512 94.375Q291.59512 95.4375 292.06387 96.078125Q292.54825 96.71875 293.25137 96.71875Q293.98575 96.71875 294.40762 96.1875Q294.8295 95.640625 294.8295 94.765625Q294.8295 93.890625 294.40762 93.359375Q293.98575 92.8125 293.28262 92.8125ZM302.79825 93.859375Q302.79825 95.765625 302.142 96.703125Q301.50137 97.625 300.11075 97.625Q298.75137 97.625 298.09512 96.71875Q297.43887 95.8125 297.40762 94.0L297.40762 92.5625Q297.40762 90.671875 298.04825 89.765625Q298.7045 88.84375 300.09512 88.84375Q301.47012 88.84375 302.12637 89.734375Q302.78262 90.609375 302.79825 92.453125L302.79825 93.859375ZM301.7045 92.375Q301.7045 91.0 301.31387 90.375Q300.93887 89.734375 300.09512 89.734375Q299.267 89.734375 298.87637 90.375Q298.50137 91.0 298.50137 92.296875L298.50137 94.03125Q298.50137 95.40625 298.892 96.078125Q299.29825 96.734375 300.11075 96.734375Q300.90762 96.734375 301.29825 96.109375Q301.68887 95.484375 301.7045 94.15625L301.7045 92.375Z" fill-rule="nonzero"/><path stroke="#4285f4" stroke-width="3.0" stroke-linejoin="round" stroke-linecap="round" d="M470.43167 153.5L464.83792 153.5L464.83792 152.71875L467.79105 149.4375Q468.4473 148.6875 468.6973 148.23438Q468.9473 147.76562 468.9473 147.26562Q468.9473 146.59375 468.54105 146.17188Q468.15042 145.73438 467.46292 145.73438Q466.66605 145.73438 466.21292 146.20312Q465.7598 146.65625 465.7598 147.48438L464.68167 147.48438Q464.68167 146.29688 465.43167 145.57812Q466.1973 144.84375 467.46292 144.84375Q468.66605 144.84375 469.35355 145.46875Q470.04105 146.09375 470.04105 147.14062Q470.04105 148.39062 468.43167 150.14062L466.15042 152.60938L470.43167 152.60938L470.43167 153.5ZM475.40042 153.5L474.3223 153.5L474.3223 146.28125L472.1348 147.07812L472.1348 146.09375L475.24417 144.92188L475.40042 144.92188L475.40042 153.5ZM484.43167 153.5L478.83792 153.5L478.83792 152.71875L481.79105 149.4375Q482.4473 148.6875 482.6973 148.23438Q482.9473 147.76562 482.9473 147.26562Q482.9473 146.59375 482.54105 146.17188Q482.15042 145.73438 481.46292 145.73438Q480.66605 145.73438 480.21292 146.20312Q479.7598 146.65625 479.7598 147.48438L478.68167 147.48438Q478.68167 146.29688 479.43167 145.57812Q480.1973 144.84375 481.46292 144.84375Q482.66605 144.84375 483.35355 145.46875Q484.04105 146.09375 484.04105 147.14062Q484.04105 148.39062 482.43167 150.14062L480.15042 152.60938L484.43167 152.60938L484.43167 153.5ZM485.91605 155.20312L485.30667 154.78125Q485.85355 154.01562 485.8848 153.1875L485.8848 152.21875L486.9473 152.21875L486.9473 153.0625Q486.9473 153.65625 486.65042 154.25Q486.35355 154.84375 485.91605 155.20312ZM488.33792 149.21875L488.77542 144.96875L493.15042 144.96875L493.15042 145.96875L489.6973 145.96875L489.43167 148.29688Q490.0723 147.92188 490.86917 147.92188Q492.02542 147.92188 492.71292 148.70312Q493.40042 149.46875 493.40042 150.78125Q493.40042 152.09375 492.68167 152.85938Q491.97855 153.625 490.6973 153.625Q489.5723 153.625 488.85355 153.0Q488.1348 152.35938 488.04105 151.25L489.05667 151.25Q489.16605 151.98438 489.58792 152.35938Q490.0098 152.73438 490.6973 152.73438Q491.4473 152.73438 491.8848 152.21875Q492.3223 151.70312 492.3223 150.79688Q492.3223 149.9375 491.85355 149.42188Q491.3848 148.90625 490.60355 148.90625Q489.90042 148.90625 489.49417 149.20312L489.21292 149.4375L488.33792 149.21875ZM496.41605 148.70312L497.22855 148.70312Q498.0098 148.6875 498.4473 148.29688Q498.8848 147.90625 498.8848 147.23438Q498.8848 145.73438 497.3848 145.73438Q496.68167 145.73438 496.2598 146.14062Q495.85355 146.54688 495.85355 147.20312L494.7598 147.20312Q494.7598 146.1875 495.49417 145.51562Q496.24417 144.84375 497.3848 144.84375Q498.58792 144.84375 499.27542 145.48438Q499.96292 146.125 499.96292 147.26562Q499.96292 147.82812 499.60355 148.34375Q499.24417 148.85938 498.61917 149.125Q499.3223 149.34375 499.6973 149.85938Q500.08792 150.375 500.08792 151.125Q500.08792 152.26562 499.33792 152.95312Q498.58792 153.625 497.3848 153.625Q496.1973 153.625 495.43167 152.96875Q494.68167 152.3125 494.68167 151.25L495.77542 151.25Q495.77542 151.92188 496.21292 152.32812Q496.65042 152.73438 497.40042 152.73438Q498.18167 152.73438 498.58792 152.32812Q499.0098 151.90625 499.0098 151.14062Q499.0098 150.40625 498.55667 150.01562Q498.10355 149.60938 497.22855 149.59375L496.41605 149.59375L496.41605 148.70312Z" fill-rule="nonzero"/><path fill="#ffffff" d="M470.43167 153.5L464.83792 153.5L464.83792 152.71875L467.79105 149.4375Q468.4473 148.6875 468.6973 148.23438Q468.9473 147.76562 468.9473 147.26562Q468.9473 146.59375 468.54105 146.17188Q468.15042 145.73438 467.46292 145.73438Q466.66605 145.73438 466.21292 146.20312Q465.7598 146.65625 465.7598 147.48438L464.68167 147.48438Q464.68167 146.29688 465.43167 145.57812Q466.1973 144.84375 467.46292 144.84375Q468.66605 144.84375 469.35355 145.46875Q470.04105 146.09375 470.04105 147.14062Q470.04105 148.39062 468.43167 150.14062L466.15042 152.60938L470.43167 152.60938L470.43167 153.5ZM475.40042 153.5L474.3223 153.5L474.3223 146.28125L472.1348 147.07812L472.1348 146.09375L475.24417 144.92188L475.40042 144.92188L475.40042 153.5ZM484.43167 153.5L478.83792 153.5L478.83792 152.71875L481.79105 149.4375Q482.4473 148.6875 482.6973 148.23438Q482.9473 147.76562 482.9473 147.26562Q482.9473 146.59375 482.54105 146.17188Q482.15042 145.73438 481.46292 145.73438Q480.66605 145.73438 480.21292 146.20312Q479.7598 146.65625 479.7598 147.48438L478.68167 147.48438Q478.68167 146.29688 479.43167 145.57812Q480.1973 144.84375 481.46292 144.84375Q482.66605 144.84375 483.35355 145.46875Q484.04105 146.09375 484.04105 147.14062Q484.04105 148.39062 482.43167 150.14062L480.15042 152.60938L484.43167 152.60938L484.43167 153.5ZM485.91605 155.20312L485.30667 154.78125Q485.85355 154.01562 485.8848 153.1875L485.8848 152.21875L486.9473 152.21875L486.9473 153.0625Q486.9473 153.65625 486.65042 154.25Q486.35355 154.84375 485.91605 155.20312ZM488.33792 149.21875L488.77542 144.96875L493.15042 144.96875L493.15042 145.96875L489.6973 145.96875L489.43167 148.29688Q490.0723 147.92188 490.86917 147.92188Q492.02542 147.92188 492.71292 148.70312Q493.40042 149.46875 493.40042 150.78125Q493.40042 152.09375 492.68167 152.85938Q491.97855 153.625 490.6973 153.625Q489.5723 153.625 488.85355 153.0Q488.1348 152.35938 488.04105 151.25L489.05667 151.25Q489.16605 151.98438 489.58792 152.35938Q490.0098 152.73438 490.6973 152.73438Q491.4473 152.73438 491.8848 152.21875Q492.3223 151.70312 492.3223 150.79688Q492.3223 149.9375 491.85355 149.42188Q491.3848 148.90625 490.60355 148.90625Q489.90042 148.90625 489.49417 149.20312L489.21292 149.4375L488.33792 149.21875ZM496.41605 148.70312L497.22855 148.70312Q498.0098 148.6875 498.4473 148.29688Q498.8848 147.90625 498.8848 147.23438Q498.8848 145.73438 497.3848 145.73438Q496.68167 145.73438 496.2598 146.14062Q495.85355 146.54688 495.85355 147.20312L494.7598 147.20312Q494.7598 146.1875 495.49417 145.51562Q496.24417 144.84375 497.3848 144.84375Q498.58792 144.84375 499.27542 145.48438Q499.96292 146.125 499.96292 147.26562Q499.96292 147.82812 499.60355 148.34375Q499.24417 148.85938 498.61917 149.125Q499.3223 149.34375 499.6973 149.85938Q500.08792 150.375 500.08792 151.125Q500.08792 152.26562 499.33792 152.95312Q498.58792 153.625 497.3848 153.625Q496.1973 153.625 495.43167 152.96875Q494.68167 152.3125 494.68167 151.25L495.77542 151.25Q495.77542 151.92188 496.21292 152.32812Q496.65042 152.73438 497.40042 152.73438Q498.18167 152.73438 498.58792 152.32812Q499.0098 151.90625 499.0098 151.14062Q499.0098 150.40625 498.55667 150.01562Q498.10355 149.60938 497.22855 149.59375L496.41605 149.59375L496.41605 148.70312Z" fill-rule="nonzero"/><path stroke="#4285f4" stroke-width="3.0" stroke-linejoin="round" stroke-linecap="round" d="M481.79065 210.5L476.1969 210.5L476.1969 209.71875L479.15002 206.4375Q479.80627 205.6875 480.05627 205.23438Q480.30627 204.76562 480.30627 204.26562Q480.30627 203.59375 479.90002 203.17188Q479.5094 202.73438 478.8219 202.73438Q478.02502 202.73438 477.5719 203.20312Q477.11877 203.65625 477.11877 204.48438L476.04065 204.48438Q476.04065 203.29688 476.79065 202.57812Q477.55627 201.84375 478.8219 201.84375Q480.02502 201.84375 480.71252 202.46875Q481.40002 203.09375 481.40002 204.14062Q481.40002 205.39062 479.79065 207.14062L477.5094 209.60938L481.79065 209.60938L481.79065 210.5ZM486.7594 210.5L485.68127 210.5L485.68127 203.28125L483.49377 204.07812L483.49377 203.09375L486.60315 201.92188L486.7594 201.92188L486.7594 210.5ZM495.3844 204.1875Q495.3844 204.82812 495.04065 205.32812Q494.6969 205.82812 494.1344 206.10938Q494.79065 206.39062 495.18127 206.95312Q495.5719 207.5 495.5719 208.20312Q495.5719 209.29688 494.8219 209.96875Q494.08752 210.625 492.86877 210.625Q491.6344 210.625 490.8844 209.96875Q490.15002 209.29688 490.15002 208.20312Q490.15002 207.5 490.52502 206.95312Q490.90002 206.39062 491.5719 206.10938Q491.0094 205.82812 490.68127 205.32812Q490.35315 204.82812 490.35315 204.1875Q490.35315 203.10938 491.04065 202.48438Q491.72815 201.84375 492.86877 201.84375Q493.99377 201.84375 494.68127 202.48438Q495.3844 203.10938 495.3844 204.1875ZM494.49377 208.17188Q494.49377 207.45312 494.04065 207.01562Q493.58752 206.5625 492.85315 206.5625Q492.11877 206.5625 491.66565 207.01562Q491.22815 207.45312 491.22815 208.1875Q491.22815 208.90625 491.66565 209.32812Q492.10315 209.73438 492.86877 209.73438Q493.61877 209.73438 494.05627 209.3125Q494.49377 208.89062 494.49377 208.17188ZM492.86877 202.73438Q492.22815 202.73438 491.8219 203.14062Q491.43127 203.53125 491.43127 204.21875Q491.43127 204.85938 491.8219 205.26562Q492.21252 205.67188 492.85315 205.67188Q493.5094 205.67188 493.90002 205.26562Q494.29065 204.85938 494.29065 204.21875Q494.29065 203.5625 493.8844 203.15625Q493.47815 202.73438 492.86877 202.73438ZM497.27502 212.20312L496.66565 211.78125Q497.21252 211.01562 497.24377 210.1875L497.24377 209.21875L498.30627 209.21875L498.30627 210.0625Q498.30627 210.65625 498.0094 211.25Q497.71252 211.84375 497.27502 212.20312ZM502.7594 210.5L501.68127 210.5L501.68127 203.28125L499.49377 204.07812L499.49377 203.09375L502.60315 201.92188L502.7594 201.92188L502.7594 210.5ZM511.71252 202.57812L508.18127 210.5L507.04065 210.5L510.55627 202.85938L505.9469 202.85938L505.9469 201.96875L511.71252 201.96875L511.71252 202.57812Z" fill-rule="nonzero"/><path fill="#ffffff" d="M481.79065 210.5L476.1969 210.5L476.1969 209.71875L479.15002 206.4375Q479.80627 205.6875 480.05627 205.23438Q480.30627 204.76562 480.30627 204.26562Q480.30627 203.59375 479.90002 203.17188Q479.5094 202.73438 478.8219 202.73438Q478.02502 202.73438 477.5719 203.20312Q477.11877 203.65625 477.11877 204.48438L476.04065 204.48438Q476.04065 203.29688 476.79065 202.57812Q477.55627 201.84375 478.8219 201.84375Q480.02502 201.84375 480.71252 202.46875Q481.40002 203.09375 481.40002 204.14062Q481.40002 205.39062 479.79065 207.14062L477.5094 209.60938L481.79065 209.60938L481.79065 210.5ZM486.7594 210.5L485.68127 210.5L485.68127 203.28125L483.49377 204.07812L483.49377 203.09375L486.60315 201.92188L486.7594 201.92188L486.7594 210.5ZM495.3844 204.1875Q495.3844 204.82812 495.04065 205.32812Q494.6969 205.82812 494.1344 206.10938Q494.79065 206.39062 495.18127 206.95312Q495.5719 207.5 495.5719 208.20312Q495.5719 209.29688 494.8219 209.96875Q494.08752 210.625 492.86877 210.625Q491.6344 210.625 490.8844 209.96875Q490.15002 209.29688 490.15002 208.20312Q490.15002 207.5 490.52502 206.95312Q490.90002 206.39062 491.5719 206.10938Q491.0094 205.82812 490.68127 205.32812Q490.35315 204.82812 490.35315 204.1875Q490.35315 203.10938 491.04065 202.48438Q491.72815 201.84375 492.86877 201.84375Q493.99377 201.84375 494.68127 202.48438Q495.3844 203.10938 495.3844 204.1875ZM494.49377 208.17188Q494.49377 207.45312 494.04065 207.01562Q493.58752 206.5625 492.85315 206.5625Q492.11877 206.5625 491.66565 207.01562Q491.22815 207.45312 491.22815 208.1875Q491.22815 208.90625 491.66565 209.32812Q492.10315 209.73438 492.86877 209.73438Q493.61877 209.73438 494.05627 209.3125Q494.49377 208.89062 494.49377 208.17188ZM492.86877 202.73438Q492.22815 202.73438 491.8219 203.14062Q491.43127 203.53125 491.43127 204.21875Q491.43127 204.85938 491.8219 205.26562Q492.21252 205.67188 492.85315 205.67188Q493.5094 205.67188 493.90002 205.26562Q494.29065 204.85938 494.29065 204.21875Q494.29065 203.5625 493.8844 203.15625Q493.47815 202.73438 492.86877 202.73438ZM497.27502 212.20312L496.66565 211.78125Q497.21252 211.01562 497.24377 210.1875L497.24377 209.21875L498.30627 209.21875L498.30627 210.0625Q498.30627 210.65625 498.0094 211.25Q497.71252 211.84375 497.27502 212.20312ZM502.7594 210.5L501.68127 210.5L501.68127 203.28125L499.49377 204.07812L499.49377 203.09375L502.60315 201.92188L502.7594 201.92188L502.7594 210.5ZM511.71252 202.57812L508.18127 210.5L507.04065 210.5L510.55627 202.85938L505.9469 202.85938L505.9469 201.96875L511.71252 201.96875L511.71252 202.57812Z" fill-rule="nonzero"/><path stroke="#4285f4" stroke-width="3.0" stroke-linejoin="round" stroke-linecap="round" d="M519.7216 266.5L514.12787 266.5L514.12787 265.71875L517.081 262.4375Q517.73724 261.6875 517.98724 261.23438Q518.23724 260.76562 518.23724 260.26562Q518.23724 259.59375 517.831 259.17188Q517.44037 258.73438 516.75287 258.73438Q515.956 258.73438 515.50287 259.20312Q515.04974 259.65625 515.04974 260.48438L513.9716 260.48438Q513.9716 259.29688 514.7216 258.57812Q515.48724 257.84375 516.75287 257.84375Q517.956 257.84375 518.6435 258.46875Q519.331 259.09375 519.331 260.14062Q519.331 261.39062 517.7216 263.14062L515.44037 265.60938L519.7216 265.60938L519.7216 266.5ZM522.706 261.70312L523.5185 261.70312Q524.29974 261.6875 524.73724 261.29688Q525.17474 260.90625 525.17474 260.23438Q525.17474 258.73438 523.67474 258.73438Q522.9716 258.73438 522.54974 259.14062Q522.1435 259.54688 522.1435 260.20312L521.04974 260.20312Q521.04974 259.1875 521.7841 258.51562Q522.5341 257.84375 523.67474 257.84375Q524.87787 257.84375 525.56537 258.48438Q526.25287 259.125 526.25287 260.26562Q526.25287 260.82812 525.8935 261.34375Q525.5341 261.85938 524.9091 262.125Q525.61224 262.34375 525.98724 262.85938Q526.37787 263.375 526.37787 264.125Q526.37787 265.26562 525.62787 265.95312Q524.87787 266.625 523.67474 266.625Q522.48724 266.625 521.7216 265.96875Q520.9716 265.3125 520.9716 264.25L522.06537 264.25Q522.06537 264.92188 522.50287 265.32812Q522.94037 265.73438 523.69037 265.73438Q524.4716 265.73438 524.87787 265.32812Q525.29974 264.90625 525.29974 264.14062Q525.29974 263.40625 524.8466 263.01562Q524.3935 262.60938 523.5185 262.59375L522.706 262.59375L522.706 261.70312ZM532.3935 257.96875L532.3935 258.875L532.19037 258.875Q530.92474 258.90625 530.17474 259.64062Q529.42474 260.35938 529.29974 261.67188Q529.98724 260.90625 531.1435 260.90625Q532.25287 260.90625 532.92474 261.6875Q533.5966 262.46875 533.5966 263.71875Q533.5966 265.03125 532.87787 265.82812Q532.1591 266.625 530.94037 266.625Q529.7216 266.625 528.956 265.6875Q528.206 264.73438 528.206 263.25L528.206 262.84375Q528.206 260.48438 529.206 259.23438Q530.206 257.98438 532.19037 257.96875L532.3935 257.96875ZM530.9716 261.8125Q530.4091 261.8125 529.94037 262.14062Q529.4716 262.46875 529.2841 262.98438L529.2841 263.375Q529.2841 264.4375 529.75287 265.07812Q530.23724 265.71875 530.94037 265.71875Q531.67474 265.71875 532.0966 265.1875Q532.5185 264.64062 532.5185 263.76562Q532.5185 262.89062 532.0966 262.35938Q531.67474 261.8125 530.9716 261.8125ZM535.206 268.20312L534.5966 267.78125Q535.1435 267.01562 535.17474 266.1875L535.17474 265.21875L536.23724 265.21875L536.23724 266.0625Q536.23724 266.65625 535.94037 267.25Q535.6435 267.84375 535.206 268.20312ZM541.2841 262.75Q540.956 263.15625 540.4716 263.40625Q540.00287 263.64062 539.44037 263.64062Q538.706 263.64062 538.1591 263.28125Q537.61224 262.92188 537.31537 262.26562Q537.0185 261.59375 537.0185 260.79688Q537.0185 259.95312 537.331 259.26562Q537.6591 258.57812 538.25287 258.21875Q538.86224 257.84375 539.6591 257.84375Q540.92474 257.84375 541.6435 258.79688Q542.37787 259.75 542.37787 261.375L542.37787 261.6875Q542.37787 264.1875 541.3935 265.32812Q540.4091 266.46875 538.42474 266.5L538.206 266.5L538.206 265.59375L538.44037 265.59375Q539.7841 265.5625 540.50287 264.89062Q541.2216 264.21875 541.2841 262.75ZM539.61224 262.75Q540.1591 262.75 540.61224 262.42188Q541.081 262.07812 541.29974 261.59375L541.29974 261.15625Q541.29974 260.09375 540.831 259.42188Q540.36224 258.75 539.6591 258.75Q538.94037 258.75 538.50287 259.29688Q538.081 259.84375 538.081 260.75Q538.081 261.625 538.48724 262.1875Q538.9091 262.75 539.61224 262.75ZM548.2841 262.75Q547.956 263.15625 547.4716 263.40625Q547.00287 263.64062 546.44037 263.64062Q545.706 263.64062 545.1591 263.28125Q544.61224 262.92188 544.31537 262.26562Q544.0185 261.59375 544.0185 260.79688Q544.0185 259.95312 544.331 259.26562Q544.6591 258.57812 545.25287 258.21875Q545.86224 257.84375 546.6591 257.84375Q547.92474 257.84375 548.6435 258.79688Q549.37787 259.75 549.37787 261.375L549.37787 261.6875Q549.37787 264.1875 548.3935 265.32812Q547.4091 266.46875 545.42474 266.5L545.206 266.5L545.206 265.59375L545.44037 265.59375Q546.7841 265.5625 547.50287 264.89062Q548.2216 264.21875 548.2841 262.75ZM546.61224 262.75Q547.1591 262.75 547.61224 262.42188Q548.081 262.07812 548.29974 261.59375L548.29974 261.15625Q548.29974 260.09375 547.831 259.42188Q547.36224 258.75 546.6591 258.75Q545.94037 258.75 545.50287 259.29688Q545.081 259.84375 545.081 260.75Q545.081 261.625 545.48724 262.1875Q545.9091 262.75 546.61224 262.75Z" fill-rule="nonzero"/><path fill="#ffffff" d="M519.7216 266.5L514.12787 266.5L514.12787 265.71875L517.081 262.4375Q517.73724 261.6875 517.98724 261.23438Q518.23724 260.76562 518.23724 260.26562Q518.23724 259.59375 517.831 259.17188Q517.44037 258.73438 516.75287 258.73438Q515.956 258.73438 515.50287 259.20312Q515.04974 259.65625 515.04974 260.48438L513.9716 260.48438Q513.9716 259.29688 514.7216 258.57812Q515.48724 257.84375 516.75287 257.84375Q517.956 257.84375 518.6435 258.46875Q519.331 259.09375 519.331 260.14062Q519.331 261.39062 517.7216 263.14062L515.44037 265.60938L519.7216 265.60938L519.7216 266.5ZM522.706 261.70312L523.5185 261.70312Q524.29974 261.6875 524.73724 261.29688Q525.17474 260.90625 525.17474 260.23438Q525.17474 258.73438 523.67474 258.73438Q522.9716 258.73438 522.54974 259.14062Q522.1435 259.54688 522.1435 260.20312L521.04974 260.20312Q521.04974 259.1875 521.7841 258.51562Q522.5341 257.84375 523.67474 257.84375Q524.87787 257.84375 525.56537 258.48438Q526.25287 259.125 526.25287 260.26562Q526.25287 260.82812 525.8935 261.34375Q525.5341 261.85938 524.9091 262.125Q525.61224 262.34375 525.98724 262.85938Q526.37787 263.375 526.37787 264.125Q526.37787 265.26562 525.62787 265.95312Q524.87787 266.625 523.67474 266.625Q522.48724 266.625 521.7216 265.96875Q520.9716 265.3125 520.9716 264.25L522.06537 264.25Q522.06537 264.92188 522.50287 265.32812Q522.94037 265.73438 523.69037 265.73438Q524.4716 265.73438 524.87787 265.32812Q525.29974 264.90625 525.29974 264.14062Q525.29974 263.40625 524.8466 263.01562Q524.3935 262.60938 523.5185 262.59375L522.706 262.59375L522.706 261.70312ZM532.3935 257.96875L532.3935 258.875L532.19037 258.875Q530.92474 258.90625 530.17474 259.64062Q529.42474 260.35938 529.29974 261.67188Q529.98724 260.90625 531.1435 260.90625Q532.25287 260.90625 532.92474 261.6875Q533.5966 262.46875 533.5966 263.71875Q533.5966 265.03125 532.87787 265.82812Q532.1591 266.625 530.94037 266.625Q529.7216 266.625 528.956 265.6875Q528.206 264.73438 528.206 263.25L528.206 262.84375Q528.206 260.48438 529.206 259.23438Q530.206 257.98438 532.19037 257.96875L532.3935 257.96875ZM530.9716 261.8125Q530.4091 261.8125 529.94037 262.14062Q529.4716 262.46875 529.2841 262.98438L529.2841 263.375Q529.2841 264.4375 529.75287 265.07812Q530.23724 265.71875 530.94037 265.71875Q531.67474 265.71875 532.0966 265.1875Q532.5185 264.64062 532.5185 263.76562Q532.5185 262.89062 532.0966 262.35938Q531.67474 261.8125 530.9716 261.8125ZM535.206 268.20312L534.5966 267.78125Q535.1435 267.01562 535.17474 266.1875L535.17474 265.21875L536.23724 265.21875L536.23724 266.0625Q536.23724 266.65625 535.94037 267.25Q535.6435 267.84375 535.206 268.20312ZM541.2841 262.75Q540.956 263.15625 540.4716 263.40625Q540.00287 263.64062 539.44037 263.64062Q538.706 263.64062 538.1591 263.28125Q537.61224 262.92188 537.31537 262.26562Q537.0185 261.59375 537.0185 260.79688Q537.0185 259.95312 537.331 259.26562Q537.6591 258.57812 538.25287 258.21875Q538.86224 257.84375 539.6591 257.84375Q540.92474 257.84375 541.6435 258.79688Q542.37787 259.75 542.37787 261.375L542.37787 261.6875Q542.37787 264.1875 541.3935 265.32812Q540.4091 266.46875 538.42474 266.5L538.206 266.5L538.206 265.59375L538.44037 265.59375Q539.7841 265.5625 540.50287 264.89062Q541.2216 264.21875 541.2841 262.75ZM539.61224 262.75Q540.1591 262.75 540.61224 262.42188Q541.081 262.07812 541.29974 261.59375L541.29974 261.15625Q541.29974 260.09375 540.831 259.42188Q540.36224 258.75 539.6591 258.75Q538.94037 258.75 538.50287 259.29688Q538.081 259.84375 538.081 260.75Q538.081 261.625 538.48724 262.1875Q538.9091 262.75 539.61224 262.75ZM548.2841 262.75Q547.956 263.15625 547.4716 263.40625Q547.00287 263.64062 546.44037 263.64062Q545.706 263.64062 545.1591 263.28125Q544.61224 262.92188 544.31537 262.26562Q544.0185 261.59375 544.0185 260.79688Q544.0185 259.95312 544.331 259.26562Q544.6591 258.57812 545.25287 258.21875Q545.86224 257.84375 546.6591 257.84375Q547.92474 257.84375 548.6435 258.79688Q549.37787 259.75 549.37787 261.375L549.37787 261.6875Q549.37787 264.1875 548.3935 265.32812Q547.4091 266.46875 545.42474 266.5L545.206 266.5L545.206 265.59375L545.44037 265.59375Q546.7841 265.5625 547.50287 264.89062Q548.2216 264.21875 548.2841 262.75ZM546.61224 262.75Q547.1591 262.75 547.61224 262.42188Q548.081 262.07812 548.29974 261.59375L548.29974 261.15625Q548.29974 260.09375 547.831 259.42188Q547.36224 258.75 546.6591 258.75Q545.94037 258.75 545.50287 259.29688Q545.081 259.84375 545.081 260.75Q545.081 261.625 545.48724 262.1875Q545.9091 262.75 546.61224 262.75Z" fill-rule="nonzero"/><path fill="#000000" d="M302.76562 349.45L301.78125 349.45L301.78125 340.85626L302.84375 340.85626L302.84375 343.91876Q303.51562 343.09064 304.54688 343.09064Q305.125 343.09064 305.625 343.325Q306.14062 343.54376 306.46875 343.96564Q306.8125 344.3875 307.0 344.98126Q307.1875 345.575 307.1875 346.2469Q307.1875 347.84064 306.39062 348.71564Q305.59375 349.59064 304.5 349.59064Q303.39062 349.59064 302.76562 348.66876L302.76562 349.45ZM302.75 346.29376Q302.75 347.40314 303.0625 347.90314Q303.5625 348.71564 304.40625 348.71564Q305.09375 348.71564 305.59375 348.1219Q306.10938 347.52814 306.10938 346.325Q306.10938 345.10626 305.625 344.52814Q305.14062 343.95 304.45312 343.95Q303.76562 343.95 303.25 344.5594Q302.75 345.15314 302.75 346.29376ZM312.85938 348.6844Q312.26562 349.1844 311.71875 349.3875Q311.1875 349.59064 310.5625 349.59064Q309.53125 349.59064 308.98438 349.09064Q308.4375 348.59064 308.4375 347.8094Q308.4375 347.35626 308.64062 346.98126Q308.84375 346.59064 309.1875 346.3719Q309.53125 346.1375 309.95312 346.02814Q310.25 345.9344 310.89062 345.85626Q312.15625 345.71564 312.76562 345.4969Q312.76562 345.27814 312.76562 345.23126Q312.76562 344.575 312.46875 344.3094Q312.0625 343.96564 311.26562 343.96564Q310.53125 343.96564 310.17188 344.23126Q309.8125 344.48126 309.64062 345.1375L308.60938 344.9969Q308.75 344.34064 309.07812 343.9344Q309.40625 343.52814 310.01562 343.3094Q310.625 343.09064 311.42188 343.09064Q312.21875 343.09064 312.71875 343.27814Q313.21875 343.46564 313.45312 343.7469Q313.6875 344.02814 313.78125 344.46564Q313.82812 344.73126 313.82812 345.4344L313.82812 346.84064Q313.82812 348.3094 313.89062 348.7Q313.96875 349.09064 314.17188 349.45L313.0625 349.45Q312.90625 349.1219 312.85938 348.6844ZM312.76562 346.325Q312.1875 346.5594 311.04688 346.73126Q310.39062 346.825 310.125 346.95Q309.85938 347.0594 309.70312 347.27814Q309.5625 347.4969 309.5625 347.77814Q309.5625 348.2 309.875 348.48126Q310.20312 348.7625 310.8125 348.7625Q311.42188 348.7625 311.89062 348.4969Q312.375 348.23126 312.59375 347.7625Q312.76562 347.40314 312.76562 346.71564L312.76562 346.325ZM315.79688 349.45L315.79688 343.23126L316.73438 343.23126L316.73438 344.10626Q317.42188 343.09064 318.71875 343.09064Q319.28125 343.09064 319.75 343.29376Q320.23438 343.4969 320.46875 343.825Q320.70312 344.15314 320.79688 344.59064Q320.84375 344.8875 320.84375 345.6219L320.84375 349.45L319.79688 349.45L319.79688 345.66876Q319.79688 345.0125 319.67188 344.7Q319.54688 344.3875 319.23438 344.2Q318.92188 343.9969 318.5 343.9969Q317.82812 343.9969 317.32812 344.4344Q316.84375 344.85626 316.84375 346.04376L316.84375 349.45L315.79688 349.45ZM326.82812 349.45L326.82812 348.66876Q326.23438 349.59064 325.09375 349.59064Q324.34375 349.59064 323.71875 349.1844Q323.09375 348.7625 322.75 348.02814Q322.40625 347.29376 322.40625 346.34064Q322.40625 345.41876 322.71875 344.65314Q323.03125 343.8875 323.65625 343.4969Q324.28125 343.09064 325.04688 343.09064Q325.60938 343.09064 326.04688 343.325Q326.48438 343.5594 326.76562 343.9344L326.76562 340.85626L327.8125 340.85626L327.8125 349.45L326.82812 349.45ZM323.5 346.34064Q323.5 347.54376 324.0 348.1375Q324.5 348.71564 325.1875 348.71564Q325.875 348.71564 326.35938 348.15314Q326.84375 347.59064 326.84375 346.4344Q326.84375 345.15314 326.34375 344.5594Q325.85938 343.96564 325.14062 343.96564Q324.4375 343.96564 323.96875 344.54376Q323.5 345.10626 323.5 346.34064ZM330.9375 349.45L329.03125 343.23126L330.125 343.23126L331.10938 346.825L331.48438 348.15314Q331.51562 348.0594 331.8125 346.8719L332.79688 343.23126L333.875 343.23126L334.8125 346.84064L335.125 348.02814L335.48438 346.825L336.54688 343.23126L337.57812 343.23126L335.625 349.45L334.53125 349.45L333.54688 345.71564L333.29688 344.66876L332.04688 349.45L330.9375 349.45ZM338.79688 342.075L338.79688 340.85626L339.85938 340.85626L339.85938 342.075L338.79688 342.075ZM338.79688 349.45L338.79688 343.23126L339.85938 343.23126L339.85938 349.45L338.79688 349.45ZM345.82812 349.45L345.82812 348.66876Q345.23438 349.59064 344.09375 349.59064Q343.34375 349.59064 342.71875 349.1844Q342.09375 348.7625 341.75 348.02814Q341.40625 347.29376 341.40625 346.34064Q341.40625 345.41876 341.71875 344.65314Q342.03125 343.8875 342.65625 343.4969Q343.28125 343.09064 344.04688 343.09064Q344.60938 343.09064 345.04688 343.325Q345.48438 343.5594 345.76562 343.9344L345.76562 340.85626L346.8125 340.85626L346.8125 349.45L345.82812 349.45ZM342.5 346.34064Q342.5 347.54376 343.0 348.1375Q343.5 348.71564 344.1875 348.71564Q344.875 348.71564 345.35938 348.15314Q345.84375 347.59064 345.84375 346.4344Q345.84375 345.15314 345.34375 344.5594Q344.85938 343.96564 344.14062 343.96564Q343.4375 343.96564 342.96875 344.54376Q342.5 345.10626 342.5 346.34064ZM351.09375 348.5125L351.25 349.4344Q350.79688 349.52814 350.45312 349.52814Q349.875 349.52814 349.5625 349.35626Q349.25 349.16876 349.10938 348.8719Q348.98438 348.575 348.98438 347.6219L348.98438 344.04376L348.21875 344.04376L348.21875 343.23126L348.98438 343.23126L348.98438 341.6844L350.03125 341.0594L350.03125 343.23126L351.09375 343.23126L351.09375 344.04376L350.03125 344.04376L350.03125 347.6844Q350.03125 348.1375 350.07812 348.2625Q350.14062 348.3875 350.26562 348.46564Q350.39062 348.54376 350.625 348.54376Q350.8125 348.54376 351.09375 348.5125ZM351.79688 349.45L351.79688 340.85626L352.84375 340.85626L352.84375 343.9344Q353.57812 343.09064 354.70312 343.09064Q355.40625 343.09064 355.90625 343.3719Q356.42188 343.6375 356.64062 344.1219Q356.85938 344.59064 356.85938 345.5125L356.85938 349.45L355.8125 349.45L355.8125 345.5125Q355.8125 344.71564 355.46875 344.35626Q355.125 343.9969 354.5 343.9969Q354.03125 343.9969 353.60938 344.2469Q353.20312 344.48126 353.01562 344.90314Q352.84375 345.3094 352.84375 346.04376L352.84375 349.45L351.79688 349.45Z" fill-rule="nonzero"/><path fill="#000000" d="M29.550013 200.88646L23.331263 200.88646L23.331263 199.94896L24.206263 199.94896Q23.190638 199.26146 23.190638 197.96458Q23.190638 197.40208 23.393763 196.93333Q23.596888 196.44896 23.925013 196.21458Q24.253138 195.98021 24.690638 195.88646Q24.987513 195.83958 25.721888 195.83958L29.550013 195.83958L29.550013 196.88646L25.768763 196.88646Q25.112513 196.88646 24.800013 197.01146Q24.487513 197.13646 24.300013 197.44896Q24.096888 197.76146 24.096888 198.18333Q24.096888 198.85521 24.534388 199.35521Q24.956263 199.83958 26.143763 199.83958L29.550013 199.83958L29.550013 200.88646ZM26.440638 194.27708Q24.706263 194.27708 23.878138 193.32396Q23.190638 192.52708 23.190638 191.37083Q23.190638 190.08958 24.034388 189.27708Q24.862513 188.44896 26.346888 188.44896Q27.550013 188.44896 28.237513 188.80833Q28.925013 189.16771 29.315638 189.87083Q29.690638 190.55833 29.690638 191.37083Q29.690638 192.66771 28.862513 193.48021Q28.018763 194.27708 26.440638 194.27708ZM26.440638 193.19896Q27.628138 193.19896 28.221888 192.68333Q28.815638 192.15208 28.815638 191.37083Q28.815638 190.57396 28.221888 190.05833Q27.628138 189.54271 26.409388 189.54271Q25.253138 189.54271 24.659388 190.07396Q24.065638 190.58958 24.065638 191.37083Q24.065638 192.15208 24.659388 192.68333Q25.237513 193.19896 26.440638 193.19896ZM29.550013 182.85521L28.768763 182.85521Q29.690638 183.44896 29.690638 184.58958Q29.690638 185.33958 29.284388 185.96458Q28.862513 186.58958 28.128138 186.93333Q27.393763 187.27708 26.440638 187.27708Q25.518763 187.27708 24.753138 186.96458Q23.987513 186.65208 23.596888 186.02708Q23.190638 185.40208 23.190638 184.63646Q23.190638 184.07396 23.425013 183.63646Q23.659388 183.19896 24.034388 182.91771L20.956263 182.91771L20.956263 181.87083L29.550013 181.87083L29.550013 182.85521ZM26.440638 186.18333Q27.643763 186.18333 28.237513 185.68333Q28.815638 185.18333 28.815638 184.49583Q28.815638 183.80833 28.253138 183.32396Q27.690638 182.83958 26.534388 182.83958Q25.253138 182.83958 24.659388 183.33958Q24.065638 183.82396 24.065638 184.54271Q24.065638 185.24583 24.643763 185.71458Q25.206263 186.18333 26.440638 186.18333ZM27.550013 175.63646L27.675013 174.54271Q28.628138 174.79271 29.159388 175.49583Q29.690638 176.19896 29.690638 177.27708Q29.690638 178.63646 28.846888 179.44896Q28.003138 180.24583 26.487513 180.24583Q24.925013 180.24583 24.065638 179.43333Q23.190638 178.62083 23.190638 177.33958Q23.190638 176.08958 24.034388 175.30833Q24.878138 174.51146 26.425013 174.51146Q26.518763 174.51146 26.706263 174.51146L26.706263 179.15208Q27.737513 179.08958 28.284388 178.57396Q28.815638 178.05833 28.815638 177.27708Q28.815638 176.69896 28.518763 176.29271Q28.206263 175.87083 27.550013 175.63646ZM25.846888 179.08958L25.846888 175.62083Q25.050013 175.68333 24.659388 176.01146Q24.050013 176.52708 24.050013 177.32396Q24.050013 178.05833 24.534388 178.55833Q25.018763 179.04271 25.846888 179.08958Z" fill-rule="nonzero"/><path fill="#000000" d="M53.346874 99.407295L53.346874 90.79792L54.3 90.79792L54.3 91.594795Q54.64375 91.126045 55.065624 90.89167Q55.503124 90.657295 56.1125 90.657295Q56.909374 90.657295 57.51875 91.063545Q58.128124 91.469795 58.425 92.219795Q58.7375 92.969795 58.7375 93.86042Q58.7375 94.813545 58.39375 95.57917Q58.065624 96.344795 57.409374 96.751045Q56.753124 97.157295 56.034374 97.157295Q55.503124 97.157295 55.08125 96.938545Q54.659374 96.70417 54.39375 96.376045L54.39375 99.407295L53.346874 99.407295ZM54.3 93.938545Q54.3 95.14167 54.784374 95.719795Q55.26875 96.282295 55.95625 96.282295Q56.659374 96.282295 57.159374 95.688545Q57.659374 95.094795 57.659374 93.844795Q57.659374 92.657295 57.175 92.07917Q56.690624 91.48542 56.003124 91.48542Q55.33125 91.48542 54.815624 92.11042Q54.3 92.73542 54.3 93.938545ZM62.065624 97.01667L59.70625 90.79792L60.815624 90.79792L62.159374 94.51667Q62.3625 95.126045 62.55 95.76667Q62.690624 95.282295 62.940624 94.594795L64.33125 90.79792L65.40938 90.79792L63.05 97.01667L62.065624 97.01667ZM69.59688 95.01667L70.69063 95.14167Q70.44063 96.094795 69.7375 96.626045Q69.03438 97.157295 67.95625 97.157295Q66.59688 97.157295 65.78438 96.313545Q64.9875 95.469795 64.9875 93.95417Q64.9875 92.39167 65.8 91.532295Q66.6125 90.657295 67.89375 90.657295Q69.14375 90.657295 69.925 91.501045Q70.72188 92.344795 70.72188 93.89167Q70.72188 93.98542 70.72188 94.17292L66.08125 94.17292Q66.14375 95.20417 66.65938 95.751045Q67.175 96.282295 67.95625 96.282295Q68.53438 96.282295 68.94063 95.98542Q69.3625 95.67292 69.59688 95.01667ZM66.14375 93.313545L69.6125 93.313545Q69.55 92.51667 69.22188 92.126045Q68.70625 91.51667 67.90938 91.51667Q67.175 91.51667 66.675 92.001045Q66.19063 92.48542 66.14375 93.313545Z" fill-rule="nonzero"/><path fill="#000000" d="M56.596874 152.44548L56.596874 153.4611L50.909374 153.4611Q50.909374 153.0861 51.034374 152.72673Q51.253124 152.1486 51.721874 151.5861Q52.20625 151.0236 53.1125 150.28923Q54.51875 149.13298 55.003124 148.4611Q55.503124 147.78923 55.503124 147.19548Q55.503124 146.57048 55.05 146.1486Q54.596874 145.7111 53.878124 145.7111Q53.1125 145.7111 52.659374 146.16423Q52.20625 146.61736 52.190624 147.42986L51.1125 147.32048Q51.221874 146.10173 51.940624 145.47673Q52.675 144.8361 53.909374 144.8361Q55.14375 144.8361 55.8625 145.5236Q56.58125 146.2111 56.58125 147.22673Q56.58125 147.74236 56.3625 148.24236Q56.159374 148.72673 55.659374 149.28923Q55.175 149.8361 54.05 150.78923Q53.096874 151.5861 52.815624 151.88298Q52.55 152.16423 52.378124 152.44548L56.596874 152.44548ZM58.14375 153.97673L59.175 154.13298Q59.2375 154.60173 59.534374 154.82048Q59.925 155.11736 60.596874 155.11736Q61.33125 155.11736 61.721874 154.82048Q62.128124 154.5236 62.26875 154.00798Q62.3625 153.67986 62.346874 152.6486Q61.659374 153.4611 60.628124 153.4611Q59.346874 153.4611 58.64375 152.53923Q57.940624 151.60173 57.940624 150.32048Q57.940624 149.42986 58.253124 148.67986Q58.58125 147.91423 59.190624 147.50798Q59.8 147.10173 60.628124 147.10173Q61.7375 147.10173 62.45625 147.99236L62.45625 147.24236L63.425 147.24236L63.425 152.61736Q63.425 154.07048 63.128124 154.67986Q62.83125 155.28923 62.190624 155.63298Q61.55 155.99236 60.6125 155.99236Q59.503124 155.99236 58.815624 155.49236Q58.128124 154.99236 58.14375 153.97673ZM59.01875 150.24236Q59.01875 151.4611 59.503124 152.0236Q59.9875 152.5861 60.721874 152.5861Q61.45625 152.5861 61.940624 152.0236Q62.440624 151.4611 62.440624 150.2736Q62.440624 149.13298 61.925 148.55486Q61.425 147.97673 60.70625 147.97673Q60.003124 147.97673 59.503124 148.55486Q59.01875 149.11736 59.01875 150.24236ZM66.31563 153.4611L65.33125 153.4611L65.33125 144.86736L66.39375 144.86736L66.39375 147.92986Q67.06563 147.10173 68.09688 147.10173Q68.675 147.10173 69.175 147.3361Q69.69063 147.55486 70.01875 147.97673Q70.3625 148.3986 70.55 148.99236Q70.7375 149.5861 70.7375 150.25798Q70.7375 151.85173 69.94063 152.72673Q69.14375 153.60173 68.05 153.60173Q66.94063 153.60173 66.31563 152.67986L66.31563 153.4611ZM66.3 150.30486Q66.3 151.41423 66.6125 151.91423Q67.1125 152.72673 67.95625 152.72673Q68.64375 152.72673 69.14375 152.13298Q69.65938 151.53923 69.65938 150.3361Q69.65938 149.11736 69.175 148.53923Q68.69063 147.9611 68.00313 147.9611Q67.31563 147.9611 66.8 148.57048Q66.3 149.16423 66.3 150.30486Z" fill-rule="nonzero"/><path fill="#000000" d="M54.425 209.90555L54.425 207.84305L50.70625 207.84305L50.70625 206.8743L54.628124 201.3118L55.4875 201.3118L55.4875 206.8743L56.64375 206.8743L56.64375 207.84305L55.4875 207.84305L55.4875 209.90555L54.425 209.90555ZM54.425 206.8743L54.425 203.01492L51.7375 206.8743L54.425 206.8743ZM58.14375 210.42117L59.175 210.57742Q59.2375 211.04617 59.534374 211.26492Q59.925 211.5618 60.596874 211.5618Q61.33125 211.5618 61.721874 211.26492Q62.128124 210.96805 62.26875 210.45242Q62.3625 210.1243 62.346874 209.09305Q61.659374 209.90555 60.628124 209.90555Q59.346874 209.90555 58.64375 208.98367Q57.940624 208.04617 57.940624 206.76492Q57.940624 205.8743 58.253124 205.1243Q58.58125 204.35867 59.190624 203.95242Q59.8 203.54617 60.628124 203.54617Q61.7375 203.54617 62.45625 204.4368L62.45625 203.6868L63.425 203.6868L63.425 209.0618Q63.425 210.51492 63.128124 211.1243Q62.83125 211.73367 62.190624 212.07742Q61.55 212.4368 60.6125 212.4368Q59.503124 212.4368 58.815624 211.9368Q58.128124 211.4368 58.14375 210.42117ZM59.01875 206.6868Q59.01875 207.90555 59.503124 208.46805Q59.9875 209.03055 60.721874 209.03055Q61.45625 209.03055 61.940624 208.46805Q62.440624 207.90555 62.440624 206.71805Q62.440624 205.57742 61.925 204.9993Q61.425 204.42117 60.70625 204.42117Q60.003124 204.42117 59.503124 204.9993Q59.01875 205.5618 59.01875 206.6868ZM66.31563 209.90555L65.33125 209.90555L65.33125 201.3118L66.39375 201.3118L66.39375 204.3743Q67.06563 203.54617 68.09688 203.54617Q68.675 203.54617 69.175 203.78055Q69.69063 203.9993 70.01875 204.42117Q70.3625 204.84305 70.55 205.4368Q70.7375 206.03055 70.7375 206.70242Q70.7375 208.29617 69.94063 209.17117Q69.14375 210.04617 68.05 210.04617Q66.94063 210.04617 66.31563 209.1243L66.31563 209.90555ZM66.3 206.7493Q66.3 207.85867 66.6125 208.35867Q67.1125 209.17117 67.95625 209.17117Q68.64375 209.17117 69.14375 208.57742Q69.65938 207.98367 69.65938 206.78055Q69.65938 205.5618 69.175 204.98367Q68.69063 204.40555 68.00313 204.40555Q67.31563 204.40555 66.8 205.01492Q66.3 205.60867 66.3 206.7493Z" fill-rule="nonzero"/><path fill="#000000" d="M52.675 261.69376Q52.01875 261.44376 51.690624 261.00626Q51.378124 260.55313 51.378124 259.94376Q51.378124 259.00626 52.05 258.36563Q52.7375 257.725 53.846874 257.725Q54.971874 257.725 55.659374 258.38126Q56.346874 259.0375 56.346874 259.975Q56.346874 260.56876 56.034374 261.00626Q55.721874 261.44376 55.08125 261.69376Q55.878124 261.94376 56.284374 262.52188Q56.690624 263.1 56.690624 263.89688Q56.690624 264.99063 55.909374 265.74063Q55.14375 266.49063 53.8625 266.49063Q52.596874 266.49063 51.815624 265.74063Q51.034374 264.99063 51.034374 263.86563Q51.034374 263.02188 51.45625 262.45938Q51.89375 261.89688 52.675 261.69376ZM52.45625 259.89688Q52.45625 260.50626 52.846874 260.89688Q53.253124 261.2875 53.878124 261.2875Q54.4875 261.2875 54.878124 260.9125Q55.26875 260.52188 55.26875 259.95938Q55.26875 259.38126 54.8625 258.99063Q54.45625 258.58438 53.8625 258.58438Q53.253124 258.58438 52.846874 258.975Q52.45625 259.36563 52.45625 259.89688ZM52.128124 263.86563Q52.128124 264.31876 52.33125 264.74063Q52.55 265.1625 52.971874 265.39688Q53.39375 265.63126 53.878124 265.63126Q54.628124 265.63126 55.1125 265.14688Q55.6125 264.6625 55.6125 263.9125Q55.6125 263.14688 55.1125 262.64688Q54.6125 262.14688 53.846874 262.14688Q53.096874 262.14688 52.6125 262.64688Q52.128124 263.13126 52.128124 263.86563ZM58.14375 266.86563L59.175 267.02188Q59.2375 267.49063 59.534374 267.70938Q59.925 268.00626 60.596874 268.00626Q61.33125 268.00626 61.721874 267.70938Q62.128124 267.4125 62.26875 266.89688Q62.3625 266.56876 62.346874 265.5375Q61.659374 266.35 60.628124 266.35Q59.346874 266.35 58.64375 265.42813Q57.940624 264.49063 57.940624 263.20938Q57.940624 262.31876 58.253124 261.56876Q58.58125 260.80313 59.190624 260.39688Q59.8 259.99063 60.628124 259.99063Q61.7375 259.99063 62.45625 260.88126L62.45625 260.13126L63.425 260.13126L63.425 265.50626Q63.425 266.95938 63.128124 267.56876Q62.83125 268.17813 62.190624 268.52188Q61.55 268.88126 60.6125 268.88126Q59.503124 268.88126 58.815624 268.38126Q58.128124 267.88126 58.14375 266.86563ZM59.01875 263.13126Q59.01875 264.35 59.503124 264.9125Q59.9875 265.475 60.721874 265.475Q61.45625 265.475 61.940624 264.9125Q62.440624 264.35 62.440624 263.1625Q62.440624 262.02188 61.925 261.44376Q61.425 260.86563 60.70625 260.86563Q60.003124 260.86563 59.503124 261.44376Q59.01875 262.00626 59.01875 263.13126ZM66.31563 266.35L65.33125 266.35L65.33125 257.75626L66.39375 257.75626L66.39375 260.81876Q67.06563 259.99063 68.09688 259.99063Q68.675 259.99063 69.175 260.225Q69.69063 260.44376 70.01875 260.86563Q70.3625 261.2875 70.55 261.88126Q70.7375 262.475 70.7375 263.14688Q70.7375 264.74063 69.94063 265.61563Q69.14375 266.49063 68.05 266.49063Q66.94063 266.49063 66.31563 265.56876L66.31563 266.35ZM66.3 263.19376Q66.3 264.30313 66.6125 264.80313Q67.1125 265.61563 67.95625 265.61563Q68.64375 265.61563 69.14375 265.02188Q69.65938 264.42813 69.65938 263.225Q69.65938 262.00626 69.175 261.42813Q68.69063 260.85 68.00313 260.85Q67.31563 260.85 66.8 261.45938Q66.3 262.05313 66.3 263.19376Z" fill-rule="nonzero"/><path fill="#000000" d="M66.05 313.21564Q66.05 311.6844 66.3625 310.7625Q66.675 309.825 67.28438 309.325Q67.90938 308.825 68.84688 308.825Q69.53438 308.825 70.05 309.10626Q70.58125 309.3875 70.925 309.91876Q71.26875 310.4344 71.45625 311.1844Q71.64375 311.9344 71.64375 313.21564Q71.64375 314.73126 71.33125 315.65314Q71.03438 316.575 70.40938 317.09064Q69.8 317.59064 68.84688 317.59064Q67.6125 317.59064 66.89375 316.7Q66.05 315.6375 66.05 313.21564ZM67.12813 313.21564Q67.12813 315.325 67.62813 316.02814Q68.12813 316.73126 68.84688 316.73126Q69.58125 316.73126 70.06563 316.02814Q70.56563 315.325 70.56563 313.21564Q70.56563 311.09064 70.06563 310.40314Q69.58125 309.7 68.83125 309.7Q68.1125 309.7 67.675 310.3094Q67.12813 311.09064 67.12813 313.21564ZM73.6125 317.45L73.6125 316.2469L74.81563 316.2469L74.81563 317.45Q74.81563 318.10626 74.58125 318.5125Q74.34688 318.9344 73.84688 319.15314L73.55 318.7Q73.87813 318.5594 74.03438 318.2625Q74.19063 317.98126 74.22188 317.45L73.6125 317.45ZM76.05 313.21564Q76.05 311.6844 76.3625 310.7625Q76.675 309.825 77.28438 309.325Q77.90938 308.825 78.84688 308.825Q79.53438 308.825 80.05 309.10626Q80.58125 309.3875 80.925 309.91876Q81.26875 310.4344 81.45625 311.1844Q81.64375 311.9344 81.64375 313.21564Q81.64375 314.73126 81.33125 315.65314Q81.03438 316.575 80.40938 317.09064Q79.8 317.59064 78.84688 317.59064Q77.6125 317.59064 76.89375 316.7Q76.05 315.6375 76.05 313.21564ZM77.12813 313.21564Q77.12813 315.325 77.62813 316.02814Q78.12813 316.73126 78.84688 316.73126Q79.58125 316.73126 80.06563 316.02814Q80.56563 315.325 80.56563 313.21564Q80.56563 311.09064 80.06563 310.40314Q79.58125 309.7 78.83125 309.7Q78.1125 309.7 77.675 310.3094Q77.12813 311.09064 77.12813 313.21564ZM83.05 313.21564Q83.05 311.6844 83.3625 310.7625Q83.675 309.825 84.28438 309.325Q84.90938 308.825 85.84688 308.825Q86.53438 308.825 87.05 309.10626Q87.58125 309.3875 87.925 309.91876Q88.26875 310.4344 88.45625 311.1844Q88.64375 311.9344 88.64375 313.21564Q88.64375 314.73126 88.33125 315.65314Q88.03438 316.575 87.40938 317.09064Q86.8 317.59064 85.84688 317.59064Q84.6125 317.59064 83.89375 316.7Q83.05 315.6375 83.05 313.21564ZM84.12813 313.21564Q84.12813 315.325 84.62813 316.02814Q85.12813 316.73126 85.84688 316.73126Q86.58125 316.73126 87.06563 316.02814Q87.56563 315.325 87.56563 313.21564Q87.56563 311.09064 87.06563 310.40314Q86.58125 309.7 85.83125 309.7Q85.1125 309.7 84.675 310.3094Q84.12813 311.09064 84.12813 313.21564Z" fill-rule="nonzero"/><path fill="#000000" d="M163.33 315.2L164.43938 315.10626Q164.56438 315.91876 165.00188 316.325Q165.455 316.73126 166.09563 316.73126Q166.84563 316.73126 167.37688 316.15314Q167.90813 315.575 167.90813 314.6375Q167.90813 313.73126 167.3925 313.21564Q166.8925 312.6844 166.06438 312.6844Q165.56438 312.6844 165.1425 312.91876Q164.73625 313.15314 164.50188 313.5125L163.5175 313.3875L164.34563 308.98126L168.62688 308.98126L168.62688 309.98126L165.18938 309.98126L164.73625 312.29376Q165.50188 311.7469 166.34563 311.7469Q167.47063 311.7469 168.23625 312.52814Q169.0175 313.3094 169.0175 314.54376Q169.0175 315.7 168.34563 316.5594Q167.5175 317.59064 166.09563 317.59064Q164.92375 317.59064 164.17375 316.9344Q163.43938 316.27814 163.33 315.2ZM170.33 313.21564Q170.33 311.6844 170.6425 310.7625Q170.955 309.825 171.56438 309.325Q172.18938 308.825 173.12688 308.825Q173.81438 308.825 174.33 309.10626Q174.86125 309.3875 175.205 309.91876Q175.54875 310.4344 175.73625 311.1844Q175.92375 311.9344 175.92375 313.21564Q175.92375 314.73126 175.61125 315.65314Q175.31438 316.575 174.68938 317.09064Q174.08 317.59064 173.12688 317.59064Q171.8925 317.59064 171.17375 316.7Q170.33 315.6375 170.33 313.21564ZM171.40813 313.21564Q171.40813 315.325 171.90813 316.02814Q172.40813 316.73126 173.12688 316.73126Q173.86125 316.73126 174.34563 316.02814Q174.84563 315.325 174.84563 313.21564Q174.84563 311.09064 174.34563 310.40314Q173.86125 309.7 173.11125 309.7Q172.3925 309.7 171.955 310.3094Q171.40813 311.09064 171.40813 313.21564ZM177.8925 317.45L177.8925 316.2469L179.09563 316.2469L179.09563 317.45Q179.09563 318.10626 178.86125 318.5125Q178.62688 318.9344 178.12688 319.15314L177.83 318.7Q178.15813 318.5594 178.31438 318.2625Q178.47063 317.98126 178.50188 317.45L177.8925 317.45ZM180.33 313.21564Q180.33 311.6844 180.6425 310.7625Q180.955 309.825 181.56438 309.325Q182.18938 308.825 183.12688 308.825Q183.81438 308.825 184.33 309.10626Q184.86125 309.3875 185.205 309.91876Q185.54875 310.4344 185.73625 311.1844Q185.92375 311.9344 185.92375 313.21564Q185.92375 314.73126 185.61125 315.65314Q185.31438 316.575 184.68938 317.09064Q184.08 317.59064 183.12688 317.59064Q181.8925 317.59064 181.17375 316.7Q180.33 315.6375 180.33 313.21564ZM181.40813 313.21564Q181.40813 315.325 181.90813 316.02814Q182.40813 316.73126 183.12688 316.73126Q183.86125 316.73126 184.34563 316.02814Q184.84563 315.325 184.84563 313.21564Q184.84563 311.09064 184.34563 310.40314Q183.86125 309.7 183.11125 309.7Q182.3925 309.7 181.955 310.3094Q181.40813 311.09064 181.40813 313.21564ZM187.33 313.21564Q187.33 311.6844 187.6425 310.7625Q187.955 309.825 188.56438 309.325Q189.18938 308.825 190.12688 308.825Q190.81438 308.825 191.33 309.10626Q191.86125 309.3875 192.205 309.91876Q192.54875 310.4344 192.73625 311.1844Q192.92375 311.9344 192.92375 313.21564Q192.92375 314.73126 192.61125 315.65314Q192.31438 316.575 191.68938 317.09064Q191.08 317.59064 190.12688 317.59064Q188.8925 317.59064 188.17375 316.7Q187.33 315.6375 187.33 313.21564ZM188.40813 313.21564Q188.40813 315.325 188.90813 316.02814Q189.40813 316.73126 190.12688 316.73126Q190.86125 316.73126 191.34563 316.02814Q191.84563 315.325 191.84563 313.21564Q191.84563 311.09064 191.34563 310.40314Q190.86125 309.7 190.11125 309.7Q189.3925 309.7 188.955 310.3094Q188.40813 311.09064 188.40813 313.21564Z" fill-rule="nonzero"/><path fill="#000000" d="M264.57874 317.45L263.53186 317.45L263.53186 310.73126Q263.14124 311.09064 262.51624 311.46564Q261.90686 311.825 261.4225 311.9969L261.4225 310.98126Q262.2975 310.5594 262.95374 309.98126Q263.6256 309.3875 263.90686 308.825L264.57874 308.825L264.57874 317.45ZM267.61 313.21564Q267.61 311.6844 267.9225 310.7625Q268.235 309.825 268.84436 309.325Q269.46936 308.825 270.40686 308.825Q271.09436 308.825 271.61 309.10626Q272.14124 309.3875 272.485 309.91876Q272.82874 310.4344 273.01624 311.1844Q273.20374 311.9344 273.20374 313.21564Q273.20374 314.73126 272.89124 315.65314Q272.59436 316.575 271.96936 317.09064Q271.36 317.59064 270.40686 317.59064Q269.1725 317.59064 268.45374 316.7Q267.61 315.6375 267.61 313.21564ZM268.6881 313.21564Q268.6881 315.325 269.1881 316.02814Q269.6881 316.73126 270.40686 316.73126Q271.14124 316.73126 271.6256 316.02814Q272.1256 315.325 272.1256 313.21564Q272.1256 311.09064 271.6256 310.40314Q271.14124 309.7 270.39124 309.7Q269.6725 309.7 269.235 310.3094Q268.6881 311.09064 268.6881 313.21564ZM274.61 313.21564Q274.61 311.6844 274.9225 310.7625Q275.235 309.825 275.84436 309.325Q276.46936 308.825 277.40686 308.825Q278.09436 308.825 278.61 309.10626Q279.14124 309.3875 279.485 309.91876Q279.82874 310.4344 280.01624 311.1844Q280.20374 311.9344 280.20374 313.21564Q280.20374 314.73126 279.89124 315.65314Q279.59436 316.575 278.96936 317.09064Q278.36 317.59064 277.40686 317.59064Q276.1725 317.59064 275.45374 316.7Q274.61 315.6375 274.61 313.21564ZM275.6881 313.21564Q275.6881 315.325 276.1881 316.02814Q276.6881 316.73126 277.40686 316.73126Q278.14124 316.73126 278.6256 316.02814Q279.1256 315.325 279.1256 313.21564Q279.1256 311.09064 278.6256 310.40314Q278.14124 309.7 277.39124 309.7Q276.6725 309.7 276.235 310.3094Q275.6881 311.09064 275.6881 313.21564ZM282.1725 317.45L282.1725 316.2469L283.3756 316.2469L283.3756 317.45Q283.3756 318.10626 283.14124 318.5125Q282.90686 318.9344 282.40686 319.15314L282.11 318.7Q282.4381 318.5594 282.59436 318.2625Q282.7506 317.98126 282.78186 317.45L282.1725 317.45ZM284.61 313.21564Q284.61 311.6844 284.9225 310.7625Q285.235 309.825 285.84436 309.325Q286.46936 308.825 287.40686 308.825Q288.09436 308.825 288.61 309.10626Q289.14124 309.3875 289.485 309.91876Q289.82874 310.4344 290.01624 311.1844Q290.20374 311.9344 290.20374 313.21564Q290.20374 314.73126 289.89124 315.65314Q289.59436 316.575 288.96936 317.09064Q288.36 317.59064 287.40686 317.59064Q286.1725 317.59064 285.45374 316.7Q284.61 315.6375 284.61 313.21564ZM285.6881 313.21564Q285.6881 315.325 286.1881 316.02814Q286.6881 316.73126 287.40686 316.73126Q288.14124 316.73126 288.6256 316.02814Q289.1256 315.325 289.1256 313.21564Q289.1256 311.09064 288.6256 310.40314Q288.14124 309.7 287.39124 309.7Q286.6725 309.7 286.235 310.3094Q285.6881 311.09064 285.6881 313.21564ZM291.61 313.21564Q291.61 311.6844 291.9225 310.7625Q292.235 309.825 292.84436 309.325Q293.46936 308.825 294.40686 308.825Q295.09436 308.825 295.61 309.10626Q296.14124 309.3875 296.485 309.91876Q296.82874 310.4344 297.01624 311.1844Q297.20374 311.9344 297.20374 313.21564Q297.20374 314.73126 296.89124 315.65314Q296.59436 316.575 295.96936 317.09064Q295.36 317.59064 294.40686 317.59064Q293.1725 317.59064 292.45374 316.7Q291.61 315.6375 291.61 313.21564ZM292.6881 313.21564Q292.6881 315.325 293.1881 316.02814Q293.6881 316.73126 294.40686 316.73126Q295.14124 316.73126 295.6256 316.02814Q296.1256 315.325 296.1256 313.21564Q296.1256 311.09064 295.6256 310.40314Q295.14124 309.7 294.39124 309.7Q293.6725 309.7 293.235 310.3094Q292.6881 311.09064 292.6881 313.21564Z" fill-rule="nonzero"/><path fill="#000000" d="M365.35876 317.45L364.3119 317.45L364.3119 310.73126Q363.92126 311.09064 363.29626 311.46564Q362.6869 311.825 362.2025 311.9969L362.2025 310.98126Q363.0775 310.5594 363.73376 309.98126Q364.40564 309.3875 364.6869 308.825L365.35876 308.825L365.35876 317.45ZM368.39 315.2L369.4994 315.10626Q369.6244 315.91876 370.0619 316.325Q370.515 316.73126 371.15564 316.73126Q371.90564 316.73126 372.4369 316.15314Q372.96814 315.575 372.96814 314.6375Q372.96814 313.73126 372.4525 313.21564Q371.9525 312.6844 371.1244 312.6844Q370.6244 312.6844 370.2025 312.91876Q369.79626 313.15314 369.5619 313.5125L368.5775 313.3875L369.40564 308.98126L373.6869 308.98126L373.6869 309.98126L370.2494 309.98126L369.79626 312.29376Q370.5619 311.7469 371.40564 311.7469Q372.53064 311.7469 373.29626 312.52814Q374.0775 313.3094 374.0775 314.54376Q374.0775 315.7 373.40564 316.5594Q372.5775 317.59064 371.15564 317.59064Q369.98376 317.59064 369.23376 316.9344Q368.4994 316.27814 368.39 315.2ZM375.39 313.21564Q375.39 311.6844 375.7025 310.7625Q376.015 309.825 376.6244 309.325Q377.2494 308.825 378.1869 308.825Q378.8744 308.825 379.39 309.10626Q379.92126 309.3875 380.265 309.91876Q380.60876 310.4344 380.79626 311.1844Q380.98376 311.9344 380.98376 313.21564Q380.98376 314.73126 380.67126 315.65314Q380.3744 316.575 379.7494 317.09064Q379.14 317.59064 378.1869 317.59064Q376.9525 317.59064 376.23376 316.7Q375.39 315.6375 375.39 313.21564ZM376.46814 313.21564Q376.46814 315.325 376.96814 316.02814Q377.46814 316.73126 378.1869 316.73126Q378.92126 316.73126 379.40564 316.02814Q379.90564 315.325 379.90564 313.21564Q379.90564 311.09064 379.40564 310.40314Q378.92126 309.7 378.17126 309.7Q377.4525 309.7 377.015 310.3094Q376.46814 311.09064 376.46814 313.21564ZM382.9525 317.45L382.9525 316.2469L384.15564 316.2469L384.15564 317.45Q384.15564 318.10626 383.92126 318.5125Q383.6869 318.9344 383.1869 319.15314L382.89 318.7Q383.21814 318.5594 383.3744 318.2625Q383.53064 317.98126 383.5619 317.45L382.9525 317.45ZM385.39 313.21564Q385.39 311.6844 385.7025 310.7625Q386.015 309.825 386.6244 309.325Q387.2494 308.825 388.1869 308.825Q388.8744 308.825 389.39 309.10626Q389.92126 309.3875 390.265 309.91876Q390.60876 310.4344 390.79626 311.1844Q390.98376 311.9344 390.98376 313.21564Q390.98376 314.73126 390.67126 315.65314Q390.3744 316.575 389.7494 317.09064Q389.14 317.59064 388.1869 317.59064Q386.9525 317.59064 386.23376 316.7Q385.39 315.6375 385.39 313.21564ZM386.46814 313.21564Q386.46814 315.325 386.96814 316.02814Q387.46814 316.73126 388.1869 316.73126Q388.92126 316.73126 389.40564 316.02814Q389.90564 315.325 389.90564 313.21564Q389.90564 311.09064 389.40564 310.40314Q388.92126 309.7 388.17126 309.7Q387.4525 309.7 387.015 310.3094Q386.46814 311.09064 386.46814 313.21564ZM392.39 313.21564Q392.39 311.6844 392.7025 310.7625Q393.015 309.825 393.6244 309.325Q394.2494 308.825 395.1869 308.825Q395.8744 308.825 396.39 309.10626Q396.92126 309.3875 397.265 309.91876Q397.60876 310.4344 397.79626 311.1844Q397.98376 311.9344 397.98376 313.21564Q397.98376 314.73126 397.67126 315.65314Q397.3744 316.575 396.7494 317.09064Q396.14 317.59064 395.1869 317.59064Q393.9525 317.59064 393.23376 316.7Q392.39 315.6375 392.39 313.21564ZM393.46814 313.21564Q393.46814 315.325 393.96814 316.02814Q394.46814 316.73126 395.1869 316.73126Q395.92126 316.73126 396.40564 316.02814Q396.90564 315.325 396.90564 313.21564Q396.90564 311.09064 396.40564 310.40314Q395.92126 309.7 395.17126 309.7Q394.4525 309.7 394.015 310.3094Q393.46814 311.09064 393.46814 313.21564Z" fill-rule="nonzero"/><path fill="#000000" d="M467.7169 316.4344L467.7169 317.45L462.0294 317.45Q462.0294 317.075 462.1544 316.71564Q462.37314 316.1375 462.8419 315.575Q463.32626 315.0125 464.2325 314.27814Q465.63876 313.1219 466.12314 312.45Q466.62314 311.77814 466.62314 311.1844Q466.62314 310.5594 466.17 310.1375Q465.7169 309.7 464.99814 309.7Q464.2325 309.7 463.7794 310.15314Q463.32626 310.60626 463.31064 311.41876L462.2325 311.3094Q462.3419 310.09064 463.06064 309.46564Q463.795 308.825 465.0294 308.825Q466.26376 308.825 466.9825 309.5125Q467.70126 310.2 467.70126 311.21564Q467.70126 311.73126 467.4825 312.23126Q467.2794 312.71564 466.7794 313.27814Q466.295 313.825 465.17 314.77814Q464.2169 315.575 463.93564 315.8719Q463.67 316.15314 463.49814 316.4344L467.7169 316.4344ZM469.17 313.21564Q469.17 311.6844 469.4825 310.7625Q469.795 309.825 470.4044 309.325Q471.0294 308.825 471.9669 308.825Q472.6544 308.825 473.17 309.10626Q473.70126 309.3875 474.045 309.91876Q474.38876 310.4344 474.57626 311.1844Q474.76376 311.9344 474.76376 313.21564Q474.76376 314.73126 474.45126 315.65314Q474.1544 316.575 473.5294 317.09064Q472.92 317.59064 471.9669 317.59064Q470.7325 317.59064 470.01376 316.7Q469.17 315.6375 469.17 313.21564ZM470.24814 313.21564Q470.24814 315.325 470.74814 316.02814Q471.24814 316.73126 471.9669 316.73126Q472.70126 316.73126 473.18564 316.02814Q473.68564 315.325 473.68564 313.21564Q473.68564 311.09064 473.18564 310.40314Q472.70126 309.7 471.95126 309.7Q471.2325 309.7 470.795 310.3094Q470.24814 311.09064 470.24814 313.21564ZM476.17 313.21564Q476.17 311.6844 476.4825 310.7625Q476.795 309.825 477.4044 309.325Q478.0294 308.825 478.9669 308.825Q479.6544 308.825 480.17 309.10626Q480.70126 309.3875 481.045 309.91876Q481.38876 310.4344 481.57626 311.1844Q481.76376 311.9344 481.76376 313.21564Q481.76376 314.73126 481.45126 315.65314Q481.1544 316.575 480.5294 317.09064Q479.92 317.59064 478.9669 317.59064Q477.7325 317.59064 477.01376 316.7Q476.17 315.6375 476.17 313.21564ZM477.24814 313.21564Q477.24814 315.325 477.74814 316.02814Q478.24814 316.73126 478.9669 316.73126Q479.70126 316.73126 480.18564 316.02814Q480.68564 315.325 480.68564 313.21564Q480.68564 311.09064 480.18564 310.40314Q479.70126 309.7 478.95126 309.7Q478.2325 309.7 477.795 310.3094Q477.24814 311.09064 477.24814 313.21564ZM483.7325 317.45L483.7325 316.2469L484.93564 316.2469L484.93564 317.45Q484.93564 318.10626 484.70126 318.5125Q484.4669 318.9344 483.9669 319.15314L483.67 318.7Q483.99814 318.5594 484.1544 318.2625Q484.31064 317.98126 484.3419 317.45L483.7325 317.45ZM486.17 313.21564Q486.17 311.6844 486.4825 310.7625Q486.795 309.825 487.4044 309.325Q488.0294 308.825 488.9669 308.825Q489.6544 308.825 490.17 309.10626Q490.70126 309.3875 491.045 309.91876Q491.38876 310.4344 491.57626 311.1844Q491.76376 311.9344 491.76376 313.21564Q491.76376 314.73126 491.45126 315.65314Q491.1544 316.575 490.5294 317.09064Q489.92 317.59064 488.9669 317.59064Q487.7325 317.59064 487.01376 316.7Q486.17 315.6375 486.17 313.21564ZM487.24814 313.21564Q487.24814 315.325 487.74814 316.02814Q488.24814 316.73126 488.9669 316.73126Q489.70126 316.73126 490.18564 316.02814Q490.68564 315.325 490.68564 313.21564Q490.68564 311.09064 490.18564 310.40314Q489.70126 309.7 488.95126 309.7Q488.2325 309.7 487.795 310.3094Q487.24814 311.09064 487.24814 313.21564ZM493.17 313.21564Q493.17 311.6844 493.4825 310.7625Q493.795 309.825 494.4044 309.325Q495.0294 308.825 495.9669 308.825Q496.6544 308.825 497.17 309.10626Q497.70126 309.3875 498.045 309.91876Q498.38876 310.4344 498.57626 311.1844Q498.76376 311.9344 498.76376 313.21564Q498.76376 314.73126 498.45126 315.65314Q498.1544 316.575 497.5294 317.09064Q496.92 317.59064 495.9669 317.59064Q494.7325 317.59064 494.01376 316.7Q493.17 315.6375 493.17 313.21564ZM494.24814 313.21564Q494.24814 315.325 494.74814 316.02814Q495.24814 316.73126 495.9669 316.73126Q496.70126 316.73126 497.18564 316.02814Q497.68564 315.325 497.68564 313.21564Q497.68564 311.09064 497.18564 310.40314Q496.70126 309.7 495.95126 309.7Q495.2325 309.7 494.795 310.3094Q494.24814 311.09064 494.24814 313.21564Z" fill-rule="nonzero"/><path fill="#757575" d="M20.01875 37.55L20.01875 23.2375L25.39375 23.2375Q27.034374 23.2375 28.01875 23.675Q29.003124 24.096874 29.565624 25.003124Q30.128124 25.909374 30.128124 26.89375Q30.128124 27.815624 29.628124 28.628124Q29.14375 29.440624 28.128124 29.925Q29.425 30.315624 30.128124 31.2375Q30.83125 32.14375 30.83125 33.39375Q30.83125 34.409374 30.39375 35.26875Q29.971874 36.128124 29.346874 36.596874Q28.721874 37.065624 27.784374 37.315624Q26.846874 37.55 25.471874 37.55L20.01875 37.55ZM21.909374 29.253124L25.003124 29.253124Q26.26875 29.253124 26.815624 29.08125Q27.534374 28.8625 27.89375 28.378124Q28.26875 27.878124 28.26875 27.1125Q28.26875 26.409374 27.925 25.8625Q27.58125 25.315624 26.940624 25.128124Q26.315624 24.925 24.76875 24.925L21.909374 24.925L21.909374 29.253124ZM21.909374 35.8625L25.471874 35.8625Q26.39375 35.8625 26.76875 35.784374Q27.425 35.675 27.8625 35.409374Q28.3 35.128124 28.58125 34.6125Q28.8625 34.08125 28.8625 33.39375Q28.8625 32.596874 28.45625 32.003124Q28.05 31.409374 27.315624 31.175Q26.58125 30.940624 25.221874 30.940624L21.909374 30.940624L21.909374 35.8625ZM39.64375 36.26875Q38.659374 37.096874 37.753124 37.440624Q36.846874 37.784374 35.815624 37.784374Q34.1125 37.784374 33.190624 36.95625Q32.26875 36.1125 32.26875 34.815624Q32.26875 34.05 32.6125 33.425Q32.971874 32.8 33.534374 32.425Q34.096874 32.034374 34.8 31.83125Q35.315624 31.70625 36.3625 31.565624Q38.4875 31.315624 39.4875 30.971874Q39.503124 30.6125 39.503124 30.503124Q39.503124 29.440624 39.003124 28.9875Q38.33125 28.39375 37.003124 28.39375Q35.753124 28.39375 35.159374 28.83125Q34.58125 29.26875 34.3 30.378124L32.58125 30.14375Q32.815624 29.034374 33.346874 28.3625Q33.878124 27.675 34.89375 27.315624Q35.909374 26.940624 37.253124 26.940624Q38.58125 26.940624 39.409374 27.253124Q40.2375 27.565624 40.628124 28.05Q41.01875 28.51875 41.175 29.2375Q41.26875 29.690624 41.26875 30.8625L41.26875 33.20625Q41.26875 35.659374 41.378124 36.315624Q41.4875 36.95625 41.83125 37.55L39.9875 37.55Q39.721874 37.003124 39.64375 36.26875ZM39.4875 32.346874Q38.534374 32.7375 36.6125 33.003124Q35.534374 33.159374 35.08125 33.3625Q34.64375 33.55 34.39375 33.925Q34.14375 34.3 34.14375 34.76875Q34.14375 35.471874 34.675 35.940624Q35.20625 36.409374 36.2375 36.409374Q37.253124 36.409374 38.034374 35.971874Q38.83125 35.51875 39.20625 34.753124Q39.4875 34.14375 39.4875 32.9875L39.4875 32.346874ZM43.8625 37.55L43.8625 27.175L45.45625 27.175L45.45625 28.659374Q46.596874 26.940624 48.753124 26.940624Q49.690624 26.940624 50.471874 27.284374Q51.26875 27.6125 51.659374 28.159374Q52.05 28.70625 52.20625 29.45625Q52.3 29.95625 52.3 31.175L52.3 37.55L50.534374 37.55L50.534374 31.2375Q50.534374 30.159374 50.33125 29.628124Q50.128124 29.096874 49.596874 28.784374Q49.08125 28.471874 48.378124 28.471874Q47.253124 28.471874 46.440624 29.190624Q45.628124 29.89375 45.628124 31.878124L45.628124 37.55L43.8625 37.55ZM60.596874 37.55L60.596874 36.2375Q59.6125 37.784374 57.690624 37.784374Q56.45625 37.784374 55.409374 37.096874Q54.378124 36.409374 53.8 35.190624Q53.2375 33.971874 53.2375 32.378124Q53.2375 30.815624 53.753124 29.55Q54.26875 28.284374 55.3 27.6125Q56.346874 26.940624 57.6125 26.940624Q58.55 26.940624 59.284374 27.346874Q60.01875 27.7375 60.4875 28.3625L60.4875 23.2375L62.221874 23.2375L62.221874 37.55L60.596874 37.55ZM55.034374 32.378124Q55.034374 34.3625 55.878124 35.346874Q56.721874 36.33125 57.8625 36.33125Q59.01875 36.33125 59.815624 35.39375Q60.628124 34.45625 60.628124 32.51875Q60.628124 30.39375 59.8 29.39375Q58.9875 28.39375 57.784374 28.39375Q56.6125 28.39375 55.815624 29.3625Q55.034374 30.315624 55.034374 32.378124ZM66.78438 37.55L63.6125 27.175L65.425 27.175L67.08125 33.159374L67.69063 35.39375Q67.7375 35.221874 68.22188 33.253124L69.87813 27.175L71.69063 27.175L73.2375 33.190624L73.75313 35.175L74.34688 33.175L76.12813 27.175L77.83125 27.175L74.59688 37.55L72.76875 37.55L71.1125 31.33125L70.72188 29.565624L68.6125 37.55L66.78438 37.55ZM79.87813 25.253124L79.87813 23.2375L81.64375 23.2375L81.64375 25.253124L79.87813 25.253124ZM79.87813 37.55L79.87813 27.175L81.64375 27.175L81.64375 37.55L79.87813 37.55ZM90.59688 37.55L90.59688 36.2375Q89.6125 37.784374 87.69063 37.784374Q86.45625 37.784374 85.40938 37.096874Q84.37813 36.409374 83.8 35.190624Q83.2375 33.971874 83.2375 32.378124Q83.2375 30.815624 83.75313 29.55Q84.26875 28.284374 85.3 27.6125Q86.34688 26.940624 87.6125 26.940624Q88.55 26.940624 89.28438 27.346874Q90.01875 27.7375 90.4875 28.3625L90.4875 23.2375L92.22188 23.2375L92.22188 37.55L90.59688 37.55ZM85.03438 32.378124Q85.03438 34.3625 85.87813 35.346874Q86.72188 36.33125 87.8625 36.33125Q89.01875 36.33125 89.81563 35.39375Q90.62813 34.45625 90.62813 32.51875Q90.62813 30.39375 89.8 29.39375Q88.9875 28.39375 87.78438 28.39375Q86.6125 28.39375 85.81563 29.3625Q85.03438 30.315624 85.03438 32.378124ZM98.70625 35.971874L98.95625 37.534374Q98.22188 37.690624 97.62813 37.690624Q96.675 37.690624 96.14375 37.39375Q95.62813 37.08125 95.40938 36.596874Q95.19063 36.096874 95.19063 34.51875L95.19063 28.55L93.90938 28.55L93.90938 27.175L95.19063 27.175L95.19063 24.6125L96.94063 23.55L96.94063 27.175L98.70625 27.175L98.70625 28.55L96.94063 28.55L96.94063 34.6125Q96.94063 35.3625 97.03438 35.58125Q97.12813 35.784374 97.33125 35.925Q97.55 36.05 97.94063 36.05Q98.22188 36.05 98.70625 35.971874ZM100.8625 37.55L100.8625 23.2375L102.62813 23.2375L102.62813 28.3625Q103.8625 26.940624 105.7375 26.940624Q106.87813 26.940624 107.72188 27.39375Q108.58125 27.846874 108.94063 28.659374Q109.31563 29.45625 109.31563 30.971874L109.31563 37.55L107.56563 37.55L107.56563 30.971874Q107.56563 29.659374 106.9875 29.065624Q106.40938 28.45625 105.37813 28.45625Q104.59688 28.45625 103.89375 28.8625Q103.20625 29.26875 102.90938 29.971874Q102.62813 30.659374 102.62813 31.878124L102.62813 37.55L100.8625 37.55ZM120.22188 41.753124Q118.76875 39.925 117.76875 37.471874Q116.76875 35.003124 116.76875 32.3625Q116.76875 30.034374 117.51875 27.909374Q118.39375 25.440624 120.22188 22.9875L121.4875 22.9875Q120.3 25.01875 119.925 25.89375Q119.33125 27.2375 118.9875 28.70625Q118.56563 30.534374 118.56563 32.378124Q118.56563 37.065624 121.4875 41.753124L120.22188 41.753124ZM124.03438 37.55L124.03438 23.2375L126.89375 23.2375L130.26875 33.3625Q130.7375 34.784374 130.95625 35.4875Q131.20625 34.70625 131.72188 33.190624L135.14375 23.2375L137.69063 23.2375L137.69063 37.55L135.87813 37.55L135.87813 25.565624L131.70625 37.55L130.00313 37.55L125.8625 25.3625L125.8625 37.55L124.03438 37.55ZM140.87813 25.253124L140.87813 23.2375L142.64375 23.2375L142.64375 25.253124L140.87813 25.253124ZM140.87813 37.55L140.87813 27.175L142.64375 27.175L142.64375 37.55L140.87813 37.55ZM145.01875 37.55L145.01875 23.2375L150.39375 23.2375Q152.03438 23.2375 153.01875 23.675Q154.00313 24.096874 154.56563 25.003124Q155.12813 25.909374 155.12813 26.89375Q155.12813 27.815624 154.62813 28.628124Q154.14375 29.440624 153.12813 29.925Q154.425 30.315624 155.12813 31.2375Q155.83125 32.14375 155.83125 33.39375Q155.83125 34.409374 155.39375 35.26875Q154.97188 36.128124 154.34688 36.596874Q153.72188 37.065624 152.78438 37.315624Q151.84688 37.55 150.47188 37.55L145.01875 37.55ZM146.90938 29.253124L150.00313 29.253124Q151.26875 29.253124 151.81563 29.08125Q152.53438 28.8625 152.89375 28.378124Q153.26875 27.878124 153.26875 27.1125Q153.26875 26.409374 152.925 25.8625Q152.58125 25.315624 151.94063 25.128124Q151.31563 24.925 149.76875 24.925L146.90938 24.925L146.90938 29.253124ZM146.90938 35.8625L150.47188 35.8625Q151.39375 35.8625 151.76875 35.784374Q152.425 35.675 152.8625 35.409374Q153.3 35.128124 153.58125 34.6125Q153.8625 34.08125 153.8625 33.39375Q153.8625 32.596874 153.45625 32.003124Q153.05 31.409374 152.31563 31.175Q151.58125 30.940624 150.22188 30.940624L146.90938 30.940624L146.90938 35.8625ZM156.55 37.8L160.70625 22.9875L162.1125 22.9875L157.97188 37.8L156.55 37.8ZM163.15938 34.45625L164.90938 34.175Q165.05 35.221874 165.72188 35.784374Q166.39375 36.33125 167.59688 36.33125Q168.8 36.33125 169.37813 35.846874Q169.97188 35.346874 169.97188 34.690624Q169.97188 34.096874 169.45625 33.753124Q169.09688 33.51875 167.65938 33.159374Q165.72188 32.659374 164.97188 32.315624Q164.2375 31.95625 163.84688 31.33125Q163.45625 30.690624 163.45625 29.925Q163.45625 29.2375 163.76875 28.64375Q164.09688 28.05 164.64375 27.659374Q165.05 27.3625 165.75313 27.159374Q166.47188 26.940624 167.28438 26.940624Q168.50313 26.940624 169.425 27.3Q170.34688 27.64375 170.78438 28.253124Q171.22188 28.846874 171.39375 29.846874L169.675 30.08125Q169.55 29.284374 168.9875 28.846874Q168.425 28.39375 167.40938 28.39375Q166.19063 28.39375 165.675 28.8Q165.15938 29.190624 165.15938 29.721874Q165.15938 30.065624 165.37813 30.346874Q165.58125 30.628124 166.05 30.815624Q166.31563 30.909374 167.59688 31.253124Q169.47188 31.753124 170.20625 32.08125Q170.94063 32.39375 171.3625 33.003124Q171.78438 33.596874 171.78438 34.503124Q171.78438 35.378124 171.26875 36.159374Q170.75313 36.940624 169.78438 37.3625Q168.81563 37.784374 167.59688 37.784374Q165.58125 37.784374 164.51875 36.940624Q163.45625 36.096874 163.15938 34.45625ZM175.01875 41.753124L173.76875 41.753124Q176.675 37.065624 176.675 32.378124Q176.675 30.534374 176.26875 28.7375Q175.925 27.26875 175.33125 25.925Q174.95625 25.034374 173.76875 22.9875L175.01875 22.9875Q176.8625 25.440624 177.7375 27.909374Q178.4875 30.034374 178.4875 32.3625Q178.4875 35.003124 177.47188 37.471874Q176.47188 39.925 175.01875 41.753124Z" fill-rule="nonzero"/></svg>