<svg version="1.1" viewBox="0.0 0.0 600.0 371.0" fill="none" stroke="none" stroke-linecap="square" stroke-miterlimit="10" width="600" height="371" xmlns:xlink="http://www.w3.org/1999/xlink" xmlns="http://www.w3.org/2000/svg"><path fill="#ffffff" d="M0 0L600.0 0L600.0 371.0L0 371.0L0 0Z" fill-rule="nonzero"/><path stroke="#333333" stroke-width="1.0" stroke-linecap="butt" d="M77.5 54.5L77.5 300.5" fill-rule="nonzero"/><path stroke="#cccccc" stroke-width="1.0" stroke-linecap="butt" d="M245.5 54.5L245.5 300.5" fill-rule="nonzero"/><path stroke="#cccccc" stroke-width="1.0" stroke-linecap="butt" d="M413.5 54.5L413.5 300.5" fill-rule="nonzero"/><path stroke="#cccccc" stroke-width="1.0" stroke-linecap="butt" d="M581.5 54.5L581.5 300.5" fill-rule="nonzero"/><clipPath id="id_0"><path d="M77.55 54.916668L581.45 54.916668L581.45 300.45L77.55 300.45L77.55 54.916668Z" clip-rule="nonzero"/></clipPath><path stroke="#000000" stroke-width="2.0" stroke-linecap="butt" stroke-opacity="0.0" clip-path="url(#id_0)" d="M78.0 112.0L78.0 75.0L307.0 75.0C308.10458 75.0 309.0 75.89543 309.0 77.0L309.0 110.0C309.0 111.10457 308.10458 112.0 307.0 112.0Z" fill-rule="nonzero"/><path fill="#4285f4" clip-path="url(#id_0)" d="M78.0 112.0L78.0 75.0L307.0 75.0C308.10458 75.0 309.0 75.89543 309.0 77.0L309.0 110.0C309.0 111.10457 308.10458 112.0 307.0 112.0Z" fill-rule="nonzero"/><path stroke="#000000" stroke-width="2.0" stroke-linecap="butt" stroke-opacity="0.0" clip-path="url(#id_0)" d="M78.0 168.0L78.0 131.0L507.0 131.0C508.10458 131.0 509.0 131.89543 509.0 133.0L509.0 166.0C509.0 167.10457 508.10458 168.0 507.0 168.0Z" fill-rule="nonzero"/><path fill="#4285f4" clip-path="url(#id_0)" d="M78.0 168.0L78.0 131.0L507.0 131.0C508.10458 131.0 509.0 131.89543 509.0 133.0L509.0 166.0C509.0 167.10457 508.10458 168.0 507.0 168.0Z" fill-rule="nonzero"/><path stroke="#000000" stroke-width="2.0" stroke-linecap="butt" stroke-opacity="0.0" clip-path="url(#id_0)" d="M78.0 225.0L78.0 188.0L521.0 188.0C522.10455 188.0 523.0 188.89543 523.0 190.0L523.0 223.0C523.0 224.10457 522.10455 225.0 521.0 225.0Z" fill-rule="nonzero"/><path fill="#4285f4" clip-path="url(#id_0)" d="M78.0 225.0L78.0 188.0L521.0 188.0C522.10455 188.0 523.0 188.89543 523.0 190.0L523.0 223.0C523.0 224.10457 522.10455 225.0 521.0 225.0Z" fill-rule="nonzero"/><path stroke="#000000" stroke-width="2.0" stroke-linecap="butt" stroke-opacity="0.0" clip-path="url(#id_0)" d="M78.0 281.0L78.0 244.0L563.0 244.0C564.10455 244.0 565.0 244.89543 565.0 246.0L565.0 279.0C565.0 280.10458 564.10455 281.0 563.0 281.0Z" fill-rule="nonzero"/><path fill="#4285f4" clip-path="url(#id_0)" d="M78.0 281.0L78.0 244.0L563.0 244.0C564.10455 244.0 565.0 244.89543 565.0 246.0L565.0 279.0C565.0 280.10458 564.10455 281.0 563.0 281.0Z" fill-rule="nonzero"/><path stroke="#4285f4" stroke-width="3.0" stroke-linejoin="round" stroke-linecap="round" d="M262.03943 88.96875L262.03943 89.875L261.8363 89.875Q260.57068 89.90625 259.82068 90.640625Q259.07068 91.359375 258.94568 92.671875Q259.63318 91.90625 260.78943 91.90625Q261.8988 91.90625 262.57068 92.6875Q263.24255 93.46875 263.24255 94.71875Q263.24255 96.03125 262.5238 96.828125Q261.80505 97.625 260.5863 97.625Q259.36755 97.625 258.60193 96.6875Q257.85193 95.734375 257.85193 94.25L257.85193 93.84375Q257.85193 91.484375 258.85193 90.234375Q259.85193 88.984375 261.8363 88.96875L262.03943 88.96875ZM260.61755 92.8125Q260.05505 92.8125 259.5863 93.140625Q259.11755 93.46875 258.93005 93.984375L258.93005 94.375Q258.93005 95.4375 259.3988 96.078125Q259.88318 96.71875 260.5863 96.71875Q261.32068 96.71875 261.74255 96.1875Q262.16443 95.640625 262.16443 94.765625Q262.16443 93.890625 261.74255 93.359375Q261.32068 92.8125 260.61755 92.8125ZM272.9613 91.1875Q272.9613 91.828125 272.61755 92.328125Q272.2738 92.828125 271.7113 93.109375Q272.36755 93.390625 272.75818 93.953125Q273.1488 94.5 273.1488 95.203125Q273.1488 96.296875 272.3988 96.96875Q271.66443 97.625 270.44568 97.625Q269.2113 97.625 268.4613 96.96875Q267.72693 96.296875 267.72693 95.203125Q267.72693 94.5 268.10193 93.953125Q268.47693 93.390625 269.1488 93.109375Q268.5863 92.828125 268.25818 92.328125Q267.93005 91.828125 267.93005 91.1875Q267.93005 90.109375 268.61755 89.484375Q269.30505 88.84375 270.44568 88.84375Q271.57068 88.84375 272.25818 89.484375Q272.9613 90.109375 272.9613 91.1875ZM272.07068 95.171875Q272.07068 94.453125 271.61755 94.015625Q271.16443 93.5625 270.43005 93.5625Q269.69568 93.5625 269.24255 94.015625Q268.80505 94.453125 268.80505 95.1875Q268.80505 95.90625 269.24255 96.328125Q269.68005 96.734375 270.44568 96.734375Q271.19568 96.734375 271.63318 96.3125Q272.07068 95.890625 272.07068 95.171875ZM270.44568 89.734375Q269.80505 89.734375 269.3988 90.140625Q269.00818 90.53125 269.00818 91.21875Q269.00818 91.859375 269.3988 92.265625Q269.78943 92.671875 270.43005 92.671875Q271.0863 92.671875 271.47693 92.265625Q271.86755 91.859375 271.86755 91.21875Q271.86755 90.5625 271.4613 90.15625Q271.05505 89.734375 270.44568 89.734375ZM279.9613 91.1875Q279.9613 91.828125 279.61755 92.328125Q279.2738 92.828125 278.7113 93.109375Q279.36755 93.390625 279.75818 93.953125Q280.1488 94.5 280.1488 95.203125Q280.1488 96.296875 279.3988 96.96875Q278.66443 97.625 277.44568 97.625Q276.2113 97.625 275.4613 96.96875Q274.72693 96.296875 274.72693 95.203125Q274.72693 94.5 275.10193 93.953125Q275.47693 93.390625 276.1488 93.109375Q275.5863 92.828125 275.25818 92.328125Q274.93005 91.828125 274.93005 91.1875Q274.93005 90.109375 275.61755 89.484375Q276.30505 88.84375 277.44568 88.84375Q278.57068 88.84375 279.25818 89.484375Q279.9613 90.109375 279.9613 91.1875ZM279.07068 95.171875Q279.07068 94.453125 278.61755 94.015625Q278.16443 93.5625 277.43005 93.5625Q276.69568 93.5625 276.24255 94.015625Q275.80505 94.453125 275.80505 95.1875Q275.80505 95.90625 276.24255 96.328125Q276.68005 96.734375 277.44568 96.734375Q278.19568 96.734375 278.63318 96.3125Q279.07068 95.890625 279.07068 95.171875ZM277.44568 89.734375Q276.80505 89.734375 276.3988 90.140625Q276.00818 90.53125 276.00818 91.21875Q276.00818 91.859375 276.3988 92.265625Q276.78943 92.671875 277.43005 92.671875Q278.0863 92.671875 278.47693 92.265625Q278.86755 91.859375 278.86755 91.21875Q278.86755 90.5625 278.4613 90.15625Q278.05505 89.734375 277.44568 89.734375ZM282.2738 93.21875L282.7113 88.96875L287.0863 88.96875L287.0863 89.96875L283.63318 89.96875L283.36755 92.296875Q284.00818 91.921875 284.80505 91.921875Q285.9613 91.921875 286.6488 92.703125Q287.3363 93.46875 287.3363 94.78125Q287.3363 96.09375 286.61755 96.859375Q285.91443 97.625 284.63318 97.625Q283.50818 97.625 282.78943 97.0Q282.07068 96.359375 281.97693 95.25L282.99255 95.25Q283.10193 95.984375 283.5238 96.359375Q283.94568 96.734375 284.63318 96.734375Q285.38318 96.734375 285.82068 96.21875Q286.25818 95.703125 286.25818 94.796875Q286.25818 93.9375 285.78943 93.421875Q285.32068 92.90625 284.53943 92.90625Q283.8363 92.90625 283.43005 93.203125L283.1488 93.4375L282.2738 93.21875ZM288.85193 99.203125L288.24255 98.78125Q288.78943 98.015625 288.82068 97.1875L288.82068 96.21875L289.88318 96.21875L289.88318 97.0625Q289.88318 97.65625 289.5863 98.25Q289.28943 98.84375 288.85193 99.203125ZM294.93005 93.75Q294.60193 94.15625 294.11755 94.40625Q293.6488 94.640625 293.0863 94.640625Q292.35193 94.640625 291.80505 94.28125Q291.25818 93.921875 290.9613 93.265625Q290.66443 92.59375 290.66443 91.796875Q290.66443 90.953125 290.97693 90.265625Q291.30505 89.578125 291.8988 89.21875Q292.50818 88.84375 293.30505 88.84375Q294.57068 88.84375 295.28943 89.796875Q296.0238 90.75 296.0238 92.375L296.0238 92.6875Q296.0238 95.1875 295.03943 96.328125Q294.05505 97.46875 292.07068 97.5L291.85193 97.5L291.85193 96.59375L292.0863 96.59375Q293.43005 96.5625 294.1488 95.890625Q294.86755 95.21875 294.93005 93.75ZM293.25818 93.75Q293.80505 93.75 294.25818 93.421875Q294.72693 93.078125 294.94568 92.59375L294.94568 92.15625Q294.94568 91.09375 294.47693 90.421875Q294.00818 89.75 293.30505 89.75Q292.5863 89.75 292.1488 90.296875Q291.72693 90.84375 291.72693 91.75Q291.72693 92.625 292.13318 93.1875Q292.55505 93.75 293.25818 93.75ZM301.3363 97.5L300.25818 97.5L300.25818 90.28125L298.07068 91.078125L298.07068 90.09375L301.18005 88.921875L301.3363 88.921875L301.3363 97.5Z" fill-rule="nonzero"/><path fill="#ffffff" d="M262.03943 88.96875L262.03943 89.875L261.8363 89.875Q260.57068 89.90625 259.82068 90.640625Q259.07068 91.359375 258.94568 92.671875Q259.63318 91.90625 260.78943 91.90625Q261.8988 91.90625 262.57068 92.6875Q263.24255 93.46875 263.24255 94.71875Q263.24255 96.03125 262.5238 96.828125Q261.80505 97.625 260.5863 97.625Q259.36755 97.625 258.60193 96.6875Q257.85193 95.734375 257.85193 94.25L257.85193 93.84375Q257.85193 91.484375 258.85193 90.234375Q259.85193 88.984375 261.8363 88.96875L262.03943 88.96875ZM260.61755 92.8125Q260.05505 92.8125 259.5863 93.140625Q259.11755 93.46875 258.93005 93.984375L258.93005 94.375Q258.93005 95.4375 259.3988 96.078125Q259.88318 96.71875 260.5863 96.71875Q261.32068 96.71875 261.74255 96.1875Q262.16443 95.640625 262.16443 94.765625Q262.16443 93.890625 261.74255 93.359375Q261.32068 92.8125 260.61755 92.8125ZM272.9613 91.1875Q272.9613 91.828125 272.61755 92.328125Q272.2738 92.828125 271.7113 93.109375Q272.36755 93.390625 272.75818 93.953125Q273.1488 94.5 273.1488 95.203125Q273.1488 96.296875 272.3988 96.96875Q271.66443 97.625 270.44568 97.625Q269.2113 97.625 268.4613 96.96875Q267.72693 96.296875 267.72693 95.203125Q267.72693 94.5 268.10193 93.953125Q268.47693 93.390625 269.1488 93.109375Q268.5863 92.828125 268.25818 92.328125Q267.93005 91.828125 267.93005 91.1875Q267.93005 90.109375 268.61755 89.484375Q269.30505 88.84375 270.44568 88.84375Q271.57068 88.84375 272.25818 89.484375Q272.9613 90.109375 272.9613 91.1875ZM272.07068 95.171875Q272.07068 94.453125 271.61755 94.015625Q271.16443 93.5625 270.43005 93.5625Q269.69568 93.5625 269.24255 94.015625Q268.80505 94.453125 268.80505 95.1875Q268.80505 95.90625 269.24255 96.328125Q269.68005 96.734375 270.44568 96.734375Q271.19568 96.734375 271.63318 96.3125Q272.07068 95.890625 272.07068 95.171875ZM270.44568 89.734375Q269.80505 89.734375 269.3988 90.140625Q269.00818 90.53125 269.00818 91.21875Q269.00818 91.859375 269.3988 92.265625Q269.78943 92.671875 270.43005 92.671875Q271.0863 92.671875 271.47693 92.265625Q271.86755 91.859375 271.86755 91.21875Q271.86755 90.5625 271.4613 90.15625Q271.05505 89.734375 270.44568 89.734375ZM279.9613 91.1875Q279.9613 91.828125 279.61755 92.328125Q279.2738 92.828125 278.7113 93.109375Q279.36755 93.390625 279.75818 93.953125Q280.1488 94.5 280.1488 95.203125Q280.1488 96.296875 279.3988 96.96875Q278.66443 97.625 277.44568 97.625Q276.2113 97.625 275.4613 96.96875Q274.72693 96.296875 274.72693 95.203125Q274.72693 94.5 275.10193 93.953125Q275.47693 93.390625 276.1488 93.109375Q275.5863 92.828125 275.25818 92.328125Q274.93005 91.828125 274.93005 91.1875Q274.93005 90.109375 275.61755 89.484375Q276.30505 88.84375 277.44568 88.84375Q278.57068 88.84375 279.25818 89.484375Q279.9613 90.109375 279.9613 91.1875ZM279.07068 95.171875Q279.07068 94.453125 278.61755 94.015625Q278.16443 93.5625 277.43005 93.5625Q276.69568 93.5625 276.24255 94.015625Q275.80505 94.453125 275.80505 95.1875Q275.80505 95.90625 276.24255 96.328125Q276.68005 96.734375 277.44568 96.734375Q278.19568 96.734375 278.63318 96.3125Q279.07068 95.890625 279.07068 95.171875ZM277.44568 89.734375Q276.80505 89.734375 276.3988 90.140625Q276.00818 90.53125 276.00818 91.21875Q276.00818 91.859375 276.3988 92.265625Q276.78943 92.671875 277.43005 92.671875Q278.0863 92.671875 278.47693 92.265625Q278.86755 91.859375 278.86755 91.21875Q278.86755 90.5625 278.4613 90.15625Q278.05505 89.734375 277.44568 89.734375ZM282.2738 93.21875L282.7113 88.96875L287.0863 88.96875L287.0863 89.96875L283.63318 89.96875L283.36755 92.296875Q284.00818 91.921875 284.80505 91.921875Q285.9613 91.921875 286.6488 92.703125Q287.3363 93.46875 287.3363 94.78125Q287.3363 96.09375 286.61755 96.859375Q285.91443 97.625 284.63318 97.625Q283.50818 97.625 282.78943 97.0Q282.07068 96.359375 281.97693 95.25L282.99255 95.25Q283.10193 95.984375 283.5238 96.359375Q283.94568 96.734375 284.63318 96.734375Q285.38318 96.734375 285.82068 96.21875Q286.25818 95.703125 286.25818 94.796875Q286.25818 93.9375 285.78943 93.421875Q285.32068 92.90625 284.53943 92.90625Q283.8363 92.90625 283.43005 93.203125L283.1488 93.4375L282.2738 93.21875ZM288.85193 99.203125L288.24255 98.78125Q288.78943 98.015625 288.82068 97.1875L288.82068 96.21875L289.88318 96.21875L289.88318 97.0625Q289.88318 97.65625 289.5863 98.25Q289.28943 98.84375 288.85193 99.203125ZM294.93005 93.75Q294.60193 94.15625 294.11755 94.40625Q293.6488 94.640625 293.0863 94.640625Q292.35193 94.640625 291.80505 94.28125Q291.25818 93.921875 290.9613 93.265625Q290.66443 92.59375 290.66443 91.796875Q290.66443 90.953125 290.97693 90.265625Q291.30505 89.578125 291.8988 89.21875Q292.50818 88.84375 293.30505 88.84375Q294.57068 88.84375 295.28943 89.796875Q296.0238 90.75 296.0238 92.375L296.0238 92.6875Q296.0238 95.1875 295.03943 96.328125Q294.05505 97.46875 292.07068 97.5L291.85193 97.5L291.85193 96.59375L292.0863 96.59375Q293.43005 96.5625 294.1488 95.890625Q294.86755 95.21875 294.93005 93.75ZM293.25818 93.75Q293.80505 93.75 294.25818 93.421875Q294.72693 93.078125 294.94568 92.59375L294.94568 92.15625Q294.94568 91.09375 294.47693 90.421875Q294.00818 89.75 293.30505 89.75Q292.5863 89.75 292.1488 90.296875Q291.72693 90.84375 291.72693 91.75Q291.72693 92.625 292.13318 93.1875Q292.55505 93.75 293.25818 93.75ZM301.3363 97.5L300.25818 97.5L300.25818 90.28125L298.07068 91.078125L298.07068 90.09375L301.18005 88.921875L301.3363 88.921875L301.3363 97.5Z" fill-rule="nonzero"/><path stroke="#4285f4" stroke-width="3.0" stroke-linejoin="round" stroke-linecap="round" d="M454.87747 153.5L453.79935 153.5L453.79935 146.28125L451.61185 147.07812L451.61185 146.09375L454.72122 144.92188L454.87747 144.92188L454.87747 153.5ZM463.90872 153.5L458.31497 153.5L458.31497 152.71875L461.2681 149.4375Q461.92435 148.6875 462.17435 148.23438Q462.42435 147.76562 462.42435 147.26562Q462.42435 146.59375 462.0181 146.17188Q461.62747 145.73438 460.93997 145.73438Q460.1431 145.73438 459.68997 146.20312Q459.23685 146.65625 459.23685 147.48438L458.15872 147.48438Q458.15872 146.29688 458.90872 145.57812Q459.67435 144.84375 460.93997 144.84375Q462.1431 144.84375 462.8306 145.46875Q463.5181 146.09375 463.5181 147.14062Q463.5181 148.39062 461.90872 150.14062L459.62747 152.60938L463.90872 152.60938L463.90872 153.5ZM473.50247 147.1875Q473.50247 147.82812 473.15872 148.32812Q472.81497 148.82812 472.25247 149.10938Q472.90872 149.39062 473.29935 149.95312Q473.68997 150.5 473.68997 151.20312Q473.68997 152.29688 472.93997 152.96875Q472.2056 153.625 470.98685 153.625Q469.75247 153.625 469.00247 152.96875Q468.2681 152.29688 468.2681 151.20312Q468.2681 150.5 468.6431 149.95312Q469.0181 149.39062 469.68997 149.10938Q469.12747 148.82812 468.79935 148.32812Q468.47122 147.82812 468.47122 147.1875Q468.47122 146.10938 469.15872 145.48438Q469.84622 144.84375 470.98685 144.84375Q472.11185 144.84375 472.79935 145.48438Q473.50247 146.10938 473.50247 147.1875ZM472.61185 151.17188Q472.61185 150.45312 472.15872 150.01562Q471.7056 149.5625 470.97122 149.5625Q470.23685 149.5625 469.78372 150.01562Q469.34622 150.45312 469.34622 151.1875Q469.34622 151.90625 469.78372 152.32812Q470.22122 152.73438 470.98685 152.73438Q471.73685 152.73438 472.17435 152.3125Q472.61185 151.89062 472.61185 151.17188ZM470.98685 145.73438Q470.34622 145.73438 469.93997 146.14062Q469.54935 146.53125 469.54935 147.21875Q469.54935 147.85938 469.93997 148.26562Q470.3306 148.67188 470.97122 148.67188Q471.62747 148.67188 472.0181 148.26562Q472.40872 147.85938 472.40872 147.21875Q472.40872 146.5625 472.00247 146.15625Q471.59622 145.73438 470.98685 145.73438ZM475.81497 149.21875L476.25247 144.96875L480.62747 144.96875L480.62747 145.96875L477.17435 145.96875L476.90872 148.29688Q477.54935 147.92188 478.34622 147.92188Q479.50247 147.92188 480.18997 148.70312Q480.87747 149.46875 480.87747 150.78125Q480.87747 152.09375 480.15872 152.85938Q479.4556 153.625 478.17435 153.625Q477.04935 153.625 476.3306 153.0Q475.61185 152.35938 475.5181 151.25L476.53372 151.25Q476.6431 151.98438 477.06497 152.35938Q477.48685 152.73438 478.17435 152.73438Q478.92435 152.73438 479.36185 152.21875Q479.79935 151.70312 479.79935 150.79688Q479.79935 149.9375 479.3306 149.42188Q478.86185 148.90625 478.0806 148.90625Q477.37747 148.90625 476.97122 149.20312L476.68997 149.4375L475.81497 149.21875ZM482.81497 149.21875L483.25247 144.96875L487.62747 144.96875L487.62747 145.96875L484.17435 145.96875L483.90872 148.29688Q484.54935 147.92188 485.34622 147.92188Q486.50247 147.92188 487.18997 148.70312Q487.87747 149.46875 487.87747 150.78125Q487.87747 152.09375 487.15872 152.85938Q486.4556 153.625 485.17435 153.625Q484.04935 153.625 483.3306 153.0Q482.61185 152.35938 482.5181 151.25L483.53372 151.25Q483.6431 151.98438 484.06497 152.35938Q484.48685 152.73438 485.17435 152.73438Q485.92435 152.73438 486.36185 152.21875Q486.79935 151.70312 486.79935 150.79688Q486.79935 149.9375 486.3306 149.42188Q485.86185 148.90625 485.0806 148.90625Q484.37747 148.90625 483.97122 149.20312L483.68997 149.4375L482.81497 149.21875ZM489.3931 155.20312L488.78372 154.78125Q489.3306 154.01562 489.36185 153.1875L489.36185 152.21875L490.42435 152.21875L490.42435 153.0625Q490.42435 153.65625 490.12747 154.25Q489.8306 154.84375 489.3931 155.20312ZM491.81497 149.21875L492.25247 144.96875L496.62747 144.96875L496.62747 145.96875L493.17435 145.96875L492.90872 148.29688Q493.54935 147.92188 494.34622 147.92188Q495.50247 147.92188 496.18997 148.70312Q496.87747 149.46875 496.87747 150.78125Q496.87747 152.09375 496.15872 152.85938Q495.4556 153.625 494.17435 153.625Q493.04935 153.625 492.3306 153.0Q491.61185 152.35938 491.5181 151.25L492.53372 151.25Q492.6431 151.98438 493.06497 152.35938Q493.48685 152.73438 494.17435 152.73438Q494.92435 152.73438 495.36185 152.21875Q495.79935 151.70312 495.79935 150.79688Q495.79935 149.9375 495.3306 149.42188Q494.86185 148.90625 494.0806 148.90625Q493.37747 148.90625 492.97122 149.20312L492.68997 149.4375L491.81497 149.21875ZM503.50247 147.1875Q503.50247 147.82812 503.15872 148.32812Q502.81497 148.82812 502.25247 149.10938Q502.90872 149.39062 503.29935 149.95312Q503.68997 150.5 503.68997 151.20312Q503.68997 152.29688 502.93997 152.96875Q502.2056 153.625 500.98685 153.625Q499.75247 153.625 499.00247 152.96875Q498.2681 152.29688 498.2681 151.20312Q498.2681 150.5 498.6431 149.95312Q499.0181 149.39062 499.68997 149.10938Q499.12747 148.82812 498.79935 148.32812Q498.47122 147.82812 498.47122 147.1875Q498.47122 146.10938 499.15872 145.48438Q499.84622 144.84375 500.98685 144.84375Q502.11185 144.84375 502.79935 145.48438Q503.50247 146.10938 503.50247 147.1875ZM502.61185 151.17188Q502.61185 150.45312 502.15872 150.01562Q501.7056 149.5625 500.97122 149.5625Q500.23685 149.5625 499.78372 150.01562Q499.34622 150.45312 499.34622 151.1875Q499.34622 151.90625 499.78372 152.32812Q500.22122 152.73438 500.98685 152.73438Q501.73685 152.73438 502.17435 152.3125Q502.61185 151.89062 502.61185 151.17188ZM500.98685 145.73438Q500.34622 145.73438 499.93997 146.14062Q499.54935 146.53125 499.54935 147.21875Q499.54935 147.85938 499.93997 148.26562Q500.3306 148.67188 500.97122 148.67188Q501.62747 148.67188 502.0181 148.26562Q502.40872 147.85938 502.40872 147.21875Q502.40872 146.5625 502.00247 146.15625Q501.59622 145.73438 500.98685 145.73438Z" fill-rule="nonzero"/><path fill="#ffffff" d="M454.87747 153.5L453.79935 153.5L453.79935 146.28125L451.61185 147.07812L451.61185 146.09375L454.72122 144.92188L454.87747 144.92188L454.87747 153.5ZM463.90872 153.5L458.31497 153.5L458.31497 152.71875L461.2681 149.4375Q461.92435 148.6875 462.17435 148.23438Q462.42435 147.76562 462.42435 147.26562Q462.42435 146.59375 462.0181 146.17188Q461.62747 145.73438 460.93997 145.73438Q460.1431 145.73438 459.68997 146.20312Q459.23685 146.65625 459.23685 147.48438L458.15872 147.48438Q458.15872 146.29688 458.90872 145.57812Q459.67435 144.84375 460.93997 144.84375Q462.1431 144.84375 462.8306 145.46875Q463.5181 146.09375 463.5181 147.14062Q463.5181 148.39062 461.90872 150.14062L459.62747 152.60938L463.90872 152.60938L463.90872 153.5ZM473.50247 147.1875Q473.50247 147.82812 473.15872 148.32812Q472.81497 148.82812 472.25247 149.10938Q472.90872 149.39062 473.29935 149.95312Q473.68997 150.5 473.68997 151.20312Q473.68997 152.29688 472.93997 152.96875Q472.2056 153.625 470.98685 153.625Q469.75247 153.625 469.00247 152.96875Q468.2681 152.29688 468.2681 151.20312Q468.2681 150.5 468.6431 149.95312Q469.0181 149.39062 469.68997 149.10938Q469.12747 148.82812 468.79935 148.32812Q468.47122 147.82812 468.47122 147.1875Q468.47122 146.10938 469.15872 145.48438Q469.84622 144.84375 470.98685 144.84375Q472.11185 144.84375 472.79935 145.48438Q473.50247 146.10938 473.50247 147.1875ZM472.61185 151.17188Q472.61185 150.45312 472.15872 150.01562Q471.7056 149.5625 470.97122 149.5625Q470.23685 149.5625 469.78372 150.01562Q469.34622 150.45312 469.34622 151.1875Q469.34622 151.90625 469.78372 152.32812Q470.22122 152.73438 470.98685 152.73438Q471.73685 152.73438 472.17435 152.3125Q472.61185 151.89062 472.61185 151.17188ZM470.98685 145.73438Q470.34622 145.73438 469.93997 146.14062Q469.54935 146.53125 469.54935 147.21875Q469.54935 147.85938 469.93997 148.26562Q470.3306 148.67188 470.97122 148.67188Q471.62747 148.67188 472.0181 148.26562Q472.40872 147.85938 472.40872 147.21875Q472.40872 146.5625 472.00247 146.15625Q471.59622 145.73438 470.98685 145.73438ZM475.81497 149.21875L476.25247 144.96875L480.62747 144.96875L480.62747 145.96875L477.17435 145.96875L476.90872 148.29688Q477.54935 147.92188 478.34622 147.92188Q479.50247 147.92188 480.18997 148.70312Q480.87747 149.46875 480.87747 150.78125Q480.87747 152.09375 480.15872 152.85938Q479.4556 153.625 478.17435 153.625Q477.04935 153.625 476.3306 153.0Q475.61185 152.35938 475.5181 151.25L476.53372 151.25Q476.6431 151.98438 477.06497 152.35938Q477.48685 152.73438 478.17435 152.73438Q478.92435 152.73438 479.36185 152.21875Q479.79935 151.70312 479.79935 150.79688Q479.79935 149.9375 479.3306 149.42188Q478.86185 148.90625 478.0806 148.90625Q477.37747 148.90625 476.97122 149.20312L476.68997 149.4375L475.81497 149.21875ZM482.81497 149.21875L483.25247 144.96875L487.62747 144.96875L487.62747 145.96875L484.17435 145.96875L483.90872 148.29688Q484.54935 147.92188 485.34622 147.92188Q486.50247 147.92188 487.18997 148.70312Q487.87747 149.46875 487.87747 150.78125Q487.87747 152.09375 487.15872 152.85938Q486.4556 153.625 485.17435 153.625Q484.04935 153.625 483.3306 153.0Q482.61185 152.35938 482.5181 151.25L483.53372 151.25Q483.6431 151.98438 484.06497 152.35938Q484.48685 152.73438 485.17435 152.73438Q485.92435 152.73438 486.36185 152.21875Q486.79935 151.70312 486.79935 150.79688Q486.79935 149.9375 486.3306 149.42188Q485.86185 148.90625 485.0806 148.90625Q484.37747 148.90625 483.97122 149.20312L483.68997 149.4375L482.81497 149.21875ZM489.3931 155.20312L488.78372 154.78125Q489.3306 154.01562 489.36185 153.1875L489.36185 152.21875L490.42435 152.21875L490.42435 153.0625Q490.42435 153.65625 490.12747 154.25Q489.8306 154.84375 489.3931 155.20312ZM491.81497 149.21875L492.25247 144.96875L496.62747 144.96875L496.62747 145.96875L493.17435 145.96875L492.90872 148.29688Q493.54935 147.92188 494.34622 147.92188Q495.50247 147.92188 496.18997 148.70312Q496.87747 149.46875 496.87747 150.78125Q496.87747 152.09375 496.15872 152.85938Q495.4556 153.625 494.17435 153.625Q493.04935 153.625 492.3306 153.0Q491.61185 152.35938 491.5181 151.25L492.53372 151.25Q492.6431 151.98438 493.06497 152.35938Q493.48685 152.73438 494.17435 152.73438Q494.92435 152.73438 495.36185 152.21875Q495.79935 151.70312 495.79935 150.79688Q495.79935 149.9375 495.3306 149.42188Q494.86185 148.90625 494.0806 148.90625Q493.37747 148.90625 492.97122 149.20312L492.68997 149.4375L491.81497 149.21875ZM503.50247 147.1875Q503.50247 147.82812 503.15872 148.32812Q502.81497 148.82812 502.25247 149.10938Q502.90872 149.39062 503.29935 149.95312Q503.68997 150.5 503.68997 151.20312Q503.68997 152.29688 502.93997 152.96875Q502.2056 153.625 500.98685 153.625Q499.75247 153.625 499.00247 152.96875Q498.2681 152.29688 498.2681 151.20312Q498.2681 150.5 498.6431 149.95312Q499.0181 149.39062 499.68997 149.10938Q499.12747 148.82812 498.79935 148.32812Q498.47122 147.82812 498.47122 147.1875Q498.47122 146.10938 499.15872 145.48438Q499.84622 144.84375 500.98685 144.84375Q502.11185 144.84375 502.79935 145.48438Q503.50247 146.10938 503.50247 147.1875ZM502.61185 151.17188Q502.61185 150.45312 502.15872 150.01562Q501.7056 149.5625 500.97122 149.5625Q500.23685 149.5625 499.78372 150.01562Q499.34622 150.45312 499.34622 151.1875Q499.34622 151.90625 499.78372 152.32812Q500.22122 152.73438 500.98685 152.73438Q501.73685 152.73438 502.17435 152.3125Q502.61185 151.89062 502.61185 151.17188ZM500.98685 145.73438Q500.34622 145.73438 499.93997 146.14062Q499.54935 146.53125 499.54935 147.21875Q499.54935 147.85938 499.93997 148.26562Q500.3306 148.67188 500.97122 148.67188Q501.62747 148.67188 502.0181 148.26562Q502.40872 147.85938 502.40872 147.21875Q502.40872 146.5625 502.00247 146.15625Q501.59622 145.73438 500.98685 145.73438Z" fill-rule="nonzero"/><path stroke="#4285f4" stroke-width="3.0" stroke-linejoin="round" stroke-linecap="round" d="M468.2782 210.5L467.20007 210.5L467.20007 203.28125L465.01257 204.07812L465.01257 203.09375L468.12195 201.92188L468.2782 201.92188L468.2782 210.5ZM473.29382 205.70312L474.10632 205.70312Q474.88757 205.6875 475.32507 205.29688Q475.76257 204.90625 475.76257 204.23438Q475.76257 202.73438 474.26257 202.73438Q473.55945 202.73438 473.13757 203.14062Q472.73132 203.54688 472.73132 204.20312L471.63757 204.20312Q471.63757 203.1875 472.37195 202.51562Q473.12195 201.84375 474.26257 201.84375Q475.4657 201.84375 476.1532 202.48438Q476.8407 203.125 476.8407 204.26562Q476.8407 204.82812 476.48132 205.34375Q476.12195 205.85938 475.49695 206.125Q476.20007 206.34375 476.57507 206.85938Q476.9657 207.375 476.9657 208.125Q476.9657 209.26562 476.2157 209.95312Q475.4657 210.625 474.26257 210.625Q473.07507 210.625 472.30945 209.96875Q471.55945 209.3125 471.55945 208.25L472.6532 208.25Q472.6532 208.92188 473.0907 209.32812Q473.5282 209.73438 474.2782 209.73438Q475.05945 209.73438 475.4657 209.32812Q475.88757 208.90625 475.88757 208.14062Q475.88757 207.40625 475.43445 207.01562Q474.98132 206.60938 474.10632 206.59375L473.29382 206.59375L473.29382 205.70312ZM487.30945 210.5L481.7157 210.5L481.7157 209.71875L484.66882 206.4375Q485.32507 205.6875 485.57507 205.23438Q485.82507 204.76562 485.82507 204.26562Q485.82507 203.59375 485.41882 203.17188Q485.0282 202.73438 484.3407 202.73438Q483.54382 202.73438 483.0907 203.20312Q482.63757 203.65625 482.63757 204.48438L481.55945 204.48438Q481.55945 203.29688 482.30945 202.57812Q483.07507 201.84375 484.3407 201.84375Q485.54382 201.84375 486.23132 202.46875Q486.91882 203.09375 486.91882 204.14062Q486.91882 205.39062 485.30945 207.14062L483.0282 209.60938L487.30945 209.60938L487.30945 210.5ZM489.2157 206.21875L489.6532 201.96875L494.0282 201.96875L494.0282 202.96875L490.57507 202.96875L490.30945 205.29688Q490.95007 204.92188 491.74695 204.92188Q492.9032 204.92188 493.5907 205.70312Q494.2782 206.46875 494.2782 207.78125Q494.2782 209.09375 493.55945 209.85938Q492.85632 210.625 491.57507 210.625Q490.45007 210.625 489.73132 210.0Q489.01257 209.35938 488.91882 208.25L489.93445 208.25Q490.04382 208.98438 490.4657 209.35938Q490.88757 209.73438 491.57507 209.73438Q492.32507 209.73438 492.76257 209.21875Q493.20007 208.70312 493.20007 207.79688Q493.20007 206.9375 492.73132 206.42188Q492.26257 205.90625 491.48132 205.90625Q490.7782 205.90625 490.37195 206.20312L490.0907 206.4375L489.2157 206.21875ZM500.29382 207.64062L501.48132 207.64062L501.48132 208.51562L500.29382 208.51562L500.29382 210.5L499.2157 210.5L499.2157 208.51562L495.32507 208.51562L495.32507 207.875L499.13757 201.96875L500.29382 201.96875L500.29382 207.64062ZM496.55945 207.64062L499.2157 207.64062L499.2157 203.45312L499.07507 203.6875L496.55945 207.64062ZM502.79382 212.20312L502.18445 211.78125Q502.73132 211.01562 502.76257 210.1875L502.76257 209.21875L503.82507 209.21875L503.82507 210.0625Q503.82507 210.65625 503.5282 211.25Q503.23132 211.84375 502.79382 212.20312ZM509.29382 207.64062L510.48132 207.64062L510.48132 208.51562L509.29382 208.51562L509.29382 210.5L508.2157 210.5L508.2157 208.51562L504.32507 208.51562L504.32507 207.875L508.13757 201.96875L509.29382 201.96875L509.29382 207.64062ZM505.55945 207.64062L508.2157 207.64062L508.2157 203.45312L508.07507 203.6875L505.55945 207.64062ZM515.87195 206.75Q515.5438 207.15625 515.05945 207.40625Q514.5907 207.64062 514.0282 207.64062Q513.2938 207.64062 512.74695 207.28125Q512.2001 206.92188 511.9032 206.26562Q511.60632 205.59375 511.60632 204.79688Q511.60632 203.95312 511.91882 203.26562Q512.24695 202.57812 512.8407 202.21875Q513.4501 201.84375 514.24695 201.84375Q515.5126 201.84375 516.2313 202.79688Q516.9657 203.75 516.9657 205.375L516.9657 205.6875Q516.9657 208.1875 515.9813 209.32812Q514.99695 210.46875 513.0126 210.5L512.7938 210.5L512.7938 209.59375L513.0282 209.59375Q514.37195 209.5625 515.0907 208.89062Q515.80945 208.21875 515.87195 206.75ZM514.2001 206.75Q514.74695 206.75 515.2001 206.42188Q515.6688 206.07812 515.8876 205.59375L515.8876 205.15625Q515.8876 204.09375 515.4188 203.42188Q514.9501 202.75 514.24695 202.75Q513.5282 202.75 513.0907 203.29688Q512.6688 203.84375 512.6688 204.75Q512.6688 205.625 513.0751 206.1875Q513.49695 206.75 514.2001 206.75Z" fill-rule="nonzero"/><path fill="#ffffff" d="M468.2782 210.5L467.20007 210.5L467.20007 203.28125L465.01257 204.07812L465.01257 203.09375L468.12195 201.92188L468.2782 201.92188L468.2782 210.5ZM473.29382 205.70312L474.10632 205.70312Q474.88757 205.6875 475.32507 205.29688Q475.76257 204.90625 475.76257 204.23438Q475.76257 202.73438 474.26257 202.73438Q473.55945 202.73438 473.13757 203.14062Q472.73132 203.54688 472.73132 204.20312L471.63757 204.20312Q471.63757 203.1875 472.37195 202.51562Q473.12195 201.84375 474.26257 201.84375Q475.4657 201.84375 476.1532 202.48438Q476.8407 203.125 476.8407 204.26562Q476.8407 204.82812 476.48132 205.34375Q476.12195 205.85938 475.49695 206.125Q476.20007 206.34375 476.57507 206.85938Q476.9657 207.375 476.9657 208.125Q476.9657 209.26562 476.2157 209.95312Q475.4657 210.625 474.26257 210.625Q473.07507 210.625 472.30945 209.96875Q471.55945 209.3125 471.55945 208.25L472.6532 208.25Q472.6532 208.92188 473.0907 209.32812Q473.5282 209.73438 474.2782 209.73438Q475.05945 209.73438 475.4657 209.32812Q475.88757 208.90625 475.88757 208.14062Q475.88757 207.40625 475.43445 207.01562Q474.98132 206.60938 474.10632 206.59375L473.29382 206.59375L473.29382 205.70312ZM487.30945 210.5L481.7157 210.5L481.7157 209.71875L484.66882 206.4375Q485.32507 205.6875 485.57507 205.23438Q485.82507 204.76562 485.82507 204.26562Q485.82507 203.59375 485.41882 203.17188Q485.0282 202.73438 484.3407 202.73438Q483.54382 202.73438 483.0907 203.20312Q482.63757 203.65625 482.63757 204.48438L481.55945 204.48438Q481.55945 203.29688 482.30945 202.57812Q483.07507 201.84375 484.3407 201.84375Q485.54382 201.84375 486.23132 202.46875Q486.91882 203.09375 486.91882 204.14062Q486.91882 205.39062 485.30945 207.14062L483.0282 209.60938L487.30945 209.60938L487.30945 210.5ZM489.2157 206.21875L489.6532 201.96875L494.0282 201.96875L494.0282 202.96875L490.57507 202.96875L490.30945 205.29688Q490.95007 204.92188 491.74695 204.92188Q492.9032 204.92188 493.5907 205.70312Q494.2782 206.46875 494.2782 207.78125Q494.2782 209.09375 493.55945 209.85938Q492.85632 210.625 491.57507 210.625Q490.45007 210.625 489.73132 210.0Q489.01257 209.35938 488.91882 208.25L489.93445 208.25Q490.04382 208.98438 490.4657 209.35938Q490.88757 209.73438 491.57507 209.73438Q492.32507 209.73438 492.76257 209.21875Q493.20007 208.70312 493.20007 207.79688Q493.20007 206.9375 492.73132 206.42188Q492.26257 205.90625 491.48132 205.90625Q490.7782 205.90625 490.37195 206.20312L490.0907 206.4375L489.2157 206.21875ZM500.29382 207.64062L501.48132 207.64062L501.48132 208.51562L500.29382 208.51562L500.29382 210.5L499.2157 210.5L499.2157 208.51562L495.32507 208.51562L495.32507 207.875L499.13757 201.96875L500.29382 201.96875L500.29382 207.64062ZM496.55945 207.64062L499.2157 207.64062L499.2157 203.45312L499.07507 203.6875L496.55945 207.64062ZM502.79382 212.20312L502.18445 211.78125Q502.73132 211.01562 502.76257 210.1875L502.76257 209.21875L503.82507 209.21875L503.82507 210.0625Q503.82507 210.65625 503.5282 211.25Q503.23132 211.84375 502.79382 212.20312ZM509.29382 207.64062L510.48132 207.64062L510.48132 208.51562L509.29382 208.51562L509.29382 210.5L508.2157 210.5L508.2157 208.51562L504.32507 208.51562L504.32507 207.875L508.13757 201.96875L509.29382 201.96875L509.29382 207.64062ZM505.55945 207.64062L508.2157 207.64062L508.2157 203.45312L508.07507 203.6875L505.55945 207.64062ZM515.87195 206.75Q515.5438 207.15625 515.05945 207.40625Q514.5907 207.64062 514.0282 207.64062Q513.2938 207.64062 512.74695 207.28125Q512.2001 206.92188 511.9032 206.26562Q511.60632 205.59375 511.60632 204.79688Q511.60632 203.95312 511.91882 203.26562Q512.24695 202.57812 512.8407 202.21875Q513.4501 201.84375 514.24695 201.84375Q515.5126 201.84375 516.2313 202.79688Q516.9657 203.75 516.9657 205.375L516.9657 205.6875Q516.9657 208.1875 515.9813 209.32812Q514.99695 210.46875 513.0126 210.5L512.7938 210.5L512.7938 209.59375L513.0282 209.59375Q514.37195 209.5625 515.0907 208.89062Q515.80945 208.21875 515.87195 206.75ZM514.2001 206.75Q514.74695 206.75 515.2001 206.42188Q515.6688 206.07812 515.8876 205.59375L515.8876 205.15625Q515.8876 204.09375 515.4188 203.42188Q514.9501 202.75 514.24695 202.75Q513.5282 202.75 513.0907 203.29688Q512.6688 203.84375 512.6688 204.75Q512.6688 205.625 513.0751 206.1875Q513.49695 206.75 514.2001 206.75Z" fill-rule="nonzero"/><path stroke="#4285f4" stroke-width="3.0" stroke-linejoin="round" stroke-linecap="round" d="M510.28363 266.5L509.2055 266.5L509.2055 259.28125L507.018 260.07812L507.018 259.09375L510.12738 257.92188L510.28363 257.92188L510.28363 266.5ZM518.29926 263.64062L519.48676 263.64062L519.48676 264.51562L518.29926 264.51562L518.29926 266.5L517.2211 266.5L517.2211 264.51562L513.3305 264.51562L513.3305 263.875L517.143 257.96875L518.29926 257.96875L518.29926 263.64062ZM514.5649 263.64062L517.2211 263.64062L517.2211 259.45312L517.0805 259.6875L514.5649 263.64062ZM524.2211 262.21875L524.6586 257.96875L529.0336 257.96875L529.0336 258.96875L525.5805 258.96875L525.3149 261.29688Q525.9555 260.92188 526.7524 260.92188Q527.9086 260.92188 528.5961 261.70312Q529.2836 262.46875 529.2836 263.78125Q529.2836 265.09375 528.5649 265.85938Q527.86176 266.625 526.5805 266.625Q525.4555 266.625 524.73676 266.0Q524.018 265.35938 523.92426 264.25L524.9399 264.25Q525.04926 264.98438 525.4711 265.35938Q525.893 265.73438 526.5805 265.73438Q527.3305 265.73438 527.768 265.21875Q528.2055 264.70312 528.2055 263.79688Q528.2055 262.9375 527.73676 262.42188Q527.268 261.90625 526.48676 261.90625Q525.7836 261.90625 525.3774 262.20312L525.0961 262.4375L524.2211 262.21875ZM536.0805 262.85938Q536.0805 264.76562 535.42426 265.70312Q534.7836 266.625 533.393 266.625Q532.0336 266.625 531.3774 265.71875Q530.7211 264.8125 530.6899 263.0L530.6899 261.5625Q530.6899 259.67188 531.3305 258.76562Q531.98676 257.84375 533.3774 257.84375Q534.7524 257.84375 535.4086 258.73438Q536.0649 259.60938 536.0805 261.45312L536.0805 262.85938ZM534.98676 261.375Q534.98676 260.0 534.5961 259.375Q534.2211 258.73438 533.3774 258.73438Q532.54926 258.73438 532.1586 259.375Q531.7836 260.0 531.7836 261.29688L531.7836 263.03125Q531.7836 264.40625 532.17426 265.07812Q532.5805 265.73438 533.393 265.73438Q534.1899 265.73438 534.5805 265.10938Q534.9711 264.48438 534.98676 263.15625L534.98676 261.375ZM542.29926 263.64062L543.48676 263.64062L543.48676 264.51562L542.29926 264.51562L542.29926 266.5L541.2211 266.5L541.2211 264.51562L537.3305 264.51562L537.3305 263.875L541.143 257.96875L542.29926 257.96875L542.29926 263.64062ZM538.5649 263.64062L541.2211 263.64062L541.2211 259.45312L541.0805 259.6875L538.5649 263.64062ZM544.79926 268.20312L544.1899 267.78125Q544.73676 267.01562 544.768 266.1875L544.768 265.21875L545.8305 265.21875L545.8305 266.0625Q545.8305 266.65625 545.5336 267.25Q545.23676 267.84375 544.79926 268.20312ZM550.8774 262.75Q550.54926 263.15625 550.0649 263.40625Q549.5961 263.64062 549.0336 263.64062Q548.29926 263.64062 547.7524 263.28125Q547.2055 262.92188 546.9086 262.26562Q546.61176 261.59375 546.61176 260.79688Q546.61176 259.95312 546.92426 259.26562Q547.2524 258.57812 547.8461 258.21875Q548.4555 257.84375 549.2524 257.84375Q550.518 257.84375 551.23676 258.79688Q551.9711 259.75 551.9711 261.375L551.9711 261.6875Q551.9711 264.1875 550.98676 265.32812Q550.0024 266.46875 548.018 266.5L547.79926 266.5L547.79926 265.59375L548.0336 265.59375Q549.3774 265.5625 550.0961 264.89062Q550.8149 264.21875 550.8774 262.75ZM549.2055 262.75Q549.7524 262.75 550.2055 262.42188Q550.67426 262.07812 550.893 261.59375L550.893 261.15625Q550.893 260.09375 550.42426 259.42188Q549.9555 258.75 549.2524 258.75Q548.5336 258.75 548.0961 259.29688Q547.67426 259.84375 547.67426 260.75Q547.67426 261.625 548.0805 262.1875Q548.5024 262.75 549.2055 262.75ZM559.0805 262.85938Q559.0805 264.76562 558.42426 265.70312Q557.7836 266.625 556.393 266.625Q555.0336 266.625 554.3774 265.71875Q553.7211 264.8125 553.6899 263.0L553.6899 261.5625Q553.6899 259.67188 554.3305 258.76562Q554.98676 257.84375 556.3774 257.84375Q557.7524 257.84375 558.4086 258.73438Q559.0649 259.60938 559.0805 261.45312L559.0805 262.85938ZM557.98676 261.375Q557.98676 260.0 557.5961 259.375Q557.2211 258.73438 556.3774 258.73438Q555.54926 258.73438 555.1586 259.375Q554.7836 260.0 554.7836 261.29688L554.7836 263.03125Q554.7836 264.40625 555.17426 265.07812Q555.5805 265.73438 556.393 265.73438Q557.1899 265.73438 557.5805 265.10938Q557.9711 264.48438 557.98676 263.15625L557.98676 261.375Z" fill-rule="nonzero"/><path fill="#ffffff" d="M510.28363 266.5L509.2055 266.5L509.2055 259.28125L507.018 260.07812L507.018 259.09375L510.12738 257.92188L510.28363 257.92188L510.28363 266.5ZM518.29926 263.64062L519.48676 263.64062L519.48676 264.51562L518.29926 264.51562L518.29926 266.5L517.2211 266.5L517.2211 264.51562L513.3305 264.51562L513.3305 263.875L517.143 257.96875L518.29926 257.96875L518.29926 263.64062ZM514.5649 263.64062L517.2211 263.64062L517.2211 259.45312L517.0805 259.6875L514.5649 263.64062ZM524.2211 262.21875L524.6586 257.96875L529.0336 257.96875L529.0336 258.96875L525.5805 258.96875L525.3149 261.29688Q525.9555 260.92188 526.7524 260.92188Q527.9086 260.92188 528.5961 261.70312Q529.2836 262.46875 529.2836 263.78125Q529.2836 265.09375 528.5649 265.85938Q527.86176 266.625 526.5805 266.625Q525.4555 266.625 524.73676 266.0Q524.018 265.35938 523.92426 264.25L524.9399 264.25Q525.04926 264.98438 525.4711 265.35938Q525.893 265.73438 526.5805 265.73438Q527.3305 265.73438 527.768 265.21875Q528.2055 264.70312 528.2055 263.79688Q528.2055 262.9375 527.73676 262.42188Q527.268 261.90625 526.48676 261.90625Q525.7836 261.90625 525.3774 262.20312L525.0961 262.4375L524.2211 262.21875ZM536.0805 262.85938Q536.0805 264.76562 535.42426 265.70312Q534.7836 266.625 533.393 266.625Q532.0336 266.625 531.3774 265.71875Q530.7211 264.8125 530.6899 263.0L530.6899 261.5625Q530.6899 259.67188 531.3305 258.76562Q531.98676 257.84375 533.3774 257.84375Q534.7524 257.84375 535.4086 258.73438Q536.0649 259.60938 536.0805 261.45312L536.0805 262.85938ZM534.98676 261.375Q534.98676 260.0 534.5961 259.375Q534.2211 258.73438 533.3774 258.73438Q532.54926 258.73438 532.1586 259.375Q531.7836 260.0 531.7836 261.29688L531.7836 263.03125Q531.7836 264.40625 532.17426 265.07812Q532.5805 265.73438 533.393 265.73438Q534.1899 265.73438 534.5805 265.10938Q534.9711 264.48438 534.98676 263.15625L534.98676 261.375ZM542.29926 263.64062L543.48676 263.64062L543.48676 264.51562L542.29926 264.51562L542.29926 266.5L541.2211 266.5L541.2211 264.51562L537.3305 264.51562L537.3305 263.875L541.143 257.96875L542.29926 257.96875L542.29926 263.64062ZM538.5649 263.64062L541.2211 263.64062L541.2211 259.45312L541.0805 259.6875L538.5649 263.64062ZM544.79926 268.20312L544.1899 267.78125Q544.73676 267.01562 544.768 266.1875L544.768 265.21875L545.8305 265.21875L545.8305 266.0625Q545.8305 266.65625 545.5336 267.25Q545.23676 267.84375 544.79926 268.20312ZM550.8774 262.75Q550.54926 263.15625 550.0649 263.40625Q549.5961 263.64062 549.0336 263.64062Q548.29926 263.64062 547.7524 263.28125Q547.2055 262.92188 546.9086 262.26562Q546.61176 261.59375 546.61176 260.79688Q546.61176 259.95312 546.92426 259.26562Q547.2524 258.57812 547.8461 258.21875Q548.4555 257.84375 549.2524 257.84375Q550.518 257.84375 551.23676 258.79688Q551.9711 259.75 551.9711 261.375L551.9711 261.6875Q551.9711 264.1875 550.98676 265.32812Q550.0024 266.46875 548.018 266.5L547.79926 266.5L547.79926 265.59375L548.0336 265.59375Q549.3774 265.5625 550.0961 264.89062Q550.8149 264.21875 550.8774 262.75ZM549.2055 262.75Q549.7524 262.75 550.2055 262.42188Q550.67426 262.07812 550.893 261.59375L550.893 261.15625Q550.893 260.09375 550.42426 259.42188Q549.9555 258.75 549.2524 258.75Q548.5336 258.75 548.0961 259.29688Q547.67426 259.84375 547.67426 260.75Q547.67426 261.625 548.0805 262.1875Q548.5024 262.75 549.2055 262.75ZM559.0805 262.85938Q559.0805 264.76562 558.42426 265.70312Q557.7836 266.625 556.393 266.625Q555.0336 266.625 554.3774 265.71875Q553.7211 264.8125 553.6899 263.0L553.6899 261.5625Q553.6899 259.67188 554.3305 258.76562Q554.98676 257.84375 556.3774 257.84375Q557.7524 257.84375 558.4086 258.73438Q559.0649 259.60938 559.0805 261.45312L559.0805 262.85938ZM557.98676 261.375Q557.98676 260.0 557.5961 259.375Q557.2211 258.73438 556.3774 258.73438Q555.54926 258.73438 555.1586 259.375Q554.7836 260.0 554.7836 261.29688L554.7836 263.03125Q554.7836 264.40625 555.17426 265.07812Q555.5805 265.73438 556.393 265.73438Q557.1899 265.73438 557.5805 265.10938Q557.9711 264.48438 557.98676 263.15625L557.98676 261.375Z" fill-rule="nonzero"/><path fill="#000000" d="M303.79688 342.075L303.79688 340.85626L304.85938 340.85626L304.85938 342.075L303.79688 342.075ZM303.79688 349.45L303.79688 343.23126L304.85938 343.23126L304.85938 349.45L303.79688 349.45ZM306.40625 346.34064Q306.40625 344.60626 307.35938 343.77814Q308.15625 343.09064 309.3125 343.09064Q310.59375 343.09064 311.40625 343.9344Q312.23438 344.7625 312.23438 346.2469Q312.23438 347.45 311.875 348.1375Q311.51562 348.825 310.8125 349.21564Q310.125 349.59064 309.3125 349.59064Q308.01562 349.59064 307.20312 348.7625Q306.40625 347.91876 306.40625 346.34064ZM307.48438 346.34064Q307.48438 347.52814 308.0 348.1219Q308.53125 348.71564 309.3125 348.71564Q310.10938 348.71564 310.625 348.1219Q311.14062 347.52814 311.14062 346.3094Q311.14062 345.15314 310.60938 344.5594Q310.09375 343.96564 309.3125 343.96564Q308.53125 343.96564 308.0 344.5594Q307.48438 345.1375 307.48438 346.34064ZM312.8125 351.84064L312.8125 351.075L319.8125 351.075L319.8125 351.84064L312.8125 351.84064ZM321.9375 349.45L320.03125 343.23126L321.125 343.23126L322.10938 346.825L322.48438 348.15314Q322.51562 348.0594 322.8125 346.8719L323.79688 343.23126L324.875 343.23126L325.8125 346.84064L326.125 348.02814L326.48438 346.825L327.54688 343.23126L328.57812 343.23126L326.625 349.45L325.53125 349.45L324.54688 345.71564L324.29688 344.66876L323.04688 349.45L321.9375 349.45ZM329.78125 349.45L329.78125 343.23126L330.73438 343.23126L330.73438 344.16876Q331.09375 343.5125 331.39062 343.3094Q331.70312 343.09064 332.07812 343.09064Q332.60938 343.09064 333.15625 343.41876L332.79688 344.40314Q332.40625 344.16876 332.03125 344.16876Q331.67188 344.16876 331.39062 344.3875Q331.125 344.59064 331.01562 344.96564Q330.82812 345.52814 330.82812 346.1844L330.82812 349.45L329.78125 349.45ZM333.79688 342.075L333.79688 340.85626L334.85938 340.85626L334.85938 342.075L333.79688 342.075ZM333.79688 349.45L333.79688 343.23126L334.85938 343.23126L334.85938 349.45L333.79688 349.45ZM339.09375 348.5125L339.25 349.4344Q338.79688 349.52814 338.45312 349.52814Q337.875 349.52814 337.5625 349.35626Q337.25 349.16876 337.10938 348.8719Q336.98438 348.575 336.98438 347.6219L336.98438 344.04376L336.21875 344.04376L336.21875 343.23126L336.98438 343.23126L336.98438 341.6844L338.03125 341.0594L338.03125 343.23126L339.09375 343.23126L339.09375 344.04376L338.03125 344.04376L338.03125 347.6844Q338.03125 348.1375 338.07812 348.2625Q338.14062 348.3875 338.26562 348.46564Q338.39062 348.54376 338.625 348.54376Q338.8125 348.54376 339.09375 348.5125ZM342.09375 348.5125L342.25 349.4344Q341.79688 349.52814 341.45312 349.52814Q340.875 349.52814 340.5625 349.35626Q340.25 349.16876 340.10938 348.8719Q339.98438 348.575 339.98438 347.6219L339.98438 344.04376L339.21875 344.04376L339.21875 343.23126L339.98438 343.23126L339.98438 341.6844L341.03125 341.0594L341.03125 343.23126L342.09375 343.23126L342.09375 344.04376L341.03125 344.04376L341.03125 347.6844Q341.03125 348.1375 341.07812 348.2625Q341.14062 348.3875 341.26562 348.46564Q341.39062 348.54376 341.625 348.54376Q341.8125 348.54376 342.09375 348.5125ZM347.04688 347.45L348.14062 347.575Q347.89062 348.52814 347.1875 349.0594Q346.48438 349.59064 345.40625 349.59064Q344.04688 349.59064 343.23438 348.7469Q342.4375 347.90314 342.4375 346.3875Q342.4375 344.825 343.25 343.96564Q344.0625 343.09064 345.34375 343.09064Q346.59375 343.09064 347.375 343.9344Q348.17188 344.77814 348.17188 346.325Q348.17188 346.41876 348.17188 346.60626L343.53125 346.60626Q343.59375 347.6375 344.10938 348.1844Q344.625 348.71564 345.40625 348.71564Q345.98438 348.71564 346.39062 348.41876Q346.8125 348.10626 347.04688 347.45ZM343.59375 345.7469L347.0625 345.7469Q347.0 344.95 346.67188 344.5594Q346.15625 343.95 345.35938 343.95Q344.625 343.95 344.125 344.4344Q343.64062 344.91876 343.59375 345.7469ZM349.79688 349.45L349.79688 343.23126L350.73438 343.23126L350.73438 344.10626Q351.42188 343.09064 352.71875 343.09064Q353.28125 343.09064 353.75 343.29376Q354.23438 343.4969 354.46875 343.825Q354.70312 344.15314 354.79688 344.59064Q354.84375 344.8875 354.84375 345.6219L354.84375 349.45L353.79688 349.45L353.79688 345.66876Q353.79688 345.0125 353.67188 344.7Q353.54688 344.3875 353.23438 344.2Q352.92188 343.9969 352.5 343.9969Q351.82812 343.9969 351.32812 344.4344Q350.84375 344.85626 350.84375 346.04376L350.84375 349.45L349.79688 349.45Z" fill-rule="nonzero"/><path fill="#000000" d="M29.550013 200.88646L23.331263 200.88646L23.331263 199.94896L24.206263 199.94896Q23.190638 199.26146 23.190638 197.96458Q23.190638 197.40208 23.393763 196.93333Q23.596888 196.44896 23.925013 196.21458Q24.253138 195.98021 24.690638 195.88646Q24.987513 195.83958 25.721888 195.83958L29.550013 195.83958L29.550013 196.88646L25.768763 196.88646Q25.112513 196.88646 24.800013 197.01146Q24.487513 197.13646 24.300013 197.44896Q24.096888 197.76146 24.096888 198.18333Q24.096888 198.85521 24.534388 199.35521Q24.956263 199.83958 26.143763 199.83958L29.550013 199.83958L29.550013 200.88646ZM26.440638 194.27708Q24.706263 194.27708 23.878138 193.32396Q23.190638 192.52708 23.190638 191.37083Q23.190638 190.08958 24.034388 189.27708Q24.862513 188.44896 26.346888 188.44896Q27.550013 188.44896 28.237513 188.80833Q28.925013 189.16771 29.315638 189.87083Q29.690638 190.55833 29.690638 191.37083Q29.690638 192.66771 28.862513 193.48021Q28.018763 194.27708 26.440638 194.27708ZM26.440638 193.19896Q27.628138 193.19896 28.221888 192.68333Q28.815638 192.15208 28.815638 191.37083Q28.815638 190.57396 28.221888 190.05833Q27.628138 189.54271 26.409388 189.54271Q25.253138 189.54271 24.659388 190.07396Q24.065638 190.58958 24.065638 191.37083Q24.065638 192.15208 24.659388 192.68333Q25.237513 193.19896 26.440638 193.19896ZM29.550013 182.85521L28.768763 182.85521Q29.690638 183.44896 29.690638 184.58958Q29.690638 185.33958 29.284388 185.96458Q28.862513 186.58958 28.128138 186.93333Q27.393763 187.27708 26.440638 187.27708Q25.518763 187.27708 24.753138 186.96458Q23.987513 186.65208 23.596888 186.02708Q23.190638 185.40208 23.190638 184.63646Q23.190638 184.07396 23.425013 183.63646Q23.659388 183.19896 24.034388 182.91771L20.956263 182.91771L20.956263 181.87083L29.550013 181.87083L29.550013 182.85521ZM26.440638 186.18333Q27.643763 186.18333 28.237513 185.68333Q28.815638 185.18333 28.815638 184.49583Q28.815638 183.80833 28.253138 183.32396Q27.690638 182.83958 26.534388 182.83958Q25.253138 182.83958 24.659388 183.33958Q24.065638 183.82396 24.065638 184.54271Q24.065638 185.24583 24.643763 185.71458Q25.206263 186.18333 26.440638 186.18333ZM27.550013 175.63646L27.675013 174.54271Q28.628138 174.79271 29.159388 175.49583Q29.690638 176.19896 29.690638 177.27708Q29.690638 178.63646 28.846888 179.44896Q28.003138 180.24583 26.487513 180.24583Q24.925013 180.24583 24.065638 179.43333Q23.190638 178.62083 23.190638 177.33958Q23.190638 176.08958 24.034388 175.30833Q24.878138 174.51146 26.425013 174.51146Q26.518763 174.51146 26.706263 174.51146L26.706263 179.15208Q27.737513 179.08958 28.284388 178.57396Q28.815638 178.05833 28.815638 177.27708Q28.815638 176.69896 28.518763 176.29271Q28.206263 175.87083 27.550013 175.63646ZM25.846888 179.08958L25.846888 175.62083Q25.050013 175.68333 24.659388 176.01146Q24.050013 176.52708 24.050013 177.32396Q24.050013 178.05833 24.534388 178.55833Q25.018763 179.04271 25.846888 179.08958Z" fill-rule="nonzero"/><path fill="#000000" d="M53.346874 99.407295L53.346874 90.79792L54.3 90.79792L54.3 91.594795Q54.64375 91.126045 55.065624 90.89167Q55.503124 90.657295 56.1125 90.657295Q56.909374 90.657295 57.51875 91.063545Q58.128124 91.469795 58.425 92.219795Q58.7375 92.969795 58.7375 93.86042Q58.7375 94.813545 58.39375 95.57917Q58.065624 96.344795 57.409374 96.751045Q56.753124 97.157295 56.034374 97.157295Q55.503124 97.157295 55.08125 96.938545Q54.659374 96.70417 54.39375 96.376045L54.39375 99.407295L53.346874 99.407295ZM54.3 93.938545Q54.3 95.14167 54.784374 95.719795Q55.26875 96.282295 55.95625 96.282295Q56.659374 96.282295 57.159374 95.688545Q57.659374 95.094795 57.659374 93.844795Q57.659374 92.657295 57.175 92.07917Q56.690624 91.48542 56.003124 91.48542Q55.33125 91.48542 54.815624 92.11042Q54.3 92.73542 54.3 93.938545ZM62.065624 97.01667L59.70625 90.79792L60.815624 90.79792L62.159374 94.51667Q62.3625 95.126045 62.55 95.76667Q62.690624 95.282295 62.940624 94.594795L64.33125 90.79792L65.40938 90.79792L63.05 97.01667L62.065624 97.01667ZM69.59688 95.01667L70.69063 95.14167Q70.44063 96.094795 69.7375 96.626045Q69.03438 97.157295 67.95625 97.157295Q66.59688 97.157295 65.78438 96.313545Q64.9875 95.469795 64.9875 93.95417Q64.9875 92.39167 65.8 91.532295Q66.6125 90.657295 67.89375 90.657295Q69.14375 90.657295 69.925 91.501045Q70.72188 92.344795 70.72188 93.89167Q70.72188 93.98542 70.72188 94.17292L66.08125 94.17292Q66.14375 95.20417 66.65938 95.751045Q67.175 96.282295 67.95625 96.282295Q68.53438 96.282295 68.94063 95.98542Q69.3625 95.67292 69.59688 95.01667ZM66.14375 93.313545L69.6125 93.313545Q69.55 92.51667 69.22188 92.126045Q68.70625 91.51667 67.90938 91.51667Q67.175 91.51667 66.675 92.001045Q66.19063 92.48542 66.14375 93.313545Z" fill-rule="nonzero"/><path fill="#000000" d="M56.596874 152.44548L56.596874 153.4611L50.909374 153.4611Q50.909374 153.0861 51.034374 152.72673Q51.253124 152.1486 51.721874 151.5861Q52.20625 151.0236 53.1125 150.28923Q54.51875 149.13298 55.003124 148.4611Q55.503124 147.78923 55.503124 147.19548Q55.503124 146.57048 55.05 146.1486Q54.596874 145.7111 53.878124 145.7111Q53.1125 145.7111 52.659374 146.16423Q52.20625 146.61736 52.190624 147.42986L51.1125 147.32048Q51.221874 146.10173 51.940624 145.47673Q52.675 144.8361 53.909374 144.8361Q55.14375 144.8361 55.8625 145.5236Q56.58125 146.2111 56.58125 147.22673Q56.58125 147.74236 56.3625 148.24236Q56.159374 148.72673 55.659374 149.28923Q55.175 149.8361 54.05 150.78923Q53.096874 151.5861 52.815624 151.88298Q52.55 152.16423 52.378124 152.44548L56.596874 152.44548ZM58.14375 153.97673L59.175 154.13298Q59.2375 154.60173 59.534374 154.82048Q59.925 155.11736 60.596874 155.11736Q61.33125 155.11736 61.721874 154.82048Q62.128124 154.5236 62.26875 154.00798Q62.3625 153.67986 62.346874 152.6486Q61.659374 153.4611 60.628124 153.4611Q59.346874 153.4611 58.64375 152.53923Q57.940624 151.60173 57.940624 150.32048Q57.940624 149.42986 58.253124 148.67986Q58.58125 147.91423 59.190624 147.50798Q59.8 147.10173 60.628124 147.10173Q61.7375 147.10173 62.45625 147.99236L62.45625 147.24236L63.425 147.24236L63.425 152.61736Q63.425 154.07048 63.128124 154.67986Q62.83125 155.28923 62.190624 155.63298Q61.55 155.99236 60.6125 155.99236Q59.503124 155.99236 58.815624 155.49236Q58.128124 154.99236 58.14375 153.97673ZM59.01875 150.24236Q59.01875 151.4611 59.503124 152.0236Q59.9875 152.5861 60.721874 152.5861Q61.45625 152.5861 61.940624 152.0236Q62.440624 151.4611 62.440624 150.2736Q62.440624 149.13298 61.925 148.55486Q61.425 147.97673 60.70625 147.97673Q60.003124 147.97673 59.503124 148.55486Q59.01875 149.11736 59.01875 150.24236ZM66.31563 153.4611L65.33125 153.4611L65.33125 144.86736L66.39375 144.86736L66.39375 147.92986Q67.06563 147.10173 68.09688 147.10173Q68.675 147.10173 69.175 147.3361Q69.69063 147.55486 70.01875 147.97673Q70.3625 148.3986 70.55 148.99236Q70.7375 149.5861 70.7375 150.25798Q70.7375 151.85173 69.94063 152.72673Q69.14375 153.60173 68.05 153.60173Q66.94063 153.60173 66.31563 152.67986L66.31563 153.4611ZM66.3 150.30486Q66.3 151.41423 66.6125 151.91423Q67.1125 152.72673 67.95625 152.72673Q68.64375 152.72673 69.14375 152.13298Q69.65938 151.53923 69.65938 150.3361Q69.65938 149.11736 69.175 148.53923Q68.69063 147.9611 68.00313 147.9611Q67.31563 147.9611 66.8 148.57048Q66.3 149.16423 66.3 150.30486Z" fill-rule="nonzero"/><path fill="#000000" d="M54.425 209.90555L54.425 207.84305L50.70625 207.84305L50.70625 206.8743L54.628124 201.3118L55.4875 201.3118L55.4875 206.8743L56.64375 206.8743L56.64375 207.84305L55.4875 207.84305L55.4875 209.90555L54.425 209.90555ZM54.425 206.8743L54.425 203.01492L51.7375 206.8743L54.425 206.8743ZM58.14375 210.42117L59.175 210.57742Q59.2375 211.04617 59.534374 211.26492Q59.925 211.5618 60.596874 211.5618Q61.33125 211.5618 61.721874 211.26492Q62.128124 210.96805 62.26875 210.45242Q62.3625 210.1243 62.346874 209.09305Q61.659374 209.90555 60.628124 209.90555Q59.346874 209.90555 58.64375 208.98367Q57.940624 208.04617 57.940624 206.76492Q57.940624 205.8743 58.253124 205.1243Q58.58125 204.35867 59.190624 203.95242Q59.8 203.54617 60.628124 203.54617Q61.7375 203.54617 62.45625 204.4368L62.45625 203.6868L63.425 203.6868L63.425 209.0618Q63.425 210.51492 63.128124 211.1243Q62.83125 211.73367 62.190624 212.07742Q61.55 212.4368 60.6125 212.4368Q59.503124 212.4368 58.815624 211.9368Q58.128124 211.4368 58.14375 210.42117ZM59.01875 206.6868Q59.01875 207.90555 59.503124 208.46805Q59.9875 209.03055 60.721874 209.03055Q61.45625 209.03055 61.940624 208.46805Q62.440624 207.90555 62.440624 206.71805Q62.440624 205.57742 61.925 204.9993Q61.425 204.42117 60.70625 204.42117Q60.003124 204.42117 59.503124 204.9993Q59.01875 205.5618 59.01875 206.6868ZM66.31563 209.90555L65.33125 209.90555L65.33125 201.3118L66.39375 201.3118L66.39375 204.3743Q67.06563 203.54617 68.09688 203.54617Q68.675 203.54617 69.175 203.78055Q69.69063 203.9993 70.01875 204.42117Q70.3625 204.84305 70.55 205.4368Q70.7375 206.03055 70.7375 206.70242Q70.7375 208.29617 69.94063 209.17117Q69.14375 210.04617 68.05 210.04617Q66.94063 210.04617 66.31563 209.1243L66.31563 209.90555ZM66.3 206.7493Q66.3 207.85867 66.6125 208.35867Q67.1125 209.17117 67.95625 209.17117Q68.64375 209.17117 69.14375 208.57742Q69.65938 207.98367 69.65938 206.78055Q69.65938 205.5618 69.175 204.98367Q68.69063 204.40555 68.00313 204.40555Q67.31563 204.40555 66.8 205.01492Q66.3 205.60867 66.3 206.7493Z" fill-rule="nonzero"/><path fill="#000000" d="M52.675 261.69376Q52.01875 261.44376 51.690624 261.00626Q51.378124 260.55313 51.378124 259.94376Q51.378124 259.00626 52.05 258.36563Q52.7375 257.725 53.846874 257.725Q54.971874 257.725 55.659374 258.38126Q56.346874 259.0375 56.346874 259.975Q56.346874 260.56876 56.034374 261.00626Q55.721874 261.44376 55.08125 261.69376Q55.878124 261.94376 56.284374 262.52188Q56.690624 263.1 56.690624 263.89688Q56.690624 264.99063 55.909374 265.74063Q55.14375 266.49063 53.8625 266.49063Q52.596874 266.49063 51.815624 265.74063Q51.034374 264.99063 51.034374 263.86563Q51.034374 263.02188 51.45625 262.45938Q51.89375 261.89688 52.675 261.69376ZM52.45625 259.89688Q52.45625 260.50626 52.846874 260.89688Q53.253124 261.2875 53.878124 261.2875Q54.4875 261.2875 54.878124 260.9125Q55.26875 260.52188 55.26875 259.95938Q55.26875 259.38126 54.8625 258.99063Q54.45625 258.58438 53.8625 258.58438Q53.253124 258.58438 52.846874 258.975Q52.45625 259.36563 52.45625 259.89688ZM52.128124 263.86563Q52.128124 264.31876 52.33125 264.74063Q52.55 265.1625 52.971874 265.39688Q53.39375 265.63126 53.878124 265.63126Q54.628124 265.63126 55.1125 265.14688Q55.6125 264.6625 55.6125 263.9125Q55.6125 263.14688 55.1125 262.64688Q54.6125 262.14688 53.846874 262.14688Q53.096874 262.14688 52.6125 262.64688Q52.128124 263.13126 52.128124 263.86563ZM58.14375 266.86563L59.175 267.02188Q59.2375 267.49063 59.534374 267.70938Q59.925 268.00626 60.596874 268.00626Q61.33125 268.00626 61.721874 267.70938Q62.128124 267.4125 62.26875 266.89688Q62.3625 266.56876 62.346874 265.5375Q61.659374 266.35 60.628124 266.35Q59.346874 266.35 58.64375 265.42813Q57.940624 264.49063 57.940624 263.20938Q57.940624 262.31876 58.253124 261.56876Q58.58125 260.80313 59.190624 260.39688Q59.8 259.99063 60.628124 259.99063Q61.7375 259.99063 62.45625 260.88126L62.45625 260.13126L63.425 260.13126L63.425 265.50626Q63.425 266.95938 63.128124 267.56876Q62.83125 268.17813 62.190624 268.52188Q61.55 268.88126 60.6125 268.88126Q59.503124 268.88126 58.815624 268.38126Q58.128124 267.88126 58.14375 266.86563ZM59.01875 263.13126Q59.01875 264.35 59.503124 264.9125Q59.9875 265.475 60.721874 265.475Q61.45625 265.475 61.940624 264.9125Q62.440624 264.35 62.440624 263.1625Q62.440624 262.02188 61.925 261.44376Q61.425 260.86563 60.70625 260.86563Q60.003124 260.86563 59.503124 261.44376Q59.01875 262.00626 59.01875 263.13126ZM66.31563 266.35L65.33125 266.35L65.33125 257.75626L66.39375 257.75626L66.39375 260.81876Q67.06563 259.99063 68.09688 259.99063Q68.675 259.99063 69.175 260.225Q69.69063 260.44376 70.01875 260.86563Q70.3625 261.2875 70.55 261.88126Q70.7375 262.475 70.7375 263.14688Q70.7375 264.74063 69.94063 265.61563Q69.14375 266.49063 68.05 266.49063Q66.94063 266.49063 66.31563 265.56876L66.31563 266.35ZM66.3 263.19376Q66.3 264.30313 66.6125 264.80313Q67.1125 265.61563 67.95625 265.61563Q68.64375 265.61563 69.14375 265.02188Q69.65938 264.42813 69.65938 263.225Q69.65938 262.00626 69.175 261.42813Q68.69063 260.85 68.00313 260.85Q67.31563 260.85 66.8 261.45938Q66.3 262.05313 66.3 263.19376Z" fill-rule="nonzero"/><path fill="#000000" d="M66.05 313.21564Q66.05 311.6844 66.3625 310.7625Q66.675 309.825 67.28438 309.325Q67.90938 308.825 68.84688 308.825Q69.53438 308.825 70.05 309.10626Q70.58125 309.3875 70.925 309.91876Q71.26875 310.4344 71.45625 311.1844Q71.64375 311.9344 71.64375 313.21564Q71.64375 314.73126 71.33125 315.65314Q71.03438 316.575 70.40938 317.09064Q69.8 317.59064 68.84688 317.59064Q67.6125 317.59064 66.89375 316.7Q66.05 315.6375 66.05 313.21564ZM67.12813 313.21564Q67.12813 315.325 67.62813 316.02814Q68.12813 316.73126 68.84688 316.73126Q69.58125 316.73126 70.06563 316.02814Q70.56563 315.325 70.56563 313.21564Q70.56563 311.09064 70.06563 310.40314Q69.58125 309.7 68.83125 309.7Q68.1125 309.7 67.675 310.3094Q67.12813 311.09064 67.12813 313.21564ZM73.6125 317.45L73.6125 316.2469L74.81563 316.2469L74.81563 317.45Q74.81563 318.10626 74.58125 318.5125Q74.34688 318.9344 73.84688 319.15314L73.55 318.7Q73.87813 318.5594 74.03438 318.2625Q74.19063 317.98126 74.22188 317.45L73.6125 317.45ZM76.05 313.21564Q76.05 311.6844 76.3625 310.7625Q76.675 309.825 77.28438 309.325Q77.90938 308.825 78.84688 308.825Q79.53438 308.825 80.05 309.10626Q80.58125 309.3875 80.925 309.91876Q81.26875 310.4344 81.45625 311.1844Q81.64375 311.9344 81.64375 313.21564Q81.64375 314.73126 81.33125 315.65314Q81.03438 316.575 80.40938 317.09064Q79.8 317.59064 78.84688 317.59064Q77.6125 317.59064 76.89375 316.7Q76.05 315.6375 76.05 313.21564ZM77.12813 313.21564Q77.12813 315.325 77.62813 316.02814Q78.12813 316.73126 78.84688 316.73126Q79.58125 316.73126 80.06563 316.02814Q80.56563 315.325 80.56563 313.21564Q80.56563 311.09064 80.06563 310.40314Q79.58125 309.7 78.83125 309.7Q78.1125 309.7 77.675 310.3094Q77.12813 311.09064 77.12813 313.21564ZM83.05 313.21564Q83.05 311.6844 83.3625 310.7625Q83.675 309.825 84.28438 309.325Q84.90938 308.825 85.84688 308.825Q86.53438 308.825 87.05 309.10626Q87.58125 309.3875 87.925 309.91876Q88.26875 310.4344 88.45625 311.1844Q88.64375 311.9344 88.64375 313.21564Q88.64375 314.73126 88.33125 315.65314Q88.03438 316.575 87.40938 317.09064Q86.8 317.59064 85.84688 317.59064Q84.6125 317.59064 83.89375 316.7Q83.05 315.6375 83.05 313.21564ZM84.12813 313.21564Q84.12813 315.325 84.62813 316.02814Q85.12813 316.73126 85.84688 316.73126Q86.58125 316.73126 87.06563 316.02814Q87.56563 315.325 87.56563 313.21564Q87.56563 311.09064 87.06563 310.40314Q86.58125 309.7 85.83125 309.7Q85.1125 309.7 84.675 310.3094Q84.12813 311.09064 84.12813 313.21564Z" fill-rule="nonzero"/><path fill="#000000" d="M222.01666 315.2L223.12604 315.10626Q223.25104 315.91876 223.68854 316.325Q224.14166 316.73126 224.78229 316.73126Q225.53229 316.73126 226.06354 316.15314Q226.59479 315.575 226.59479 314.6375Q226.59479 313.73126 226.07916 313.21564Q225.57916 312.6844 224.75104 312.6844Q224.25104 312.6844 223.82916 312.91876Q223.42291 313.15314 223.18854 313.5125L222.20416 313.3875L223.03229 308.98126L227.31354 308.98126L227.31354 309.98126L223.87604 309.98126L223.42291 312.29376Q224.18854 311.7469 225.03229 311.7469Q226.15729 311.7469 226.92291 312.52814Q227.70416 313.3094 227.70416 314.54376Q227.70416 315.7 227.03229 316.5594Q226.20416 317.59064 224.78229 317.59064Q223.61041 317.59064 222.86041 316.9344Q222.12604 316.27814 222.01666 315.2ZM232.01666 313.21564Q232.01666 311.6844 232.32916 310.7625Q232.64166 309.825 233.25104 309.325Q233.87604 308.825 234.81354 308.825Q235.50104 308.825 236.01666 309.10626Q236.54791 309.3875 236.89166 309.91876Q237.23541 310.4344 237.42291 311.1844Q237.61041 311.9344 237.61041 313.21564Q237.61041 314.73126 237.29791 315.65314Q237.00104 316.575 236.37604 317.09064Q235.76666 317.59064 234.81354 317.59064Q233.57916 317.59064 232.86041 316.7Q232.01666 315.6375 232.01666 313.21564ZM233.09479 313.21564Q233.09479 315.325 233.59479 316.02814Q234.09479 316.73126 234.81354 316.73126Q235.54791 316.73126 236.03229 316.02814Q236.53229 315.325 236.53229 313.21564Q236.53229 311.09064 236.03229 310.40314Q235.54791 309.7 234.79791 309.7Q234.07916 309.7 233.64166 310.3094Q233.09479 311.09064 233.09479 313.21564ZM239.01666 313.21564Q239.01666 311.6844 239.32916 310.7625Q239.64166 309.825 240.25104 309.325Q240.87604 308.825 241.81354 308.825Q242.50104 308.825 243.01666 309.10626Q243.54791 309.3875 243.89166 309.91876Q244.23541 310.4344 244.42291 311.1844Q244.61041 311.9344 244.61041 313.21564Q244.61041 314.73126 244.29791 315.65314Q244.00104 316.575 243.37604 317.09064Q242.76666 317.59064 241.81354 317.59064Q240.57916 317.59064 239.86041 316.7Q239.01666 315.6375 239.01666 313.21564ZM240.09479 313.21564Q240.09479 315.325 240.59479 316.02814Q241.09479 316.73126 241.81354 316.73126Q242.54791 316.73126 243.03229 316.02814Q243.53229 315.325 243.53229 313.21564Q243.53229 311.09064 243.03229 310.40314Q242.54791 309.7 241.79791 309.7Q241.07916 309.7 240.64166 310.3094Q240.09479 311.09064 240.09479 313.21564ZM246.01666 313.21564Q246.01666 311.6844 246.32916 310.7625Q246.64166 309.825 247.25104 309.325Q247.87604 308.825 248.81354 308.825Q249.50104 308.825 250.01666 309.10626Q250.54791 309.3875 250.89166 309.91876Q251.23541 310.4344 251.42291 311.1844Q251.61041 311.9344 251.61041 313.21564Q251.61041 314.73126 251.29791 315.65314Q251.00104 316.575 250.37604 317.09064Q249.76666 317.59064 248.81354 317.59064Q247.57916 317.59064 246.86041 316.7Q246.01666 315.6375 246.01666 313.21564ZM247.09479 313.21564Q247.09479 315.325 247.59479 316.02814Q248.09479 316.73126 248.81354 316.73126Q249.54791 316.73126 250.03229 316.02814Q250.53229 315.325 250.53229 313.21564Q250.53229 311.09064 250.03229 310.40314Q249.54791 309.7 248.79791 309.7Q248.07916 309.7 247.64166 310.3094Q247.09479 311.09064 247.09479 313.21564ZM253.57916 317.45L253.57916 316.2469L254.78229 316.2469L254.78229 317.45Q254.78229 318.10626 254.54791 318.5125Q254.31354 318.9344 253.81354 319.15314L253.51666 318.7Q253.84479 318.5594 254.00104 318.2625Q254.15729 317.98126 254.18854 317.45L253.57916 317.45ZM256.01666 313.21564Q256.01666 311.6844 256.32916 310.7625Q256.64166 309.825 257.25104 309.325Q257.87604 308.825 258.81354 308.825Q259.50104 308.825 260.01666 309.10626Q260.5479 309.3875 260.89166 309.91876Q261.2354 310.4344 261.4229 311.1844Q261.6104 311.9344 261.6104 313.21564Q261.6104 314.73126 261.2979 315.65314Q261.00104 316.575 260.37604 317.09064Q259.76666 317.59064 258.81354 317.59064Q257.57916 317.59064 256.8604 316.7Q256.01666 315.6375 256.01666 313.21564ZM257.0948 313.21564Q257.0948 315.325 257.5948 316.02814Q258.0948 316.73126 258.81354 316.73126Q259.5479 316.73126 260.0323 316.02814Q260.5323 315.325 260.5323 313.21564Q260.5323 311.09064 260.0323 310.40314Q259.5479 309.7 258.7979 309.7Q258.07916 309.7 257.64166 310.3094Q257.0948 311.09064 257.0948 313.21564ZM263.01666 313.21564Q263.01666 311.6844 263.32916 310.7625Q263.64166 309.825 264.25104 309.325Q264.87604 308.825 265.81354 308.825Q266.50104 308.825 267.01666 309.10626Q267.5479 309.3875 267.89166 309.91876Q268.2354 310.4344 268.4229 311.1844Q268.6104 311.9344 268.6104 313.21564Q268.6104 314.73126 268.2979 315.65314Q268.00104 316.575 267.37604 317.09064Q266.76666 317.59064 265.81354 317.59064Q264.57916 317.59064 263.8604 316.7Q263.01666 315.6375 263.01666 313.21564ZM264.0948 313.21564Q264.0948 315.325 264.5948 316.02814Q265.0948 316.73126 265.81354 316.73126Q266.5479 316.73126 267.0323 316.02814Q267.5323 315.325 267.5323 313.21564Q267.5323 311.09064 267.0323 310.40314Q266.5479 309.7 265.7979 309.7Q265.07916 309.7 264.64166 310.3094Q264.0948 311.09064 264.0948 313.21564Z" fill-rule="nonzero"/><path fill="#000000" d="M390.4521 317.45L389.4052 317.45L389.4052 310.73126Q389.0146 311.09064 388.3896 311.46564Q387.7802 311.825 387.29584 311.9969L387.29584 310.98126Q388.17084 310.5594 388.8271 309.98126Q389.49896 309.3875 389.7802 308.825L390.4521 308.825L390.4521 317.45ZM393.48334 313.21564Q393.48334 311.6844 393.79584 310.7625Q394.10834 309.825 394.7177 309.325Q395.3427 308.825 396.2802 308.825Q396.9677 308.825 397.48334 309.10626Q398.0146 309.3875 398.35834 309.91876Q398.7021 310.4344 398.8896 311.1844Q399.0771 311.9344 399.0771 313.21564Q399.0771 314.73126 398.7646 315.65314Q398.4677 316.575 397.8427 317.09064Q397.23334 317.59064 396.2802 317.59064Q395.04584 317.59064 394.3271 316.7Q393.48334 315.6375 393.48334 313.21564ZM394.56146 313.21564Q394.56146 315.325 395.06146 316.02814Q395.56146 316.73126 396.2802 316.73126Q397.0146 316.73126 397.49896 316.02814Q397.99896 315.325 397.99896 313.21564Q397.99896 311.09064 397.49896 310.40314Q397.0146 309.7 396.2646 309.7Q395.54584 309.7 395.10834 310.3094Q394.56146 311.09064 394.56146 313.21564ZM403.48334 313.21564Q403.48334 311.6844 403.79584 310.7625Q404.10834 309.825 404.7177 309.325Q405.3427 308.825 406.2802 308.825Q406.9677 308.825 407.48334 309.10626Q408.0146 309.3875 408.35834 309.91876Q408.7021 310.4344 408.8896 311.1844Q409.0771 311.9344 409.0771 313.21564Q409.0771 314.73126 408.7646 315.65314Q408.4677 316.575 407.8427 317.09064Q407.23334 317.59064 406.2802 317.59064Q405.04584 317.59064 404.3271 316.7Q403.48334 315.6375 403.48334 313.21564ZM404.56146 313.21564Q404.56146 315.325 405.06146 316.02814Q405.56146 316.73126 406.2802 316.73126Q407.0146 316.73126 407.49896 316.02814Q407.99896 315.325 407.99896 313.21564Q407.99896 311.09064 407.49896 310.40314Q407.0146 309.7 406.2646 309.7Q405.54584 309.7 405.10834 310.3094Q404.56146 311.09064 404.56146 313.21564ZM410.48334 313.21564Q410.48334 311.6844 410.79584 310.7625Q411.10834 309.825 411.7177 309.325Q412.3427 308.825 413.2802 308.825Q413.9677 308.825 414.48334 309.10626Q415.0146 309.3875 415.35834 309.91876Q415.7021 310.4344 415.8896 311.1844Q416.0771 311.9344 416.0771 313.21564Q416.0771 314.73126 415.7646 315.65314Q415.4677 316.575 414.8427 317.09064Q414.23334 317.59064 413.2802 317.59064Q412.04584 317.59064 411.3271 316.7Q410.48334 315.6375 410.48334 313.21564ZM411.56146 313.21564Q411.56146 315.325 412.06146 316.02814Q412.56146 316.73126 413.2802 316.73126Q414.0146 316.73126 414.49896 316.02814Q414.99896 315.325 414.99896 313.21564Q414.99896 311.09064 414.49896 310.40314Q414.0146 309.7 413.2646 309.7Q412.54584 309.7 412.10834 310.3094Q411.56146 311.09064 411.56146 313.21564ZM417.48334 313.21564Q417.48334 311.6844 417.79584 310.7625Q418.10834 309.825 418.7177 309.325Q419.3427 308.825 420.2802 308.825Q420.9677 308.825 421.48334 309.10626Q422.0146 309.3875 422.35834 309.91876Q422.7021 310.4344 422.8896 311.1844Q423.0771 311.9344 423.0771 313.21564Q423.0771 314.73126 422.7646 315.65314Q422.4677 316.575 421.8427 317.09064Q421.23334 317.59064 420.2802 317.59064Q419.04584 317.59064 418.3271 316.7Q417.48334 315.6375 417.48334 313.21564ZM418.56146 313.21564Q418.56146 315.325 419.06146 316.02814Q419.56146 316.73126 420.2802 316.73126Q421.0146 316.73126 421.49896 316.02814Q421.99896 315.325 421.99896 313.21564Q421.99896 311.09064 421.49896 310.40314Q421.0146 309.7 420.2646 309.7Q419.54584 309.7 419.10834 310.3094Q418.56146 311.09064 418.56146 313.21564ZM425.04584 317.45L425.04584 316.2469L426.24896 316.2469L426.24896 317.45Q426.24896 318.10626 426.0146 318.5125Q425.7802 318.9344 425.2802 319.15314L424.98334 318.7Q425.31146 318.5594 425.4677 318.2625Q425.62396 317.98126 425.6552 317.45L425.04584 317.45ZM427.48334 313.21564Q427.48334 311.6844 427.79584 310.7625Q428.10834 309.825 428.7177 309.325Q429.3427 308.825 430.2802 308.825Q430.9677 308.825 431.48334 309.10626Q432.0146 309.3875 432.35834 309.91876Q432.7021 310.4344 432.8896 311.1844Q433.0771 311.9344 433.0771 313.21564Q433.0771 314.73126 432.7646 315.65314Q432.4677 316.575 431.8427 317.09064Q431.23334 317.59064 430.2802 317.59064Q429.04584 317.59064 428.3271 316.7Q427.48334 315.6375 427.48334 313.21564ZM428.56146 313.21564Q428.56146 315.325 429.06146 316.02814Q429.56146 316.73126 430.2802 316.73126Q431.0146 316.73126 431.49896 316.02814Q431.99896 315.325 431.99896 313.21564Q431.99896 311.09064 431.49896 310.40314Q431.0146 309.7 430.2646 309.7Q429.54584 309.7 429.10834 310.3094Q428.56146 311.09064 428.56146 313.21564ZM434.48334 313.21564Q434.48334 311.6844 434.79584 310.7625Q435.10834 309.825 435.7177 309.325Q436.3427 308.825 437.2802 308.825Q437.9677 308.825 438.48334 309.10626Q439.0146 309.3875 439.35834 309.91876Q439.7021 310.4344 439.8896 311.1844Q440.0771 311.9344 440.0771 313.21564Q440.0771 314.73126 439.7646 315.65314Q439.4677 316.575 438.8427 317.09064Q438.23334 317.59064 437.2802 317.59064Q436.04584 317.59064 435.3271 316.7Q434.48334 315.6375 434.48334 313.21564ZM435.56146 313.21564Q435.56146 315.325 436.06146 316.02814Q436.56146 316.73126 437.2802 316.73126Q438.0146 316.73126 438.49896 316.02814Q438.99896 315.325 438.99896 313.21564Q438.99896 311.09064 438.49896 310.40314Q438.0146 309.7 437.2646 309.7Q436.54584 309.7 436.10834 310.3094Q435.56146 311.09064 435.56146 313.21564Z" fill-rule="nonzero"/><path fill="#757575" d="M20.409374 37.55L20.409374 23.2375L22.315624 23.2375L22.315624 37.55L20.409374 37.55ZM24.55 37.8L28.70625 22.9875L30.1125 22.9875L25.971874 37.8L24.55 37.8ZM31.51875 30.58125Q31.51875 27.01875 33.425 25.003124Q35.346874 22.971874 38.378124 22.971874Q40.3625 22.971874 41.940624 23.925Q43.534374 24.878124 44.3625 26.58125Q45.20625 28.26875 45.20625 30.409374Q45.20625 32.58125 44.33125 34.3Q43.45625 36.01875 41.83125 36.909374Q40.221874 37.8 38.3625 37.8Q36.346874 37.8 34.753124 36.83125Q33.159374 35.846874 32.33125 34.159374Q31.51875 32.45625 31.51875 30.58125ZM33.471874 30.6125Q33.471874 33.190624 34.8625 34.690624Q36.253124 36.175 38.346874 36.175Q40.4875 36.175 41.8625 34.675Q43.253124 33.159374 43.253124 30.39375Q43.253124 28.659374 42.659374 27.3625Q42.08125 26.05 40.940624 25.33125Q39.8 24.6125 38.378124 24.6125Q36.378124 24.6125 34.925 26.003124Q33.471874 27.378124 33.471874 30.6125ZM56.596874 37.55L52.8 23.2375L54.7375 23.2375L56.909374 32.6125Q57.26875 34.096874 57.51875 35.55Q58.065624 33.253124 58.159374 32.89375L60.89375 23.2375L63.175 23.2375L65.22188 30.471874Q66.00313 33.175 66.34688 35.55Q66.6125 34.190624 67.05 32.425L69.3 23.2375L71.20625 23.2375L67.28438 37.55L65.45625 37.55L62.440624 26.64375Q62.05 25.26875 61.9875 24.95625Q61.753124 25.940624 61.565624 26.64375L58.534374 37.55L56.596874 37.55ZM72.84688 37.55L72.84688 27.175L74.425 27.175L74.425 28.753124Q75.03438 27.64375 75.55 27.3Q76.06563 26.940624 76.675 26.940624Q77.56563 26.940624 78.4875 27.503124L77.87813 29.14375Q77.2375 28.753124 76.59688 28.753124Q76.01875 28.753124 75.55 29.1125Q75.09688 29.45625 74.89375 30.065624Q74.6125 31.003124 74.6125 32.1125L74.6125 37.55L72.84688 37.55ZM79.87813 25.253124L79.87813 23.2375L81.64375 23.2375L81.64375 25.253124L79.87813 25.253124ZM79.87813 37.55L79.87813 27.175L81.64375 27.175L81.64375 37.55L79.87813 37.55ZM87.70625 35.971874L87.95625 37.534374Q87.22188 37.690624 86.62813 37.690624Q85.675 37.690624 85.14375 37.39375Q84.62813 37.08125 84.40938 36.596874Q84.19063 36.096874 84.19063 34.51875L84.19063 28.55L82.90938 28.55L82.90938 27.175L84.19063 27.175L84.19063 24.6125L85.94063 23.55L85.94063 27.175L87.70625 27.175L87.70625 28.55L85.94063 28.55L85.94063 34.6125Q85.94063 35.3625 86.03438 35.58125Q86.12813 35.784374 86.33125 35.925Q86.55 36.05 86.94063 36.05Q87.22188 36.05 87.70625 35.971874ZM93.70625 35.971874L93.95625 37.534374Q93.22188 37.690624 92.62813 37.690624Q91.675 37.690624 91.14375 37.39375Q90.62813 37.08125 90.40938 36.596874Q90.19063 36.096874 90.19063 34.51875L90.19063 28.55L88.90938 28.55L88.90938 27.175L90.19063 27.175L90.19063 24.6125L91.94063 23.55L91.94063 27.175L93.70625 27.175L93.70625 28.55L91.94063 28.55L91.94063 34.6125Q91.94063 35.3625 92.03438 35.58125Q92.12813 35.784374 92.33125 35.925Q92.55 36.05 92.94063 36.05Q93.22188 36.05 93.70625 35.971874ZM102.97188 34.20625L104.78438 34.440624Q104.3625 36.01875 103.19063 36.909374Q102.03438 37.784374 100.22188 37.784374Q97.95625 37.784374 96.6125 36.39375Q95.28438 34.9875 95.28438 32.45625Q95.28438 29.83125 96.62813 28.39375Q97.97188 26.940624 100.12813 26.940624Q102.20625 26.940624 103.51875 28.3625Q104.84688 29.76875 104.84688 32.346874Q104.84688 32.503124 104.83125 32.815624L97.09688 32.815624Q97.19063 34.51875 98.06563 35.425Q98.94063 36.33125 100.2375 36.33125Q101.20625 36.33125 101.87813 35.83125Q102.56563 35.315624 102.97188 34.20625ZM97.19063 31.3625L102.9875 31.3625Q102.87813 30.065624 102.33125 29.409374Q101.4875 28.39375 100.14375 28.39375Q98.94063 28.39375 98.1125 29.20625Q97.28438 30.003124 97.19063 31.3625ZM106.8625 37.55L106.8625 27.175L108.45625 27.175L108.45625 28.659374Q109.59688 26.940624 111.75313 26.940624Q112.69063 26.940624 113.47188 27.284374Q114.26875 27.6125 114.65938 28.159374Q115.05 28.70625 115.20625 29.45625Q115.3 29.95625 115.3 31.175L115.3 37.55L113.53438 37.55L113.53438 31.2375Q113.53438 30.159374 113.33125 29.628124Q113.12813 29.096874 112.59688 28.784374Q112.08125 28.471874 111.37813 28.471874Q110.25313 28.471874 109.44063 29.190624Q108.62813 29.89375 108.62813 31.878124L108.62813 37.55L106.8625 37.55ZM126.22188 41.753124Q124.76875 39.925 123.76875 37.471874Q122.76875 35.003124 122.76875 32.3625Q122.76875 30.034374 123.51875 27.909374Q124.39375 25.440624 126.22188 22.9875L127.4875 22.9875Q126.3 25.01875 125.925 25.89375Q125.33125 27.2375 124.9875 28.70625Q124.56563 30.534374 124.56563 32.378124Q124.56563 37.065624 127.4875 41.753124L126.22188 41.753124ZM130.03438 37.55L130.03438 23.2375L132.89375 23.2375L136.26875 33.3625Q136.7375 34.784374 136.95625 35.4875Q137.20625 34.70625 137.72188 33.190624L141.14375 23.2375L143.69063 23.2375L143.69063 37.55L141.87813 37.55L141.87813 25.565624L137.70625 37.55L136.00313 37.55L131.8625 25.3625L131.8625 37.55L130.03438 37.55ZM146.87813 25.253124L146.87813 23.2375L148.64375 23.2375L148.64375 25.253124L146.87813 25.253124ZM146.87813 37.55L146.87813 27.175L148.64375 27.175L148.64375 37.55L146.87813 37.55ZM151.01875 37.55L151.01875 23.2375L156.39375 23.2375Q158.03438 23.2375 159.01875 23.675Q160.00313 24.096874 160.56563 25.003124Q161.12813 25.909374 161.12813 26.89375Q161.12813 27.815624 160.62813 28.628124Q160.14375 29.440624 159.12813 29.925Q160.425 30.315624 161.12813 31.2375Q161.83125 32.14375 161.83125 33.39375Q161.83125 34.409374 161.39375 35.26875Q160.97188 36.128124 160.34688 36.596874Q159.72188 37.065624 158.78438 37.315624Q157.84688 37.55 156.47188 37.55L151.01875 37.55ZM152.90938 29.253124L156.00313 29.253124Q157.26875 29.253124 157.81563 29.08125Q158.53438 28.8625 158.89375 28.378124Q159.26875 27.878124 159.26875 27.1125Q159.26875 26.409374 158.925 25.8625Q158.58125 25.315624 157.94063 25.128124Q157.31563 24.925 155.76875 24.925L152.90938 24.925L152.90938 29.253124ZM152.90938 35.8625L156.47188 35.8625Q157.39375 35.8625 157.76875 35.784374Q158.425 35.675 158.8625 35.409374Q159.3 35.128124 159.58125 34.6125Q159.8625 34.08125 159.8625 33.39375Q159.8625 32.596874 159.45625 32.003124Q159.05 31.409374 158.31563 31.175Q157.58125 30.940624 156.22188 30.940624L152.90938 30.940624L152.90938 35.8625ZM165.01875 41.753124L163.76875 41.753124Q166.675 37.065624 166.675 32.378124Q166.675 30.534374 166.26875 28.7375Q165.925 27.26875 165.33125 25.925Q164.95625 25.034374 163.76875 22.9875L165.01875 22.9875Q166.8625 25.440624 167.7375 27.909374Q168.4875 30.034374 168.4875 32.3625Q168.4875 35.003124 167.47188 37.471874Q166.47188 39.925 165.01875 41.753124Z" fill-rule="nonzero"/></svg>