<svg version="1.1" viewBox="0.0 0.0 600.0 371.0" fill="none" stroke="none" stroke-linecap="square" stroke-miterlimit="10" width="600" height="371" xmlns:xlink="http://www.w3.org/1999/xlink" xmlns="http://www.w3.org/2000/svg"><path fill="#ffffff" d="M0 0L600.0 0L600.0 371.0L0 371.0L0 0Z" fill-rule="nonzero"/><path stroke="#333333" stroke-width="1.0" stroke-linecap="butt" d="M77.5 54.5L77.5 300.5" fill-rule="nonzero"/><path stroke="#cccccc" stroke-width="1.0" stroke-linecap="butt" d="M242.5 54.5L242.5 300.5" fill-rule="nonzero"/><path stroke="#cccccc" stroke-width="1.0" stroke-linecap="butt" d="M407.5 54.5L407.5 300.5" fill-rule="nonzero"/><path stroke="#cccccc" stroke-width="1.0" stroke-linecap="butt" d="M573.5 54.5L573.5 300.5" fill-rule="nonzero"/><clipPath id="id_0"><path d="M77.55 54.916668L581.45 54.916668L581.45 300.45L77.55 300.45L77.55 54.916668Z" clip-rule="nonzero"/></clipPath><path stroke="#000000" stroke-width="2.0" stroke-linecap="butt" stroke-opacity="0.0" clip-path="url(#id_0)" d="M78.0 112.0L78.0 75.0L318.0 75.0C319.10458 75.0 320.0 75.89543 320.0 77.0L320.0 110.0C320.0 111.10457 319.10458 112.0 318.0 112.0Z" fill-rule="nonzero"/><path fill="#4285f4" clip-path="url(#id_0)" d="M78.0 112.0L78.0 75.0L318.0 75.0C319.10458 75.0 320.0 75.89543 320.0 77.0L320.0 110.0C320.0 111.10457 319.10458 112.0 318.0 112.0Z" fill-rule="nonzero"/><path stroke="#000000" stroke-width="2.0" stroke-linecap="butt" stroke-opacity="0.0" clip-path="url(#id_0)" d="M78.0 168.0L78.0 131.0L525.0 131.0C526.10455 131.0 527.0 131.89543 527.0 133.0L527.0 166.0C527.0 167.10457 526.10455 168.0 525.0 168.0Z" fill-rule="nonzero"/><path fill="#4285f4" clip-path="url(#id_0)" d="M78.0 168.0L78.0 131.0L525.0 131.0C526.10455 131.0 527.0 131.89543 527.0 133.0L527.0 166.0C527.0 167.10457 526.10455 168.0 525.0 168.0Z" fill-rule="nonzero"/><path stroke="#000000" stroke-width="2.0" stroke-linecap="butt" stroke-opacity="0.0" clip-path="url(#id_0)" d="M78.0 225.0L78.0 188.0L537.0 188.0C538.10455 188.0 539.0 188.89543 539.0 190.0L539.0 223.0C539.0 224.10457 538.10455 225.0 537.0 225.0Z" fill-rule="nonzero"/><path fill="#4285f4" clip-path="url(#id_0)" d="M78.0 225.0L78.0 188.0L537.0 188.0C538.10455 188.0 539.0 188.89543 539.0 190.0L539.0 223.0C539.0 224.10457 538.10455 225.0 537.0 225.0Z" fill-rule="nonzero"/><path stroke="#000000" stroke-width="2.0" stroke-linecap="butt" stroke-opacity="0.0" clip-path="url(#id_0)" d="M78.0 281.0L78.0 244.0L577.0 244.0C578.10455 244.0 579.0 244.89543 579.0 246.0L579.0 279.0C579.0 280.10458 578.10455 281.0 577.0 281.0Z" fill-rule="nonzero"/><path fill="#4285f4" clip-path="url(#id_0)" d="M78.0 281.0L78.0 244.0L577.0 244.0C578.10455 244.0 579.0 244.89543 579.0 246.0L579.0 279.0C579.0 280.10458 578.10455 281.0 577.0 281.0Z" fill-rule="nonzero"/><path stroke="#4285f4" stroke-width="3.0" stroke-linejoin="round" stroke-linecap="round" d="M267.39258 97.5L261.79883 97.5L261.79883 96.71875L264.75195 93.4375Q265.4082 92.6875 265.6582 92.234375Q265.9082 91.765625 265.9082 91.265625Q265.9082 90.59375 265.50195 90.171875Q265.11133 89.734375 264.42383 89.734375Q263.62695 89.734375 263.17383 90.203125Q262.7207 90.65625 262.7207 91.484375L261.64258 91.484375Q261.64258 90.296875 262.39258 89.578125Q263.1582 88.84375 264.42383 88.84375Q265.62695 88.84375 266.31445 89.46875Q267.00195 90.09375 267.00195 91.140625Q267.00195 92.390625 265.39258 94.140625L263.11133 96.609375L267.39258 96.609375L267.39258 97.5ZM272.95508 93.75Q272.62695 94.15625 272.14258 94.40625Q271.67383 94.640625 271.11133 94.640625Q270.37695 94.640625 269.83008 94.28125Q269.2832 93.921875 268.98633 93.265625Q268.68945 92.59375 268.68945 91.796875Q268.68945 90.953125 269.00195 90.265625Q269.33008 89.578125 269.92383 89.21875Q270.5332 88.84375 271.33008 88.84375Q272.5957 88.84375 273.31445 89.796875Q274.04883 90.75 274.04883 92.375L274.04883 92.6875Q274.04883 95.1875 273.06445 96.328125Q272.08008 97.46875 270.0957 97.5L269.87695 97.5L269.87695 96.59375L270.11133 96.59375Q271.45508 96.5625 272.17383 95.890625Q272.89258 95.21875 272.95508 93.75ZM271.2832 93.75Q271.83008 93.75 272.2832 93.421875Q272.75195 93.078125 272.9707 92.59375L272.9707 92.15625Q272.9707 91.09375 272.50195 90.421875Q272.0332 89.75 271.33008 89.75Q270.61133 89.75 270.17383 90.296875Q269.75195 90.84375 269.75195 91.75Q269.75195 92.625 270.1582 93.1875Q270.58008 93.75 271.2832 93.75ZM280.37695 92.703125L281.18945 92.703125Q281.9707 92.6875 282.4082 92.296875Q282.8457 91.90625 282.8457 91.234375Q282.8457 89.734375 281.3457 89.734375Q280.64258 89.734375 280.2207 90.140625Q279.81445 90.546875 279.81445 91.203125L278.7207 91.203125Q278.7207 90.1875 279.45508 89.515625Q280.20508 88.84375 281.3457 88.84375Q282.54883 88.84375 283.23633 89.484375Q283.92383 90.125 283.92383 91.265625Q283.92383 91.828125 283.56445 92.34375Q283.20508 92.859375 282.58008 93.125Q283.2832 93.34375 283.6582 93.859375Q284.04883 94.375 284.04883 95.125Q284.04883 96.265625 283.29883 96.953125Q282.54883 97.625 281.3457 97.625Q280.1582 97.625 279.39258 96.96875Q278.64258 96.3125 278.64258 95.25L279.73633 95.25Q279.73633 95.921875 280.17383 96.328125Q280.61133 96.734375 281.36133 96.734375Q282.14258 96.734375 282.54883 96.328125Q282.9707 95.90625 282.9707 95.140625Q282.9707 94.40625 282.51758 94.015625Q282.06445 93.609375 281.18945 93.59375L280.37695 93.59375L280.37695 92.703125ZM287.37695 92.703125L288.18945 92.703125Q288.9707 92.6875 289.4082 92.296875Q289.8457 91.90625 289.8457 91.234375Q289.8457 89.734375 288.3457 89.734375Q287.64258 89.734375 287.2207 90.140625Q286.81445 90.546875 286.81445 91.203125L285.7207 91.203125Q285.7207 90.1875 286.45508 89.515625Q287.20508 88.84375 288.3457 88.84375Q289.54883 88.84375 290.23633 89.484375Q290.92383 90.125 290.92383 91.265625Q290.92383 91.828125 290.56445 92.34375Q290.20508 92.859375 289.58008 93.125Q290.2832 93.34375 290.6582 93.859375Q291.04883 94.375 291.04883 95.125Q291.04883 96.265625 290.29883 96.953125Q289.54883 97.625 288.3457 97.625Q287.1582 97.625 286.39258 96.96875Q285.64258 96.3125 285.64258 95.25L286.73633 95.25Q286.73633 95.921875 287.17383 96.328125Q287.61133 96.734375 288.36133 96.734375Q289.14258 96.734375 289.54883 96.328125Q289.9707 95.90625 289.9707 95.140625Q289.9707 94.40625 289.51758 94.015625Q289.06445 93.609375 288.18945 93.59375L287.37695 93.59375L287.37695 92.703125ZM298.31445 89.578125L294.7832 97.5L293.64258 97.5L297.1582 89.859375L292.54883 89.859375L292.54883 88.96875L298.31445 88.96875L298.31445 89.578125ZM299.87695 99.203125L299.26758 98.78125Q299.81445 98.015625 299.8457 97.1875L299.8457 96.21875L300.9082 96.21875L300.9082 97.0625Q300.9082 97.65625 300.61133 98.25Q300.31445 98.84375 299.87695 99.203125ZM303.37695 92.703125L304.18945 92.703125Q304.9707 92.6875 305.4082 92.296875Q305.8457 91.90625 305.8457 91.234375Q305.8457 89.734375 304.3457 89.734375Q303.64258 89.734375 303.2207 90.140625Q302.81445 90.546875 302.81445 91.203125L301.7207 91.203125Q301.7207 90.1875 302.45508 89.515625Q303.20508 88.84375 304.3457 88.84375Q305.54883 88.84375 306.23633 89.484375Q306.92383 90.125 306.92383 91.265625Q306.92383 91.828125 306.56445 92.34375Q306.20508 92.859375 305.58008 93.125Q306.2832 93.34375 306.6582 93.859375Q307.04883 94.375 307.04883 95.125Q307.04883 96.265625 306.29883 96.953125Q305.54883 97.625 304.3457 97.625Q303.1582 97.625 302.39258 96.96875Q301.64258 96.3125 301.64258 95.25L302.73633 95.25Q302.73633 95.921875 303.17383 96.328125Q303.61133 96.734375 304.36133 96.734375Q305.14258 96.734375 305.54883 96.328125Q305.9707 95.90625 305.9707 95.140625Q305.9707 94.40625 305.51758 94.015625Q305.06445 93.609375 304.18945 93.59375L303.37695 93.59375L303.37695 92.703125ZM313.37695 94.640625L314.56445 94.640625L314.56445 95.515625L313.37695 95.515625L313.37695 97.5L312.29883 97.5L312.29883 95.515625L308.4082 95.515625L308.4082 94.875L312.2207 88.96875L313.37695 88.96875L313.37695 94.640625ZM309.64258 94.640625L312.29883 94.640625L312.29883 90.453125L312.1582 90.6875L309.64258 94.640625Z" fill-rule="nonzero"/><path fill="#ffffff" d="M267.39258 97.5L261.79883 97.5L261.79883 96.71875L264.75195 93.4375Q265.4082 92.6875 265.6582 92.234375Q265.9082 91.765625 265.9082 91.265625Q265.9082 90.59375 265.50195 90.171875Q265.11133 89.734375 264.42383 89.734375Q263.62695 89.734375 263.17383 90.203125Q262.7207 90.65625 262.7207 91.484375L261.64258 91.484375Q261.64258 90.296875 262.39258 89.578125Q263.1582 88.84375 264.42383 88.84375Q265.62695 88.84375 266.31445 89.46875Q267.00195 90.09375 267.00195 91.140625Q267.00195 92.390625 265.39258 94.140625L263.11133 96.609375L267.39258 96.609375L267.39258 97.5ZM272.95508 93.75Q272.62695 94.15625 272.14258 94.40625Q271.67383 94.640625 271.11133 94.640625Q270.37695 94.640625 269.83008 94.28125Q269.2832 93.921875 268.98633 93.265625Q268.68945 92.59375 268.68945 91.796875Q268.68945 90.953125 269.00195 90.265625Q269.33008 89.578125 269.92383 89.21875Q270.5332 88.84375 271.33008 88.84375Q272.5957 88.84375 273.31445 89.796875Q274.04883 90.75 274.04883 92.375L274.04883 92.6875Q274.04883 95.1875 273.06445 96.328125Q272.08008 97.46875 270.0957 97.5L269.87695 97.5L269.87695 96.59375L270.11133 96.59375Q271.45508 96.5625 272.17383 95.890625Q272.89258 95.21875 272.95508 93.75ZM271.2832 93.75Q271.83008 93.75 272.2832 93.421875Q272.75195 93.078125 272.9707 92.59375L272.9707 92.15625Q272.9707 91.09375 272.50195 90.421875Q272.0332 89.75 271.33008 89.75Q270.61133 89.75 270.17383 90.296875Q269.75195 90.84375 269.75195 91.75Q269.75195 92.625 270.1582 93.1875Q270.58008 93.75 271.2832 93.75ZM280.37695 92.703125L281.18945 92.703125Q281.9707 92.6875 282.4082 92.296875Q282.8457 91.90625 282.8457 91.234375Q282.8457 89.734375 281.3457 89.734375Q280.64258 89.734375 280.2207 90.140625Q279.81445 90.546875 279.81445 91.203125L278.7207 91.203125Q278.7207 90.1875 279.45508 89.515625Q280.20508 88.84375 281.3457 88.84375Q282.54883 88.84375 283.23633 89.484375Q283.92383 90.125 283.92383 91.265625Q283.92383 91.828125 283.56445 92.34375Q283.20508 92.859375 282.58008 93.125Q283.2832 93.34375 283.6582 93.859375Q284.04883 94.375 284.04883 95.125Q284.04883 96.265625 283.29883 96.953125Q282.54883 97.625 281.3457 97.625Q280.1582 97.625 279.39258 96.96875Q278.64258 96.3125 278.64258 95.25L279.73633 95.25Q279.73633 95.921875 280.17383 96.328125Q280.61133 96.734375 281.36133 96.734375Q282.14258 96.734375 282.54883 96.328125Q282.9707 95.90625 282.9707 95.140625Q282.9707 94.40625 282.51758 94.015625Q282.06445 93.609375 281.18945 93.59375L280.37695 93.59375L280.37695 92.703125ZM287.37695 92.703125L288.18945 92.703125Q288.9707 92.6875 289.4082 92.296875Q289.8457 91.90625 289.8457 91.234375Q289.8457 89.734375 288.3457 89.734375Q287.64258 89.734375 287.2207 90.140625Q286.81445 90.546875 286.81445 91.203125L285.7207 91.203125Q285.7207 90.1875 286.45508 89.515625Q287.20508 88.84375 288.3457 88.84375Q289.54883 88.84375 290.23633 89.484375Q290.92383 90.125 290.92383 91.265625Q290.92383 91.828125 290.56445 92.34375Q290.20508 92.859375 289.58008 93.125Q290.2832 93.34375 290.6582 93.859375Q291.04883 94.375 291.04883 95.125Q291.04883 96.265625 290.29883 96.953125Q289.54883 97.625 288.3457 97.625Q287.1582 97.625 286.39258 96.96875Q285.64258 96.3125 285.64258 95.25L286.73633 95.25Q286.73633 95.921875 287.17383 96.328125Q287.61133 96.734375 288.36133 96.734375Q289.14258 96.734375 289.54883 96.328125Q289.9707 95.90625 289.9707 95.140625Q289.9707 94.40625 289.51758 94.015625Q289.06445 93.609375 288.18945 93.59375L287.37695 93.59375L287.37695 92.703125ZM298.31445 89.578125L294.7832 97.5L293.64258 97.5L297.1582 89.859375L292.54883 89.859375L292.54883 88.96875L298.31445 88.96875L298.31445 89.578125ZM299.87695 99.203125L299.26758 98.78125Q299.81445 98.015625 299.8457 97.1875L299.8457 96.21875L300.9082 96.21875L300.9082 97.0625Q300.9082 97.65625 300.61133 98.25Q300.31445 98.84375 299.87695 99.203125ZM303.37695 92.703125L304.18945 92.703125Q304.9707 92.6875 305.4082 92.296875Q305.8457 91.90625 305.8457 91.234375Q305.8457 89.734375 304.3457 89.734375Q303.64258 89.734375 303.2207 90.140625Q302.81445 90.546875 302.81445 91.203125L301.7207 91.203125Q301.7207 90.1875 302.45508 89.515625Q303.20508 88.84375 304.3457 88.84375Q305.54883 88.84375 306.23633 89.484375Q306.92383 90.125 306.92383 91.265625Q306.92383 91.828125 306.56445 92.34375Q306.20508 92.859375 305.58008 93.125Q306.2832 93.34375 306.6582 93.859375Q307.04883 94.375 307.04883 95.125Q307.04883 96.265625 306.29883 96.953125Q305.54883 97.625 304.3457 97.625Q303.1582 97.625 302.39258 96.96875Q301.64258 96.3125 301.64258 95.25L302.73633 95.25Q302.73633 95.921875 303.17383 96.328125Q303.61133 96.734375 304.36133 96.734375Q305.14258 96.734375 305.54883 96.328125Q305.9707 95.90625 305.9707 95.140625Q305.9707 94.40625 305.51758 94.015625Q305.06445 93.609375 304.18945 93.59375L303.37695 93.59375L303.37695 92.703125ZM313.37695 94.640625L314.56445 94.640625L314.56445 95.515625L313.37695 95.515625L313.37695 97.5L312.29883 97.5L312.29883 95.515625L308.4082 95.515625L308.4082 94.875L312.2207 88.96875L313.37695 88.96875L313.37695 94.640625ZM309.64258 94.640625L312.29883 94.640625L312.29883 90.453125L312.1582 90.6875L309.64258 94.640625Z" fill-rule="nonzero"/><path stroke="#4285f4" stroke-width="3.0" stroke-linejoin="round" stroke-linecap="round" d="M469.40604 149.21875L469.84354 144.96875L474.21854 144.96875L474.21854 145.96875L470.7654 145.96875L470.4998 148.29688Q471.1404 147.92188 471.9373 147.92188Q473.09354 147.92188 473.78104 148.70312Q474.46854 149.46875 474.46854 150.78125Q474.46854 152.09375 473.7498 152.85938Q473.04666 153.625 471.7654 153.625Q470.6404 153.625 469.92166 153.0Q469.2029 152.35938 469.10916 151.25L470.1248 151.25Q470.23416 151.98438 470.65604 152.35938Q471.0779 152.73438 471.7654 152.73438Q472.5154 152.73438 472.9529 152.21875Q473.3904 151.70312 473.3904 150.79688Q473.3904 149.9375 472.92166 149.42188Q472.4529 148.90625 471.67166 148.90625Q470.96854 148.90625 470.5623 149.20312L470.28104 149.4375L469.40604 149.21875ZM480.48416 150.64062L481.67166 150.64062L481.67166 151.51562L480.48416 151.51562L480.48416 153.5L479.40604 153.5L479.40604 151.51562L475.5154 151.51562L475.5154 150.875L479.3279 144.96875L480.48416 144.96875L480.48416 150.64062ZM476.7498 150.64062L479.40604 150.64062L479.40604 146.45312L479.2654 146.6875L476.7498 150.64062ZM490.48416 150.64062L491.67166 150.64062L491.67166 151.51562L490.48416 151.51562L490.48416 153.5L489.40604 153.5L489.40604 151.51562L485.5154 151.51562L485.5154 150.875L489.3279 144.96875L490.48416 144.96875L490.48416 150.64062ZM486.7498 150.64062L489.40604 150.64062L489.40604 146.45312L489.2654 146.6875L486.7498 150.64062ZM498.2654 149.85938Q498.2654 151.76562 497.60916 152.70312Q496.96854 153.625 495.5779 153.625Q494.21854 153.625 493.5623 152.71875Q492.90604 151.8125 492.8748 150.0L492.8748 148.5625Q492.8748 146.67188 493.5154 145.76562Q494.17166 144.84375 495.5623 144.84375Q496.9373 144.84375 497.59354 145.73438Q498.2498 146.60938 498.2654 148.45312L498.2654 149.85938ZM497.17166 148.375Q497.17166 147.0 496.78104 146.375Q496.40604 145.73438 495.5623 145.73438Q494.73416 145.73438 494.34354 146.375Q493.96854 147.0 493.96854 148.29688L493.96854 150.03125Q493.96854 151.40625 494.35916 152.07812Q494.7654 152.73438 495.5779 152.73438Q496.3748 152.73438 496.7654 152.10938Q497.15604 151.48438 497.17166 150.15625L497.17166 148.375ZM505.09354 147.1875Q505.09354 147.82812 504.7498 148.32812Q504.40604 148.82812 503.84354 149.10938Q504.4998 149.39062 504.8904 149.95312Q505.28104 150.5 505.28104 151.20312Q505.28104 152.29688 504.53104 152.96875Q503.79666 153.625 502.5779 153.625Q501.34354 153.625 500.59354 152.96875Q499.85916 152.29688 499.85916 151.20312Q499.85916 150.5 500.23416 149.95312Q500.60916 149.39062 501.28104 149.10938Q500.71854 148.82812 500.3904 148.32812Q500.0623 147.82812 500.0623 147.1875Q500.0623 146.10938 500.7498 145.48438Q501.4373 144.84375 502.5779 144.84375Q503.7029 144.84375 504.3904 145.48438Q505.09354 146.10938 505.09354 147.1875ZM504.2029 151.17188Q504.2029 150.45312 503.7498 150.01562Q503.29666 149.5625 502.5623 149.5625Q501.8279 149.5625 501.3748 150.01562Q500.9373 150.45312 500.9373 151.1875Q500.9373 151.90625 501.3748 152.32812Q501.8123 152.73438 502.5779 152.73438Q503.3279 152.73438 503.7654 152.3125Q504.2029 151.89062 504.2029 151.17188ZM502.5779 145.73438Q501.9373 145.73438 501.53104 146.14062Q501.1404 146.53125 501.1404 147.21875Q501.1404 147.85938 501.53104 148.26562Q501.92166 148.67188 502.5623 148.67188Q503.21854 148.67188 503.60916 148.26562Q503.9998 147.85938 503.9998 147.21875Q503.9998 146.5625 503.59354 146.15625Q503.1873 145.73438 502.5779 145.73438ZM506.98416 155.20312L506.3748 154.78125Q506.92166 154.01562 506.9529 153.1875L506.9529 152.21875L508.0154 152.21875L508.0154 153.0625Q508.0154 153.65625 507.71854 154.25Q507.42166 154.84375 506.98416 155.20312ZM514.0935 147.1875Q514.0935 147.82812 513.74976 148.32812Q513.406 148.82812 512.8435 149.10938Q513.49976 149.39062 513.8904 149.95312Q514.281 150.5 514.281 151.20312Q514.281 152.29688 513.531 152.96875Q512.79663 153.625 511.5779 153.625Q510.34354 153.625 509.59354 152.96875Q508.85916 152.29688 508.85916 151.20312Q508.85916 150.5 509.23416 149.95312Q509.60916 149.39062 510.28104 149.10938Q509.71854 148.82812 509.3904 148.32812Q509.0623 147.82812 509.0623 147.1875Q509.0623 146.10938 509.7498 145.48438Q510.4373 144.84375 511.5779 144.84375Q512.7029 144.84375 513.3904 145.48438Q514.0935 146.10938 514.0935 147.1875ZM513.2029 151.17188Q513.2029 150.45312 512.74976 150.01562Q512.29663 149.5625 511.5623 149.5625Q510.8279 149.5625 510.3748 150.01562Q509.9373 150.45312 509.9373 151.1875Q509.9373 151.90625 510.3748 152.32812Q510.8123 152.73438 511.5779 152.73438Q512.3279 152.73438 512.7654 152.3125Q513.2029 151.89062 513.2029 151.17188ZM511.5779 145.73438Q510.9373 145.73438 510.53104 146.14062Q510.1404 146.53125 510.1404 147.21875Q510.1404 147.85938 510.53104 148.26562Q510.92166 148.67188 511.5623 148.67188Q512.2185 148.67188 512.60913 148.26562Q512.99976 147.85938 512.99976 147.21875Q512.99976 146.5625 512.5935 146.15625Q512.18726 145.73438 511.5779 145.73438ZM520.17163 144.96875L520.17163 145.875L519.9685 145.875Q518.7029 145.90625 517.9529 146.64062Q517.2029 147.35938 517.0779 148.67188Q517.7654 147.90625 518.92163 147.90625Q520.031 147.90625 520.7029 148.6875Q521.37476 149.46875 521.37476 150.71875Q521.37476 152.03125 520.656 152.82812Q519.93726 153.625 518.7185 153.625Q517.49976 153.625 516.73413 152.6875Q515.98413 151.73438 515.98413 150.25L515.98413 149.84375Q515.98413 147.48438 516.98413 146.23438Q517.98413 144.98438 519.9685 144.96875L520.17163 144.96875ZM518.74976 148.8125Q518.18726 148.8125 517.7185 149.14062Q517.24976 149.46875 517.06226 149.98438L517.06226 150.375Q517.06226 151.4375 517.531 152.07812Q518.0154 152.71875 518.7185 152.71875Q519.4529 152.71875 519.87476 152.1875Q520.29663 151.64062 520.29663 150.76562Q520.29663 149.89062 519.87476 149.35938Q519.4529 148.8125 518.74976 148.8125Z" fill-rule="nonzero"/><path fill="#ffffff" d="M469.40604 149.21875L469.84354 144.96875L474.21854 144.96875L474.21854 145.96875L470.7654 145.96875L470.4998 148.29688Q471.1404 147.92188 471.9373 147.92188Q473.09354 147.92188 473.78104 148.70312Q474.46854 149.46875 474.46854 150.78125Q474.46854 152.09375 473.7498 152.85938Q473.04666 153.625 471.7654 153.625Q470.6404 153.625 469.92166 153.0Q469.2029 152.35938 469.10916 151.25L470.1248 151.25Q470.23416 151.98438 470.65604 152.35938Q471.0779 152.73438 471.7654 152.73438Q472.5154 152.73438 472.9529 152.21875Q473.3904 151.70312 473.3904 150.79688Q473.3904 149.9375 472.92166 149.42188Q472.4529 148.90625 471.67166 148.90625Q470.96854 148.90625 470.5623 149.20312L470.28104 149.4375L469.40604 149.21875ZM480.48416 150.64062L481.67166 150.64062L481.67166 151.51562L480.48416 151.51562L480.48416 153.5L479.40604 153.5L479.40604 151.51562L475.5154 151.51562L475.5154 150.875L479.3279 144.96875L480.48416 144.96875L480.48416 150.64062ZM476.7498 150.64062L479.40604 150.64062L479.40604 146.45312L479.2654 146.6875L476.7498 150.64062ZM490.48416 150.64062L491.67166 150.64062L491.67166 151.51562L490.48416 151.51562L490.48416 153.5L489.40604 153.5L489.40604 151.51562L485.5154 151.51562L485.5154 150.875L489.3279 144.96875L490.48416 144.96875L490.48416 150.64062ZM486.7498 150.64062L489.40604 150.64062L489.40604 146.45312L489.2654 146.6875L486.7498 150.64062ZM498.2654 149.85938Q498.2654 151.76562 497.60916 152.70312Q496.96854 153.625 495.5779 153.625Q494.21854 153.625 493.5623 152.71875Q492.90604 151.8125 492.8748 150.0L492.8748 148.5625Q492.8748 146.67188 493.5154 145.76562Q494.17166 144.84375 495.5623 144.84375Q496.9373 144.84375 497.59354 145.73438Q498.2498 146.60938 498.2654 148.45312L498.2654 149.85938ZM497.17166 148.375Q497.17166 147.0 496.78104 146.375Q496.40604 145.73438 495.5623 145.73438Q494.73416 145.73438 494.34354 146.375Q493.96854 147.0 493.96854 148.29688L493.96854 150.03125Q493.96854 151.40625 494.35916 152.07812Q494.7654 152.73438 495.5779 152.73438Q496.3748 152.73438 496.7654 152.10938Q497.15604 151.48438 497.17166 150.15625L497.17166 148.375ZM505.09354 147.1875Q505.09354 147.82812 504.7498 148.32812Q504.40604 148.82812 503.84354 149.10938Q504.4998 149.39062 504.8904 149.95312Q505.28104 150.5 505.28104 151.20312Q505.28104 152.29688 504.53104 152.96875Q503.79666 153.625 502.5779 153.625Q501.34354 153.625 500.59354 152.96875Q499.85916 152.29688 499.85916 151.20312Q499.85916 150.5 500.23416 149.95312Q500.60916 149.39062 501.28104 149.10938Q500.71854 148.82812 500.3904 148.32812Q500.0623 147.82812 500.0623 147.1875Q500.0623 146.10938 500.7498 145.48438Q501.4373 144.84375 502.5779 144.84375Q503.7029 144.84375 504.3904 145.48438Q505.09354 146.10938 505.09354 147.1875ZM504.2029 151.17188Q504.2029 150.45312 503.7498 150.01562Q503.29666 149.5625 502.5623 149.5625Q501.8279 149.5625 501.3748 150.01562Q500.9373 150.45312 500.9373 151.1875Q500.9373 151.90625 501.3748 152.32812Q501.8123 152.73438 502.5779 152.73438Q503.3279 152.73438 503.7654 152.3125Q504.2029 151.89062 504.2029 151.17188ZM502.5779 145.73438Q501.9373 145.73438 501.53104 146.14062Q501.1404 146.53125 501.1404 147.21875Q501.1404 147.85938 501.53104 148.26562Q501.92166 148.67188 502.5623 148.67188Q503.21854 148.67188 503.60916 148.26562Q503.9998 147.85938 503.9998 147.21875Q503.9998 146.5625 503.59354 146.15625Q503.1873 145.73438 502.5779 145.73438ZM506.98416 155.20312L506.3748 154.78125Q506.92166 154.01562 506.9529 153.1875L506.9529 152.21875L508.0154 152.21875L508.0154 153.0625Q508.0154 153.65625 507.71854 154.25Q507.42166 154.84375 506.98416 155.20312ZM514.0935 147.1875Q514.0935 147.82812 513.74976 148.32812Q513.406 148.82812 512.8435 149.10938Q513.49976 149.39062 513.8904 149.95312Q514.281 150.5 514.281 151.20312Q514.281 152.29688 513.531 152.96875Q512.79663 153.625 511.5779 153.625Q510.34354 153.625 509.59354 152.96875Q508.85916 152.29688 508.85916 151.20312Q508.85916 150.5 509.23416 149.95312Q509.60916 149.39062 510.28104 149.10938Q509.71854 148.82812 509.3904 148.32812Q509.0623 147.82812 509.0623 147.1875Q509.0623 146.10938 509.7498 145.48438Q510.4373 144.84375 511.5779 144.84375Q512.7029 144.84375 513.3904 145.48438Q514.0935 146.10938 514.0935 147.1875ZM513.2029 151.17188Q513.2029 150.45312 512.74976 150.01562Q512.29663 149.5625 511.5623 149.5625Q510.8279 149.5625 510.3748 150.01562Q509.9373 150.45312 509.9373 151.1875Q509.9373 151.90625 510.3748 152.32812Q510.8123 152.73438 511.5779 152.73438Q512.3279 152.73438 512.7654 152.3125Q513.2029 151.89062 513.2029 151.17188ZM511.5779 145.73438Q510.9373 145.73438 510.53104 146.14062Q510.1404 146.53125 510.1404 147.21875Q510.1404 147.85938 510.53104 148.26562Q510.92166 148.67188 511.5623 148.67188Q512.2185 148.67188 512.60913 148.26562Q512.99976 147.85938 512.99976 147.21875Q512.99976 146.5625 512.5935 146.15625Q512.18726 145.73438 511.5779 145.73438ZM520.17163 144.96875L520.17163 145.875L519.9685 145.875Q518.7029 145.90625 517.9529 146.64062Q517.2029 147.35938 517.0779 148.67188Q517.7654 147.90625 518.92163 147.90625Q520.031 147.90625 520.7029 148.6875Q521.37476 149.46875 521.37476 150.71875Q521.37476 152.03125 520.656 152.82812Q519.93726 153.625 518.7185 153.625Q517.49976 153.625 516.73413 152.6875Q515.98413 151.73438 515.98413 150.25L515.98413 149.84375Q515.98413 147.48438 516.98413 146.23438Q517.98413 144.98438 519.9685 144.96875L520.17163 144.96875ZM518.74976 148.8125Q518.18726 148.8125 517.7185 149.14062Q517.24976 149.46875 517.06226 149.98438L517.06226 150.375Q517.06226 151.4375 517.531 152.07812Q518.0154 152.71875 518.7185 152.71875Q519.4529 152.71875 519.87476 152.1875Q520.29663 151.64062 520.29663 150.76562Q520.29663 149.89062 519.87476 149.35938Q519.4529 148.8125 518.74976 148.8125Z" fill-rule="nonzero"/><path stroke="#4285f4" stroke-width="3.0" stroke-linejoin="round" stroke-linecap="round" d="M481.32367 206.21875L481.76117 201.96875L486.13617 201.96875L486.13617 202.96875L482.68304 202.96875L482.41742 205.29688Q483.05804 204.92188 483.85492 204.92188Q485.01117 204.92188 485.69867 205.70312Q486.38617 206.46875 486.38617 207.78125Q486.38617 209.09375 485.66742 209.85938Q484.9643 210.625 483.68304 210.625Q482.55804 210.625 481.8393 210.0Q481.12054 209.35938 481.0268 208.25L482.04242 208.25Q482.1518 208.98438 482.57367 209.35938Q482.99554 209.73438 483.68304 209.73438Q484.43304 209.73438 484.87054 209.21875Q485.30804 208.70312 485.30804 207.79688Q485.30804 206.9375 484.8393 206.42188Q484.37054 205.90625 483.5893 205.90625Q482.88617 205.90625 482.47992 206.20312L482.19867 206.4375L481.32367 206.21875ZM488.32367 206.21875L488.76117 201.96875L493.13617 201.96875L493.13617 202.96875L489.68304 202.96875L489.41742 205.29688Q490.05804 204.92188 490.85492 204.92188Q492.01117 204.92188 492.69867 205.70312Q493.38617 206.46875 493.38617 207.78125Q493.38617 209.09375 492.66742 209.85938Q491.9643 210.625 490.68304 210.625Q489.55804 210.625 488.8393 210.0Q488.12054 209.35938 488.0268 208.25L489.04242 208.25Q489.1518 208.98438 489.57367 209.35938Q489.99554 209.73438 490.68304 209.73438Q491.43304 209.73438 491.87054 209.21875Q492.30804 208.70312 492.30804 207.79688Q492.30804 206.9375 491.8393 206.42188Q491.37054 205.90625 490.5893 205.90625Q489.88617 205.90625 489.47992 206.20312L489.19867 206.4375L488.32367 206.21875ZM503.01117 204.1875Q503.01117 204.82812 502.66742 205.32812Q502.32367 205.82812 501.76117 206.10938Q502.41742 206.39062 502.80804 206.95312Q503.19867 207.5 503.19867 208.20312Q503.19867 209.29688 502.44867 209.96875Q501.7143 210.625 500.49554 210.625Q499.26117 210.625 498.51117 209.96875Q497.7768 209.29688 497.7768 208.20312Q497.7768 207.5 498.1518 206.95312Q498.5268 206.39062 499.19867 206.10938Q498.63617 205.82812 498.30804 205.32812Q497.97992 204.82812 497.97992 204.1875Q497.97992 203.10938 498.66742 202.48438Q499.35492 201.84375 500.49554 201.84375Q501.62054 201.84375 502.30804 202.48438Q503.01117 203.10938 503.01117 204.1875ZM502.12054 208.17188Q502.12054 207.45312 501.66742 207.01562Q501.2143 206.5625 500.47992 206.5625Q499.74554 206.5625 499.29242 207.01562Q498.85492 207.45312 498.85492 208.1875Q498.85492 208.90625 499.29242 209.32812Q499.72992 209.73438 500.49554 209.73438Q501.24554 209.73438 501.68304 209.3125Q502.12054 208.89062 502.12054 208.17188ZM500.49554 202.73438Q499.85492 202.73438 499.44867 203.14062Q499.05804 203.53125 499.05804 204.21875Q499.05804 204.85938 499.44867 205.26562Q499.8393 205.67188 500.47992 205.67188Q501.13617 205.67188 501.5268 205.26562Q501.91742 204.85938 501.91742 204.21875Q501.91742 203.5625 501.51117 203.15625Q501.10492 202.73438 500.49554 202.73438ZM505.32367 206.21875L505.76117 201.96875L510.13617 201.96875L510.13617 202.96875L506.68304 202.96875L506.41742 205.29688Q507.05804 204.92188 507.85492 204.92188Q509.01117 204.92188 509.69867 205.70312Q510.38617 206.46875 510.38617 207.78125Q510.38617 209.09375 509.66742 209.85938Q508.9643 210.625 507.68304 210.625Q506.55804 210.625 505.8393 210.0Q505.12054 209.35938 505.0268 208.25L506.04242 208.25Q506.1518 208.98438 506.57367 209.35938Q506.99554 209.73438 507.68304 209.73438Q508.43304 209.73438 508.87054 209.21875Q509.30804 208.70312 509.30804 207.79688Q509.30804 206.9375 508.8393 206.42188Q508.37054 205.90625 507.5893 205.90625Q506.88617 205.90625 506.47992 206.20312L506.19867 206.4375L505.32367 206.21875ZM515.38617 210.5L514.30804 210.5L514.30804 203.28125L512.12054 204.07812L512.12054 203.09375L515.2299 201.92188L515.38617 201.92188L515.38617 210.5ZM518.9018 212.20312L518.2924 211.78125Q518.8393 211.01562 518.87054 210.1875L518.87054 209.21875L519.93304 209.21875L519.93304 210.0625Q519.93304 210.65625 519.63617 211.25Q519.3393 211.84375 518.9018 212.20312ZM521.32367 206.21875L521.76117 201.96875L526.13617 201.96875L526.13617 202.96875L522.68304 202.96875L522.4174 205.29688Q523.05804 204.92188 523.8549 204.92188Q525.01117 204.92188 525.69867 205.70312Q526.38617 206.46875 526.38617 207.78125Q526.38617 209.09375 525.6674 209.85938Q524.9643 210.625 523.68304 210.625Q522.55804 210.625 521.8393 210.0Q521.12054 209.35938 521.0268 208.25L522.0424 208.25Q522.1518 208.98438 522.57367 209.35938Q522.99554 209.73438 523.68304 209.73438Q524.43304 209.73438 524.87054 209.21875Q525.30804 208.70312 525.30804 207.79688Q525.30804 206.9375 524.8393 206.42188Q524.37054 205.90625 523.5893 205.90625Q522.88617 205.90625 522.4799 206.20312L522.19867 206.4375L521.32367 206.21875ZM532.0893 201.96875L532.0893 202.875L531.88617 202.875Q530.62054 202.90625 529.87054 203.64062Q529.12054 204.35938 528.99554 205.67188Q529.68304 204.90625 530.8393 204.90625Q531.94867 204.90625 532.62054 205.6875Q533.2924 206.46875 533.2924 207.71875Q533.2924 209.03125 532.57367 209.82812Q531.8549 210.625 530.63617 210.625Q529.4174 210.625 528.6518 209.6875Q527.9018 208.73438 527.9018 207.25L527.9018 206.84375Q527.9018 204.48438 528.9018 203.23438Q529.9018 201.98438 531.88617 201.96875L532.0893 201.96875ZM530.6674 205.8125Q530.1049 205.8125 529.63617 206.14062Q529.1674 206.46875 528.9799 206.98438L528.9799 207.375Q528.9799 208.4375 529.44867 209.07812Q529.93304 209.71875 530.63617 209.71875Q531.37054 209.71875 531.7924 209.1875Q532.2143 208.64062 532.2143 207.76562Q532.2143 206.89062 531.7924 206.35938Q531.37054 205.8125 530.6674 205.8125Z" fill-rule="nonzero"/><path fill="#ffffff" d="M481.32367 206.21875L481.76117 201.96875L486.13617 201.96875L486.13617 202.96875L482.68304 202.96875L482.41742 205.29688Q483.05804 204.92188 483.85492 204.92188Q485.01117 204.92188 485.69867 205.70312Q486.38617 206.46875 486.38617 207.78125Q486.38617 209.09375 485.66742 209.85938Q484.9643 210.625 483.68304 210.625Q482.55804 210.625 481.8393 210.0Q481.12054 209.35938 481.0268 208.25L482.04242 208.25Q482.1518 208.98438 482.57367 209.35938Q482.99554 209.73438 483.68304 209.73438Q484.43304 209.73438 484.87054 209.21875Q485.30804 208.70312 485.30804 207.79688Q485.30804 206.9375 484.8393 206.42188Q484.37054 205.90625 483.5893 205.90625Q482.88617 205.90625 482.47992 206.20312L482.19867 206.4375L481.32367 206.21875ZM488.32367 206.21875L488.76117 201.96875L493.13617 201.96875L493.13617 202.96875L489.68304 202.96875L489.41742 205.29688Q490.05804 204.92188 490.85492 204.92188Q492.01117 204.92188 492.69867 205.70312Q493.38617 206.46875 493.38617 207.78125Q493.38617 209.09375 492.66742 209.85938Q491.9643 210.625 490.68304 210.625Q489.55804 210.625 488.8393 210.0Q488.12054 209.35938 488.0268 208.25L489.04242 208.25Q489.1518 208.98438 489.57367 209.35938Q489.99554 209.73438 490.68304 209.73438Q491.43304 209.73438 491.87054 209.21875Q492.30804 208.70312 492.30804 207.79688Q492.30804 206.9375 491.8393 206.42188Q491.37054 205.90625 490.5893 205.90625Q489.88617 205.90625 489.47992 206.20312L489.19867 206.4375L488.32367 206.21875ZM503.01117 204.1875Q503.01117 204.82812 502.66742 205.32812Q502.32367 205.82812 501.76117 206.10938Q502.41742 206.39062 502.80804 206.95312Q503.19867 207.5 503.19867 208.20312Q503.19867 209.29688 502.44867 209.96875Q501.7143 210.625 500.49554 210.625Q499.26117 210.625 498.51117 209.96875Q497.7768 209.29688 497.7768 208.20312Q497.7768 207.5 498.1518 206.95312Q498.5268 206.39062 499.19867 206.10938Q498.63617 205.82812 498.30804 205.32812Q497.97992 204.82812 497.97992 204.1875Q497.97992 203.10938 498.66742 202.48438Q499.35492 201.84375 500.49554 201.84375Q501.62054 201.84375 502.30804 202.48438Q503.01117 203.10938 503.01117 204.1875ZM502.12054 208.17188Q502.12054 207.45312 501.66742 207.01562Q501.2143 206.5625 500.47992 206.5625Q499.74554 206.5625 499.29242 207.01562Q498.85492 207.45312 498.85492 208.1875Q498.85492 208.90625 499.29242 209.32812Q499.72992 209.73438 500.49554 209.73438Q501.24554 209.73438 501.68304 209.3125Q502.12054 208.89062 502.12054 208.17188ZM500.49554 202.73438Q499.85492 202.73438 499.44867 203.14062Q499.05804 203.53125 499.05804 204.21875Q499.05804 204.85938 499.44867 205.26562Q499.8393 205.67188 500.47992 205.67188Q501.13617 205.67188 501.5268 205.26562Q501.91742 204.85938 501.91742 204.21875Q501.91742 203.5625 501.51117 203.15625Q501.10492 202.73438 500.49554 202.73438ZM505.32367 206.21875L505.76117 201.96875L510.13617 201.96875L510.13617 202.96875L506.68304 202.96875L506.41742 205.29688Q507.05804 204.92188 507.85492 204.92188Q509.01117 204.92188 509.69867 205.70312Q510.38617 206.46875 510.38617 207.78125Q510.38617 209.09375 509.66742 209.85938Q508.9643 210.625 507.68304 210.625Q506.55804 210.625 505.8393 210.0Q505.12054 209.35938 505.0268 208.25L506.04242 208.25Q506.1518 208.98438 506.57367 209.35938Q506.99554 209.73438 507.68304 209.73438Q508.43304 209.73438 508.87054 209.21875Q509.30804 208.70312 509.30804 207.79688Q509.30804 206.9375 508.8393 206.42188Q508.37054 205.90625 507.5893 205.90625Q506.88617 205.90625 506.47992 206.20312L506.19867 206.4375L505.32367 206.21875ZM515.38617 210.5L514.30804 210.5L514.30804 203.28125L512.12054 204.07812L512.12054 203.09375L515.2299 201.92188L515.38617 201.92188L515.38617 210.5ZM518.9018 212.20312L518.2924 211.78125Q518.8393 211.01562 518.87054 210.1875L518.87054 209.21875L519.93304 209.21875L519.93304 210.0625Q519.93304 210.65625 519.63617 211.25Q519.3393 211.84375 518.9018 212.20312ZM521.32367 206.21875L521.76117 201.96875L526.13617 201.96875L526.13617 202.96875L522.68304 202.96875L522.4174 205.29688Q523.05804 204.92188 523.8549 204.92188Q525.01117 204.92188 525.69867 205.70312Q526.38617 206.46875 526.38617 207.78125Q526.38617 209.09375 525.6674 209.85938Q524.9643 210.625 523.68304 210.625Q522.55804 210.625 521.8393 210.0Q521.12054 209.35938 521.0268 208.25L522.0424 208.25Q522.1518 208.98438 522.57367 209.35938Q522.99554 209.73438 523.68304 209.73438Q524.43304 209.73438 524.87054 209.21875Q525.30804 208.70312 525.30804 207.79688Q525.30804 206.9375 524.8393 206.42188Q524.37054 205.90625 523.5893 205.90625Q522.88617 205.90625 522.4799 206.20312L522.19867 206.4375L521.32367 206.21875ZM532.0893 201.96875L532.0893 202.875L531.88617 202.875Q530.62054 202.90625 529.87054 203.64062Q529.12054 204.35938 528.99554 205.67188Q529.68304 204.90625 530.8393 204.90625Q531.94867 204.90625 532.62054 205.6875Q533.2924 206.46875 533.2924 207.71875Q533.2924 209.03125 532.57367 209.82812Q531.8549 210.625 530.63617 210.625Q529.4174 210.625 528.6518 209.6875Q527.9018 208.73438 527.9018 207.25L527.9018 206.84375Q527.9018 204.48438 528.9018 203.23438Q529.9018 201.98438 531.88617 201.96875L532.0893 201.96875ZM530.6674 205.8125Q530.1049 205.8125 529.63617 206.14062Q529.1674 206.46875 528.9799 206.98438L528.9799 207.375Q528.9799 208.4375 529.44867 209.07812Q529.93304 209.71875 530.63617 209.71875Q531.37054 209.71875 531.7924 209.1875Q532.2143 208.64062 532.2143 207.76562Q532.2143 206.89062 531.7924 206.35938Q531.37054 205.8125 530.6674 205.8125Z" fill-rule="nonzero"/><path stroke="#4285f4" stroke-width="3.0" stroke-linejoin="round" stroke-linecap="round" d="M524.8857 257.96875L524.8857 258.875L524.68256 258.875Q523.41693 258.90625 522.66693 259.64062Q521.91693 260.35938 521.79193 261.67188Q522.47943 260.90625 523.6357 260.90625Q524.74506 260.90625 525.41693 261.6875Q526.0888 262.46875 526.0888 263.71875Q526.0888 265.03125 525.37006 265.82812Q524.6513 266.625 523.43256 266.625Q522.2138 266.625 521.4482 265.6875Q520.6982 264.73438 520.6982 263.25L520.6982 262.84375Q520.6982 260.48438 521.6982 259.23438Q522.6982 257.98438 524.68256 257.96875L524.8857 257.96875ZM523.4638 261.8125Q522.9013 261.8125 522.43256 262.14062Q521.9638 262.46875 521.7763 262.98438L521.7763 263.375Q521.7763 264.4375 522.24506 265.07812Q522.72943 265.71875 523.43256 265.71875Q524.16693 265.71875 524.5888 265.1875Q525.0107 264.64062 525.0107 263.76562Q525.0107 262.89062 524.5888 262.35938Q524.16693 261.8125 523.4638 261.8125ZM532.97943 262.85938Q532.97943 264.76562 532.3232 265.70312Q531.68256 266.625 530.29193 266.625Q528.93256 266.625 528.2763 265.71875Q527.62006 264.8125 527.5888 263.0L527.5888 261.5625Q527.5888 259.67188 528.22943 258.76562Q528.8857 257.84375 530.2763 257.84375Q531.6513 257.84375 532.30756 258.73438Q532.9638 259.60938 532.97943 261.45312L532.97943 262.85938ZM531.8857 261.375Q531.8857 260.0 531.49506 259.375Q531.12006 258.73438 530.2763 258.73438Q529.4482 258.73438 529.05756 259.375Q528.68256 260.0 528.68256 261.29688L528.68256 263.03125Q528.68256 264.40625 529.0732 265.07812Q529.47943 265.73438 530.29193 265.73438Q531.0888 265.73438 531.47943 265.10938Q531.87006 264.48438 531.8857 263.15625L531.8857 261.375ZM541.8857 257.96875L541.8857 258.875L541.68256 258.875Q540.41693 258.90625 539.66693 259.64062Q538.91693 260.35938 538.79193 261.67188Q539.47943 260.90625 540.6357 260.90625Q541.74506 260.90625 542.41693 261.6875Q543.0888 262.46875 543.0888 263.71875Q543.0888 265.03125 542.37006 265.82812Q541.6513 266.625 540.43256 266.625Q539.2138 266.625 538.4482 265.6875Q537.6982 264.73438 537.6982 263.25L537.6982 262.84375Q537.6982 260.48438 538.6982 259.23438Q539.6982 257.98438 541.68256 257.96875L541.8857 257.96875ZM540.4638 261.8125Q539.9013 261.8125 539.43256 262.14062Q538.9638 262.46875 538.7763 262.98438L538.7763 263.375Q538.7763 264.4375 539.24506 265.07812Q539.72943 265.71875 540.43256 265.71875Q541.16693 265.71875 541.5888 265.1875Q542.0107 264.64062 542.0107 263.76562Q542.0107 262.89062 541.5888 262.35938Q541.16693 261.8125 540.4638 261.8125ZM548.8857 257.96875L548.8857 258.875L548.68256 258.875Q547.41693 258.90625 546.66693 259.64062Q545.91693 260.35938 545.79193 261.67188Q546.47943 260.90625 547.6357 260.90625Q548.74506 260.90625 549.41693 261.6875Q550.0888 262.46875 550.0888 263.71875Q550.0888 265.03125 549.37006 265.82812Q548.6513 266.625 547.43256 266.625Q546.2138 266.625 545.4482 265.6875Q544.6982 264.73438 544.6982 263.25L544.6982 262.84375Q544.6982 260.48438 545.6982 259.23438Q546.6982 257.98438 548.68256 257.96875L548.8857 257.96875ZM547.4638 261.8125Q546.9013 261.8125 546.43256 262.14062Q545.9638 262.46875 545.7763 262.98438L545.7763 263.375Q545.7763 264.4375 546.24506 265.07812Q546.72943 265.71875 547.43256 265.71875Q548.16693 265.71875 548.5888 265.1875Q549.0107 264.64062 549.0107 263.76562Q549.0107 262.89062 548.5888 262.35938Q548.16693 261.8125 547.4638 261.8125ZM555.7763 262.75Q555.4482 263.15625 554.9638 263.40625Q554.49506 263.64062 553.93256 263.64062Q553.1982 263.64062 552.6513 263.28125Q552.10443 262.92188 551.80756 262.26562Q551.5107 261.59375 551.5107 260.79688Q551.5107 259.95312 551.8232 259.26562Q552.1513 258.57812 552.74506 258.21875Q553.35443 257.84375 554.1513 257.84375Q555.41693 257.84375 556.1357 258.79688Q556.87006 259.75 556.87006 261.375L556.87006 261.6875Q556.87006 264.1875 555.8857 265.32812Q554.9013 266.46875 552.91693 266.5L552.6982 266.5L552.6982 265.59375L552.93256 265.59375Q554.2763 265.5625 554.99506 264.89062Q555.7138 264.21875 555.7763 262.75ZM554.10443 262.75Q554.6513 262.75 555.10443 262.42188Q555.5732 262.07812 555.79193 261.59375L555.79193 261.15625Q555.79193 260.09375 555.3232 259.42188Q554.85443 258.75 554.1513 258.75Q553.43256 258.75 552.99506 259.29688Q552.5732 259.84375 552.5732 260.75Q552.5732 261.625 552.97943 262.1875Q553.4013 262.75 554.10443 262.75ZM558.6982 268.20312L558.0888 267.78125Q558.6357 267.01562 558.66693 266.1875L558.66693 265.21875L559.72943 265.21875L559.72943 266.0625Q559.72943 266.65625 559.43256 267.25Q559.1357 267.84375 558.6982 268.20312ZM564.18256 266.5L563.10443 266.5L563.10443 259.28125L560.91693 260.07812L560.91693 259.09375L564.0263 257.92188L564.18256 257.92188L564.18256 266.5ZM572.1982 263.64062L573.3857 263.64062L573.3857 264.51562L572.1982 264.51562L572.1982 266.5L571.12006 266.5L571.12006 264.51562L567.22943 264.51562L567.22943 263.875L571.04193 257.96875L572.1982 257.96875L572.1982 263.64062ZM568.4638 263.64062L571.12006 263.64062L571.12006 259.45312L570.97943 259.6875L568.4638 263.64062Z" fill-rule="nonzero"/><path fill="#ffffff" d="M524.8857 257.96875L524.8857 258.875L524.68256 258.875Q523.41693 258.90625 522.66693 259.64062Q521.91693 260.35938 521.79193 261.67188Q522.47943 260.90625 523.6357 260.90625Q524.74506 260.90625 525.41693 261.6875Q526.0888 262.46875 526.0888 263.71875Q526.0888 265.03125 525.37006 265.82812Q524.6513 266.625 523.43256 266.625Q522.2138 266.625 521.4482 265.6875Q520.6982 264.73438 520.6982 263.25L520.6982 262.84375Q520.6982 260.48438 521.6982 259.23438Q522.6982 257.98438 524.68256 257.96875L524.8857 257.96875ZM523.4638 261.8125Q522.9013 261.8125 522.43256 262.14062Q521.9638 262.46875 521.7763 262.98438L521.7763 263.375Q521.7763 264.4375 522.24506 265.07812Q522.72943 265.71875 523.43256 265.71875Q524.16693 265.71875 524.5888 265.1875Q525.0107 264.64062 525.0107 263.76562Q525.0107 262.89062 524.5888 262.35938Q524.16693 261.8125 523.4638 261.8125ZM532.97943 262.85938Q532.97943 264.76562 532.3232 265.70312Q531.68256 266.625 530.29193 266.625Q528.93256 266.625 528.2763 265.71875Q527.62006 264.8125 527.5888 263.0L527.5888 261.5625Q527.5888 259.67188 528.22943 258.76562Q528.8857 257.84375 530.2763 257.84375Q531.6513 257.84375 532.30756 258.73438Q532.9638 259.60938 532.97943 261.45312L532.97943 262.85938ZM531.8857 261.375Q531.8857 260.0 531.49506 259.375Q531.12006 258.73438 530.2763 258.73438Q529.4482 258.73438 529.05756 259.375Q528.68256 260.0 528.68256 261.29688L528.68256 263.03125Q528.68256 264.40625 529.0732 265.07812Q529.47943 265.73438 530.29193 265.73438Q531.0888 265.73438 531.47943 265.10938Q531.87006 264.48438 531.8857 263.15625L531.8857 261.375ZM541.8857 257.96875L541.8857 258.875L541.68256 258.875Q540.41693 258.90625 539.66693 259.64062Q538.91693 260.35938 538.79193 261.67188Q539.47943 260.90625 540.6357 260.90625Q541.74506 260.90625 542.41693 261.6875Q543.0888 262.46875 543.0888 263.71875Q543.0888 265.03125 542.37006 265.82812Q541.6513 266.625 540.43256 266.625Q539.2138 266.625 538.4482 265.6875Q537.6982 264.73438 537.6982 263.25L537.6982 262.84375Q537.6982 260.48438 538.6982 259.23438Q539.6982 257.98438 541.68256 257.96875L541.8857 257.96875ZM540.4638 261.8125Q539.9013 261.8125 539.43256 262.14062Q538.9638 262.46875 538.7763 262.98438L538.7763 263.375Q538.7763 264.4375 539.24506 265.07812Q539.72943 265.71875 540.43256 265.71875Q541.16693 265.71875 541.5888 265.1875Q542.0107 264.64062 542.0107 263.76562Q542.0107 262.89062 541.5888 262.35938Q541.16693 261.8125 540.4638 261.8125ZM548.8857 257.96875L548.8857 258.875L548.68256 258.875Q547.41693 258.90625 546.66693 259.64062Q545.91693 260.35938 545.79193 261.67188Q546.47943 260.90625 547.6357 260.90625Q548.74506 260.90625 549.41693 261.6875Q550.0888 262.46875 550.0888 263.71875Q550.0888 265.03125 549.37006 265.82812Q548.6513 266.625 547.43256 266.625Q546.2138 266.625 545.4482 265.6875Q544.6982 264.73438 544.6982 263.25L544.6982 262.84375Q544.6982 260.48438 545.6982 259.23438Q546.6982 257.98438 548.68256 257.96875L548.8857 257.96875ZM547.4638 261.8125Q546.9013 261.8125 546.43256 262.14062Q545.9638 262.46875 545.7763 262.98438L545.7763 263.375Q545.7763 264.4375 546.24506 265.07812Q546.72943 265.71875 547.43256 265.71875Q548.16693 265.71875 548.5888 265.1875Q549.0107 264.64062 549.0107 263.76562Q549.0107 262.89062 548.5888 262.35938Q548.16693 261.8125 547.4638 261.8125ZM555.7763 262.75Q555.4482 263.15625 554.9638 263.40625Q554.49506 263.64062 553.93256 263.64062Q553.1982 263.64062 552.6513 263.28125Q552.10443 262.92188 551.80756 262.26562Q551.5107 261.59375 551.5107 260.79688Q551.5107 259.95312 551.8232 259.26562Q552.1513 258.57812 552.74506 258.21875Q553.35443 257.84375 554.1513 257.84375Q555.41693 257.84375 556.1357 258.79688Q556.87006 259.75 556.87006 261.375L556.87006 261.6875Q556.87006 264.1875 555.8857 265.32812Q554.9013 266.46875 552.91693 266.5L552.6982 266.5L552.6982 265.59375L552.93256 265.59375Q554.2763 265.5625 554.99506 264.89062Q555.7138 264.21875 555.7763 262.75ZM554.10443 262.75Q554.6513 262.75 555.10443 262.42188Q555.5732 262.07812 555.79193 261.59375L555.79193 261.15625Q555.79193 260.09375 555.3232 259.42188Q554.85443 258.75 554.1513 258.75Q553.43256 258.75 552.99506 259.29688Q552.5732 259.84375 552.5732 260.75Q552.5732 261.625 552.97943 262.1875Q553.4013 262.75 554.10443 262.75ZM558.6982 268.20312L558.0888 267.78125Q558.6357 267.01562 558.66693 266.1875L558.66693 265.21875L559.72943 265.21875L559.72943 266.0625Q559.72943 266.65625 559.43256 267.25Q559.1357 267.84375 558.6982 268.20312ZM564.18256 266.5L563.10443 266.5L563.10443 259.28125L560.91693 260.07812L560.91693 259.09375L564.0263 257.92188L564.18256 257.92188L564.18256 266.5ZM572.1982 263.64062L573.3857 263.64062L573.3857 264.51562L572.1982 264.51562L572.1982 266.5L571.12006 266.5L571.12006 264.51562L567.22943 264.51562L567.22943 263.875L571.04193 257.96875L572.1982 257.96875L572.1982 263.64062ZM568.4638 263.64062L571.12006 263.64062L571.12006 259.45312L570.97943 259.6875L568.4638 263.64062Z" fill-rule="nonzero"/><path fill="#000000" d="M318.29688 342.075L318.29688 340.85626L319.35938 340.85626L319.35938 342.075L318.29688 342.075ZM318.29688 349.45L318.29688 343.23126L319.35938 343.23126L319.35938 349.45L318.29688 349.45ZM320.90625 346.34064Q320.90625 344.60626 321.85938 343.77814Q322.65625 343.09064 323.8125 343.09064Q325.09375 343.09064 325.90625 343.9344Q326.73438 344.7625 326.73438 346.2469Q326.73438 347.45 326.375 348.1375Q326.01562 348.825 325.3125 349.21564Q324.625 349.59064 323.8125 349.59064Q322.51562 349.59064 321.70312 348.7625Q320.90625 347.91876 320.90625 346.34064ZM321.98438 346.34064Q321.98438 347.52814 322.5 348.1219Q323.03125 348.71564 323.8125 348.71564Q324.60938 348.71564 325.125 348.1219Q325.64062 347.52814 325.64062 346.3094Q325.64062 345.15314 325.10938 344.5594Q324.59375 343.96564 323.8125 343.96564Q323.03125 343.96564 322.5 344.5594Q321.98438 345.1375 321.98438 346.34064ZM328.29688 351.84064L328.29688 343.23126L329.25 343.23126L329.25 344.02814Q329.59375 343.5594 330.01562 343.325Q330.45312 343.09064 331.0625 343.09064Q331.85938 343.09064 332.46875 343.4969Q333.07812 343.90314 333.375 344.65314Q333.6875 345.40314 333.6875 346.29376Q333.6875 347.2469 333.34375 348.0125Q333.01562 348.77814 332.35938 349.1844Q331.70312 349.59064 330.98438 349.59064Q330.45312 349.59064 330.03125 349.3719Q329.60938 349.1375 329.34375 348.8094L329.34375 351.84064L328.29688 351.84064ZM329.25 346.3719Q329.25 347.575 329.73438 348.15314Q330.21875 348.71564 330.90625 348.71564Q331.60938 348.71564 332.10938 348.1219Q332.60938 347.52814 332.60938 346.27814Q332.60938 345.09064 332.125 344.5125Q331.64062 343.91876 330.95312 343.91876Q330.28125 343.91876 329.76562 344.54376Q329.25 345.16876 329.25 346.3719ZM334.875 347.59064L335.90625 347.4344Q336.0 348.0594 336.39062 348.3875Q336.79688 348.71564 337.53125 348.71564Q338.25 348.71564 338.59375 348.4344Q338.95312 348.1375 338.95312 347.73126Q338.95312 347.3719 338.64062 347.16876Q338.42188 347.02814 337.5625 346.8094Q336.40625 346.5125 335.95312 346.3094Q335.51562 346.09064 335.28125 345.71564Q335.04688 345.34064 335.04688 344.8719Q335.04688 344.46564 335.23438 344.10626Q335.42188 343.7469 335.75 343.5125Q336.0 343.34064 336.42188 343.21564Q336.84375 343.09064 337.34375 343.09064Q338.0625 343.09064 338.60938 343.3094Q339.17188 343.5125 339.4375 343.8719Q339.70312 344.23126 339.79688 344.825L338.76562 344.96564Q338.70312 344.4969 338.35938 344.23126Q338.03125 343.95 337.40625 343.95Q336.6875 343.95 336.375 344.2Q336.0625 344.4344 336.0625 344.7625Q336.0625 344.96564 336.1875 345.1219Q336.32812 345.29376 336.59375 345.40314Q336.75 345.46564 337.53125 345.66876Q338.65625 345.98126 339.09375 346.16876Q339.53125 346.35626 339.78125 346.71564Q340.03125 347.075 340.03125 347.6219Q340.03125 348.15314 339.71875 348.6219Q339.42188 349.075 338.84375 349.34064Q338.26562 349.59064 337.53125 349.59064Q336.3125 349.59064 335.67188 349.09064Q335.04688 348.575 334.875 347.59064Z" fill-rule="nonzero"/><path fill="#000000" d="M29.550013 200.88646L23.331263 200.88646L23.331263 199.94896L24.206263 199.94896Q23.190638 199.26146 23.190638 197.96458Q23.190638 197.40208 23.393763 196.93333Q23.596888 196.44896 23.925013 196.21458Q24.253138 195.98021 24.690638 195.88646Q24.987513 195.83958 25.721888 195.83958L29.550013 195.83958L29.550013 196.88646L25.768763 196.88646Q25.112513 196.88646 24.800013 197.01146Q24.487513 197.13646 24.300013 197.44896Q24.096888 197.76146 24.096888 198.18333Q24.096888 198.85521 24.534388 199.35521Q24.956263 199.83958 26.143763 199.83958L29.550013 199.83958L29.550013 200.88646ZM26.440638 194.27708Q24.706263 194.27708 23.878138 193.32396Q23.190638 192.52708 23.190638 191.37083Q23.190638 190.08958 24.034388 189.27708Q24.862513 188.44896 26.346888 188.44896Q27.550013 188.44896 28.237513 188.80833Q28.925013 189.16771 29.315638 189.87083Q29.690638 190.55833 29.690638 191.37083Q29.690638 192.66771 28.862513 193.48021Q28.018763 194.27708 26.440638 194.27708ZM26.440638 193.19896Q27.628138 193.19896 28.221888 192.68333Q28.815638 192.15208 28.815638 191.37083Q28.815638 190.57396 28.221888 190.05833Q27.628138 189.54271 26.409388 189.54271Q25.253138 189.54271 24.659388 190.07396Q24.065638 190.58958 24.065638 191.37083Q24.065638 192.15208 24.659388 192.68333Q25.237513 193.19896 26.440638 193.19896ZM29.550013 182.85521L28.768763 182.85521Q29.690638 183.44896 29.690638 184.58958Q29.690638 185.33958 29.284388 185.96458Q28.862513 186.58958 28.128138 186.93333Q27.393763 187.27708 26.440638 187.27708Q25.518763 187.27708 24.753138 186.96458Q23.987513 186.65208 23.596888 186.02708Q23.190638 185.40208 23.190638 184.63646Q23.190638 184.07396 23.425013 183.63646Q23.659388 183.19896 24.034388 182.91771L20.956263 182.91771L20.956263 181.87083L29.550013 181.87083L29.550013 182.85521ZM26.440638 186.18333Q27.643763 186.18333 28.237513 185.68333Q28.815638 185.18333 28.815638 184.49583Q28.815638 183.80833 28.253138 183.32396Q27.690638 182.83958 26.534388 182.83958Q25.253138 182.83958 24.659388 183.33958Q24.065638 183.82396 24.065638 184.54271Q24.065638 185.24583 24.643763 185.71458Q25.206263 186.18333 26.440638 186.18333ZM27.550013 175.63646L27.675013 174.54271Q28.628138 174.79271 29.159388 175.49583Q29.690638 176.19896 29.690638 177.27708Q29.690638 178.63646 28.846888 179.44896Q28.003138 180.24583 26.487513 180.24583Q24.925013 180.24583 24.065638 179.43333Q23.190638 178.62083 23.190638 177.33958Q23.190638 176.08958 24.034388 175.30833Q24.878138 174.51146 26.425013 174.51146Q26.518763 174.51146 26.706263 174.51146L26.706263 179.15208Q27.737513 179.08958 28.284388 178.57396Q28.815638 178.05833 28.815638 177.27708Q28.815638 176.69896 28.518763 176.29271Q28.206263 175.87083 27.550013 175.63646ZM25.846888 179.08958L25.846888 175.62083Q25.050013 175.68333 24.659388 176.01146Q24.050013 176.52708 24.050013 177.32396Q24.050013 178.05833 24.534388 178.55833Q25.018763 179.04271 25.846888 179.08958Z" fill-rule="nonzero"/><path fill="#000000" d="M53.346874 99.407295L53.346874 90.79792L54.3 90.79792L54.3 91.594795Q54.64375 91.126045 55.065624 90.89167Q55.503124 90.657295 56.1125 90.657295Q56.909374 90.657295 57.51875 91.063545Q58.128124 91.469795 58.425 92.219795Q58.7375 92.969795 58.7375 93.86042Q58.7375 94.813545 58.39375 95.57917Q58.065624 96.344795 57.409374 96.751045Q56.753124 97.157295 56.034374 97.157295Q55.503124 97.157295 55.08125 96.938545Q54.659374 96.70417 54.39375 96.376045L54.39375 99.407295L53.346874 99.407295ZM54.3 93.938545Q54.3 95.14167 54.784374 95.719795Q55.26875 96.282295 55.95625 96.282295Q56.659374 96.282295 57.159374 95.688545Q57.659374 95.094795 57.659374 93.844795Q57.659374 92.657295 57.175 92.07917Q56.690624 91.48542 56.003124 91.48542Q55.33125 91.48542 54.815624 92.11042Q54.3 92.73542 54.3 93.938545ZM62.065624 97.01667L59.70625 90.79792L60.815624 90.79792L62.159374 94.51667Q62.3625 95.126045 62.55 95.76667Q62.690624 95.282295 62.940624 94.594795L64.33125 90.79792L65.40938 90.79792L63.05 97.01667L62.065624 97.01667ZM69.59688 95.01667L70.69063 95.14167Q70.44063 96.094795 69.7375 96.626045Q69.03438 97.157295 67.95625 97.157295Q66.59688 97.157295 65.78438 96.313545Q64.9875 95.469795 64.9875 93.95417Q64.9875 92.39167 65.8 91.532295Q66.6125 90.657295 67.89375 90.657295Q69.14375 90.657295 69.925 91.501045Q70.72188 92.344795 70.72188 93.89167Q70.72188 93.98542 70.72188 94.17292L66.08125 94.17292Q66.14375 95.20417 66.65938 95.751045Q67.175 96.282295 67.95625 96.282295Q68.53438 96.282295 68.94063 95.98542Q69.3625 95.67292 69.59688 95.01667ZM66.14375 93.313545L69.6125 93.313545Q69.55 92.51667 69.22188 92.126045Q68.70625 91.51667 67.90938 91.51667Q67.175 91.51667 66.675 92.001045Q66.19063 92.48542 66.14375 93.313545Z" fill-rule="nonzero"/><path fill="#000000" d="M56.596874 152.44548L56.596874 153.4611L50.909374 153.4611Q50.909374 153.0861 51.034374 152.72673Q51.253124 152.1486 51.721874 151.5861Q52.20625 151.0236 53.1125 150.28923Q54.51875 149.13298 55.003124 148.4611Q55.503124 147.78923 55.503124 147.19548Q55.503124 146.57048 55.05 146.1486Q54.596874 145.7111 53.878124 145.7111Q53.1125 145.7111 52.659374 146.16423Q52.20625 146.61736 52.190624 147.42986L51.1125 147.32048Q51.221874 146.10173 51.940624 145.47673Q52.675 144.8361 53.909374 144.8361Q55.14375 144.8361 55.8625 145.5236Q56.58125 146.2111 56.58125 147.22673Q56.58125 147.74236 56.3625 148.24236Q56.159374 148.72673 55.659374 149.28923Q55.175 149.8361 54.05 150.78923Q53.096874 151.5861 52.815624 151.88298Q52.55 152.16423 52.378124 152.44548L56.596874 152.44548ZM58.14375 153.97673L59.175 154.13298Q59.2375 154.60173 59.534374 154.82048Q59.925 155.11736 60.596874 155.11736Q61.33125 155.11736 61.721874 154.82048Q62.128124 154.5236 62.26875 154.00798Q62.3625 153.67986 62.346874 152.6486Q61.659374 153.4611 60.628124 153.4611Q59.346874 153.4611 58.64375 152.53923Q57.940624 151.60173 57.940624 150.32048Q57.940624 149.42986 58.253124 148.67986Q58.58125 147.91423 59.190624 147.50798Q59.8 147.10173 60.628124 147.10173Q61.7375 147.10173 62.45625 147.99236L62.45625 147.24236L63.425 147.24236L63.425 152.61736Q63.425 154.07048 63.128124 154.67986Q62.83125 155.28923 62.190624 155.63298Q61.55 155.99236 60.6125 155.99236Q59.503124 155.99236 58.815624 155.49236Q58.128124 154.99236 58.14375 153.97673ZM59.01875 150.24236Q59.01875 151.4611 59.503124 152.0236Q59.9875 152.5861 60.721874 152.5861Q61.45625 152.5861 61.940624 152.0236Q62.440624 151.4611 62.440624 150.2736Q62.440624 149.13298 61.925 148.55486Q61.425 147.97673 60.70625 147.97673Q60.003124 147.97673 59.503124 148.55486Q59.01875 149.11736 59.01875 150.24236ZM66.31563 153.4611L65.33125 153.4611L65.33125 144.86736L66.39375 144.86736L66.39375 147.92986Q67.06563 147.10173 68.09688 147.10173Q68.675 147.10173 69.175 147.3361Q69.69063 147.55486 70.01875 147.97673Q70.3625 148.3986 70.55 148.99236Q70.7375 149.5861 70.7375 150.25798Q70.7375 151.85173 69.94063 152.72673Q69.14375 153.60173 68.05 153.60173Q66.94063 153.60173 66.31563 152.67986L66.31563 153.4611ZM66.3 150.30486Q66.3 151.41423 66.6125 151.91423Q67.1125 152.72673 67.95625 152.72673Q68.64375 152.72673 69.14375 152.13298Q69.65938 151.53923 69.65938 150.3361Q69.65938 149.11736 69.175 148.53923Q68.69063 147.9611 68.00313 147.9611Q67.31563 147.9611 66.8 148.57048Q66.3 149.16423 66.3 150.30486Z" fill-rule="nonzero"/><path fill="#000000" d="M54.425 209.90555L54.425 207.84305L50.70625 207.84305L50.70625 206.8743L54.628124 201.3118L55.4875 201.3118L55.4875 206.8743L56.64375 206.8743L56.64375 207.84305L55.4875 207.84305L55.4875 209.90555L54.425 209.90555ZM54.425 206.8743L54.425 203.01492L51.7375 206.8743L54.425 206.8743ZM58.14375 210.42117L59.175 210.57742Q59.2375 211.04617 59.534374 211.26492Q59.925 211.5618 60.596874 211.5618Q61.33125 211.5618 61.721874 211.26492Q62.128124 210.96805 62.26875 210.45242Q62.3625 210.1243 62.346874 209.09305Q61.659374 209.90555 60.628124 209.90555Q59.346874 209.90555 58.64375 208.98367Q57.940624 208.04617 57.940624 206.76492Q57.940624 205.8743 58.253124 205.1243Q58.58125 204.35867 59.190624 203.95242Q59.8 203.54617 60.628124 203.54617Q61.7375 203.54617 62.45625 204.4368L62.45625 203.6868L63.425 203.6868L63.425 209.0618Q63.425 210.51492 63.128124 211.1243Q62.83125 211.73367 62.190624 212.07742Q61.55 212.4368 60.6125 212.4368Q59.503124 212.4368 58.815624 211.9368Q58.128124 211.4368 58.14375 210.42117ZM59.01875 206.6868Q59.01875 207.90555 59.503124 208.46805Q59.9875 209.03055 60.721874 209.03055Q61.45625 209.03055 61.940624 208.46805Q62.440624 207.90555 62.440624 206.71805Q62.440624 205.57742 61.925 204.9993Q61.425 204.42117 60.70625 204.42117Q60.003124 204.42117 59.503124 204.9993Q59.01875 205.5618 59.01875 206.6868ZM66.31563 209.90555L65.33125 209.90555L65.33125 201.3118L66.39375 201.3118L66.39375 204.3743Q67.06563 203.54617 68.09688 203.54617Q68.675 203.54617 69.175 203.78055Q69.69063 203.9993 70.01875 204.42117Q70.3625 204.84305 70.55 205.4368Q70.7375 206.03055 70.7375 206.70242Q70.7375 208.29617 69.94063 209.17117Q69.14375 210.04617 68.05 210.04617Q66.94063 210.04617 66.31563 209.1243L66.31563 209.90555ZM66.3 206.7493Q66.3 207.85867 66.6125 208.35867Q67.1125 209.17117 67.95625 209.17117Q68.64375 209.17117 69.14375 208.57742Q69.65938 207.98367 69.65938 206.78055Q69.65938 205.5618 69.175 204.98367Q68.69063 204.40555 68.00313 204.40555Q67.31563 204.40555 66.8 205.01492Q66.3 205.60867 66.3 206.7493Z" fill-rule="nonzero"/><path fill="#000000" d="M52.675 261.69376Q52.01875 261.44376 51.690624 261.00626Q51.378124 260.55313 51.378124 259.94376Q51.378124 259.00626 52.05 258.36563Q52.7375 257.725 53.846874 257.725Q54.971874 257.725 55.659374 258.38126Q56.346874 259.0375 56.346874 259.975Q56.346874 260.56876 56.034374 261.00626Q55.721874 261.44376 55.08125 261.69376Q55.878124 261.94376 56.284374 262.52188Q56.690624 263.1 56.690624 263.89688Q56.690624 264.99063 55.909374 265.74063Q55.14375 266.49063 53.8625 266.49063Q52.596874 266.49063 51.815624 265.74063Q51.034374 264.99063 51.034374 263.86563Q51.034374 263.02188 51.45625 262.45938Q51.89375 261.89688 52.675 261.69376ZM52.45625 259.89688Q52.45625 260.50626 52.846874 260.89688Q53.253124 261.2875 53.878124 261.2875Q54.4875 261.2875 54.878124 260.9125Q55.26875 260.52188 55.26875 259.95938Q55.26875 259.38126 54.8625 258.99063Q54.45625 258.58438 53.8625 258.58438Q53.253124 258.58438 52.846874 258.975Q52.45625 259.36563 52.45625 259.89688ZM52.128124 263.86563Q52.128124 264.31876 52.33125 264.74063Q52.55 265.1625 52.971874 265.39688Q53.39375 265.63126 53.878124 265.63126Q54.628124 265.63126 55.1125 265.14688Q55.6125 264.6625 55.6125 263.9125Q55.6125 263.14688 55.1125 262.64688Q54.6125 262.14688 53.846874 262.14688Q53.096874 262.14688 52.6125 262.64688Q52.128124 263.13126 52.128124 263.86563ZM58.14375 266.86563L59.175 267.02188Q59.2375 267.49063 59.534374 267.70938Q59.925 268.00626 60.596874 268.00626Q61.33125 268.00626 61.721874 267.70938Q62.128124 267.4125 62.26875 266.89688Q62.3625 266.56876 62.346874 265.5375Q61.659374 266.35 60.628124 266.35Q59.346874 266.35 58.64375 265.42813Q57.940624 264.49063 57.940624 263.20938Q57.940624 262.31876 58.253124 261.56876Q58.58125 260.80313 59.190624 260.39688Q59.8 259.99063 60.628124 259.99063Q61.7375 259.99063 62.45625 260.88126L62.45625 260.13126L63.425 260.13126L63.425 265.50626Q63.425 266.95938 63.128124 267.56876Q62.83125 268.17813 62.190624 268.52188Q61.55 268.88126 60.6125 268.88126Q59.503124 268.88126 58.815624 268.38126Q58.128124 267.88126 58.14375 266.86563ZM59.01875 263.13126Q59.01875 264.35 59.503124 264.9125Q59.9875 265.475 60.721874 265.475Q61.45625 265.475 61.940624 264.9125Q62.440624 264.35 62.440624 263.1625Q62.440624 262.02188 61.925 261.44376Q61.425 260.86563 60.70625 260.86563Q60.003124 260.86563 59.503124 261.44376Q59.01875 262.00626 59.01875 263.13126ZM66.31563 266.35L65.33125 266.35L65.33125 257.75626L66.39375 257.75626L66.39375 260.81876Q67.06563 259.99063 68.09688 259.99063Q68.675 259.99063 69.175 260.225Q69.69063 260.44376 70.01875 260.86563Q70.3625 261.2875 70.55 261.88126Q70.7375 262.475 70.7375 263.14688Q70.7375 264.74063 69.94063 265.61563Q69.14375 266.49063 68.05 266.49063Q66.94063 266.49063 66.31563 265.56876L66.31563 266.35ZM66.3 263.19376Q66.3 264.30313 66.6125 264.80313Q67.1125 265.61563 67.95625 265.61563Q68.64375 265.61563 69.14375 265.02188Q69.65938 264.42813 69.65938 263.225Q69.65938 262.00626 69.175 261.42813Q68.69063 260.85 68.00313 260.85Q67.31563 260.85 66.8 261.45938Q66.3 262.05313 66.3 263.19376Z" fill-rule="nonzero"/><path fill="#000000" d="M66.05 313.21564Q66.05 311.6844 66.3625 310.7625Q66.675 309.825 67.28438 309.325Q67.90938 308.825 68.84688 308.825Q69.53438 308.825 70.05 309.10626Q70.58125 309.3875 70.925 309.91876Q71.26875 310.4344 71.45625 311.1844Q71.64375 311.9344 71.64375 313.21564Q71.64375 314.73126 71.33125 315.65314Q71.03438 316.575 70.40938 317.09064Q69.8 317.59064 68.84688 317.59064Q67.6125 317.59064 66.89375 316.7Q66.05 315.6375 66.05 313.21564ZM67.12813 313.21564Q67.12813 315.325 67.62813 316.02814Q68.12813 316.73126 68.84688 316.73126Q69.58125 316.73126 70.06563 316.02814Q70.56563 315.325 70.56563 313.21564Q70.56563 311.09064 70.06563 310.40314Q69.58125 309.7 68.83125 309.7Q68.1125 309.7 67.675 310.3094Q67.12813 311.09064 67.12813 313.21564ZM73.6125 317.45L73.6125 316.2469L74.81563 316.2469L74.81563 317.45Q74.81563 318.10626 74.58125 318.5125Q74.34688 318.9344 73.84688 319.15314L73.55 318.7Q73.87813 318.5594 74.03438 318.2625Q74.19063 317.98126 74.22188 317.45L73.6125 317.45ZM76.05 313.21564Q76.05 311.6844 76.3625 310.7625Q76.675 309.825 77.28438 309.325Q77.90938 308.825 78.84688 308.825Q79.53438 308.825 80.05 309.10626Q80.58125 309.3875 80.925 309.91876Q81.26875 310.4344 81.45625 311.1844Q81.64375 311.9344 81.64375 313.21564Q81.64375 314.73126 81.33125 315.65314Q81.03438 316.575 80.40938 317.09064Q79.8 317.59064 78.84688 317.59064Q77.6125 317.59064 76.89375 316.7Q76.05 315.6375 76.05 313.21564ZM77.12813 313.21564Q77.12813 315.325 77.62813 316.02814Q78.12813 316.73126 78.84688 316.73126Q79.58125 316.73126 80.06563 316.02814Q80.56563 315.325 80.56563 313.21564Q80.56563 311.09064 80.06563 310.40314Q79.58125 309.7 78.83125 309.7Q78.1125 309.7 77.675 310.3094Q77.12813 311.09064 77.12813 313.21564ZM83.05 313.21564Q83.05 311.6844 83.3625 310.7625Q83.675 309.825 84.28438 309.325Q84.90938 308.825 85.84688 308.825Q86.53438 308.825 87.05 309.10626Q87.58125 309.3875 87.925 309.91876Q88.26875 310.4344 88.45625 311.1844Q88.64375 311.9344 88.64375 313.21564Q88.64375 314.73126 88.33125 315.65314Q88.03438 316.575 87.40938 317.09064Q86.8 317.59064 85.84688 317.59064Q84.6125 317.59064 83.89375 316.7Q83.05 315.6375 83.05 313.21564ZM84.12813 313.21564Q84.12813 315.325 84.62813 316.02814Q85.12813 316.73126 85.84688 316.73126Q86.58125 316.73126 87.06563 316.02814Q87.56563 315.325 87.56563 313.21564Q87.56563 311.09064 87.06563 310.40314Q86.58125 309.7 85.83125 309.7Q85.1125 309.7 84.675 310.3094Q84.12813 311.09064 84.12813 313.21564Z" fill-rule="nonzero"/><path fill="#000000" d="M221.30998 316.4344L221.30998 317.45L215.62248 317.45Q215.62248 317.075 215.74748 316.71564Q215.96623 316.1375 216.43498 315.575Q216.91936 315.0125 217.8256 314.27814Q219.23186 313.1219 219.71623 312.45Q220.21623 311.77814 220.21623 311.1844Q220.21623 310.5594 219.7631 310.1375Q219.30998 309.7 218.59123 309.7Q217.8256 309.7 217.37248 310.15314Q216.91936 310.60626 216.90373 311.41876L215.8256 311.3094Q215.93498 310.09064 216.65373 309.46564Q217.3881 308.825 218.62248 308.825Q219.85686 308.825 220.5756 309.5125Q221.29436 310.2 221.29436 311.21564Q221.29436 311.73126 221.0756 312.23126Q220.87248 312.71564 220.37248 313.27814Q219.8881 313.825 218.7631 314.77814Q217.80998 315.575 217.52873 315.8719Q217.2631 316.15314 217.09123 316.4344L221.30998 316.4344ZM222.7631 313.21564Q222.7631 311.6844 223.0756 310.7625Q223.3881 309.825 223.99748 309.325Q224.62248 308.825 225.55998 308.825Q226.24748 308.825 226.7631 309.10626Q227.29436 309.3875 227.6381 309.91876Q227.98186 310.4344 228.16936 311.1844Q228.35686 311.9344 228.35686 313.21564Q228.35686 314.73126 228.04436 315.65314Q227.74748 316.575 227.12248 317.09064Q226.5131 317.59064 225.55998 317.59064Q224.3256 317.59064 223.60686 316.7Q222.7631 315.6375 222.7631 313.21564ZM223.84123 313.21564Q223.84123 315.325 224.34123 316.02814Q224.84123 316.73126 225.55998 316.73126Q226.29436 316.73126 226.77873 316.02814Q227.27873 315.325 227.27873 313.21564Q227.27873 311.09064 226.77873 310.40314Q226.29436 309.7 225.54436 309.7Q224.8256 309.7 224.3881 310.3094Q223.84123 311.09064 223.84123 313.21564ZM232.7631 313.21564Q232.7631 311.6844 233.0756 310.7625Q233.3881 309.825 233.99748 309.325Q234.62248 308.825 235.55998 308.825Q236.24748 308.825 236.7631 309.10626Q237.29436 309.3875 237.6381 309.91876Q237.98186 310.4344 238.16936 311.1844Q238.35686 311.9344 238.35686 313.21564Q238.35686 314.73126 238.04436 315.65314Q237.74748 316.575 237.12248 317.09064Q236.5131 317.59064 235.55998 317.59064Q234.3256 317.59064 233.60686 316.7Q232.7631 315.6375 232.7631 313.21564ZM233.84123 313.21564Q233.84123 315.325 234.34123 316.02814Q234.84123 316.73126 235.55998 316.73126Q236.29436 316.73126 236.77873 316.02814Q237.27873 315.325 237.27873 313.21564Q237.27873 311.09064 236.77873 310.40314Q236.29436 309.7 235.54436 309.7Q234.8256 309.7 234.3881 310.3094Q233.84123 311.09064 233.84123 313.21564ZM239.7631 313.21564Q239.7631 311.6844 240.0756 310.7625Q240.3881 309.825 240.99748 309.325Q241.62248 308.825 242.55998 308.825Q243.24748 308.825 243.7631 309.10626Q244.29436 309.3875 244.6381 309.91876Q244.98186 310.4344 245.16936 311.1844Q245.35686 311.9344 245.35686 313.21564Q245.35686 314.73126 245.04436 315.65314Q244.74748 316.575 244.12248 317.09064Q243.5131 317.59064 242.55998 317.59064Q241.3256 317.59064 240.60686 316.7Q239.7631 315.6375 239.7631 313.21564ZM240.84123 313.21564Q240.84123 315.325 241.34123 316.02814Q241.84123 316.73126 242.55998 316.73126Q243.29436 316.73126 243.77873 316.02814Q244.27873 315.325 244.27873 313.21564Q244.27873 311.09064 243.77873 310.40314Q243.29436 309.7 242.54436 309.7Q241.8256 309.7 241.3881 310.3094Q240.84123 311.09064 240.84123 313.21564ZM246.7631 313.21564Q246.7631 311.6844 247.0756 310.7625Q247.3881 309.825 247.99748 309.325Q248.62248 308.825 249.55998 308.825Q250.24748 308.825 250.7631 309.10626Q251.29436 309.3875 251.6381 309.91876Q251.98186 310.4344 252.16936 311.1844Q252.35686 311.9344 252.35686 313.21564Q252.35686 314.73126 252.04436 315.65314Q251.74748 316.575 251.12248 317.09064Q250.5131 317.59064 249.55998 317.59064Q248.3256 317.59064 247.60686 316.7Q246.7631 315.6375 246.7631 313.21564ZM247.84123 313.21564Q247.84123 315.325 248.34123 316.02814Q248.84123 316.73126 249.55998 316.73126Q250.29436 316.73126 250.77873 316.02814Q251.27873 315.325 251.27873 313.21564Q251.27873 311.09064 250.77873 310.40314Q250.29436 309.7 249.54436 309.7Q248.8256 309.7 248.3881 310.3094Q247.84123 311.09064 247.84123 313.21564ZM254.3256 317.45L254.3256 316.2469L255.52873 316.2469L255.52873 317.45Q255.52873 318.10626 255.29436 318.5125Q255.05998 318.9344 254.55998 319.15314L254.2631 318.7Q254.59123 318.5594 254.74748 318.2625Q254.90373 317.98126 254.93498 317.45L254.3256 317.45ZM256.76312 313.21564Q256.76312 311.6844 257.07562 310.7625Q257.38812 309.825 257.9975 309.325Q258.6225 308.825 259.56 308.825Q260.2475 308.825 260.76312 309.10626Q261.29437 309.3875 261.63812 309.91876Q261.98187 310.4344 262.16937 311.1844Q262.35687 311.9344 262.35687 313.21564Q262.35687 314.73126 262.04437 315.65314Q261.7475 316.575 261.1225 317.09064Q260.51312 317.59064 259.56 317.59064Q258.32562 317.59064 257.60687 316.7Q256.76312 315.6375 256.76312 313.21564ZM257.84125 313.21564Q257.84125 315.325 258.34125 316.02814Q258.84125 316.73126 259.56 316.73126Q260.29437 316.73126 260.77875 316.02814Q261.27875 315.325 261.27875 313.21564Q261.27875 311.09064 260.77875 310.40314Q260.29437 309.7 259.54437 309.7Q258.82562 309.7 258.38812 310.3094Q257.84125 311.09064 257.84125 313.21564ZM263.76312 313.21564Q263.76312 311.6844 264.07562 310.7625Q264.38812 309.825 264.9975 309.325Q265.6225 308.825 266.56 308.825Q267.2475 308.825 267.76312 309.10626Q268.29437 309.3875 268.63812 309.91876Q268.98187 310.4344 269.16937 311.1844Q269.35687 311.9344 269.35687 313.21564Q269.35687 314.73126 269.04437 315.65314Q268.7475 316.575 268.1225 317.09064Q267.51312 317.59064 266.56 317.59064Q265.32562 317.59064 264.60687 316.7Q263.76312 315.6375 263.76312 313.21564ZM264.84125 313.21564Q264.84125 315.325 265.34125 316.02814Q265.84125 316.73126 266.56 316.73126Q267.29437 316.73126 267.77875 316.02814Q268.27875 315.325 268.27875 313.21564Q268.27875 311.09064 267.77875 310.40314Q267.29437 309.7 266.54437 309.7Q265.82562 309.7 265.38812 310.3094Q264.84125 311.09064 264.84125 313.21564Z" fill-rule="nonzero"/><path fill="#000000" d="M384.35123 317.45L384.35123 315.3875L380.63248 315.3875L380.63248 314.41876L384.55435 308.85626L385.41373 308.85626L385.41373 314.41876L386.56998 314.41876L386.56998 315.3875L385.41373 315.3875L385.41373 317.45L384.35123 317.45ZM384.35123 314.41876L384.35123 310.5594L381.66373 314.41876L384.35123 314.41876ZM387.97623 313.21564Q387.97623 311.6844 388.28873 310.7625Q388.60123 309.825 389.2106 309.325Q389.8356 308.825 390.7731 308.825Q391.4606 308.825 391.97623 309.10626Q392.50748 309.3875 392.85123 309.91876Q393.19498 310.4344 393.38248 311.1844Q393.56998 311.9344 393.56998 313.21564Q393.56998 314.73126 393.25748 315.65314Q392.9606 316.575 392.3356 317.09064Q391.72623 317.59064 390.7731 317.59064Q389.53873 317.59064 388.81998 316.7Q387.97623 315.6375 387.97623 313.21564ZM389.05435 313.21564Q389.05435 315.325 389.55435 316.02814Q390.05435 316.73126 390.7731 316.73126Q391.50748 316.73126 391.99185 316.02814Q392.49185 315.325 392.49185 313.21564Q392.49185 311.09064 391.99185 310.40314Q391.50748 309.7 390.75748 309.7Q390.03873 309.7 389.60123 310.3094Q389.05435 311.09064 389.05435 313.21564ZM397.97623 313.21564Q397.97623 311.6844 398.28873 310.7625Q398.60123 309.825 399.2106 309.325Q399.8356 308.825 400.7731 308.825Q401.4606 308.825 401.97623 309.10626Q402.50748 309.3875 402.85123 309.91876Q403.19498 310.4344 403.38248 311.1844Q403.56998 311.9344 403.56998 313.21564Q403.56998 314.73126 403.25748 315.65314Q402.9606 316.575 402.3356 317.09064Q401.72623 317.59064 400.7731 317.59064Q399.53873 317.59064 398.81998 316.7Q397.97623 315.6375 397.97623 313.21564ZM399.05435 313.21564Q399.05435 315.325 399.55435 316.02814Q400.05435 316.73126 400.7731 316.73126Q401.50748 316.73126 401.99185 316.02814Q402.49185 315.325 402.49185 313.21564Q402.49185 311.09064 401.99185 310.40314Q401.50748 309.7 400.75748 309.7Q400.03873 309.7 399.60123 310.3094Q399.05435 311.09064 399.05435 313.21564ZM404.97623 313.21564Q404.97623 311.6844 405.28873 310.7625Q405.60123 309.825 406.2106 309.325Q406.8356 308.825 407.7731 308.825Q408.4606 308.825 408.97623 309.10626Q409.50748 309.3875 409.85123 309.91876Q410.19498 310.4344 410.38248 311.1844Q410.56998 311.9344 410.56998 313.21564Q410.56998 314.73126 410.25748 315.65314Q409.9606 316.575 409.3356 317.09064Q408.72623 317.59064 407.7731 317.59064Q406.53873 317.59064 405.81998 316.7Q404.97623 315.6375 404.97623 313.21564ZM406.05435 313.21564Q406.05435 315.325 406.55435 316.02814Q407.05435 316.73126 407.7731 316.73126Q408.50748 316.73126 408.99185 316.02814Q409.49185 315.325 409.49185 313.21564Q409.49185 311.09064 408.99185 310.40314Q408.50748 309.7 407.75748 309.7Q407.03873 309.7 406.60123 310.3094Q406.05435 311.09064 406.05435 313.21564ZM411.97623 313.21564Q411.97623 311.6844 412.28873 310.7625Q412.60123 309.825 413.2106 309.325Q413.8356 308.825 414.7731 308.825Q415.4606 308.825 415.97623 309.10626Q416.50748 309.3875 416.85123 309.91876Q417.19498 310.4344 417.38248 311.1844Q417.56998 311.9344 417.56998 313.21564Q417.56998 314.73126 417.25748 315.65314Q416.9606 316.575 416.3356 317.09064Q415.72623 317.59064 414.7731 317.59064Q413.53873 317.59064 412.81998 316.7Q411.97623 315.6375 411.97623 313.21564ZM413.05435 313.21564Q413.05435 315.325 413.55435 316.02814Q414.05435 316.73126 414.7731 316.73126Q415.50748 316.73126 415.99185 316.02814Q416.49185 315.325 416.49185 313.21564Q416.49185 311.09064 415.99185 310.40314Q415.50748 309.7 414.75748 309.7Q414.03873 309.7 413.60123 310.3094Q413.05435 311.09064 413.05435 313.21564ZM419.53873 317.45L419.53873 316.2469L420.74185 316.2469L420.74185 317.45Q420.74185 318.10626 420.50748 318.5125Q420.2731 318.9344 419.7731 319.15314L419.47623 318.7Q419.80435 318.5594 419.9606 318.2625Q420.11685 317.98126 420.1481 317.45L419.53873 317.45ZM421.97623 313.21564Q421.97623 311.6844 422.28873 310.7625Q422.60123 309.825 423.2106 309.325Q423.8356 308.825 424.7731 308.825Q425.4606 308.825 425.97623 309.10626Q426.50748 309.3875 426.85123 309.91876Q427.19498 310.4344 427.38248 311.1844Q427.56998 311.9344 427.56998 313.21564Q427.56998 314.73126 427.25748 315.65314Q426.9606 316.575 426.3356 317.09064Q425.72623 317.59064 424.7731 317.59064Q423.53873 317.59064 422.81998 316.7Q421.97623 315.6375 421.97623 313.21564ZM423.05435 313.21564Q423.05435 315.325 423.55435 316.02814Q424.05435 316.73126 424.7731 316.73126Q425.50748 316.73126 425.99185 316.02814Q426.49185 315.325 426.49185 313.21564Q426.49185 311.09064 425.99185 310.40314Q425.50748 309.7 424.75748 309.7Q424.03873 309.7 423.60123 310.3094Q423.05435 311.09064 423.05435 313.21564ZM428.97623 313.21564Q428.97623 311.6844 429.28873 310.7625Q429.60123 309.825 430.2106 309.325Q430.8356 308.825 431.7731 308.825Q432.4606 308.825 432.97623 309.10626Q433.50748 309.3875 433.85123 309.91876Q434.19498 310.4344 434.38248 311.1844Q434.56998 311.9344 434.56998 313.21564Q434.56998 314.73126 434.25748 315.65314Q433.9606 316.575 433.3356 317.09064Q432.72623 317.59064 431.7731 317.59064Q430.53873 317.59064 429.81998 316.7Q428.97623 315.6375 428.97623 313.21564ZM430.05435 313.21564Q430.05435 315.325 430.55435 316.02814Q431.05435 316.73126 431.7731 316.73126Q432.50748 316.73126 432.99185 316.02814Q433.49185 315.325 433.49185 313.21564Q433.49185 311.09064 432.99185 310.40314Q432.50748 309.7 431.75748 309.7Q431.03873 309.7 430.60123 310.3094Q430.05435 311.09064 430.05435 313.21564Z" fill-rule="nonzero"/><path fill="#757575" d="M20.409374 37.55L20.409374 23.2375L22.315624 23.2375L22.315624 37.55L20.409374 37.55ZM25.51875 30.58125Q25.51875 27.01875 27.425 25.003124Q29.346874 22.971874 32.378124 22.971874Q34.3625 22.971874 35.940624 23.925Q37.534374 24.878124 38.3625 26.58125Q39.20625 28.26875 39.20625 30.409374Q39.20625 32.58125 38.33125 34.3Q37.45625 36.01875 35.83125 36.909374Q34.221874 37.8 32.3625 37.8Q30.346874 37.8 28.753124 36.83125Q27.159374 35.846874 26.33125 34.159374Q25.51875 32.45625 25.51875 30.58125ZM27.471874 30.6125Q27.471874 33.190624 28.8625 34.690624Q30.253124 36.175 32.346874 36.175Q34.4875 36.175 35.8625 34.675Q37.253124 33.159374 37.253124 30.39375Q37.253124 28.659374 36.659374 27.3625Q36.08125 26.05 34.940624 25.33125Q33.8 24.6125 32.378124 24.6125Q30.378124 24.6125 28.925 26.003124Q27.471874 27.378124 27.471874 30.6125ZM42.096874 37.55L42.096874 23.2375L47.4875 23.2375Q48.925 23.2375 49.675 23.3625Q50.721874 23.55 51.440624 24.05Q52.159374 24.534374 52.58125 25.425Q53.01875 26.315624 53.01875 27.378124Q53.01875 29.20625 51.846874 30.471874Q50.690624 31.721874 47.659374 31.721874L43.9875 31.721874L43.9875 37.55L42.096874 37.55ZM43.9875 30.034374L47.690624 30.034374Q49.51875 30.034374 50.284374 29.3625Q51.065624 28.675 51.065624 27.425Q51.065624 26.534374 50.6125 25.89375Q50.159374 25.253124 49.425 25.05Q48.940624 24.925 47.64375 24.925L43.9875 24.925L43.9875 30.034374ZM54.45625 32.95625L56.2375 32.8Q56.3625 33.8625 56.815624 34.55Q57.284374 35.2375 58.253124 35.675Q59.2375 36.096874 60.471874 36.096874Q61.55 36.096874 62.378124 35.784374Q63.20625 35.45625 63.6125 34.89375Q64.01875 34.33125 64.01875 33.659374Q64.01875 32.9875 63.628124 32.4875Q63.2375 31.9875 62.346874 31.64375Q61.76875 31.409374 59.784374 30.940624Q57.815624 30.471874 57.034374 30.05Q56.003124 29.51875 55.503124 28.721874Q55.003124 27.925 55.003124 26.940624Q55.003124 25.846874 55.6125 24.909374Q56.221874 23.971874 57.409374 23.4875Q58.596874 22.9875 60.034374 22.9875Q61.628124 22.9875 62.846874 23.503124Q64.06563 24.01875 64.70625 25.01875Q65.3625 26.003124 65.40938 27.26875L63.596874 27.409374Q63.45625 26.05 62.6125 25.3625Q61.76875 24.659374 60.1125 24.659374Q58.39375 24.659374 57.596874 25.3Q56.815624 25.925 56.815624 26.8Q56.815624 27.58125 57.378124 28.08125Q57.925 28.58125 60.2375 29.096874Q62.55 29.6125 63.409374 30.003124Q64.65938 30.58125 65.25313 31.471874Q65.84688 32.346874 65.84688 33.503124Q65.84688 34.64375 65.19063 35.659374Q64.53438 36.675 63.3 37.2375Q62.08125 37.8 60.55 37.8Q58.6125 37.8 57.3 37.2375Q55.9875 36.659374 55.2375 35.51875Q54.4875 34.378124 54.45625 32.95625Z" fill-rule="nonzero"/></svg>